<svg xmlns="http://www.w3.org/2000/svg" width="358.1pt" height="214pt" viewBox="129.2 192 358.1 214"><line x1="140" y1="380" x2="462" y2="380" stroke="rgba(205,214,244,1)" stroke-width="1" /><polygon points="470,380 463.0717967697245,384 463.0717967697245,376" fill="rgba(205,214,244,1)" /><line x1="160" y1="390" x2="160" y2="218" stroke="rgba(205,214,244,1)" stroke-width="1" /><polygon points="160,210 164,216.9282032302755 156,216.9282032302755" fill="rgba(205,214,244,1)" /><text x="476" y="380" font-size="11" fill="rgba(205,214,244,1)" font-family="serif" text-anchor="middle" dominant-baseline="middle">t</text><text x="148" y="206" font-size="11" fill="rgba(205,214,244,1)" font-family="serif" text-anchor="middle" dominant-baseline="middle">U</text><line x1="160" y1="230" x2="450" y2="230" stroke="rgba(127,132,156,1)" stroke-width="0.6" /><text x="142" y="230" font-size="8" fill="rgba(127,132,156,1)" font-family="serif" text-anchor="middle" dominant-baseline="middle">U0</text><path d="M 160 380 C 200 300, 260 240, 360 232" fill="none" stroke="rgba(137,180,250,1)" stroke-width="1.8" /><path d="M 360 232 C 400 232, 420 234, 450 236" fill="none" stroke="rgba(137,180,250,1)" stroke-width="1.8" /><text x="420" y="222" font-size="7" fill="rgba(137,180,250,1)" font-family="serif" text-anchor="middle" dominant-baseline="middle">зарядка</text><path d="M 160 230 C 200 310, 260 370, 360 378" fill="none" stroke="rgba(137,180,250,0.6)" stroke-width="1.8" /><path d="M 360 378 C 400 378, 420 376, 450 376" fill="none" stroke="rgba(137,180,250,0.6)" stroke-width="1.8" /><text x="420" y="388" font-size="7" fill="rgba(137,180,250,0.6)" font-family="serif" text-anchor="middle" dominant-baseline="middle">разрядка</text><line x1="280" y1="380" x2="280" y2="200" stroke="rgba(127,132,156,1)" stroke-width="0.6" /><text x="280" y="394" font-size="8" fill="rgba(127,132,156,1)" font-family="serif" text-anchor="middle" dominant-baseline="middle">t</text></svg>