<svg xmlns="http://www.w3.org/2000/svg" width="510.79999999999995pt" height="254pt" viewBox="20 74 510.79999999999995 254"><line x1="60" y1="300" x2="492" y2="300" stroke="rgba(127,132,156,1)" stroke-width="1" /><polygon points="500,300 493.0717967697245,304 493.0717967697245,296" fill="rgba(127,132,156,1)" /><line x1="80" y1="320" x2="80" y2="108" stroke="rgba(127,132,156,1)" stroke-width="1" /><polygon points="80,100 84,106.92820323027551 76,106.92820323027551" fill="rgba(127,132,156,1)" /><text x="512" y="300" font-size="12" fill="rgba(205,214,244,1)" font-family="serif" font-style="italic" text-anchor="middle" dominant-baseline="middle">t</text><text x="80" y="88" font-size="12" fill="rgba(205,214,244,1)" font-family="serif" font-style="italic" text-anchor="middle" dominant-baseline="middle">I</text><line x1="80" y1="120" x2="480" y2="120" stroke="rgba(127,132,156,1)" stroke-width="1" /><text x="46" y="120" font-size="10" fill="rgba(205,214,244,1)" font-family="serif" font-style="italic" text-anchor="middle" dominant-baseline="middle">U₀/R</text><path d="M 80 300 C 147 180, 213 161, 280 144" fill="none" stroke="rgba(137,180,250,1)" stroke-width="2" /><path d="M 280 144 C 347 128, 413 124, 480 123" fill="none" stroke="rgba(137,180,250,1)" stroke-width="2" /><path d="M 80 120 C 147 240, 213 259, 280 276" fill="none" stroke="rgba(137,180,250,0.4)" stroke-width="2" /><path d="M 280 276 C 347 292, 413 296, 480 297" fill="none" stroke="rgba(137,180,250,0.4)" stroke-width="2" /><line x1="180" y1="300" x2="180" y2="186" stroke="rgba(127,132,156,1)" stroke-width="1" /><line x1="80" y1="186" x2="180" y2="186" stroke="rgba(127,132,156,1)" stroke-width="1" stroke-dasharray="5 4" /><text x="180" y="313" font-size="10" fill="rgba(205,214,244,1)" font-family="serif" font-style="italic" text-anchor="middle" dominant-baseline="middle">τ</text><text x="56" y="172" font-size="9" fill="rgba(127,132,156,1)" font-family="serif" text-anchor="middle" dominant-baseline="middle">63%</text><text x="390" y="102" font-size="10" fill="rgba(137,180,250,1)" font-family="serif" text-anchor="middle" dominant-baseline="middle">включение</text><text x="390" y="258" font-size="10" fill="rgba(137,180,250,0.4)" font-family="serif" text-anchor="middle" dominant-baseline="middle">выключение</text></svg>