<svg xmlns="http://www.w3.org/2000/svg" width="291pt" height="190.89999999999998pt" viewBox="142 224 291 190.89999999999998"><line x1="150" y1="386" x2="205" y2="386" stroke="rgba(0,0,0,1)" stroke-width="2" /><line x1="205" y1="386" x2="205" y2="232" stroke="rgba(0,0,0,1)" stroke-width="2" /><path d="M 205 232 C 206.67 234.26, 211.67 241.63, 215 245.54" fill="none" stroke="rgba(0,0,0,1)" stroke-width="2" /><path d="M 215 245.54 C 218.33 249.45, 221.67 252.54999999999998, 225 255.47" fill="none" stroke="rgba(0,0,0,1)" stroke-width="2" /><path d="M 225 255.47 C 228.33 258.39, 231.67 260.8, 235 263.06" fill="none" stroke="rgba(0,0,0,1)" stroke-width="2" /><path d="M 235 263.06 C 238.33 265.32, 241.67 267.25, 245 269.05" fill="none" stroke="rgba(0,0,0,1)" stroke-width="2" /><path d="M 245 269.05 C 248.33 270.86, 251.67 272.43, 255 273.90000000000003" fill="none" stroke="rgba(0,0,0,1)" stroke-width="2" /><path d="M 255 273.9 C 258.33 275.38, 261.67 276.67999999999995, 265 277.90999999999997" fill="none" stroke="rgba(0,0,0,1)" stroke-width="2" /><path d="M 265 277.91 C 268.33 279.14000000000004, 271.67 280.24, 275 281.28000000000003" fill="none" stroke="rgba(0,0,0,1)" stroke-width="2" /><path d="M 275 281.28 C 278.33 282.32, 281.67 283.26, 285 284.15" fill="none" stroke="rgba(0,0,0,1)" stroke-width="2" /><path d="M 285 284.15 C 288.33 285.03999999999996, 291.67 285.84999999999997, 295 286.62" fill="none" stroke="rgba(0,0,0,1)" stroke-width="2" /><path d="M 295 286.62 C 298.33 287.39, 301.67 288.1, 305 288.77" fill="none" stroke="rgba(0,0,0,1)" stroke-width="2" /><path d="M 305 288.77 C 308.33 289.44, 311.67 290.07, 315 290.65999999999997" fill="none" stroke="rgba(0,0,0,1)" stroke-width="2" /><path d="M 315 290.67 C 318.33 291.26, 321.67 291.82, 325 292.35" fill="none" stroke="rgba(0,0,0,1)" stroke-width="2" /><path d="M 325 292.34 C 328.33 292.86999999999995, 331.67 293.35999999999996, 335 293.83" fill="none" stroke="rgba(0,0,0,1)" stroke-width="2" /><path d="M 335 293.84 C 338.33 294.31, 341.67 294.76, 345 295.17999999999995" fill="none" stroke="rgba(0,0,0,1)" stroke-width="2" /><path d="M 345 295.18 C 348.33 295.61, 351.67 296.01, 355 296.39" fill="none" stroke="rgba(0,0,0,1)" stroke-width="2" /><path d="M 355 296.39 C 358.33 296.77, 361.67 297.14, 365 297.49" fill="none" stroke="rgba(0,0,0,1)" stroke-width="2" /><path d="M 365 297.49 C 368.33 297.84000000000003, 371.67 298.17, 375 298.49" fill="none" stroke="rgba(0,0,0,1)" stroke-width="2" /><path d="M 375 298.49 C 378.33 298.81, 381.67 299.11, 385 299.41" fill="none" stroke="rgba(0,0,0,1)" stroke-width="2" /><path d="M 385 299.4 C 388.33 299.69, 391.67 299.96999999999997, 395 300.23999999999995" fill="none" stroke="rgba(0,0,0,1)" stroke-width="2" /><path d="M 395 300.24 C 398.33 300.51, 401.67 300.77, 405 301.01" fill="none" stroke="rgba(0,0,0,1)" stroke-width="2" /><path d="M 405 301.02 C 408.33 301.27, 411.67 301.51, 415 301.74" fill="none" stroke="rgba(0,0,0,1)" stroke-width="2" /><path d="M 415 301.74 C 418.33 301.97, 423.33 302.29, 425 302.40000000000003" fill="none" stroke="rgba(0,0,0,1)" stroke-width="2" /><text x="177.5" y="401.4" font-size="11" fill="rgba(0,0,0,1)" font-family="serif" text-anchor="middle" dominant-baseline="middle">яма ядра</text><text x="353.5" y="251.25" font-size="11" fill="rgba(0,0,0,1)" font-family="serif" text-anchor="middle" dominant-baseline="middle">кулоновский барьер</text><line x1="152.75" y1="289.75" x2="205" y2="289.75" stroke="rgba(103,135,188,1)" stroke-width="1.7" /><circle cx="177.5" cy="289.75" r="4.5" fill="rgba(103,135,188,1)"  /><text x="177.5" y="272.15" font-size="12" fill="rgba(103,135,188,1)" font-family="serif" text-anchor="middle" dominant-baseline="middle">α</text><line x1="207.75" y1="289.75" x2="303.15" y2="289.75" stroke="rgba(182,104,126,1)" stroke-width="1.7" stroke-dasharray="5 4" /><polygon points="311.15,289.75 304.22179676972445,293.75 304.22179676972445,285.75" fill="rgba(182,104,126,1)" /><text x="260" y="277.1" font-size="11" fill="rgba(182,104,126,1)" font-family="serif" text-anchor="middle" dominant-baseline="middle">туннель</text><line x1="315" y1="289.75" x2="378.5" y2="289.75" stroke="rgba(125,170,121,1)" stroke-width="2" /><polygon points="386.5,289.75 379.5717967697245,293.75 379.5717967697245,285.75" fill="rgba(125,170,121,1)" /><text x="356.25" y="277.1" font-size="11" fill="rgba(125,170,121,1)" font-family="serif" text-anchor="middle" dominant-baseline="middle">наружу</text></svg>