<svg xmlns="http://www.w3.org/2000/svg" width="204pt" height="114pt" viewBox="202 243 204 114"><line x1="210" y1="270" x2="210" y2="330" stroke="rgba(0,0,0,1)" stroke-width="2" /><line x1="230" y1="270" x2="230" y2="330" stroke="rgba(0,0,0,1)" stroke-width="2" /><line x1="214" y1="295" x2="221.2" y2="295" stroke="rgba(103,135,188,0.6)" stroke-width="0.8" /><polygon points="226,295 219.0717967697245,299 219.0717967697245,291" fill="rgba(103,135,188,0.6)" /><line x1="214" y1="305" x2="221.2" y2="305" stroke="rgba(103,135,188,0.6)" stroke-width="0.8" /><polygon points="226,305 219.0717967697245,309 219.0717967697245,301" fill="rgba(103,135,188,0.6)" /><text x="220" y="256" font-size="10" fill="rgba(0,0,0,1)" font-family="serif" text-anchor="middle" dominant-baseline="middle">C</text><text x="220" y="344" font-size="10" fill="rgba(103,135,188,1)" font-family="serif" text-anchor="middle" dominant-baseline="middle">E</text><text x="300" y="300" font-size="12" fill="rgba(100,100,100,1)" font-family="serif" text-anchor="middle" dominant-baseline="middle">↔</text><circle cx="376" cy="285" r="6" fill="none" stroke="rgba(0,0,0,1)" stroke-width="1.5" /><circle cx="376" cy="300" r="6" fill="none" stroke="rgba(0,0,0,1)" stroke-width="1.5" /><circle cx="376" cy="315" r="6" fill="none" stroke="rgba(0,0,0,1)" stroke-width="1.5" /><line x1="370" y1="265" x2="370" y2="279" stroke="rgba(0,0,0,1)" stroke-width="1.5" /><line x1="370" y1="321" x2="370" y2="335" stroke="rgba(0,0,0,1)" stroke-width="1.5" /><line x1="384" y1="295" x2="392.4" y2="295" stroke="rgba(103,135,188,1)" stroke-width="0.8" /><polygon points="398,295 391.0717967697245,299 391.0717967697245,291" fill="rgba(103,135,188,1)" /><line x1="384" y1="305" x2="392.4" y2="305" stroke="rgba(103,135,188,1)" stroke-width="0.8" /><polygon points="398,305 391.0717967697245,309 391.0717967697245,301" fill="rgba(103,135,188,1)" /><text x="370" y="256" font-size="10" fill="rgba(0,0,0,1)" font-family="serif" text-anchor="middle" dominant-baseline="middle">L</text><text x="370" y="344" font-size="10" fill="rgba(103,135,188,1)" font-family="serif" text-anchor="middle" dominant-baseline="middle">B</text></svg>