<svg xmlns="http://www.w3.org/2000/svg" width="550pt" height="165.1pt" viewBox="122 162.9 550 165.1"><rect x="130" y="188" width="55" height="132" fill="rgba(87,149,177,0.2)" stroke="rgba(100,100,100,1)" stroke-width="1" /><text x="157.5" y="175.9" font-size="10" fill="rgba(0,0,0,1)" font-family="serif" text-anchor="middle" dominant-baseline="middle">металл</text><path d="M 185 204.5 C 186.15 206.12, 189.58 211.24, 191.88 214.21" fill="none" stroke="rgba(188,134,101,1)" stroke-width="2" /><path d="M 191.88 214.21 C 194.17 217.19, 196.46 219.86, 198.76 222.36" fill="none" stroke="rgba(188,134,101,1)" stroke-width="2" /><path d="M 198.75 222.37 C 201.04 224.87, 203.33 227.12, 205.63 229.21" fill="none" stroke="rgba(188,134,101,1)" stroke-width="2" /><path d="M 205.63 229.21 C 207.92 231.31, 210.21 233.19, 212.51 234.96" fill="none" stroke="rgba(188,134,101,1)" stroke-width="2" /><path d="M 212.5 234.96 C 214.79 236.72, 217.08 238.3, 219.38 239.78" fill="none" stroke="rgba(188,134,101,1)" stroke-width="2" /><path d="M 219.38 239.78 C 221.67 241.26, 223.96 242.59, 226.26 243.83" fill="none" stroke="rgba(188,134,101,1)" stroke-width="2" /><path d="M 226.25 243.83 C 228.54 245.07000000000002, 230.83 246.19000000000003, 233.13 247.23000000000002" fill="none" stroke="rgba(188,134,101,1)" stroke-width="2" /><path d="M 233.13 247.23 C 235.42 248.26999999999998, 237.71 249.20999999999998, 240.01 250.07999999999998" fill="none" stroke="rgba(188,134,101,1)" stroke-width="2" /><path d="M 240 250.08 C 242.29 250.95000000000002, 244.58 251.74, 246.88 252.48000000000002" fill="none" stroke="rgba(188,134,101,1)" stroke-width="2" /><path d="M 246.88 252.48 C 249.17 253.20999999999998, 251.46 253.86999999999998, 253.76 254.48999999999998" fill="none" stroke="rgba(188,134,101,1)" stroke-width="2" /><path d="M 253.75 254.49 C 256.04 255.11, 258.33 255.66, 260.63 256.18" fill="none" stroke="rgba(188,134,101,1)" stroke-width="2" /><path d="M 260.63 256.17 C 262.92 256.69, 265.21 257.15000000000003, 267.51 257.59000000000003" fill="none" stroke="rgba(188,134,101,1)" stroke-width="2" /><path d="M 267.5 257.59 C 269.79 258.02, 272.08 258.40999999999997, 274.38 258.78" fill="none" stroke="rgba(188,134,101,1)" stroke-width="2" /><path d="M 274.38 258.78 C 276.67 259.14, 278.96 259.46999999999997, 281.26 259.78" fill="none" stroke="rgba(188,134,101,1)" stroke-width="2" /><path d="M 281.25 259.78 C 283.54 260.09, 285.83 260.35999999999996, 288.13 260.61999999999995" fill="none" stroke="rgba(188,134,101,1)" stroke-width="2" /><path d="M 288.13 260.62 C 290.42 260.88, 292.71 261.11, 295.01 261.32" fill="none" stroke="rgba(188,134,101,1)" stroke-width="2" /><path d="M 295 261.32 C 297.29 261.54, 299.58 261.73, 301.88 261.90999999999997" fill="none" stroke="rgba(188,134,101,1)" stroke-width="2" /><path d="M 301.88 261.91 C 304.17 262.09000000000003, 306.46 262.25, 308.76 262.41" fill="none" stroke="rgba(188,134,101,1)" stroke-width="2" /><path d="M 308.75 262.41 C 311.04 262.56, 313.33 262.70000000000005, 315.63 262.83000000000004" fill="none" stroke="rgba(188,134,101,1)" stroke-width="2" /><path d="M 315.63 262.82 C 317.92 262.95, 320.21 263.06, 322.51 263.17" fill="none" stroke="rgba(188,134,101,1)" stroke-width="2" /><path d="M 322.5 263.17 C 324.79 263.28000000000003, 327.08 263.37, 329.38 263.46000000000004" fill="none" stroke="rgba(188,134,101,1)" stroke-width="2" /><path d="M 329.38 263.47 C 331.67 263.56, 333.96 263.64000000000004, 336.26 263.72" fill="none" stroke="rgba(188,134,101,1)" stroke-width="2" /><path d="M 336.25 263.71 C 338.54 263.78999999999996, 340.83 263.84999999999997, 343.13 263.91999999999996" fill="none" stroke="rgba(188,134,101,1)" stroke-width="2" /><path d="M 343.13 263.92 C 345.42 263.98, 348.86 264.06, 350.01 264.09000000000003" fill="none" stroke="rgba(188,134,101,1)" stroke-width="2" /><text x="300.5" y="280.4" font-size="10" fill="rgba(0,0,0,1)" font-family="serif" text-anchor="middle" dominant-baseline="middle">n-кремний 10¹⁶</text><text x="273" y="185.25" font-size="10" fill="rgba(188,134,101,1)" font-family="serif" text-anchor="middle" dominant-baseline="middle">барьер широкий: диод</text><rect x="438" y="188" width="55" height="132" fill="rgba(87,149,177,0.2)" stroke="rgba(100,100,100,1)" stroke-width="1" /><text x="465.5" y="175.9" font-size="10" fill="rgba(0,0,0,1)" font-family="serif" text-anchor="middle" dominant-baseline="middle">металл</text><path d="M 493 204.5 C 494.15 210.38, 497.58 231.45, 499.88 239.78" fill="none" stroke="rgba(125,170,121,1)" stroke-width="2" /><path d="M 499.88 239.78 C 502.17 248.11, 504.46 251.01, 506.76 254.49" fill="none" stroke="rgba(125,170,121,1)" stroke-width="2" /><path d="M 506.75 254.49 C 509.04 257.96000000000004, 511.33 259.17, 513.63 260.62" fill="none" stroke="rgba(125,170,121,1)" stroke-width="2" /><path d="M 513.63 260.62 C 515.92 262.07, 518.21 262.57, 520.51 263.18" fill="none" stroke="rgba(125,170,121,1)" stroke-width="2" /><path d="M 520.5 263.17 C 522.79 263.77000000000004, 525.08 263.98, 527.38 264.24" fill="none" stroke="rgba(125,170,121,1)" stroke-width="2" /><path d="M 527.38 264.24 C 529.67 264.49, 531.96 264.58, 534.26 264.68" fill="none" stroke="rgba(125,170,121,1)" stroke-width="2" /><path d="M 534.25 264.68 C 536.54 264.78000000000003, 538.83 264.82, 541.13 264.87" fill="none" stroke="rgba(125,170,121,1)" stroke-width="2" /><path d="M 541.13 264.87 C 543.42 264.91, 545.71 264.93, 548.01 264.95" fill="none" stroke="rgba(125,170,121,1)" stroke-width="2" /><path d="M 548 264.94 C 550.29 264.96, 552.58 264.96, 554.88 264.96999999999997" fill="none" stroke="rgba(125,170,121,1)" stroke-width="2" /><path d="M 554.88 264.98 C 557.17 264.99, 559.46 264.99, 561.76 264.99" fill="none" stroke="rgba(125,170,121,1)" stroke-width="2" /><path d="M 561.75 264.99 C 564.04 264.99, 566.33 264.99, 568.63 265" fill="none" stroke="rgba(125,170,121,1)" stroke-width="2" /><path d="M 568.63 265 C 570.92 265, 573.21 265, 575.51 265" fill="none" stroke="rgba(125,170,121,1)" stroke-width="2" /><path d="M 575.5 265 C 577.79 265, 580.08 265, 582.38 265" fill="none" stroke="rgba(125,170,121,1)" stroke-width="2" /><path d="M 582.38 265 C 584.67 265, 586.96 265, 589.26 265" fill="none" stroke="rgba(125,170,121,1)" stroke-width="2" /><path d="M 589.25 265 C 591.54 265, 593.83 265, 596.13 265" fill="none" stroke="rgba(125,170,121,1)" stroke-width="2" /><path d="M 596.13 265 C 598.42 265, 600.71 265, 603.01 265" fill="none" stroke="rgba(125,170,121,1)" stroke-width="2" /><path d="M 603 265 C 605.29 265, 607.58 265, 609.88 265" fill="none" stroke="rgba(125,170,121,1)" stroke-width="2" /><path d="M 609.88 265 C 612.17 265, 614.46 265, 616.76 265" fill="none" stroke="rgba(125,170,121,1)" stroke-width="2" /><path d="M 616.75 265 C 619.04 265, 621.33 265, 623.63 265" fill="none" stroke="rgba(125,170,121,1)" stroke-width="2" /><path d="M 623.63 265 C 625.92 265, 628.21 265, 630.51 265" fill="none" stroke="rgba(125,170,121,1)" stroke-width="2" /><path d="M 630.5 265 C 632.79 265, 635.08 265, 637.38 265" fill="none" stroke="rgba(125,170,121,1)" stroke-width="2" /><path d="M 637.38 265 C 639.67 265, 641.96 265, 644.26 265" fill="none" stroke="rgba(125,170,121,1)" stroke-width="2" /><path d="M 644.25 265 C 646.54 265, 648.83 265, 651.13 265" fill="none" stroke="rgba(125,170,121,1)" stroke-width="2" /><path d="M 651.13 265 C 653.42 265, 656.86 265, 658.01 265" fill="none" stroke="rgba(125,170,121,1)" stroke-width="2" /><text x="603" y="280.4" font-size="10" fill="rgba(0,0,0,1)" font-family="serif" text-anchor="middle" dominant-baseline="middle">n⁺-кремний 10²⁰</text><line x1="490.25" y1="234.75" x2="509.75" y2="234.75" stroke="rgba(103,135,188,1)" stroke-width="1.7" /><polygon points="517.75,234.75 510.8217967697245,238.75 510.8217967697245,230.75" fill="rgba(103,135,188,1)" /><text x="592" y="216.6" font-size="10" fill="rgba(103,135,188,1)" font-family="serif" text-anchor="middle" dominant-baseline="middle">туннель насквозь: провод</text></svg>