<svg xmlns="http://www.w3.org/2000/svg" width="378.8pt" height="280.5pt" viewBox="132 168.5 378.8 280.5"><line x1="140" y1="320" x2="473" y2="320" stroke="rgba(127,132,156,1)" stroke-width="1" /><polygon points="481,320 474.0717967697245,324 474.0717967697245,316" fill="rgba(127,132,156,1)" /><line x1="156.5" y1="441" x2="156.5" y2="196" stroke="rgba(127,132,156,1)" stroke-width="1" /><polygon points="156.5,188 160.5,194.9282032302755 152.5,194.9282032302755" fill="rgba(127,132,156,1)" /><text x="492" y="323.85" font-size="12" fill="rgba(205,214,244,1)" font-family="serif" font-style="italic" text-anchor="middle" dominant-baseline="middle">r</text><text x="170.25" y="182.5" font-size="12" fill="rgba(205,214,244,1)" font-family="serif" font-style="italic" text-anchor="middle" dominant-baseline="middle">E</text><path d="M 177.13 187.22 C 179.01 196.32, 184.64 228.29, 188.39 241.85" fill="none" stroke="rgba(137,180,250,1)" stroke-width="1.5" stroke-dasharray="5 4" /><path d="M 188.39 241.84 C 192.14 255.4, 195.89999999999998 261.61, 199.64999999999998 268.57" fill="none" stroke="rgba(137,180,250,1)" stroke-width="1.5" stroke-dasharray="5 4" /><path d="M 199.65 268.57 C 203.4 275.53, 207.16 279.55, 210.91 283.61" fill="none" stroke="rgba(137,180,250,1)" stroke-width="1.5" stroke-dasharray="5 4" /><path d="M 210.92 283.61 C 214.67 287.67, 218.42999999999998 290.33000000000004, 222.17999999999998 292.90000000000003" fill="none" stroke="rgba(137,180,250,1)" stroke-width="1.5" stroke-dasharray="5 4" /><path d="M 222.18 292.9 C 225.93 295.46999999999997, 229.69 297.29999999999995, 233.44 299.03999999999996" fill="none" stroke="rgba(137,180,250,1)" stroke-width="1.5" stroke-dasharray="5 4" /><path d="M 233.45 299.04 C 237.2 300.77000000000004, 240.95999999999998 302.08000000000004, 244.70999999999998 303.31" fill="none" stroke="rgba(137,180,250,1)" stroke-width="1.5" stroke-dasharray="5 4" /><path d="M 244.71 303.31 C 248.46 304.54, 252.22 305.5, 255.97 306.39" fill="none" stroke="rgba(137,180,250,1)" stroke-width="1.5" stroke-dasharray="5 4" /><path d="M 255.98 306.39 C 259.73 307.28999999999996, 263.49 308.01, 267.24 308.69" fill="none" stroke="rgba(137,180,250,1)" stroke-width="1.5" stroke-dasharray="5 4" /><path d="M 267.24 308.7 C 270.99 309.38, 274.75 309.94, 278.5 310.46" fill="none" stroke="rgba(137,180,250,1)" stroke-width="1.5" stroke-dasharray="5 4" /><path d="M 278.5 310.46 C 282.25 310.97999999999996, 286.01 311.43, 289.76 311.84" fill="none" stroke="rgba(137,180,250,1)" stroke-width="1.5" stroke-dasharray="5 4" /><path d="M 289.77 311.84 C 293.52 312.25, 297.28 312.60999999999996, 301.03 312.94" fill="none" stroke="rgba(137,180,250,1)" stroke-width="1.5" stroke-dasharray="5 4" /><path d="M 301.03 312.94 C 304.78 313.27, 308.53999999999996 313.56, 312.28999999999996 313.83" fill="none" stroke="rgba(137,180,250,1)" stroke-width="1.5" stroke-dasharray="5 4" /><path d="M 312.3 313.84 C 316.05 314.10999999999996, 319.81 314.34999999999997, 323.56 314.57" fill="none" stroke="rgba(137,180,250,1)" stroke-width="1.5" stroke-dasharray="5 4" /><path d="M 323.56 314.57 C 327.31 314.79, 331.07 314.99, 334.82 315.18" fill="none" stroke="rgba(137,180,250,1)" stroke-width="1.5" stroke-dasharray="5 4" /><path d="M 334.83 315.18 C 338.58 315.37, 342.34 315.53000000000003, 346.09 315.69" fill="none" stroke="rgba(137,180,250,1)" stroke-width="1.5" stroke-dasharray="5 4" /><path d="M 346.09 315.69 C 349.84 315.85, 353.59999999999997 315.99, 357.34999999999997 316.13" fill="none" stroke="rgba(137,180,250,1)" stroke-width="1.5" stroke-dasharray="5 4" /><path d="M 357.36 316.13 C 361.11 316.26, 364.87 316.39, 368.62 316.5" fill="none" stroke="rgba(137,180,250,1)" stroke-width="1.5" stroke-dasharray="5 4" /><path d="M 368.62 316.5 C 372.37 316.62, 376.13 316.72, 379.88 316.82" fill="none" stroke="rgba(137,180,250,1)" stroke-width="1.5" stroke-dasharray="5 4" /><path d="M 379.88 316.82 C 383.63 316.92, 387.39 317.01, 391.14 317.09999999999997" fill="none" stroke="rgba(137,180,250,1)" stroke-width="1.5" stroke-dasharray="5 4" /><path d="M 391.15 317.1 C 394.9 317.19, 398.65999999999997 317.27000000000004, 402.40999999999997 317.34000000000003" fill="none" stroke="rgba(137,180,250,1)" stroke-width="1.5" stroke-dasharray="5 4" /><path d="M 402.41 317.34 C 406.16 317.41999999999996, 409.92 317.48999999999995, 413.67 317.54999999999995" fill="none" stroke="rgba(137,180,250,1)" stroke-width="1.5" stroke-dasharray="5 4" /><path d="M 413.68 317.56 C 417.43 317.63, 421.19 317.69, 424.94 317.75" fill="none" stroke="rgba(137,180,250,1)" stroke-width="1.5" stroke-dasharray="5 4" /><path d="M 424.94 317.75 C 428.69 317.81, 432.45 317.87, 436.2 317.92" fill="none" stroke="rgba(137,180,250,1)" stroke-width="1.5" stroke-dasharray="5 4" /><path d="M 436.21 317.91 C 439.96 317.96000000000004, 443.71999999999997 318.01000000000005, 447.46999999999997 318.06" fill="none" stroke="rgba(137,180,250,1)" stroke-width="1.5" stroke-dasharray="5 4" /><path d="M 447.47 318.06 C 451.22 318.11, 454.98 318.15, 458.73 318.19" fill="none" stroke="rgba(137,180,250,1)" stroke-width="1.5" stroke-dasharray="5 4" /><path d="M 458.74 318.2 C 462.49 318.24, 468.13 318.3, 470 318.32" fill="none" stroke="rgba(137,180,250,1)" stroke-width="1.5" stroke-dasharray="5 4" /><path d="M 196.65 437.48 C 198.72 433.96000000000004, 204.93 422.32, 209.07 416.35" fill="none" stroke="rgba(243,139,168,1)" stroke-width="1.5" stroke-dasharray="5 4" /><path d="M 209.08 416.34 C 213.22 410.36999999999995, 217.36 405.9, 221.51000000000002 401.65" fill="none" stroke="rgba(243,139,168,1)" stroke-width="1.5" stroke-dasharray="5 4" /><path d="M 221.5 401.66 C 225.64 397.41, 229.78 394.04, 233.92 390.86" fill="none" stroke="rgba(243,139,168,1)" stroke-width="1.5" stroke-dasharray="5 4" /><path d="M 233.93 390.85 C 238.07 387.67, 242.21 385.04, 246.35 382.57000000000005" fill="none" stroke="rgba(243,139,168,1)" stroke-width="1.5" stroke-dasharray="5 4" /><path d="M 246.35 382.58 C 250.48999999999998 380.10999999999996, 254.63 378.01, 258.77 376.03" fill="none" stroke="rgba(243,139,168,1)" stroke-width="1.5" stroke-dasharray="5 4" /><path d="M 258.77 376.03 C 262.90999999999997 374.04999999999995, 267.04999999999995 372.34, 271.2 370.71999999999997" fill="none" stroke="rgba(243,139,168,1)" stroke-width="1.5" stroke-dasharray="5 4" /><path d="M 271.2 370.72 C 275.34 369.1, 279.47999999999996 367.68, 283.62 366.33000000000004" fill="none" stroke="rgba(243,139,168,1)" stroke-width="1.5" stroke-dasharray="5 4" /><path d="M 283.63 366.34 C 287.77 364.98999999999995, 291.90999999999997 363.78999999999996, 296.05 362.65" fill="none" stroke="rgba(243,139,168,1)" stroke-width="1.5" stroke-dasharray="5 4" /><path d="M 296.05 362.65 C 300.19 361.51, 304.33 360.47999999999996, 308.48 359.5" fill="none" stroke="rgba(243,139,168,1)" stroke-width="1.5" stroke-dasharray="5 4" /><path d="M 308.48 359.5 C 312.62 358.52, 316.76 357.63, 320.90000000000003 356.79" fill="none" stroke="rgba(243,139,168,1)" stroke-width="1.5" stroke-dasharray="5 4" /><path d="M 320.9 356.79 C 325.03999999999996 355.94, 329.17999999999995 355.17, 333.32 354.43" fill="none" stroke="rgba(243,139,168,1)" stroke-width="1.5" stroke-dasharray="5 4" /><path d="M 333.33 354.42 C 337.46999999999997 353.68, 341.60999999999996 352.99, 345.76 352.34000000000003" fill="none" stroke="rgba(243,139,168,1)" stroke-width="1.5" stroke-dasharray="5 4" /><path d="M 345.75 352.35 C 349.89 351.70000000000005, 354.03 351.09000000000003, 358.17 350.51000000000005" fill="none" stroke="rgba(243,139,168,1)" stroke-width="1.5" stroke-dasharray="5 4" /><path d="M 358.18 350.5 C 362.32 349.92, 366.46 349.38, 370.6 348.86" fill="none" stroke="rgba(243,139,168,1)" stroke-width="1.5" stroke-dasharray="5 4" /><path d="M 370.6 348.86 C 374.74 348.34000000000003, 378.88 347.85, 383.03000000000003 347.38" fill="none" stroke="rgba(243,139,168,1)" stroke-width="1.5" stroke-dasharray="5 4" /><path d="M 383.03 347.38 C 387.16999999999996 346.90999999999997, 391.30999999999995 346.46999999999997, 395.45 346.05" fill="none" stroke="rgba(243,139,168,1)" stroke-width="1.5" stroke-dasharray="5 4" /><path d="M 395.45 346.05 C 399.59 345.63, 403.72999999999996 345.23, 407.87 344.84000000000003" fill="none" stroke="rgba(243,139,168,1)" stroke-width="1.5" stroke-dasharray="5 4" /><path d="M 407.88 344.84 C 412.02 344.46, 416.15999999999997 344.09, 420.31 343.73999999999995" fill="none" stroke="rgba(243,139,168,1)" stroke-width="1.5" stroke-dasharray="5 4" /><path d="M 420.3 343.74 C 424.44 343.39, 428.58 343.05, 432.72 342.73" fill="none" stroke="rgba(243,139,168,1)" stroke-width="1.5" stroke-dasharray="5 4" /><path d="M 432.73 342.73 C 436.87 342.41, 441.01 342.1, 445.15000000000003 341.8" fill="none" stroke="rgba(243,139,168,1)" stroke-width="1.5" stroke-dasharray="5 4" /><path d="M 445.15 341.81 C 449.28999999999996 341.51, 453.42999999999995 341.23, 457.57 340.96" fill="none" stroke="rgba(243,139,168,1)" stroke-width="1.5" stroke-dasharray="5 4" /><path d="M 457.58 340.96 C 461.71999999999997 340.69, 467.93 340.29999999999995, 470.01 340.16999999999996" fill="none" stroke="rgba(243,139,168,1)" stroke-width="1.5" stroke-dasharray="5 4" /><path d="M 172.45 351.28 C 174.1 355.25, 179.06 370.28, 182.36999999999998 375.11999999999995" fill="none" stroke="rgba(166,227,161,1)" stroke-width="2.2" /><path d="M 182.37 375.12 C 185.68 379.96, 188.98000000000002 379.57, 192.29 380.33" fill="none" stroke="rgba(166,227,161,1)" stroke-width="2.2" /><path d="M 192.29 380.34 C 195.6 381.09999999999997, 198.9 380.22999999999996, 202.20999999999998 379.69" fill="none" stroke="rgba(166,227,161,1)" stroke-width="2.2" /><path d="M 202.21 379.69 C 205.52 379.15, 208.82000000000002 378.05, 212.13 377.09" fill="none" stroke="rgba(166,227,161,1)" stroke-width="2.2" /><path d="M 212.12 377.09 C 215.43 376.13, 218.73000000000002 374.98999999999995, 222.04 373.92999999999995" fill="none" stroke="rgba(166,227,161,1)" stroke-width="2.2" /><path d="M 222.04 373.93 C 225.35 372.87, 228.65 371.77, 231.95999999999998 370.73" fill="none" stroke="rgba(166,227,161,1)" stroke-width="2.2" /><path d="M 231.96 370.73 C 235.27 369.69, 238.57000000000002 368.67, 241.88 367.69" fill="none" stroke="rgba(166,227,161,1)" stroke-width="2.2" /><path d="M 241.88 367.69 C 245.19 366.71999999999997, 248.49 365.78, 251.79999999999998 364.88" fill="none" stroke="rgba(166,227,161,1)" stroke-width="2.2" /><path d="M 251.8 364.88 C 255.11 363.99, 258.41 363.13, 261.72 362.32" fill="none" stroke="rgba(166,227,161,1)" stroke-width="2.2" /><path d="M 261.72 362.32 C 265.03000000000003 361.51, 268.33000000000004 360.73, 271.64000000000004 359.99" fill="none" stroke="rgba(166,227,161,1)" stroke-width="2.2" /><path d="M 271.63 360 C 274.94 359.26, 278.24 358.56, 281.55 357.89" fill="none" stroke="rgba(166,227,161,1)" stroke-width="2.2" /><path d="M 281.55 357.88 C 284.86 357.21, 288.16 356.57, 291.47 355.96" fill="none" stroke="rgba(166,227,161,1)" stroke-width="2.2" /><path d="M 291.47 355.96 C 294.78000000000003 355.34999999999997, 298.08000000000004 354.77, 301.39000000000004 354.21" fill="none" stroke="rgba(166,227,161,1)" stroke-width="2.2" /><path d="M 301.39 354.21 C 304.7 353.65, 308 353.12, 311.31 352.60999999999996" fill="none" stroke="rgba(166,227,161,1)" stroke-width="2.2" /><path d="M 311.31 352.61 C 314.62 352.1, 317.92 351.62, 321.23 351.15000000000003" fill="none" stroke="rgba(166,227,161,1)" stroke-width="2.2" /><path d="M 321.23 351.15 C 324.54 350.67999999999995, 327.84000000000003 350.23999999999995, 331.15000000000003 349.81" fill="none" stroke="rgba(166,227,161,1)" stroke-width="2.2" /><path d="M 331.14 349.81 C 334.45 349.38, 337.75 348.97, 341.06 348.57" fill="none" stroke="rgba(166,227,161,1)" stroke-width="2.2" /><path d="M 341.06 348.57 C 344.37 348.17, 347.67 347.8, 350.98 347.43" fill="none" stroke="rgba(166,227,161,1)" stroke-width="2.2" /><path d="M 350.98 347.43 C 354.29 347.06, 357.59000000000003 346.71, 360.90000000000003 346.37" fill="none" stroke="rgba(166,227,161,1)" stroke-width="2.2" /><path d="M 360.9 346.38 C 364.21 346.04, 367.51 345.71999999999997, 370.82 345.4" fill="none" stroke="rgba(166,227,161,1)" stroke-width="2.2" /><path d="M 370.82 345.4 C 374.13 345.09, 377.43 344.78, 380.74 344.48999999999995" fill="none" stroke="rgba(166,227,161,1)" stroke-width="2.2" /><path d="M 380.74 344.49 C 384.05 344.2, 387.35 343.91, 390.66 343.64" fill="none" stroke="rgba(166,227,161,1)" stroke-width="2.2" /><path d="M 390.65 343.64 C 393.96 343.37, 397.26 343.09999999999997, 400.57 342.84999999999997" fill="none" stroke="rgba(166,227,161,1)" stroke-width="2.2" /><path d="M 400.57 342.84 C 403.88 342.58, 407.18 342.34, 410.49 342.09999999999997" fill="none" stroke="rgba(166,227,161,1)" stroke-width="2.2" /><path d="M 410.49 342.1 C 413.8 341.86, 417.1 341.63, 420.41 341.40000000000003" fill="none" stroke="rgba(166,227,161,1)" stroke-width="2.2" /><path d="M 420.41 341.41 C 423.72 341.18, 427.02000000000004 340.97, 430.33000000000004 340.76000000000005" fill="none" stroke="rgba(166,227,161,1)" stroke-width="2.2" /><path d="M 430.33 340.75 C 433.64 340.54, 436.94 340.33, 440.25 340.13" fill="none" stroke="rgba(166,227,161,1)" stroke-width="2.2" /><path d="M 440.25 340.14 C 443.56 339.94, 446.86 339.75, 450.17 339.56" fill="none" stroke="rgba(166,227,161,1)" stroke-width="2.2" /><path d="M 450.16 339.55 C 453.47 339.36, 456.77000000000004 339.18, 460.08000000000004 339" fill="none" stroke="rgba(166,227,161,1)" stroke-width="2.2" /><path d="M 460.08 339.01 C 463.39 338.83, 468.34999999999997 338.58, 470 338.49" fill="none" stroke="rgba(166,227,161,1)" stroke-width="2.2" /><text x="398.5" y="295.25" font-size="11" fill="rgba(137,180,250,1)" font-family="serif" text-anchor="middle" dominant-baseline="middle">теснота +h²/2mr²</text><text x="398.5" y="362.9" font-size="11" fill="rgba(243,139,168,1)" font-family="serif" text-anchor="middle" dominant-baseline="middle">притяжение −ke²/r</text><text x="299.5" y="405.25" font-size="11" fill="rgba(166,227,161,1)" font-family="serif" text-anchor="middle" dominant-baseline="middle">сумма: есть дно</text><line x1="195" y1="320" x2="195" y2="380.5" stroke="rgba(127,132,156,1)" stroke-width="1" stroke-dasharray="5 4" /><text x="195" y="306.25" font-size="11" fill="rgba(205,214,244,1)" font-family="serif" font-style="italic" text-anchor="middle" dominant-baseline="middle">r₀</text></svg>