<svg xmlns="http://www.w3.org/2000/svg" width="369.05pt" height="202.4pt" viewBox="103 169.6 369.05 202.4"><line x1="126" y1="320" x2="437" y2="320" stroke="rgba(127,132,156,1)" stroke-width="1" /><polygon points="445,320 438.0717967697245,324 438.0717967697245,316" fill="rgba(127,132,156,1)" /><line x1="280" y1="364" x2="280" y2="196" stroke="rgba(127,132,156,1)" stroke-width="1" /><polygon points="280,188 284,194.9282032302755 276,194.9282032302755" fill="rgba(127,132,156,1)" /><text x="453.25" y="323.85" font-size="12" fill="rgba(205,214,244,1)" font-family="serif" font-style="italic" text-anchor="middle" dominant-baseline="middle">U</text><text x="288.8" y="183.6" font-size="12" fill="rgba(205,214,244,1)" font-family="serif" font-style="italic" text-anchor="middle" dominant-baseline="middle">I</text><path d="M 280 320 C 287.33 319.63, 311.17 319.17, 324 317.8" fill="none" stroke="rgba(137,180,250,1)" stroke-width="2" /><path d="M 324 317.8 C 336.83 316.43, 347.83 315.51, 357 311.75" fill="none" stroke="rgba(137,180,250,1)" stroke-width="2" /><path d="M 357 311.75 C 366.17 307.99, 372.58 303.04, 379 295.25" fill="none" stroke="rgba(137,180,250,1)" stroke-width="2" /><path d="M 379 295.25 C 385.42 287.46, 390.46 278.29, 395.5 265" fill="none" stroke="rgba(137,180,250,1)" stroke-width="2" /><path d="M 395.5 265 C 400.54 251.71, 406.96 223.75, 409.25 215.5" fill="none" stroke="rgba(137,180,250,1)" stroke-width="2" /><line x1="280" y1="323.3" x2="137" y2="324.95" stroke="rgba(137,180,250,1)" stroke-width="2" /><text x="357" y="210" font-size="10" fill="rgba(137,180,250,1)" font-family="serif" text-anchor="middle" dominant-baseline="middle">прямое: открывается</text><text x="192" y="343.1" font-size="10" fill="rgba(137,180,250,1)" font-family="serif" text-anchor="middle" dominant-baseline="middle">обратное: $−I₀$, почти ноль</text><line x1="390" y1="320" x2="390" y2="328.25" stroke="rgba(127,132,156,1)" stroke-width="1" /><text x="390" y="342" font-size="10" fill="rgba(205,214,244,1)" font-family="serif" text-anchor="middle" dominant-baseline="middle">~0.7 В</text></svg>