<svg xmlns="http://www.w3.org/2000/svg" width="444.5pt" height="198.5pt" viewBox="34.8 82 444.5 198.5"><rect x="80" y="90" width="120" height="140" fill="rgba(103,135,188,0.2)" stroke="rgba(100,100,100,1)" stroke-width="1" /><circle cx="140" cy="160" r="40" fill="none" stroke="rgba(103,135,188,1)" stroke-width="2" /><line x1="132" y1="120" x2="142.8" y2="120" stroke="rgba(103,135,188,1)" stroke-width="1" /><polygon points="150,120 143.0717967697245,124 143.0717967697245,116" fill="rgba(103,135,188,1)" /><circle cx="140" cy="160" r="18" fill="none" stroke="rgba(103,135,188,0.6)" stroke-width="1" /><rect x="340" y="90" width="18" height="140" fill="rgba(103,135,188,0.2)" stroke="rgba(100,100,100,1)" stroke-width="1" /><rect x="362" y="90" width="18" height="140" fill="rgba(103,135,188,0.2)" stroke="rgba(100,100,100,1)" stroke-width="1" /><rect x="384" y="90" width="18" height="140" fill="rgba(103,135,188,0.2)" stroke="rgba(100,100,100,1)" stroke-width="1" /><rect x="406" y="90" width="18" height="140" fill="rgba(103,135,188,0.2)" stroke="rgba(100,100,100,1)" stroke-width="1" /><rect x="428" y="90" width="18" height="140" fill="rgba(103,135,188,0.2)" stroke="rgba(100,100,100,1)" stroke-width="1" /><circle cx="349" cy="160" r="6" fill="none" stroke="rgba(103,135,188,1)" stroke-width="1" /><circle cx="371" cy="160" r="6" fill="none" stroke="rgba(103,135,188,1)" stroke-width="1" /><circle cx="393" cy="160" r="6" fill="none" stroke="rgba(103,135,188,1)" stroke-width="1" /><circle cx="415" cy="160" r="6" fill="none" stroke="rgba(103,135,188,1)" stroke-width="1" /><circle cx="437" cy="160" r="6" fill="none" stroke="rgba(103,135,188,1)" stroke-width="1" /><text x="140" y="252" font-size="10" fill="rgba(0,0,0,1)" font-family="serif" text-anchor="middle" dominant-baseline="middle">сплошной сердечник</text><text x="393" y="252" font-size="10" fill="rgba(0,0,0,1)" font-family="serif" text-anchor="middle" dominant-baseline="middle">ламинированный</text><text x="140" y="268" font-size="9" fill="rgba(100,100,100,1)" font-family="serif" text-anchor="middle" dominant-baseline="middle">вихрям просторно — сердечник греется</text><text x="393" y="268" font-size="9" fill="rgba(100,100,100,1)" font-family="serif" text-anchor="middle" dominant-baseline="middle">вихри заперты в тонких листах</text></svg>