<svg xmlns="http://www.w3.org/2000/svg" width="384.5pt" height="156.25pt" viewBox="132 171.75 384.5 156.25"><rect x="305" y="199" width="66" height="121" fill="rgba(188,134,101,0.2)" stroke="rgba(100,100,100,1)" stroke-width="1" /><text x="338" y="185.25" font-size="11" fill="rgba(0,0,0,1)" font-family="serif" text-anchor="middle" dominant-baseline="middle">барьер</text><path d="M 140 265 C 140.69 263.65, 142.75 259.46, 144.13 256.87" fill="none" stroke="rgba(103,135,188,1)" stroke-width="2" /><path d="M 144.13 256.87 C 145.5 254.28, 146.88 251.70000000000002, 148.26 249.47" fill="none" stroke="rgba(103,135,188,1)" stroke-width="2" /><path d="M 148.25 249.47 C 149.62 247.23, 151 245.14, 152.38 243.46" fill="none" stroke="rgba(103,135,188,1)" stroke-width="2" /><path d="M 152.38 243.46 C 153.75 241.78, 155.13 240.35, 156.5 239.37" fill="none" stroke="rgba(103,135,188,1)" stroke-width="2" /><path d="M 156.5 239.37 C 157.88 238.39000000000001, 159.25 237.76, 160.63 237.57" fill="none" stroke="rgba(103,135,188,1)" stroke-width="2" /><path d="M 160.63 237.57 C 162.01 237.38, 163.38 237.6, 164.76 238.22" fill="none" stroke="rgba(103,135,188,1)" stroke-width="2" /><path d="M 164.75 238.22 C 166.13 238.84, 167.5 239.89, 168.88 241.26" fill="none" stroke="rgba(103,135,188,1)" stroke-width="2" /><path d="M 168.88 241.26 C 170.26 242.63, 171.63 244.42999999999998, 173 246.42" fill="none" stroke="rgba(103,135,188,1)" stroke-width="2" /><path d="M 173 246.42 C 174.38 248.42, 175.75 250.79, 177.13 253.23999999999998" fill="none" stroke="rgba(103,135,188,1)" stroke-width="2" /><path d="M 177.13 253.25 C 178.51 255.7, 179.88 258.44, 181.25 261.12" fill="none" stroke="rgba(103,135,188,1)" stroke-width="2" /><path d="M 181.25 261.12 C 182.63 263.8, 184 266.66, 185.37 269.34000000000003" fill="none" stroke="rgba(103,135,188,1)" stroke-width="2" /><path d="M 185.38 269.34 C 186.76 272.02, 188.13 274.73999999999995, 189.51 277.16999999999996" fill="none" stroke="rgba(103,135,188,1)" stroke-width="2" /><path d="M 189.5 277.17 C 190.88 279.6, 192.25 281.95, 193.62 283.91" fill="none" stroke="rgba(103,135,188,1)" stroke-width="2" /><path d="M 193.63 283.91 C 195.01 285.88000000000005, 196.38 287.64000000000004, 197.76 288.96000000000004" fill="none" stroke="rgba(103,135,188,1)" stroke-width="2" /><path d="M 197.75 288.97 C 199.12 290.3, 200.5 291.31, 201.87 291.88000000000005" fill="none" stroke="rgba(103,135,188,1)" stroke-width="2" /><path d="M 201.88 291.88 C 203.25 292.45, 204.63 292.63, 206 292.39" fill="none" stroke="rgba(103,135,188,1)" stroke-width="2" /><path d="M 206 292.39 C 207.37 292.15, 208.75 291.47999999999996, 210.12 290.46" fill="none" stroke="rgba(103,135,188,1)" stroke-width="2" /><path d="M 210.13 290.46 C 211.5 289.44, 212.88 287.96999999999997, 214.26 286.25" fill="none" stroke="rgba(103,135,188,1)" stroke-width="2" /><path d="M 214.25 286.25 C 215.62 284.53, 217 282.4, 218.37 280.14" fill="none" stroke="rgba(103,135,188,1)" stroke-width="2" /><path d="M 218.38 280.14 C 219.75 277.88, 221.13 275.28, 222.5 272.68" fill="none" stroke="rgba(103,135,188,1)" stroke-width="2" /><path d="M 222.5 272.68 C 223.87 270.08, 225.25 267.24, 226.62 264.53000000000003" fill="none" stroke="rgba(103,135,188,1)" stroke-width="2" /><path d="M 226.63 264.54 C 228 261.83000000000004, 229.38 259.01000000000005, 230.75 256.43" fill="none" stroke="rgba(103,135,188,1)" stroke-width="2" /><path d="M 230.75 256.43 C 232.12 253.86, 233.5 251.3, 234.88 249.09" fill="none" stroke="rgba(103,135,188,1)" stroke-width="2" /><path d="M 234.88 249.09 C 236.25 246.88, 237.63 244.82, 239 243.17000000000002" fill="none" stroke="rgba(103,135,188,1)" stroke-width="2" /><path d="M 239 243.17 C 240.37 241.51999999999998, 241.75 240.14, 243.12 239.2" fill="none" stroke="rgba(103,135,188,1)" stroke-width="2" /><path d="M 243.13 239.21 C 244.5 238.27, 245.88 237.69, 247.25 237.55" fill="none" stroke="rgba(103,135,188,1)" stroke-width="2" /><path d="M 247.25 237.54 C 248.62 237.39, 250 237.67, 251.37 238.32999999999998" fill="none" stroke="rgba(103,135,188,1)" stroke-width="2" /><path d="M 251.38 238.33 C 252.75 238.99, 254.13 240.09, 255.51 241.5" fill="none" stroke="rgba(103,135,188,1)" stroke-width="2" /><path d="M 255.5 241.5 C 256.87 242.91, 258.25 244.74, 259.62 246.77" fill="none" stroke="rgba(103,135,188,1)" stroke-width="2" /><path d="M 259.63 246.77 C 261 248.8, 262.38 251.20000000000002, 263.76 253.67000000000002" fill="none" stroke="rgba(103,135,188,1)" stroke-width="2" /><path d="M 263.75 253.67 C 265.12 256.14, 266.5 258.89, 267.88 261.58" fill="none" stroke="rgba(103,135,188,1)" stroke-width="2" /><path d="M 267.88 261.58 C 269.25 264.27, 270.63 267.13, 272 269.8" fill="none" stroke="rgba(103,135,188,1)" stroke-width="2" /><path d="M 272 269.79 C 273.37 272.46000000000004, 274.75 275.17, 276.13 277.58000000000004" fill="none" stroke="rgba(103,135,188,1)" stroke-width="2" /><path d="M 276.13 277.58 C 277.5 279.99, 278.88 282.31, 280.25 284.24" fill="none" stroke="rgba(103,135,188,1)" stroke-width="2" /><path d="M 280.25 284.25 C 281.62 286.18, 283 287.91, 284.38 289.2" fill="none" stroke="rgba(103,135,188,1)" stroke-width="2" /><path d="M 284.38 289.19 C 285.75 290.48, 287.13 291.45, 288.51 291.96999999999997" fill="none" stroke="rgba(103,135,188,1)" stroke-width="2" /><path d="M 288.5 291.98 C 289.87 292.51, 291.25 292.64000000000004, 292.62 292.35" fill="none" stroke="rgba(103,135,188,1)" stroke-width="2" /><path d="M 292.63 292.35 C 294 292.07000000000005, 295.38 291.35, 296.76 290.28000000000003" fill="none" stroke="rgba(103,135,188,1)" stroke-width="2" /><path d="M 296.75 290.28 C 298.12 289.21, 299.5 287.71, 300.87 285.95" fill="none" stroke="rgba(103,135,188,1)" stroke-width="2" /><path d="M 300.88 285.95 C 302.25 284.2, 304.32 280.78, 305.01 279.75" fill="none" stroke="rgba(103,135,188,1)" stroke-width="2" /><path d="M 305 279.76 C 305.92 279.27, 308.67 277.71999999999997, 310.5 276.84999999999997" fill="none" stroke="rgba(182,104,126,1)" stroke-width="2" /><path d="M 310.5 276.84 C 312.33 275.96, 314.17 275.2, 316 274.5" fill="none" stroke="rgba(182,104,126,1)" stroke-width="2" /><path d="M 316 274.5 C 317.83 273.8, 319.67 273.19, 321.5 272.62" fill="none" stroke="rgba(182,104,126,1)" stroke-width="2" /><path d="M 321.5 272.63 C 323.33 272.07, 325.17 271.58, 327 271.12" fill="none" stroke="rgba(182,104,126,1)" stroke-width="2" /><path d="M 327 271.12 C 328.83 270.67, 330.67 270.27, 332.5 269.91" fill="none" stroke="rgba(182,104,126,1)" stroke-width="2" /><path d="M 332.5 269.91 C 334.33 269.55, 336.17 269.23, 338 268.94" fill="none" stroke="rgba(182,104,126,1)" stroke-width="2" /><path d="M 338 268.94 C 339.83 268.65, 341.67 268.4, 343.5 268.16" fill="none" stroke="rgba(182,104,126,1)" stroke-width="2" /><path d="M 343.5 268.16 C 345.33 267.93, 347.17 267.72, 349 267.54" fill="none" stroke="rgba(182,104,126,1)" stroke-width="2" /><path d="M 349 267.54 C 350.83 267.35, 352.67 267.19, 354.5 267.04" fill="none" stroke="rgba(182,104,126,1)" stroke-width="2" /><path d="M 354.5 267.04 C 356.33 266.89000000000004, 358.17 266.76000000000005, 360 266.64000000000004" fill="none" stroke="rgba(182,104,126,1)" stroke-width="2" /><path d="M 360 266.63 C 361.83 266.51, 363.67 266.4, 365.5 266.31" fill="none" stroke="rgba(182,104,126,1)" stroke-width="2" /><path d="M 365.5 266.31 C 367.33 266.21, 370.08 266.09, 371 266.05" fill="none" stroke="rgba(182,104,126,1)" stroke-width="2" /><path d="M 371 266.05 C 371.76 265.95, 374.06 265.66, 375.58 265.45" fill="none" stroke="rgba(125,170,121,1)" stroke-width="2" /><path d="M 375.58 265.45 C 377.10999999999996 265.24, 378.64 265.01, 380.15999999999997 264.8" fill="none" stroke="rgba(125,170,121,1)" stroke-width="2" /><path d="M 380.17 264.8 C 381.7 264.59000000000003, 383.23 264.37, 384.75 264.17" fill="none" stroke="rgba(125,170,121,1)" stroke-width="2" /><path d="M 384.75 264.18 C 386.28 263.99, 387.81 263.8, 389.33 263.64" fill="none" stroke="rgba(125,170,121,1)" stroke-width="2" /><path d="M 389.33 263.64 C 390.85999999999996 263.49, 392.39 263.34999999999997, 393.90999999999997 263.25" fill="none" stroke="rgba(125,170,121,1)" stroke-width="2" /><path d="M 393.92 263.25 C 395.45 263.15, 396.98 263.08, 398.5 263.06" fill="none" stroke="rgba(125,170,121,1)" stroke-width="2" /><path d="M 398.5 263.06 C 400.03 263.03000000000003, 401.56 263.04, 403.08 263.08" fill="none" stroke="rgba(125,170,121,1)" stroke-width="2" /><path d="M 403.08 263.08 C 404.60999999999996 263.12, 406.14 263.2, 407.65999999999997 263.31" fill="none" stroke="rgba(125,170,121,1)" stroke-width="2" /><path d="M 407.67 263.31 C 409.2 263.42, 410.73 263.56, 412.25 263.73" fill="none" stroke="rgba(125,170,121,1)" stroke-width="2" /><path d="M 412.25 263.72 C 413.78 263.88000000000005, 415.31 264.08000000000004, 416.83 264.28000000000003" fill="none" stroke="rgba(125,170,121,1)" stroke-width="2" /><path d="M 416.83 264.28 C 418.35999999999996 264.47999999999996, 419.89 264.7, 421.40999999999997 264.91999999999996" fill="none" stroke="rgba(125,170,121,1)" stroke-width="2" /><path d="M 421.42 264.92 C 422.95 265.13, 424.48 265.36, 426 265.57" fill="none" stroke="rgba(125,170,121,1)" stroke-width="2" /><path d="M 426 265.56 C 427.53 265.76, 429.06 265.97, 430.58 266.14" fill="none" stroke="rgba(125,170,121,1)" stroke-width="2" /><path d="M 430.58 266.15 C 432.10999999999996 266.32, 433.64 266.47999999999996, 435.15999999999997 266.60999999999996" fill="none" stroke="rgba(125,170,121,1)" stroke-width="2" /><path d="M 435.17 266.61 C 436.7 266.73, 438.23 266.83000000000004, 439.75 266.89" fill="none" stroke="rgba(125,170,121,1)" stroke-width="2" /><path d="M 439.75 266.89 C 441.28 266.95, 442.81 266.96999999999997, 444.33 266.96" fill="none" stroke="rgba(125,170,121,1)" stroke-width="2" /><path d="M 444.33 266.96 C 445.85999999999996 266.95, 447.39 266.9, 448.90999999999997 266.82" fill="none" stroke="rgba(125,170,121,1)" stroke-width="2" /><path d="M 448.92 266.82 C 450.45 266.74, 451.98 266.62, 453.5 266.48" fill="none" stroke="rgba(125,170,121,1)" stroke-width="2" /><path d="M 453.5 266.47 C 455.03 266.33000000000004, 456.56 266.15000000000003, 458.08 265.96000000000004" fill="none" stroke="rgba(125,170,121,1)" stroke-width="2" /><path d="M 458.08 265.97 C 459.60999999999996 265.78000000000003, 461.14 265.57000000000005, 462.65999999999997 265.36" fill="none" stroke="rgba(125,170,121,1)" stroke-width="2" /><path d="M 462.67 265.36 C 464.2 265.15000000000003, 465.73 264.92, 467.25 264.71000000000004" fill="none" stroke="rgba(125,170,121,1)" stroke-width="2" /><path d="M 467.25 264.71 C 468.78 264.5, 470.31 264.28, 471.83 264.09" fill="none" stroke="rgba(125,170,121,1)" stroke-width="2" /><path d="M 471.83 264.09 C 473.35999999999996 263.9, 474.89 263.71999999999997, 476.40999999999997 263.57" fill="none" stroke="rgba(125,170,121,1)" stroke-width="2" /><path d="M 476.42 263.57 C 477.95 263.42, 479.48 263.3, 481 263.21" fill="none" stroke="rgba(125,170,121,1)" stroke-width="2" /><path d="M 481 263.21 C 482.53 263.12, 484.06 263.07, 485.58 263.04999999999995" fill="none" stroke="rgba(125,170,121,1)" stroke-width="2" /><path d="M 485.58 263.04 C 487.10999999999996 263.02000000000004, 488.64 263.04, 490.15999999999997 263.09000000000003" fill="none" stroke="rgba(125,170,121,1)" stroke-width="2" /><path d="M 490.17 263.1 C 491.7 263.15000000000003, 493.23 263.24, 494.75 263.36" fill="none" stroke="rgba(125,170,121,1)" stroke-width="2" /><path d="M 494.75 263.36 C 496.28 263.48, 497.81 263.63, 499.33 263.8" fill="none" stroke="rgba(125,170,121,1)" stroke-width="2" /><path d="M 499.33 263.8 C 500.85999999999996 263.97, 502.39 264.17, 503.90999999999997 264.37" fill="none" stroke="rgba(125,170,121,1)" stroke-width="2" /><path d="M 503.92 264.37 C 505.45 264.57, 507.74 264.91, 508.5 265.01" fill="none" stroke="rgba(125,170,121,1)" stroke-width="2" /><text x="222.5" y="313.4" font-size="11" fill="rgba(103,135,188,1)" font-family="serif" text-anchor="middle" dominant-baseline="middle">волна электрона</text><text x="448" y="295.25" font-size="11" fill="rgba(125,170,121,1)" font-family="serif" text-anchor="middle" dominant-baseline="middle">прошедший хвост</text></svg>