<svg xmlns="http://www.w3.org/2000/svg" width="475.79999999999995pt" height="137pt" viewBox="80 265.25 475.79999999999995 137"><line x1="110" y1="320" x2="297" y2="320" stroke="rgba(100,100,100,1)" stroke-width="0.8" /><path d="M 110 321.03 C 110.49 321.26, 111.95 321.96999999999997, 112.92 322.4" fill="none" stroke="rgba(103,135,188,1)" stroke-width="1.7" /><path d="M 112.92 322.4 C 113.89 322.83, 114.87 323.31, 115.84 323.59999999999997" fill="none" stroke="rgba(103,135,188,1)" stroke-width="1.7" /><path d="M 115.84 323.61 C 116.81 323.91, 117.79 324.17, 118.76 324.2" fill="none" stroke="rgba(103,135,188,1)" stroke-width="1.7" /><path d="M 118.77 324.2 C 119.74 324.21999999999997, 120.72 324.11, 121.69 323.75" fill="none" stroke="rgba(103,135,188,1)" stroke-width="1.7" /><path d="M 121.69 323.74 C 122.66 323.38, 123.64 322.79, 124.61 322.01" fill="none" stroke="rgba(103,135,188,1)" stroke-width="1.7" /><path d="M 124.61 322.01 C 125.58 321.23, 126.56 320.17, 127.53 319.07" fill="none" stroke="rgba(103,135,188,1)" stroke-width="1.7" /><path d="M 127.53 319.07 C 128.5 317.96999999999997, 129.48 316.59999999999997, 130.45 315.39" fill="none" stroke="rgba(103,135,188,1)" stroke-width="1.7" /><path d="M 130.45 315.39 C 131.42 314.19, 132.39999999999998 312.82, 133.36999999999998 311.84" fill="none" stroke="rgba(103,135,188,1)" stroke-width="1.7" /><path d="M 133.38 311.84 C 134.35 310.85999999999996, 135.32999999999998 309.9, 136.29999999999998 309.5" fill="none" stroke="rgba(103,135,188,1)" stroke-width="1.7" /><path d="M 136.3 309.5 C 137.27 309.09, 138.25 308.95, 139.22 309.41" fill="none" stroke="rgba(103,135,188,1)" stroke-width="1.7" /><path d="M 139.22 309.4 C 140.19 309.84999999999997, 141.17 310.79999999999995, 142.14 312.21999999999997" fill="none" stroke="rgba(103,135,188,1)" stroke-width="1.7" /><path d="M 142.14 312.22 C 143.10999999999999 313.64000000000004, 144.08999999999997 315.69000000000005, 145.05999999999997 317.92" fill="none" stroke="rgba(103,135,188,1)" stroke-width="1.7" /><path d="M 145.06 317.92 C 146.03 320.16, 147.01 323, 147.98 325.63" fill="none" stroke="rgba(103,135,188,1)" stroke-width="1.7" /><path d="M 147.98 325.63 C 148.95 328.26, 149.92999999999998 331.3, 150.89999999999998 333.67" fill="none" stroke="rgba(103,135,188,1)" stroke-width="1.7" /><path d="M 150.91 333.68 C 151.88 336.06, 152.85999999999999 338.48, 153.82999999999998 339.91" fill="none" stroke="rgba(103,135,188,1)" stroke-width="1.7" /><path d="M 153.83 339.91 C 154.8 341.33000000000004, 155.78 342.34000000000003, 156.75 342.23" fill="none" stroke="rgba(103,135,188,1)" stroke-width="1.7" /><path d="M 156.75 342.23 C 157.72 342.12, 158.7 341.15000000000003, 159.67 339.23" fill="none" stroke="rgba(103,135,188,1)" stroke-width="1.7" /><path d="M 159.67 339.23 C 160.64 337.31, 161.61999999999998 334.26, 162.58999999999997 330.73" fill="none" stroke="rgba(103,135,188,1)" stroke-width="1.7" /><path d="M 162.59 330.73 C 163.56 327.20000000000005, 164.54 322.52000000000004, 165.51 318.04" fill="none" stroke="rgba(103,135,188,1)" stroke-width="1.7" /><path d="M 165.52 318.04 C 166.49 313.56, 167.47 308.24, 168.44 303.84000000000003" fill="none" stroke="rgba(103,135,188,1)" stroke-width="1.7" /><path d="M 168.44 303.84 C 169.41 299.44, 170.39 294.78999999999996, 171.35999999999999 291.61999999999995" fill="none" stroke="rgba(103,135,188,1)" stroke-width="1.7" /><path d="M 171.36 291.62 C 172.33 288.45, 173.31 285.78000000000003, 174.28 284.83" fill="none" stroke="rgba(103,135,188,1)" stroke-width="1.7" /><path d="M 174.28 284.83 C 175.25 283.87, 176.23 284.12, 177.2 285.88" fill="none" stroke="rgba(103,135,188,1)" stroke-width="1.7" /><path d="M 177.2 285.88 C 178.17 287.63, 179.14999999999998 291.06, 180.11999999999998 295.36" fill="none" stroke="rgba(103,135,188,1)" stroke-width="1.7" /><path d="M 180.13 295.36 C 181.1 299.66, 182.07999999999998 305.7, 183.04999999999998 311.7" fill="none" stroke="rgba(103,135,188,1)" stroke-width="1.7" /><path d="M 183.05 311.7 C 184.02 317.7, 185 325.03999999999996, 185.97 331.38" fill="none" stroke="rgba(103,135,188,1)" stroke-width="1.7" /><path d="M 185.97 331.38 C 186.94 337.71999999999997, 187.92 344.61, 188.89 349.73" fill="none" stroke="rgba(103,135,188,1)" stroke-width="1.7" /><path d="M 188.89 349.73 C 189.85999999999999 354.85, 190.83999999999997 359.53000000000003, 191.80999999999997 362.11" fill="none" stroke="rgba(103,135,188,1)" stroke-width="1.7" /><path d="M 191.81 362.1 C 192.78 364.67, 193.76 365.87, 194.73 365.15000000000003" fill="none" stroke="rgba(103,135,188,1)" stroke-width="1.7" /><path d="M 194.73 365.15 C 195.7 364.42999999999995, 196.67999999999998 361.71, 197.64999999999998 357.76" fill="none" stroke="rgba(103,135,188,1)" stroke-width="1.7" /><path d="M 197.66 357.77 C 198.63 353.82, 199.60999999999999 347.75, 200.57999999999998 341.45" fill="none" stroke="rgba(103,135,188,1)" stroke-width="1.7" /><path d="M 200.58 341.45 C 201.55 335.15999999999997, 202.53 327.15, 203.5 320" fill="none" stroke="rgba(103,135,188,1)" stroke-width="1.7" /><path d="M 203.5 320 C 204.47 312.85, 205.45 304.84, 206.42 298.55" fill="none" stroke="rgba(103,135,188,1)" stroke-width="1.7" /><path d="M 206.42 298.55 C 207.39 292.26, 208.36999999999998 286.18, 209.33999999999997 282.23" fill="none" stroke="rgba(103,135,188,1)" stroke-width="1.7" /><path d="M 209.34 282.23 C 210.31 278.28000000000003, 211.29 275.57, 212.26 274.84000000000003" fill="none" stroke="rgba(103,135,188,1)" stroke-width="1.7" /><path d="M 212.27 274.85 C 213.24 274.13, 214.22 275.33000000000004, 215.19 277.90000000000003" fill="none" stroke="rgba(103,135,188,1)" stroke-width="1.7" /><path d="M 215.19 277.9 C 216.16 280.46999999999997, 217.14 285.15999999999997, 218.10999999999999 290.28" fill="none" stroke="rgba(103,135,188,1)" stroke-width="1.7" /><path d="M 218.11 290.27 C 219.08 295.39, 220.06 302.28, 221.03 308.62" fill="none" stroke="rgba(103,135,188,1)" stroke-width="1.7" /><path d="M 221.03 308.62 C 222 314.96, 222.98 322.3, 223.95 328.3" fill="none" stroke="rgba(103,135,188,1)" stroke-width="1.7" /><path d="M 223.95 328.3 C 224.92 334.3, 225.89999999999998 340.34000000000003, 226.86999999999998 344.64" fill="none" stroke="rgba(103,135,188,1)" stroke-width="1.7" /><path d="M 226.88 344.64 C 227.85 348.94, 228.82999999999998 352.37, 229.79999999999998 354.12" fill="none" stroke="rgba(103,135,188,1)" stroke-width="1.7" /><path d="M 229.8 354.12 C 230.77 355.87, 231.75 356.12, 232.72 355.17" fill="none" stroke="rgba(103,135,188,1)" stroke-width="1.7" /><path d="M 232.72 355.17 C 233.69 354.21000000000004, 234.67 351.55, 235.64 348.38" fill="none" stroke="rgba(103,135,188,1)" stroke-width="1.7" /><path d="M 235.64 348.38 C 236.60999999999999 345.21, 237.58999999999997 340.57, 238.55999999999997 336.15999999999997" fill="none" stroke="rgba(103,135,188,1)" stroke-width="1.7" /><path d="M 238.56 336.16 C 239.53 331.76000000000005, 240.51 326.44, 241.48 321.96000000000004" fill="none" stroke="rgba(103,135,188,1)" stroke-width="1.7" /><path d="M 241.48 321.96 C 242.45 317.47999999999996, 243.42999999999998 312.79999999999995, 244.39999999999998 309.27" fill="none" stroke="rgba(103,135,188,1)" stroke-width="1.7" /><path d="M 244.41 309.27 C 245.38 305.74, 246.35999999999999 302.69, 247.32999999999998 300.77" fill="none" stroke="rgba(103,135,188,1)" stroke-width="1.7" /><path d="M 247.33 300.77 C 248.3 298.84999999999997, 249.28 297.89, 250.25 297.77" fill="none" stroke="rgba(103,135,188,1)" stroke-width="1.7" /><path d="M 250.25 297.77 C 251.22 297.65999999999997, 252.2 298.66999999999996, 253.17 300.09" fill="none" stroke="rgba(103,135,188,1)" stroke-width="1.7" /><path d="M 253.17 300.09 C 254.14 301.51, 255.11999999999998 303.94, 256.09 306.32" fill="none" stroke="rgba(103,135,188,1)" stroke-width="1.7" /><path d="M 256.09 306.32 C 257.06 308.7, 258.03999999999996 311.74, 259.01 314.36" fill="none" stroke="rgba(103,135,188,1)" stroke-width="1.7" /><path d="M 259.02 314.37 C 259.99 317, 260.96999999999997 319.84000000000003, 261.94 322.08" fill="none" stroke="rgba(103,135,188,1)" stroke-width="1.7" /><path d="M 261.94 322.08 C 262.91 324.32, 263.89 326.35999999999996, 264.86 327.78" fill="none" stroke="rgba(103,135,188,1)" stroke-width="1.7" /><path d="M 264.86 327.78 C 265.83000000000004 329.2, 266.81 330.14, 267.78000000000003 330.59999999999997" fill="none" stroke="rgba(103,135,188,1)" stroke-width="1.7" /><path d="M 267.78 330.6 C 268.75 331.05, 269.72999999999996 330.91, 270.7 330.51000000000005" fill="none" stroke="rgba(103,135,188,1)" stroke-width="1.7" /><path d="M 270.7 330.5 C 271.67 330.09, 272.65 329.14, 273.62 328.16" fill="none" stroke="rgba(103,135,188,1)" stroke-width="1.7" /><path d="M 273.63 328.16 C 274.6 327.18, 275.58 325.81, 276.55 324.61" fill="none" stroke="rgba(103,135,188,1)" stroke-width="1.7" /><path d="M 276.55 324.61 C 277.52000000000004 323.41, 278.5 322.04, 279.47 320.93" fill="none" stroke="rgba(103,135,188,1)" stroke-width="1.7" /><path d="M 279.47 320.93 C 280.44000000000005 319.83, 281.42 318.77, 282.39000000000004 317.99" fill="none" stroke="rgba(103,135,188,1)" stroke-width="1.7" /><path d="M 282.39 317.99 C 283.36 317.21000000000004, 284.34 316.62, 285.31 316.26" fill="none" stroke="rgba(103,135,188,1)" stroke-width="1.7" /><path d="M 285.31 316.26 C 286.28000000000003 315.9, 287.26 315.78999999999996, 288.23 315.81" fill="none" stroke="rgba(103,135,188,1)" stroke-width="1.7" /><path d="M 288.23 315.8 C 289.20000000000005 315.82, 290.18 316.09000000000003, 291.15000000000003 316.39" fill="none" stroke="rgba(103,135,188,1)" stroke-width="1.7" /><path d="M 291.16 316.39 C 292.13000000000005 316.69, 293.11 317.15999999999997, 294.08000000000004 317.59" fill="none" stroke="rgba(103,135,188,1)" stroke-width="1.7" /><path d="M 294.08 317.6 C 295.05 318.03000000000003, 296.51 318.74, 297 318.97" fill="none" stroke="rgba(103,135,188,1)" stroke-width="1.7" /><path d="M 115.5 316.39 C 116.72 316.09, 120.39 315.28, 122.83 314.56" fill="none" stroke="rgba(100,100,100,1)" stroke-width="0.8" stroke-dasharray="5 4" /><path d="M 122.83 314.56 C 125.27 313.85, 127.72 313.04, 130.16 312.1" fill="none" stroke="rgba(100,100,100,1)" stroke-width="0.8" stroke-dasharray="5 4" /><path d="M 130.17 312.1 C 132.60999999999999 311.16, 135.05999999999997 310.11, 137.5 308.92" fill="none" stroke="rgba(100,100,100,1)" stroke-width="0.8" stroke-dasharray="5 4" /><path d="M 137.5 308.92 C 139.94 307.74, 142.39 306.43, 144.83 305.01" fill="none" stroke="rgba(100,100,100,1)" stroke-width="0.8" stroke-dasharray="5 4" /><path d="M 144.83 305.02 C 147.27 303.60999999999996, 149.72 302.04999999999995, 152.16000000000003 300.44" fill="none" stroke="rgba(100,100,100,1)" stroke-width="0.8" stroke-dasharray="5 4" /><path d="M 152.17 300.44 C 154.60999999999999 298.83, 157.05999999999997 297.09, 159.5 295.35" fill="none" stroke="rgba(100,100,100,1)" stroke-width="0.8" stroke-dasharray="5 4" /><path d="M 159.5 295.35 C 161.94 293.61, 164.39 291.78000000000003, 166.83 290.03000000000003" fill="none" stroke="rgba(100,100,100,1)" stroke-width="0.8" stroke-dasharray="5 4" /><path d="M 166.83 290.02 C 169.27 288.27, 171.72 286.46, 174.16000000000003 284.82" fill="none" stroke="rgba(100,100,100,1)" stroke-width="0.8" stroke-dasharray="5 4" /><path d="M 174.17 284.82 C 176.60999999999999 283.18, 179.05999999999997 281.55, 181.5 280.15999999999997" fill="none" stroke="rgba(100,100,100,1)" stroke-width="0.8" stroke-dasharray="5 4" /><path d="M 181.5 280.16 C 183.94 278.77000000000004, 186.39 277.47, 188.83 276.46000000000004" fill="none" stroke="rgba(100,100,100,1)" stroke-width="0.8" stroke-dasharray="5 4" /><path d="M 188.83 276.46 C 191.27 275.45, 193.72 274.60999999999996, 196.16000000000003 274.07" fill="none" stroke="rgba(100,100,100,1)" stroke-width="0.8" stroke-dasharray="5 4" /><path d="M 196.17 274.07 C 198.60999999999999 273.54, 201.05999999999997 273.25, 203.5 273.25" fill="none" stroke="rgba(100,100,100,1)" stroke-width="0.8" stroke-dasharray="5 4" /><path d="M 203.5 273.25 C 205.94 273.25, 208.39 273.54, 210.83 274.07" fill="none" stroke="rgba(100,100,100,1)" stroke-width="0.8" stroke-dasharray="5 4" /><path d="M 210.83 274.07 C 213.27 274.59999999999997, 215.72 275.44, 218.16000000000003 276.46" fill="none" stroke="rgba(100,100,100,1)" stroke-width="0.8" stroke-dasharray="5 4" /><path d="M 218.17 276.46 C 220.60999999999999 277.46999999999997, 223.05999999999997 278.77, 225.5 280.15999999999997" fill="none" stroke="rgba(100,100,100,1)" stroke-width="0.8" stroke-dasharray="5 4" /><path d="M 225.5 280.16 C 227.94 281.55, 230.39 283.18, 232.83 284.82000000000005" fill="none" stroke="rgba(100,100,100,1)" stroke-width="0.8" stroke-dasharray="5 4" /><path d="M 232.83 284.82 C 235.27 286.46, 237.72 288.27, 240.16000000000003 290.02" fill="none" stroke="rgba(100,100,100,1)" stroke-width="0.8" stroke-dasharray="5 4" /><path d="M 240.17 290.02 C 242.60999999999999 291.77, 245.05999999999997 293.60999999999996, 247.5 295.34" fill="none" stroke="rgba(100,100,100,1)" stroke-width="0.8" stroke-dasharray="5 4" /><path d="M 247.5 295.35 C 249.94 297.09000000000003, 252.39 298.83000000000004, 254.83 300.44" fill="none" stroke="rgba(100,100,100,1)" stroke-width="0.8" stroke-dasharray="5 4" /><path d="M 254.83 300.44 C 257.27000000000004 302.05, 259.72 303.6, 262.16 305.02" fill="none" stroke="rgba(100,100,100,1)" stroke-width="0.8" stroke-dasharray="5 4" /><path d="M 262.17 305.02 C 264.61 306.43, 267.06 307.75, 269.5 308.93" fill="none" stroke="rgba(100,100,100,1)" stroke-width="0.8" stroke-dasharray="5 4" /><path d="M 269.5 308.92 C 271.94 310.1, 274.39 311.16, 276.83 312.1" fill="none" stroke="rgba(100,100,100,1)" stroke-width="0.8" stroke-dasharray="5 4" /><path d="M 276.83 312.1 C 279.27 313.04, 281.71999999999997 313.85, 284.15999999999997 314.56" fill="none" stroke="rgba(100,100,100,1)" stroke-width="0.8" stroke-dasharray="5 4" /><path d="M 284.17 314.56 C 286.61 315.27, 290.28000000000003 316.08, 291.5 316.39" fill="none" stroke="rgba(100,100,100,1)" stroke-width="0.8" stroke-dasharray="5 4" /><text x="203.5" y="388.75" font-size="11" fill="rgba(0,0,0,1)" font-family="serif" text-anchor="middle" dominant-baseline="middle">широкий Δx — почти одна λ, узкий Δp</text><line x1="363" y1="320" x2="528" y2="320" stroke="rgba(100,100,100,1)" stroke-width="0.8" /><path d="M 374 320 C 374.37 320, 375.49 320, 376.23 320" fill="none" stroke="rgba(182,104,126,1)" stroke-width="1.7" /><path d="M 376.23 320 C 376.97 320, 377.72 320, 378.46000000000004 320" fill="none" stroke="rgba(182,104,126,1)" stroke-width="1.7" /><path d="M 378.47 320 C 379.21000000000004 320, 379.96000000000004 320, 380.70000000000005 320" fill="none" stroke="rgba(182,104,126,1)" stroke-width="1.7" /><path d="M 380.7 320 C 381.44 320, 382.19 320, 382.93 320" fill="none" stroke="rgba(182,104,126,1)" stroke-width="1.7" /><path d="M 382.94 320 C 383.68 320, 384.43 320, 385.17 320" fill="none" stroke="rgba(182,104,126,1)" stroke-width="1.7" /><path d="M 385.17 320 C 385.91 320, 386.66 320, 387.40000000000003 320" fill="none" stroke="rgba(182,104,126,1)" stroke-width="1.7" /><path d="M 387.41 320 C 388.15000000000003 320, 388.90000000000003 320, 389.64000000000004 320" fill="none" stroke="rgba(182,104,126,1)" stroke-width="1.7" /><path d="M 389.64 320 C 390.38 320, 391.13 320, 391.87 320.01" fill="none" stroke="rgba(182,104,126,1)" stroke-width="1.7" /><path d="M 391.88 320.01 C 392.62 320.01, 393.37 320.02, 394.11 320.02" fill="none" stroke="rgba(182,104,126,1)" stroke-width="1.7" /><path d="M 394.11 320.02 C 394.85 320.03, 395.6 320.03, 396.34000000000003 320.03999999999996" fill="none" stroke="rgba(182,104,126,1)" stroke-width="1.7" /><path d="M 396.34 320.05 C 397.08 320.06, 397.83 320.07, 398.57 320.09000000000003" fill="none" stroke="rgba(182,104,126,1)" stroke-width="1.7" /><path d="M 398.58 320.08 C 399.32 320.09, 400.07 320.10999999999996, 400.81 320.13" fill="none" stroke="rgba(182,104,126,1)" stroke-width="1.7" /><path d="M 400.81 320.13 C 401.55 320.14, 402.3 320.15999999999997, 403.04 320.15999999999997" fill="none" stroke="rgba(182,104,126,1)" stroke-width="1.7" /><path d="M 403.05 320.17 C 403.79 320.17, 404.54 320.17, 405.28000000000003 320.14000000000004" fill="none" stroke="rgba(182,104,126,1)" stroke-width="1.7" /><path d="M 405.28 320.13 C 406.02 320.09, 406.77 320.05, 407.51 319.94" fill="none" stroke="rgba(182,104,126,1)" stroke-width="1.7" /><path d="M 407.52 319.95 C 408.26 319.84, 409.01 319.71, 409.75 319.49" fill="none" stroke="rgba(182,104,126,1)" stroke-width="1.7" /><path d="M 409.75 319.49 C 410.49 319.27, 411.24 319, 411.98 318.65000000000003" fill="none" stroke="rgba(182,104,126,1)" stroke-width="1.7" /><path d="M 411.98 318.65 C 412.72 318.29999999999995, 413.47 317.85999999999996, 414.21000000000004 317.38" fill="none" stroke="rgba(182,104,126,1)" stroke-width="1.7" /><path d="M 414.22 317.38 C 414.96000000000004 316.90999999999997, 415.71000000000004 316.32, 416.45000000000005 315.81" fill="none" stroke="rgba(182,104,126,1)" stroke-width="1.7" /><path d="M 416.45 315.82 C 417.19 315.31, 417.94 314.7, 418.68 314.33" fill="none" stroke="rgba(182,104,126,1)" stroke-width="1.7" /><path d="M 418.69 314.33 C 419.43 313.96, 420.18 313.57, 420.92 313.59" fill="none" stroke="rgba(182,104,126,1)" stroke-width="1.7" /><path d="M 420.92 313.59 C 421.66 313.61999999999995, 422.41 313.77, 423.15000000000003 314.47999999999996" fill="none" stroke="rgba(182,104,126,1)" stroke-width="1.7" /><path d="M 423.16 314.48 C 423.90000000000003 315.18, 424.65000000000003 316.22, 425.39000000000004 317.82" fill="none" stroke="rgba(182,104,126,1)" stroke-width="1.7" /><path d="M 425.39 317.82 C 426.13 319.40999999999997, 426.88 321.54, 427.62 324.03" fill="none" stroke="rgba(182,104,126,1)" stroke-width="1.7" /><path d="M 427.63 324.03 C 428.37 326.52, 429.12 329.65999999999997, 429.86 332.77" fill="none" stroke="rgba(182,104,126,1)" stroke-width="1.7" /><path d="M 429.86 332.77 C 430.6 335.88, 431.35 339.56, 432.09000000000003 342.71" fill="none" stroke="rgba(182,104,126,1)" stroke-width="1.7" /><path d="M 432.09 342.71 C 432.83 345.84999999999997, 433.58 349.26, 434.32 351.64" fill="none" stroke="rgba(182,104,126,1)" stroke-width="1.7" /><path d="M 434.33 351.64 C 435.07 354.02, 435.82 356.15999999999997, 436.56 356.99" fill="none" stroke="rgba(182,104,126,1)" stroke-width="1.7" /><path d="M 436.56 356.98 C 437.3 357.8, 438.05 357.83000000000004, 438.79 356.58000000000004" fill="none" stroke="rgba(182,104,126,1)" stroke-width="1.7" /><path d="M 438.8 356.58 C 439.54 355.33, 440.29 352.84, 441.03000000000003 349.49" fill="none" stroke="rgba(182,104,126,1)" stroke-width="1.7" /><path d="M 441.03 349.49 C 441.77 346.14, 442.52 341.40000000000003, 443.26 336.48" fill="none" stroke="rgba(182,104,126,1)" stroke-width="1.7" /><path d="M 443.27 336.48 C 444.01 331.57, 444.76 325.49, 445.5 320" fill="none" stroke="rgba(182,104,126,1)" stroke-width="1.7" /><path d="M 445.5 320 C 446.24 314.51, 446.99 308.44, 447.73 303.52" fill="none" stroke="rgba(182,104,126,1)" stroke-width="1.7" /><path d="M 447.73 303.52 C 448.47 298.60999999999996, 449.22 293.85999999999996, 449.96000000000004 290.51" fill="none" stroke="rgba(182,104,126,1)" stroke-width="1.7" /><path d="M 449.97 290.51 C 450.71000000000004 287.15999999999997, 451.46000000000004 284.65999999999997, 452.20000000000005 283.42" fill="none" stroke="rgba(182,104,126,1)" stroke-width="1.7" /><path d="M 452.2 283.42 C 452.94 282.17, 453.69 282.19, 454.43 283.02000000000004" fill="none" stroke="rgba(182,104,126,1)" stroke-width="1.7" /><path d="M 454.44 283.02 C 455.18 283.84, 455.93 285.99, 456.67 288.37" fill="none" stroke="rgba(182,104,126,1)" stroke-width="1.7" /><path d="M 456.67 288.36 C 457.41 290.74, 458.16 294.15000000000003, 458.90000000000003 297.29" fill="none" stroke="rgba(182,104,126,1)" stroke-width="1.7" /><path d="M 458.91 297.29 C 459.65000000000003 300.43, 460.40000000000003 304.12, 461.14000000000004 307.23" fill="none" stroke="rgba(182,104,126,1)" stroke-width="1.7" /><path d="M 461.14 307.23 C 461.88 310.34000000000003, 462.63 313.48, 463.37 315.97" fill="none" stroke="rgba(182,104,126,1)" stroke-width="1.7" /><path d="M 463.38 315.97 C 464.12 318.46000000000004, 464.87 320.59000000000003, 465.61 322.18" fill="none" stroke="rgba(182,104,126,1)" stroke-width="1.7" /><path d="M 465.61 322.18 C 466.35 323.77, 467.1 324.81, 467.84000000000003 325.52" fill="none" stroke="rgba(182,104,126,1)" stroke-width="1.7" /><path d="M 467.84 325.52 C 468.58 326.21999999999997, 469.33 326.38, 470.07 326.40999999999997" fill="none" stroke="rgba(182,104,126,1)" stroke-width="1.7" /><path d="M 470.08 326.41 C 470.82 326.44, 471.57 326.05, 472.31 325.67" fill="none" stroke="rgba(182,104,126,1)" stroke-width="1.7" /><path d="M 472.31 325.67 C 473.05 325.3, 473.8 324.69, 474.54 324.18" fill="none" stroke="rgba(182,104,126,1)" stroke-width="1.7" /><path d="M 474.55 324.18 C 475.29 323.67, 476.04 323.08, 476.78000000000003 322.61" fill="none" stroke="rgba(182,104,126,1)" stroke-width="1.7" /><path d="M 476.78 322.62 C 477.52 322.15, 478.27 321.7, 479.01 321.35" fill="none" stroke="rgba(182,104,126,1)" stroke-width="1.7" /><path d="M 479.02 321.35 C 479.76 321, 480.51 320.73, 481.25 320.51000000000005" fill="none" stroke="rgba(182,104,126,1)" stroke-width="1.7" /><path d="M 481.25 320.51 C 481.99 320.28999999999996, 482.74 320.15999999999997, 483.48 320.05" fill="none" stroke="rgba(182,104,126,1)" stroke-width="1.7" /><path d="M 483.48 320.05 C 484.22 319.94, 484.97 319.90000000000003, 485.71000000000004 319.86" fill="none" stroke="rgba(182,104,126,1)" stroke-width="1.7" /><path d="M 485.72 319.87 C 486.46000000000004 319.83, 487.21000000000004 319.84000000000003, 487.95000000000005 319.84000000000003" fill="none" stroke="rgba(182,104,126,1)" stroke-width="1.7" /><path d="M 487.95 319.83 C 488.69 319.83, 489.44 319.84999999999997, 490.18 319.85999999999996" fill="none" stroke="rgba(182,104,126,1)" stroke-width="1.7" /><path d="M 490.19 319.87 C 490.93 319.88, 491.68 319.9, 492.42 319.92" fill="none" stroke="rgba(182,104,126,1)" stroke-width="1.7" /><path d="M 492.42 319.92 C 493.16 319.93, 493.91 319.95, 494.65000000000003 319.96000000000004" fill="none" stroke="rgba(182,104,126,1)" stroke-width="1.7" /><path d="M 494.66 319.95 C 495.40000000000003 319.96, 496.15000000000003 319.96999999999997, 496.89000000000004 319.96999999999997" fill="none" stroke="rgba(182,104,126,1)" stroke-width="1.7" /><path d="M 496.89 319.98 C 497.63 319.99, 498.38 319.99, 499.12 319.99" fill="none" stroke="rgba(182,104,126,1)" stroke-width="1.7" /><path d="M 499.13 319.99 C 499.87 319.99, 500.62 319.99, 501.36 320" fill="none" stroke="rgba(182,104,126,1)" stroke-width="1.7" /><path d="M 501.36 320 C 502.1 320, 502.85 320, 503.59000000000003 320" fill="none" stroke="rgba(182,104,126,1)" stroke-width="1.7" /><path d="M 503.59 320 C 504.33 320, 505.08 320, 505.82 320" fill="none" stroke="rgba(182,104,126,1)" stroke-width="1.7" /><path d="M 505.83 320 C 506.57 320, 507.32 320, 508.06 320" fill="none" stroke="rgba(182,104,126,1)" stroke-width="1.7" /><path d="M 508.06 320 C 508.8 320, 509.55 320, 510.29 320" fill="none" stroke="rgba(182,104,126,1)" stroke-width="1.7" /><path d="M 510.3 320 C 511.04 320, 511.79 320, 512.53 320" fill="none" stroke="rgba(182,104,126,1)" stroke-width="1.7" /><path d="M 512.53 320 C 513.27 320, 514.02 320, 514.76 320" fill="none" stroke="rgba(182,104,126,1)" stroke-width="1.7" /><path d="M 514.77 320 C 515.51 320, 516.63 320, 517 320" fill="none" stroke="rgba(182,104,126,1)" stroke-width="1.7" /><path d="M 390.5 319.99 C 391.26 319.99, 393.56 319.98, 395.08 319.97" fill="none" stroke="rgba(100,100,100,1)" stroke-width="0.8" stroke-dasharray="5 4" /><path d="M 395.08 319.97 C 396.60999999999996 319.95000000000005, 398.14 319.94000000000005, 399.65999999999997 319.89000000000004" fill="none" stroke="rgba(100,100,100,1)" stroke-width="0.8" stroke-dasharray="5 4" /><path d="M 399.67 319.88 C 401.2 319.83, 402.73 319.78, 404.25 319.63" fill="none" stroke="rgba(100,100,100,1)" stroke-width="0.8" stroke-dasharray="5 4" /><path d="M 404.25 319.64 C 405.78 319.49, 407.31 319.34999999999997, 408.83 319" fill="none" stroke="rgba(100,100,100,1)" stroke-width="0.8" stroke-dasharray="5 4" /><path d="M 408.83 319 C 410.35999999999996 318.65, 411.89 318.27, 413.40999999999997 317.54" fill="none" stroke="rgba(100,100,100,1)" stroke-width="0.8" stroke-dasharray="5 4" /><path d="M 413.42 317.54 C 414.95 316.81, 416.48 315.95000000000005, 418 314.63" fill="none" stroke="rgba(100,100,100,1)" stroke-width="0.8" stroke-dasharray="5 4" /><path d="M 418 314.62 C 419.53 313.3, 421.06 311.67, 422.58 309.58" fill="none" stroke="rgba(100,100,100,1)" stroke-width="0.8" stroke-dasharray="5 4" /><path d="M 422.58 309.59 C 424.10999999999996 307.51, 425.64 304.92999999999995, 427.15999999999997 302.11999999999995" fill="none" stroke="rgba(100,100,100,1)" stroke-width="0.8" stroke-dasharray="5 4" /><path d="M 427.17 302.12 C 428.7 299.32, 430.23 295.92, 431.75 292.77" fill="none" stroke="rgba(100,100,100,1)" stroke-width="0.8" stroke-dasharray="5 4" /><path d="M 431.75 292.77 C 433.28 289.62, 434.81 286.03, 436.33 283.22999999999996" fill="none" stroke="rgba(100,100,100,1)" stroke-width="0.8" stroke-dasharray="5 4" /><path d="M 436.33 283.24 C 437.85999999999996 280.44, 439.39 277.64, 440.90999999999997 275.98" fill="none" stroke="rgba(100,100,100,1)" stroke-width="0.8" stroke-dasharray="5 4" /><path d="M 440.92 275.98 C 442.45 274.32, 443.98 273.25, 445.5 273.25" fill="none" stroke="rgba(100,100,100,1)" stroke-width="0.8" stroke-dasharray="5 4" /><path d="M 445.5 273.25 C 447.03 273.25, 448.56 274.31, 450.08 275.98" fill="none" stroke="rgba(100,100,100,1)" stroke-width="0.8" stroke-dasharray="5 4" /><path d="M 450.08 275.98 C 451.60999999999996 277.64000000000004, 453.14 280.44, 454.65999999999997 283.24" fill="none" stroke="rgba(100,100,100,1)" stroke-width="0.8" stroke-dasharray="5 4" /><path d="M 454.67 283.24 C 456.2 286.04, 457.73 289.63, 459.25 292.78000000000003" fill="none" stroke="rgba(100,100,100,1)" stroke-width="0.8" stroke-dasharray="5 4" /><path d="M 459.25 292.77 C 460.78 295.91999999999996, 462.31 299.31, 463.83 302.12" fill="none" stroke="rgba(100,100,100,1)" stroke-width="0.8" stroke-dasharray="5 4" /><path d="M 463.83 302.12 C 465.35999999999996 304.92, 466.89 307.5, 468.40999999999997 309.59000000000003" fill="none" stroke="rgba(100,100,100,1)" stroke-width="0.8" stroke-dasharray="5 4" /><path d="M 468.42 309.59 C 469.95 311.66999999999996, 471.48 313.29999999999995, 473 314.63" fill="none" stroke="rgba(100,100,100,1)" stroke-width="0.8" stroke-dasharray="5 4" /><path d="M 473 314.62 C 474.53 315.94, 476.06 316.81, 477.58 317.53000000000003" fill="none" stroke="rgba(100,100,100,1)" stroke-width="0.8" stroke-dasharray="5 4" /><path d="M 477.58 317.54 C 479.10999999999996 318.27000000000004, 480.64 318.65000000000003, 482.15999999999997 319" fill="none" stroke="rgba(100,100,100,1)" stroke-width="0.8" stroke-dasharray="5 4" /><path d="M 482.17 319 C 483.7 319.35, 485.23 319.49, 486.75 319.64" fill="none" stroke="rgba(100,100,100,1)" stroke-width="0.8" stroke-dasharray="5 4" /><path d="M 486.75 319.64 C 488.28 319.78999999999996, 489.81 319.83, 491.33 319.89" fill="none" stroke="rgba(100,100,100,1)" stroke-width="0.8" stroke-dasharray="5 4" /><path d="M 491.33 319.88 C 492.85999999999996 319.93, 494.39 319.94, 495.90999999999997 319.96" fill="none" stroke="rgba(100,100,100,1)" stroke-width="0.8" stroke-dasharray="5 4" /><path d="M 495.92 319.97 C 497.45 319.99, 499.74 319.99, 500.5 319.99" fill="none" stroke="rgba(100,100,100,1)" stroke-width="0.8" stroke-dasharray="5 4" /><text x="445.5" y="388.75" font-size="11" fill="rgba(0,0,0,1)" font-family="serif" text-anchor="middle" dominant-baseline="middle">узкий Δx — широкий набор λ и Δp</text></svg>