<svg xmlns="http://www.w3.org/2000/svg" width="336pt" height="152pt" viewBox="132 246 336 152"><circle cx="160" cy="300" r="6" fill="rgba(137,180,250,0.2)" stroke="rgba(137,180,250,1)" stroke-width="1.5" /><circle cx="195" cy="280" r="6" fill="rgba(137,180,250,0.2)" stroke="rgba(137,180,250,1)" stroke-width="1.5" /><circle cx="230" cy="260" r="6" fill="rgba(137,180,250,0.2)" stroke="rgba(137,180,250,1)" stroke-width="1.5" /><circle cx="265" cy="270" r="6" fill="rgba(137,180,250,0.2)" stroke="rgba(137,180,250,1)" stroke-width="1.5" /><circle cx="300" cy="300" r="6" fill="rgba(137,180,250,0.2)" stroke="rgba(137,180,250,1)" stroke-width="1.5" /><circle cx="335" cy="330" r="6" fill="rgba(137,180,250,0.2)" stroke="rgba(137,180,250,1)" stroke-width="1.5" /><circle cx="370" cy="340" r="6" fill="rgba(137,180,250,0.2)" stroke="rgba(137,180,250,1)" stroke-width="1.5" /><circle cx="405" cy="320" r="6" fill="rgba(137,180,250,0.2)" stroke="rgba(137,180,250,1)" stroke-width="1.5" /><circle cx="440" cy="300" r="6" fill="rgba(137,180,250,0.2)" stroke="rgba(137,180,250,1)" stroke-width="1.5" /><line x1="166" y1="297" x2="189" y2="280" stroke="rgba(205,214,244,1)" stroke-width="1" /><line x1="201" y1="278" x2="224" y2="262" stroke="rgba(205,214,244,1)" stroke-width="1" /><line x1="236" y1="262" x2="259" y2="268" stroke="rgba(205,214,244,1)" stroke-width="1" /><line x1="271" y1="273" x2="294" y2="297" stroke="rgba(205,214,244,1)" stroke-width="1" /><line x1="306" y1="303" x2="329" y2="327" stroke="rgba(205,214,244,1)" stroke-width="1" /><line x1="341" y1="333" x2="364" y2="340" stroke="rgba(205,214,244,1)" stroke-width="1" /><line x1="376" y1="338" x2="399" y2="322" stroke="rgba(205,214,244,1)" stroke-width="1" /><line x1="411" y1="318" x2="434" y2="302" stroke="rgba(205,214,244,1)" stroke-width="1" /><line x1="140" y1="300" x2="460" y2="300" stroke="rgba(127,132,156,1)" stroke-width="0.5" /><line x1="270" y1="370" x2="342" y2="370" stroke="rgba(205,214,244,1)" stroke-width="1.5" /><polygon points="350,370 343.0717967697245,374 343.0717967697245,366" fill="rgba(205,214,244,1)" /><text x="310" y="385" font-size="10" fill="rgba(205,214,244,1)" font-family="serif" text-anchor="middle" dominant-baseline="middle">v</text></svg>