<svg xmlns="http://www.w3.org/2000/svg" width="301.7pt" height="168pt" viewBox="126.30000000000001 208.5 301.7 168"><line x1="180" y1="260" x2="240" y2="260" stroke="rgba(0,0,0,1)" stroke-width="2" /><line x1="240" y1="260" x2="360" y2="320" stroke="rgba(0,0,0,1)" stroke-width="2" /><line x1="360" y1="320" x2="420" y2="320" stroke="rgba(0,0,0,1)" stroke-width="2" /><line x1="180" y1="290" x2="240" y2="290" stroke="rgba(0,0,0,1)" stroke-width="2" /><line x1="240" y1="290" x2="360" y2="350" stroke="rgba(0,0,0,1)" stroke-width="2" /><line x1="360" y1="350" x2="420" y2="350" stroke="rgba(0,0,0,1)" stroke-width="2" /><line x1="180" y1="260" x2="180" y2="290" stroke="rgba(0,0,0,1)" stroke-width="2" /><line x1="420" y1="320" x2="420" y2="350" stroke="rgba(0,0,0,1)" stroke-width="2" /><rect x="185" y="263" width="52" height="24" fill="rgba(103,135,188,0.2)"  /><rect x="365" y="323" width="52" height="24" fill="rgba(103,135,188,0.2)"  /><line x1="260" y1="280" x2="282.8445824720007" y2="291.4222912360003" stroke="rgba(103,135,188,1)" stroke-width="1.5" /><polygon points="290,295 282.0143722640683,295.4793220870337 285.592081028068,288.3239045590344" fill="rgba(103,135,188,1)" /><line x1="300" y1="295" x2="322.8445824720007" y2="306.4222912360003" stroke="rgba(103,135,188,1)" stroke-width="1.5" /><polygon points="330,310 322.0143722640683,310.4793220870337 325.592081028068,303.3239045590344" fill="rgba(103,135,188,1)" /><line x1="340" y1="310" x2="362.8445824720007" y2="321.4222912360003" stroke="rgba(103,135,188,1)" stroke-width="1.5" /><polygon points="370,325 362.0143722640683,325.4793220870337 365.592081028068,318.3239045590344" fill="rgba(103,135,188,1)" /><circle cx="210" cy="275" r="5" fill="rgba(103,135,188,0.4)" stroke="rgba(103,135,188,1)" stroke-width="1" /><circle cx="390" cy="335" r="5" fill="rgba(103,135,188,0.4)" stroke="rgba(103,135,188,1)" stroke-width="1" /><text x="170" y="245" font-size="7" fill="rgba(0,0,0,1)" font-family="serif" text-anchor="middle" dominant-baseline="middle">высокий потенциал</text><text x="365" y="365" font-size="7" fill="rgba(0,0,0,1)" font-family="serif" text-anchor="middle" dominant-baseline="middle">низкий потенциал</text><line x1="200" y1="230" x2="402" y2="230" stroke="rgba(100,100,100,1)" stroke-width="1" /><polygon points="410,230 403.0717967697245,234 403.0717967697245,226" fill="rgba(100,100,100,1)" /><text x="260" y="220" font-size="7" fill="rgba(103,135,188,1)" font-family="serif" text-anchor="middle" dominant-baseline="middle">перепад = напряжение</text><line x1="200" y1="226" x2="200" y2="234" stroke="rgba(100,100,100,1)" stroke-width="1" /><line x1="410" y1="226" x2="410" y2="234" stroke="rgba(100,100,100,1)" stroke-width="1" /></svg>