<svg xmlns="http://www.w3.org/2000/svg" width="434pt" height="227.25pt" viewBox="132 163.5 434 227.25"><circle cx="228" cy="259.5" r="88" fill="none" stroke="rgba(205,214,244,1)" stroke-width="1.5" /><line x1="164.1" y1="320" x2="291.90999999999997" y2="320" stroke="rgba(127,132,156,1)" stroke-width="0.7" /><line x1="167.5" y1="323.4" x2="167.5" y2="195.58999999999997" stroke="rgba(127,132,156,1)" stroke-width="0.7" /><line x1="145.36" y1="289.75" x2="310.63" y2="289.75" stroke="rgba(127,132,156,1)" stroke-width="0.7" /><line x1="197.75" y1="342.14" x2="197.75" y2="176.86999999999998" stroke="rgba(127,132,156,1)" stroke-width="0.7" /><line x1="140" y1="259.5" x2="316" y2="259.5" stroke="rgba(127,132,156,1)" stroke-width="0.7" /><line x1="228" y1="347.5" x2="228" y2="171.5" stroke="rgba(127,132,156,1)" stroke-width="0.7" /><line x1="145.36" y1="229.25" x2="310.63" y2="229.25" stroke="rgba(127,132,156,1)" stroke-width="0.7" /><line x1="258.25" y1="342.14" x2="258.25" y2="176.86999999999998" stroke="rgba(127,132,156,1)" stroke-width="0.7" /><line x1="164.1" y1="199" x2="291.90999999999997" y2="199" stroke="rgba(127,132,156,1)" stroke-width="0.7" /><line x1="288.5" y1="323.4" x2="288.5" y2="195.58999999999997" stroke="rgba(127,132,156,1)" stroke-width="0.7" /><circle cx="184" cy="221" r="3" fill="rgba(243,139,168,1)"  /><circle cx="250" cy="314.5" r="3" fill="rgba(243,139,168,1)"  /><circle cx="288.5" cy="243" r="3" fill="rgba(243,139,168,1)"  /><circle cx="211.5" cy="270.5" r="3" fill="rgba(243,139,168,1)"  /><text x="228" y="377.75" font-size="10" fill="rgba(127,132,156,1)" font-family="serif" text-anchor="middle" dominant-baseline="middle">дефекты падают случайно</text><line x1="371" y1="320" x2="550" y2="320" stroke="rgba(127,132,156,1)" stroke-width="1" /><polygon points="558,320 551.0717967697245,324 551.0717967697245,316" fill="rgba(127,132,156,1)" /><line x1="379.25" y1="328.25" x2="379.25" y2="196" stroke="rgba(127,132,156,1)" stroke-width="1" /><polygon points="379.25,188 383.25,194.9282032302755 375.25,194.9282032302755" fill="rgba(127,132,156,1)" /><path d="M 379.25 204.5 C 380.65 206.99, 384.84 214.79, 387.64 219.45" fill="none" stroke="rgba(137,180,250,1)" stroke-width="2" /><path d="M 387.64 219.45 C 390.44 224.10999999999999, 393.22999999999996 228.41, 396.03 232.47" fill="none" stroke="rgba(137,180,250,1)" stroke-width="2" /><path d="M 396.03 232.47 C 398.83 236.53, 401.61999999999995 240.27, 404.41999999999996 243.8" fill="none" stroke="rgba(137,180,250,1)" stroke-width="2" /><path d="M 404.41 243.8 C 407.21000000000004 247.33, 410 250.59, 412.8 253.66000000000003" fill="none" stroke="rgba(137,180,250,1)" stroke-width="2" /><path d="M 412.8 253.66 C 415.6 256.74, 418.39 259.57, 421.19 262.25" fill="none" stroke="rgba(137,180,250,1)" stroke-width="2" /><path d="M 421.19 262.25 C 423.99 264.93, 426.78 267.4, 429.58 269.73" fill="none" stroke="rgba(137,180,250,1)" stroke-width="2" /><path d="M 429.58 269.73 C 432.38 272.06, 435.16999999999996 274.21000000000004, 437.96999999999997 276.24" fill="none" stroke="rgba(137,180,250,1)" stroke-width="2" /><path d="M 437.96 276.24 C 440.76 278.27, 443.54999999999995 280.14, 446.34999999999997 281.91" fill="none" stroke="rgba(137,180,250,1)" stroke-width="2" /><path d="M 446.35 281.9 C 449.15000000000003 283.66999999999996, 451.94 285.28999999999996, 454.74 286.83" fill="none" stroke="rgba(137,180,250,1)" stroke-width="2" /><path d="M 454.74 286.83 C 457.54 288.37, 460.33 289.78999999999996, 463.13 291.12" fill="none" stroke="rgba(137,180,250,1)" stroke-width="2" /><path d="M 463.13 291.13 C 465.93 292.46999999999997, 468.71999999999997 293.7, 471.52 294.87" fill="none" stroke="rgba(137,180,250,1)" stroke-width="2" /><path d="M 471.51 294.86 C 474.31 296.03000000000003, 477.09999999999997 297.1, 479.9 298.11" fill="none" stroke="rgba(137,180,250,1)" stroke-width="2" /><path d="M 479.9 298.12 C 482.7 299.13, 485.48999999999995 300.07, 488.28999999999996 300.95" fill="none" stroke="rgba(137,180,250,1)" stroke-width="2" /><path d="M 488.29 300.95 C 491.09000000000003 301.83, 493.88 302.65, 496.68 303.42" fill="none" stroke="rgba(137,180,250,1)" stroke-width="2" /><path d="M 496.68 303.42 C 499.48 304.19, 502.27 304.90000000000003, 505.07 305.57" fill="none" stroke="rgba(137,180,250,1)" stroke-width="2" /><path d="M 505.06 305.56 C 507.86 306.23, 510.65 306.85, 513.45 307.43" fill="none" stroke="rgba(137,180,250,1)" stroke-width="2" /><path d="M 513.45 307.43 C 516.25 308.01, 519.0400000000001 308.55, 521.84 309.06" fill="none" stroke="rgba(137,180,250,1)" stroke-width="2" /><path d="M 521.84 309.06 C 524.64 309.57, 527.4300000000001 310.03000000000003, 530.23 310.48" fill="none" stroke="rgba(137,180,250,1)" stroke-width="2" /><path d="M 530.23 310.48 C 533.03 310.92, 535.82 311.33000000000004, 538.62 311.71000000000004" fill="none" stroke="rgba(137,180,250,1)" stroke-width="2" /><path d="M 538.61 311.71 C 541.41 312.09, 545.6 312.59999999999997, 547 312.78" fill="none" stroke="rgba(137,180,250,1)" stroke-width="2" /><text x="503" y="226.5" font-size="11" fill="rgba(137,180,250,1)" font-family="serif" text-anchor="middle" dominant-baseline="middle">P = e^(−A·d)</text><text x="481" y="342" font-size="10" fill="rgba(127,132,156,1)" font-family="serif" text-anchor="middle" dominant-baseline="middle">площадь чипа</text><text x="360" y="182.5" font-size="10" fill="rgba(127,132,156,1)" font-family="serif" text-anchor="middle" dominant-baseline="middle">доля живых</text></svg>