<svg xmlns="http://www.w3.org/2000/svg" width="350pt" height="131pt" viewBox="132 227 350 131"><rect x="140" y="250" width="10" height="100" fill="rgba(100,100,100,1)" stroke="rgba(0,0,0,1)" stroke-width="1.5" /><line x1="150" y1="280" x2="162" y2="270" stroke="rgba(0,0,0,1)" stroke-width="1.5" /><line x1="162" y1="270" x2="186" y2="290" stroke="rgba(0,0,0,1)" stroke-width="1.5" /><line x1="186" y1="290" x2="210" y2="270" stroke="rgba(0,0,0,1)" stroke-width="1.5" /><line x1="210" y1="270" x2="234" y2="290" stroke="rgba(0,0,0,1)" stroke-width="1.5" /><line x1="234" y1="290" x2="258" y2="270" stroke="rgba(0,0,0,1)" stroke-width="1.5" /><line x1="258" y1="270" x2="282" y2="290" stroke="rgba(0,0,0,1)" stroke-width="1.5" /><line x1="282" y1="290" x2="294" y2="280" stroke="rgba(0,0,0,1)" stroke-width="1.5" /><rect x="294" y="258" width="50" height="44" fill="rgba(103,135,188,0.2)" stroke="rgba(103,135,188,1)" stroke-width="2" /><text x="319" y="280" font-size="12" fill="rgba(103,135,188,1)" font-family="serif" text-anchor="middle" dominant-baseline="middle">m</text><line x1="400" y1="280" x2="362" y2="280" stroke="rgba(103,135,188,1)" stroke-width="2" /><polygon points="354,280 360.9282032302755,276 360.9282032302755,284" fill="rgba(103,135,188,1)" /><text x="420" y="280" font-size="10" fill="rgba(103,135,188,1)" font-family="serif" font-style="italic" text-anchor="middle" dominant-baseline="middle">F_0 cos(Omega t)</text><line x1="150" y1="250" x2="140" y2="235" stroke="rgba(100,100,100,1)" stroke-width="1" /><line x1="150" y1="260" x2="140" y2="245" stroke="rgba(100,100,100,1)" stroke-width="1" /><line x1="150" y1="270" x2="140" y2="255" stroke="rgba(100,100,100,1)" stroke-width="1" /><line x1="150" y1="280" x2="140" y2="265" stroke="rgba(100,100,100,1)" stroke-width="1" /><line x1="150" y1="290" x2="140" y2="275" stroke="rgba(100,100,100,1)" stroke-width="1" /><line x1="150" y1="300" x2="140" y2="285" stroke="rgba(100,100,100,1)" stroke-width="1" /><line x1="150" y1="310" x2="140" y2="295" stroke="rgba(100,100,100,1)" stroke-width="1" /><line x1="150" y1="320" x2="140" y2="305" stroke="rgba(100,100,100,1)" stroke-width="1" /><line x1="150" y1="330" x2="140" y2="315" stroke="rgba(100,100,100,1)" stroke-width="1" /><line x1="150" y1="340" x2="140" y2="325" stroke="rgba(100,100,100,1)" stroke-width="1" /><line x1="150" y1="350" x2="140" y2="335" stroke="rgba(100,100,100,1)" stroke-width="1" /></svg>