<svg xmlns="http://www.w3.org/2000/svg" width="397.75pt" height="131.01999999999998pt" viewBox="122 267.98 397.75 131.01999999999998"><line x1="130" y1="320" x2="273" y2="320" stroke="rgba(127,132,156,1)" stroke-width="0.8" /><path d="M 130 320 C 130.6 317.74, 132.38 310.72, 133.58 306.41" fill="none" stroke="rgba(137,180,250,1)" stroke-width="1.8" /><path d="M 133.57 306.41 C 134.76 302.1, 135.95 297.82000000000005, 137.15 294.15000000000003" fill="none" stroke="rgba(137,180,250,1)" stroke-width="1.8" /><path d="M 137.15 294.15 C 138.34 290.47999999999996, 139.53 287.08, 140.73000000000002 284.41999999999996" fill="none" stroke="rgba(137,180,250,1)" stroke-width="1.8" /><path d="M 140.73 284.42 C 141.92 281.76, 143.10999999999999 279.57, 144.31 278.17" fill="none" stroke="rgba(137,180,250,1)" stroke-width="1.8" /><path d="M 144.3 278.16 C 145.49 276.76000000000005, 146.68 276, 147.88000000000002 276" fill="none" stroke="rgba(137,180,250,1)" stroke-width="1.8" /><path d="M 147.88 276 C 149.07 276, 150.26 276.74, 151.46 278.14" fill="none" stroke="rgba(137,180,250,1)" stroke-width="1.8" /><path d="M 151.45 278.14 C 152.64 279.53, 153.82999999999998 281.71, 155.01999999999998 284.37" fill="none" stroke="rgba(137,180,250,1)" stroke-width="1.8" /><path d="M 155.03 284.37 C 156.22 287.03000000000003, 157.41 290.42, 158.61 294.08" fill="none" stroke="rgba(137,180,250,1)" stroke-width="1.8" /><path d="M 158.6 294.08 C 159.79 297.74, 160.98 302.02, 162.18 306.33" fill="none" stroke="rgba(137,180,250,1)" stroke-width="1.8" /><path d="M 162.18 306.32 C 163.37 310.63, 164.56 315.37, 165.75 319.9" fill="none" stroke="rgba(137,180,250,1)" stroke-width="1.8" /><path d="M 165.75 319.91 C 166.94 324.44, 168.13 329.19, 169.33 333.5" fill="none" stroke="rgba(137,180,250,1)" stroke-width="1.8" /><path d="M 169.33 333.5 C 170.52 337.81, 171.71 342.1, 172.9 345.77" fill="none" stroke="rgba(137,180,250,1)" stroke-width="1.8" /><path d="M 172.9 345.77 C 174.09 349.44, 175.28 352.84999999999997, 176.48000000000002 355.52" fill="none" stroke="rgba(137,180,250,1)" stroke-width="1.8" /><path d="M 176.48 355.53 C 177.67 358.2, 178.85999999999999 360.4, 180.04999999999998 361.80999999999995" fill="none" stroke="rgba(137,180,250,1)" stroke-width="1.8" /><path d="M 180.05 361.81 C 181.24 363.22, 182.43 363.99, 183.63000000000002 364" fill="none" stroke="rgba(137,180,250,1)" stroke-width="1.8" /><path d="M 183.63 364 C 184.82 364.01, 186.01 363.28, 187.21 361.89" fill="none" stroke="rgba(137,180,250,1)" stroke-width="1.8" /><path d="M 187.2 361.89 C 188.39 360.5, 189.57999999999998 358.34, 190.76999999999998 355.69" fill="none" stroke="rgba(137,180,250,1)" stroke-width="1.8" /><path d="M 190.78 355.69 C 191.97 353.04, 193.16 349.65, 194.36 346" fill="none" stroke="rgba(137,180,250,1)" stroke-width="1.8" /><path d="M 194.35 346 C 195.54 342.35, 196.73 338.07, 197.92 333.77" fill="none" stroke="rgba(137,180,250,1)" stroke-width="1.8" /><path d="M 197.93 333.76 C 199.12 329.46, 200.31 324.71, 201.51000000000002 320.18" fill="none" stroke="rgba(137,180,250,1)" stroke-width="1.8" /><path d="M 201.5 320.18 C 202.69 315.65000000000003, 203.88 310.90000000000003, 205.07 306.58" fill="none" stroke="rgba(137,180,250,1)" stroke-width="1.8" /><path d="M 205.08 306.59 C 206.27 302.28, 207.46 297.97999999999996, 208.66000000000003 294.29999999999995" fill="none" stroke="rgba(137,180,250,1)" stroke-width="1.8" /><path d="M 208.65 294.3 C 209.84 290.62, 211.03 287.21000000000004, 212.22 284.53000000000003" fill="none" stroke="rgba(137,180,250,1)" stroke-width="1.8" /><path d="M 212.23 284.53 C 213.42 281.84999999999997, 214.60999999999999 279.65, 215.79999999999998 278.21999999999997" fill="none" stroke="rgba(137,180,250,1)" stroke-width="1.8" /><path d="M 215.8 278.22 C 216.99 276.8, 218.18 276.02000000000004, 219.37 276" fill="none" stroke="rgba(137,180,250,1)" stroke-width="1.8" /><path d="M 219.38 276 C 220.57 275.98, 221.76 276.7, 222.96 278.08" fill="none" stroke="rgba(137,180,250,1)" stroke-width="1.8" /><path d="M 222.95 278.08 C 224.14 279.46, 225.32999999999998 281.62, 226.51999999999998 284.26" fill="none" stroke="rgba(137,180,250,1)" stroke-width="1.8" /><path d="M 226.53 284.26 C 227.72 286.9, 228.91 290.28, 230.1 293.93" fill="none" stroke="rgba(137,180,250,1)" stroke-width="1.8" /><path d="M 230.1 293.93 C 231.29 297.58, 232.48 301.85, 233.68 306.15000000000003" fill="none" stroke="rgba(137,180,250,1)" stroke-width="1.8" /><path d="M 233.68 306.15 C 234.87 310.45, 236.06 315.19, 237.25 319.71999999999997" fill="none" stroke="rgba(137,180,250,1)" stroke-width="1.8" /><path d="M 237.25 319.72 C 238.44 324.25, 239.63 329, 240.83 333.32000000000005" fill="none" stroke="rgba(137,180,250,1)" stroke-width="1.8" /><path d="M 240.83 333.32 C 242.02 337.64, 243.21 341.94, 244.4 345.62" fill="none" stroke="rgba(137,180,250,1)" stroke-width="1.8" /><path d="M 244.4 345.62 C 245.59 349.3, 246.78 352.73, 247.97 355.41" fill="none" stroke="rgba(137,180,250,1)" stroke-width="1.8" /><path d="M 247.98 355.42 C 249.17 358.11, 250.35999999999999 360.32, 251.54999999999998 361.75" fill="none" stroke="rgba(137,180,250,1)" stroke-width="1.8" /><path d="M 251.55 361.75 C 252.74 363.18, 253.93 363.97, 255.12 364" fill="none" stroke="rgba(137,180,250,1)" stroke-width="1.8" /><path d="M 255.13 364 C 256.32 364.03, 257.51 363.32, 258.71 361.95" fill="none" stroke="rgba(137,180,250,1)" stroke-width="1.8" /><path d="M 258.7 361.95 C 259.89 360.58, 261.08 358.43, 262.27 355.8" fill="none" stroke="rgba(137,180,250,1)" stroke-width="1.8" /><path d="M 262.27 355.8 C 263.46 353.17, 264.65 349.79, 265.84 346.15000000000003" fill="none" stroke="rgba(137,180,250,1)" stroke-width="1.8" /><path d="M 265.85 346.14 C 267.04 342.5, 268.23 338.22999999999996, 269.43 333.93" fill="none" stroke="rgba(137,180,250,1)" stroke-width="1.8" /><path d="M 269.43 333.94 C 270.62 329.64, 272.41 322.63, 273 320.37" fill="none" stroke="rgba(137,180,250,1)" stroke-width="1.8" /><text x="201.5" y="386" font-size="10" fill="rgba(205,214,244,1)" font-family="serif" text-anchor="middle" dominant-baseline="middle">переменный вход</text><line x1="281.25" y1="320" x2="297.75" y2="320" stroke="rgba(205,214,244,1)" stroke-width="1.5" /><line x1="297.75" y1="306.25" x2="297.75" y2="333.75" stroke="rgba(205,214,244,1)" stroke-width="1.5" /><line x1="297.75" y1="306.25" x2="319.75" y2="320" stroke="rgba(205,214,244,1)" stroke-width="1.5" /><line x1="297.75" y1="333.75" x2="319.75" y2="320" stroke="rgba(205,214,244,1)" stroke-width="1.5" /><line x1="319.75" y1="306.25" x2="319.75" y2="333.75" stroke="rgba(205,214,244,1)" stroke-width="1.5" /><line x1="319.75" y1="320" x2="336.25" y2="320" stroke="rgba(205,214,244,1)" stroke-width="1.5" /><line x1="344.5" y1="320" x2="493" y2="320" stroke="rgba(127,132,156,1)" stroke-width="0.8" /><path d="M 344.5 320 C 345 318.1, 346.49 312.28, 347.48 308.62" fill="none" stroke="rgba(166,227,161,1)" stroke-width="1.8" /><path d="M 347.48 308.62 C 348.47 304.96, 349.47 301.3, 350.46000000000004 298.01" fill="none" stroke="rgba(166,227,161,1)" stroke-width="1.8" /><path d="M 350.46 298.01 C 351.45 294.71999999999997, 352.45 291.58, 353.44 288.9" fill="none" stroke="rgba(166,227,161,1)" stroke-width="1.8" /><path d="M 353.44 288.9 C 354.43 286.21999999999997, 355.43 283.81, 356.42 281.90999999999997" fill="none" stroke="rgba(166,227,161,1)" stroke-width="1.8" /><path d="M 356.42 281.91 C 357.41 280.01000000000005, 358.41 278.49, 359.40000000000003 277.51000000000005" fill="none" stroke="rgba(166,227,161,1)" stroke-width="1.8" /><path d="M 359.4 277.51 C 360.39 276.52, 361.39 276, 362.38 276" fill="none" stroke="rgba(166,227,161,1)" stroke-width="1.8" /><path d="M 362.38 276 C 363.37 276, 364.37 276.51, 365.36 277.49" fill="none" stroke="rgba(166,227,161,1)" stroke-width="1.8" /><path d="M 365.35 277.49 C 366.34000000000003 278.47, 367.34000000000003 279.98, 368.33000000000004 281.87" fill="none" stroke="rgba(166,227,161,1)" stroke-width="1.8" /><path d="M 368.33 281.86 C 369.32 283.75, 370.32 286.16, 371.31 288.83000000000004" fill="none" stroke="rgba(166,227,161,1)" stroke-width="1.8" /><path d="M 371.31 288.84 C 372.3 291.52, 373.3 294.65, 374.29 297.94" fill="none" stroke="rgba(166,227,161,1)" stroke-width="1.8" /><path d="M 374.29 297.93 C 375.28000000000003 301.21, 376.28000000000003 304.86, 377.27000000000004 308.53000000000003" fill="none" stroke="rgba(166,227,161,1)" stroke-width="1.8" /><path d="M 377.27 308.53 C 378.26 312.19, 379.26 318, 380.25 319.90999999999997" fill="none" stroke="rgba(166,227,161,1)" stroke-width="1.8" /><path d="M 380.25 319.91 C 381.24 321.82000000000005, 382.24 319.99, 383.23 320" fill="none" stroke="rgba(166,227,161,1)" stroke-width="1.8" /><path d="M 383.23 320 C 384.22 320.02, 385.22 320, 386.21000000000004 320" fill="none" stroke="rgba(166,227,161,1)" stroke-width="1.8" /><path d="M 386.21 320 C 387.2 320, 388.2 320, 389.19 320" fill="none" stroke="rgba(166,227,161,1)" stroke-width="1.8" /><path d="M 389.19 320 C 390.18 320, 391.18 320, 392.17 320" fill="none" stroke="rgba(166,227,161,1)" stroke-width="1.8" /><path d="M 392.17 320 C 393.16 320, 394.16 320, 395.15000000000003 320" fill="none" stroke="rgba(166,227,161,1)" stroke-width="1.8" /><path d="M 395.15 320 C 396.14 320, 397.14 320, 398.13 320" fill="none" stroke="rgba(166,227,161,1)" stroke-width="1.8" /><path d="M 398.13 320 C 399.12 320, 400.12 320, 401.11 320" fill="none" stroke="rgba(166,227,161,1)" stroke-width="1.8" /><path d="M 401.1 320 C 402.09000000000003 320, 403.09000000000003 320, 404.08000000000004 320" fill="none" stroke="rgba(166,227,161,1)" stroke-width="1.8" /><path d="M 404.08 320 C 405.07 320, 406.07 320, 407.06 320" fill="none" stroke="rgba(166,227,161,1)" stroke-width="1.8" /><path d="M 407.06 320 C 408.05 320, 409.05 320, 410.04 320" fill="none" stroke="rgba(166,227,161,1)" stroke-width="1.8" /><path d="M 410.04 320 C 411.03000000000003 320, 412.03000000000003 320, 413.02000000000004 320" fill="none" stroke="rgba(166,227,161,1)" stroke-width="1.8" /><path d="M 413.02 320 C 414.01 320, 415.01 321.87, 416 320" fill="none" stroke="rgba(166,227,161,1)" stroke-width="1.8" /><path d="M 416 320 C 416.99 318.13, 417.99 312.44, 418.98 308.8" fill="none" stroke="rgba(166,227,161,1)" stroke-width="1.8" /><path d="M 418.98 308.8 C 419.97 305.16, 420.97 301.47, 421.96000000000004 298.18" fill="none" stroke="rgba(166,227,161,1)" stroke-width="1.8" /><path d="M 421.96 298.17 C 422.95 294.88, 423.95 291.73, 424.94 289.03000000000003" fill="none" stroke="rgba(166,227,161,1)" stroke-width="1.8" /><path d="M 424.94 289.03 C 425.93 286.33, 426.93 283.90999999999997, 427.92 282" fill="none" stroke="rgba(166,227,161,1)" stroke-width="1.8" /><path d="M 427.92 282 C 428.91 280.09, 429.91 278.55, 430.90000000000003 277.55" fill="none" stroke="rgba(166,227,161,1)" stroke-width="1.8" /><path d="M 430.9 277.56 C 431.89 276.56, 432.89 276.02, 433.88 276" fill="none" stroke="rgba(166,227,161,1)" stroke-width="1.8" /><path d="M 433.88 276 C 434.87 275.98, 435.87 276.48, 436.86 277.44" fill="none" stroke="rgba(166,227,161,1)" stroke-width="1.8" /><path d="M 436.85 277.44 C 437.84000000000003 278.4, 438.84000000000003 279.9, 439.83000000000004 281.77" fill="none" stroke="rgba(166,227,161,1)" stroke-width="1.8" /><path d="M 439.83 281.77 C 440.82 283.65, 441.82 286.03999999999996, 442.81 288.71" fill="none" stroke="rgba(166,227,161,1)" stroke-width="1.8" /><path d="M 442.81 288.71 C 443.8 291.38, 444.8 294.5, 445.79 297.78" fill="none" stroke="rgba(166,227,161,1)" stroke-width="1.8" /><path d="M 445.79 297.77 C 446.78000000000003 301.03999999999996, 447.78000000000003 304.69, 448.77000000000004 308.34999999999997" fill="none" stroke="rgba(166,227,161,1)" stroke-width="1.8" /><path d="M 448.77 308.35 C 449.76 312.01000000000005, 450.76 317.78000000000003, 451.75 319.72" fill="none" stroke="rgba(166,227,161,1)" stroke-width="1.8" /><path d="M 451.75 319.72 C 452.74 321.66, 453.74 319.95000000000005, 454.73 320" fill="none" stroke="rgba(166,227,161,1)" stroke-width="1.8" /><path d="M 454.73 320 C 455.72 320.05, 456.72 320, 457.71000000000004 320" fill="none" stroke="rgba(166,227,161,1)" stroke-width="1.8" /><path d="M 457.71 320 C 458.7 320, 459.7 320, 460.69 320" fill="none" stroke="rgba(166,227,161,1)" stroke-width="1.8" /><path d="M 460.69 320 C 461.68 320, 462.68 320, 463.67 320" fill="none" stroke="rgba(166,227,161,1)" stroke-width="1.8" /><path d="M 463.67 320 C 464.66 320, 465.66 320, 466.65000000000003 320" fill="none" stroke="rgba(166,227,161,1)" stroke-width="1.8" /><path d="M 466.65 320 C 467.64 320, 468.64 320, 469.63 320" fill="none" stroke="rgba(166,227,161,1)" stroke-width="1.8" /><path d="M 469.63 320 C 470.62 320, 471.62 320, 472.61 320" fill="none" stroke="rgba(166,227,161,1)" stroke-width="1.8" /><path d="M 472.6 320 C 473.59000000000003 320, 474.59000000000003 320, 475.58000000000004 320" fill="none" stroke="rgba(166,227,161,1)" stroke-width="1.8" /><path d="M 475.58 320 C 476.57 320, 477.57 320, 478.56 320" fill="none" stroke="rgba(166,227,161,1)" stroke-width="1.8" /><path d="M 478.56 320 C 479.55 320, 480.55 320, 481.54 320" fill="none" stroke="rgba(166,227,161,1)" stroke-width="1.8" /><path d="M 481.54 320 C 482.53000000000003 320, 483.53000000000003 320, 484.52000000000004 320" fill="none" stroke="rgba(166,227,161,1)" stroke-width="1.8" /><path d="M 484.52 320 C 485.51 320, 487 320, 487.5 320" fill="none" stroke="rgba(166,227,161,1)" stroke-width="1.8" /><text x="418.75" y="386" font-size="10" fill="rgba(166,227,161,1)" font-family="serif" text-anchor="middle" dominant-baseline="middle">остались полуволны одного знака</text></svg>