<svg xmlns="http://www.w3.org/2000/svg" width="355.70000000000005pt" height="201pt" viewBox="120.6 202 355.70000000000005 201"><line x1="140" y1="300" x2="452" y2="300" stroke="rgba(0,0,0,1)" stroke-width="1" /><polygon points="460,300 453.0717967697245,304 453.0717967697245,296" fill="rgba(0,0,0,1)" /><line x1="160" y1="380" x2="160" y2="228" stroke="rgba(0,0,0,1)" stroke-width="1" /><polygon points="160,220 164,226.9282032302755 156,226.9282032302755" fill="rgba(0,0,0,1)" /><text x="465" y="300" font-size="11" fill="rgba(0,0,0,1)" font-family="serif" text-anchor="middle" dominant-baseline="middle">t</text><text x="152" y="216" font-size="11" fill="rgba(0,0,0,1)" font-family="serif" text-anchor="middle" dominant-baseline="middle">x</text><path d="M 160 240 C 180 240, 190 240, 200 270" fill="none" stroke="rgba(103,135,188,1)" stroke-width="1.8" /><path d="M 200 270 C 215 310, 245 310, 260 270" fill="none" stroke="rgba(103,135,188,1)" stroke-width="1.8" /><path d="M 260 270 C 275 230, 285 210, 300 210" fill="none" stroke="rgba(103,135,188,1)" stroke-width="1.8" /><path d="M 300 270 C 315 270, 325 330, 340 330" fill="none" stroke="rgba(103,135,188,1)" stroke-width="1.8" /><path d="M 340 330 C 355 330, 365 270, 380 270" fill="none" stroke="rgba(103,135,188,1)" stroke-width="1.8" /><path d="M 380 270 C 395 270, 405 240, 420 240" fill="none" stroke="rgba(103,135,188,1)" stroke-width="1.8" /><line x1="160" y1="240" x2="440" y2="240" stroke="rgba(100,100,100,1)" stroke-width="0.5" /><line x1="160" y1="360" x2="440" y2="360" stroke="rgba(100,100,100,1)" stroke-width="0.5" /><text x="140" y="240" font-size="9" fill="rgba(103,135,188,1)" font-family="serif" text-anchor="middle" dominant-baseline="middle">A</text><text x="134" y="360" font-size="9" fill="rgba(103,135,188,1)" font-family="serif" text-anchor="middle" dominant-baseline="middle">-A</text><line x1="160" y1="300" x2="160" y2="306" stroke="rgba(0,0,0,1)" stroke-width="1" /><line x1="300" y1="300" x2="300" y2="306" stroke="rgba(0,0,0,1)" stroke-width="1" /><line x1="168" y1="378" x2="284" y2="378" stroke="rgba(100,100,100,1)" stroke-width="0.8" /><polygon points="292,378 285.0717967697245,382 285.0717967697245,374" fill="rgba(100,100,100,1)" /><line x1="292" y1="378" x2="176" y2="378" stroke="rgba(100,100,100,1)" stroke-width="0.8" /><polygon points="168,378 174.9282032302755,374 174.9282032302755,382" fill="rgba(100,100,100,1)" /><text x="230" y="390" font-size="10" fill="rgba(100,100,100,1)" font-family="serif" text-anchor="middle" dominant-baseline="middle">T</text></svg>