<svg xmlns="http://www.w3.org/2000/svg" width="238pt" height="280pt" viewBox="204 176 238 280"><line x1="260" y1="448" x2="260" y2="184" stroke="rgba(203,166,247,1)" stroke-width="2.5" /><line x1="260" y1="223" x2="260" y2="201" stroke="rgba(203,166,247,1)" stroke-width="2.5" /><polygon points="260,193 264,199.9282032302755 256,199.9282032302755" fill="rgba(203,166,247,1)" /><text x="276.8" y="190" font-size="12" fill="rgba(203,166,247,1)" font-family="serif" font-style="italic" text-anchor="middle" dominant-baseline="middle">I</text><circle cx="410" cy="340" r="3.5" fill="rgba(205,214,244,1)"  /><text x="423.2" y="344.2" font-size="12" fill="rgba(205,214,244,1)" font-family="serif" font-style="italic" text-anchor="middle" dominant-baseline="middle">P</text><line x1="256.4" y1="262" x2="263.59999999999997" y2="250" stroke="rgba(250,179,135,1)" stroke-width="3" /><text x="237.2" y="251.8" font-size="12" fill="rgba(250,179,135,1)" font-family="serif" font-style="italic" text-anchor="middle" dominant-baseline="middle">dz</text><line x1="260" y1="256" x2="410" y2="340" stroke="rgba(243,139,168,1)" stroke-width="1.7" /><text x="348.2" y="281.8" font-size="12" fill="rgba(243,139,168,1)" font-family="serif" font-style="italic" text-anchor="middle" dominant-baseline="middle">R</text><line x1="260" y1="340" x2="410" y2="340" stroke="rgba(137,180,250,1)" stroke-width="1.5" stroke-dasharray="5 4" /><text x="335" y="355.6" font-size="12" fill="rgba(137,180,250,1)" font-family="serif" font-style="italic" text-anchor="middle" dominant-baseline="middle">r</text><line x1="236" y1="340" x2="236" y2="256" stroke="rgba(127,132,156,1)" stroke-width="1" /><line x1="233" y1="340" x2="239" y2="340" stroke="rgba(127,132,156,1)" stroke-width="1" /><line x1="233" y1="256" x2="239" y2="256" stroke="rgba(127,132,156,1)" stroke-width="1" /><text x="222.8" y="298" font-size="12" fill="rgba(205,214,244,1)" font-family="serif" font-style="italic" text-anchor="middle" dominant-baseline="middle">z</text><path d="M 260 286 C 270.86 286, 280.87 280.13, 286.18 270.66" fill="none" stroke="rgba(127,132,156,1)" stroke-width="1" /><text x="282.8" y="293.2" font-size="12" fill="rgba(205,214,244,1)" font-family="serif" font-style="italic" text-anchor="middle" dominant-baseline="middle">α</text></svg>