<svg xmlns="http://www.w3.org/2000/svg" width="316pt" height="163.5pt" viewBox="142 242.5 316 163.5"><rect x="150" y="260" width="50" height="80" fill="rgba(137,180,250,0.2)" stroke="rgba(137,180,250,1)" stroke-width="2" /><text x="175" y="300" font-size="12" fill="rgba(137,180,250,1)" font-family="serif" text-anchor="middle" dominant-baseline="middle">N</text><rect x="400" y="260" width="50" height="80" fill="rgba(137,180,250,0.2)" stroke="rgba(137,180,250,1)" stroke-width="2" /><text x="425" y="300" font-size="12" fill="rgba(137,180,250,1)" font-family="serif" text-anchor="middle" dominant-baseline="middle">S</text><rect x="260" y="265" width="80" height="70" fill="none" stroke="rgba(205,214,244,1)" stroke-width="1.5" /><line x1="210" y1="285" x2="242" y2="285" stroke="rgba(127,132,156,1)" stroke-width="0.8" /><polygon points="250,285 243.0717967697245,289 243.0717967697245,281" fill="rgba(127,132,156,1)" /><line x1="210" y1="300" x2="242" y2="300" stroke="rgba(127,132,156,1)" stroke-width="0.8" /><polygon points="250,300 243.0717967697245,304 243.0717967697245,296" fill="rgba(127,132,156,1)" /><line x1="210" y1="315" x2="242" y2="315" stroke="rgba(127,132,156,1)" stroke-width="0.8" /><polygon points="250,315 243.0717967697245,319 243.0717967697245,311" fill="rgba(127,132,156,1)" /><line x1="350" y1="285" x2="382" y2="285" stroke="rgba(127,132,156,1)" stroke-width="0.8" /><polygon points="390,285 383.0717967697245,289 383.0717967697245,281" fill="rgba(127,132,156,1)" /><line x1="350" y1="300" x2="382" y2="300" stroke="rgba(127,132,156,1)" stroke-width="0.8" /><polygon points="390,300 383.0717967697245,304 383.0717967697245,296" fill="rgba(127,132,156,1)" /><line x1="350" y1="315" x2="382" y2="315" stroke="rgba(127,132,156,1)" stroke-width="0.8" /><polygon points="390,315 383.0717967697245,319 383.0717967697245,311" fill="rgba(127,132,156,1)" /><text x="300" y="255" font-size="9" fill="rgba(127,132,156,1)" font-family="serif" text-anchor="middle" dominant-baseline="middle">B</text><path d="M 310 350 C 290 360, 280 360, 270 350" fill="none" stroke="rgba(205,214,244,1)" stroke-width="1.2" /><line x1="270" y1="350" x2="273.6" y2="344" stroke="rgba(205,214,244,1)" stroke-width="1.2" /><polygon points="276,340 275.86544054813413,347.99886827957016 269.0054971424338,343.88290223614996" fill="rgba(205,214,244,1)" /><line x1="260" y1="300" x2="230" y2="300" stroke="rgba(205,214,244,1)" stroke-width="1" /><line x1="230" y1="300" x2="230" y2="360" stroke="rgba(205,214,244,1)" stroke-width="1" /><line x1="230" y1="360" x2="370" y2="360" stroke="rgba(205,214,244,1)" stroke-width="1" /><line x1="370" y1="360" x2="370" y2="300" stroke="rgba(205,214,244,1)" stroke-width="1" /><line x1="370" y1="300" x2="340" y2="300" stroke="rgba(205,214,244,1)" stroke-width="1" /><path d="M 280 390 C 290 382, 300 398, 320 390" fill="none" stroke="rgba(137,180,250,0.6)" stroke-width="1" /><text x="330" y="390" font-size="10" fill="rgba(137,180,250,0.6)" font-family="serif" text-anchor="middle" dominant-baseline="middle">~</text></svg>