<svg xmlns="http://www.w3.org/2000/svg" width="199.1pt" height="120pt" viewBox="198.9 232 199.1 120"><rect x="240" y="270" width="120" height="60" fill="rgba(137,180,250,0.2)" stroke="rgba(205,214,244,1)" stroke-width="1.5" /><line x1="210" y1="300" x2="232" y2="300" stroke="rgba(205,214,244,1)" stroke-width="1.5" /><polygon points="240,300 233.0717967697245,304 233.0717967697245,296" fill="rgba(205,214,244,1)" /><line x1="360" y1="300" x2="382" y2="300" stroke="rgba(205,214,244,1)" stroke-width="1.5" /><polygon points="390,300 383.0717967697245,304 383.0717967697245,296" fill="rgba(205,214,244,1)" /><text x="215" y="288" font-size="9" fill="rgba(205,214,244,1)" font-family="serif" font-style="italic" text-anchor="middle" dominant-baseline="middle">I</text><line x1="270" y1="240" x2="270" y2="258" stroke="rgba(137,180,250,1)" stroke-width="1.2" /><polygon points="270,266 266,259.0717967697245 274,259.0717967697245" fill="rgba(137,180,250,1)" /><line x1="300" y1="240" x2="300" y2="258" stroke="rgba(137,180,250,1)" stroke-width="1.2" /><polygon points="300,266 296,259.0717967697245 304,259.0717967697245" fill="rgba(137,180,250,1)" /><line x1="330" y1="240" x2="330" y2="258" stroke="rgba(137,180,250,1)" stroke-width="1.2" /><polygon points="330,266 326,259.0717967697245 334,259.0717967697245" fill="rgba(137,180,250,1)" /><text x="340" y="248" font-size="9" fill="rgba(137,180,250,1)" font-family="serif" font-style="italic" text-anchor="middle" dominant-baseline="middle">B</text><circle cx="275" cy="295" r="3" fill="rgba(137,180,250,0.6)"  /><circle cx="290" cy="290" r="3" fill="rgba(137,180,250,0.6)"  /><circle cx="305" cy="295" r="3" fill="rgba(137,180,250,0.6)"  /><circle cx="320" cy="290" r="3" fill="rgba(137,180,250,0.6)"  /><line x1="280" y1="292" x2="280" y2="304" stroke="rgba(137,180,250,0.6)" stroke-width="0.8" /><polygon points="280,312 276,305.0717967697245 284,305.0717967697245" fill="rgba(137,180,250,0.6)" /><line x1="295" y1="290" x2="295" y2="304" stroke="rgba(137,180,250,0.6)" stroke-width="0.8" /><polygon points="295,312 291,305.0717967697245 299,305.0717967697245" fill="rgba(137,180,250,0.6)" /><line x1="310" y1="292" x2="310" y2="304" stroke="rgba(137,180,250,0.6)" stroke-width="0.8" /><polygon points="310,312 306,305.0717967697245 314,305.0717967697245" fill="rgba(137,180,250,0.6)" /><text x="254" y="292" font-size="6" fill="rgba(137,180,250,0.6)" font-family="serif" text-anchor="middle" dominant-baseline="middle">e⁻</text><line x1="300" y1="270" x2="300" y2="256" stroke="rgba(205,214,244,1)" stroke-width="1" /><line x1="300" y1="330" x2="300" y2="344" stroke="rgba(205,214,244,1)" stroke-width="1" /><text x="306" y="254" font-size="7" fill="rgba(205,214,244,1)" font-family="serif" text-anchor="middle" dominant-baseline="middle">+</text><text x="306" y="340" font-size="7" fill="rgba(205,214,244,1)" font-family="serif" text-anchor="middle" dominant-baseline="middle">−</text><line x1="310" y1="264" x2="342" y2="264" stroke="rgba(127,132,156,1)" stroke-width="1" /><polygon points="350,264 343.0717967697245,268 343.0717967697245,260" fill="rgba(127,132,156,1)" /><line x1="350" y1="256" x2="350" y2="272" stroke="rgba(127,132,156,1)" stroke-width="0.8" /><line x1="310" y1="336" x2="342" y2="336" stroke="rgba(127,132,156,1)" stroke-width="1" /><polygon points="350,336 343.0717967697245,340 343.0717967697245,332" fill="rgba(127,132,156,1)" /><line x1="350" y1="328" x2="350" y2="344" stroke="rgba(127,132,156,1)" stroke-width="0.8" /><text x="356" y="298" font-size="7" fill="rgba(205,214,244,1)" font-family="serif" text-anchor="middle" dominant-baseline="middle">U_H</text></svg>