<svg xmlns="http://www.w3.org/2000/svg" width="566pt" height="109pt" viewBox="72 252 566 109"><rect x="80" y="260" width="250" height="70" fill="none" stroke="rgba(100,100,100,1)" stroke-width="1" /><circle cx="97" cy="322.5" r="2" fill="rgba(103,135,188,1)"  /><circle cx="248.5" cy="319" r="2" fill="rgba(103,135,188,1)"  /><circle cx="158" cy="287.5" r="2" fill="rgba(103,135,188,1)"  /><circle cx="314.5" cy="302.5" r="2" fill="rgba(103,135,188,1)"  /><circle cx="212.5" cy="314" r="2" fill="rgba(103,135,188,1)"  /><circle cx="110.5" cy="309" r="2" fill="rgba(103,135,188,1)"  /><circle cx="259" cy="277.5" r="2" fill="rgba(103,135,188,1)"  /><circle cx="150.5" cy="305" r="2" fill="rgba(103,135,188,1)"  /><text x="205" y="347.5" font-size="11" fill="rgba(0,0,0,1)" font-family="serif" text-anchor="middle" dominant-baseline="middle">20 электронов: «случайные» точки</text><rect x="380" y="260" width="250" height="70" fill="none" stroke="rgba(100,100,100,1)" stroke-width="1" /><circle cx="414.5" cy="305.64" r="1.7" fill="rgba(103,135,188,1)"  /><circle cx="457.1" cy="277.06" r="1.7" fill="rgba(103,135,188,1)"  /><circle cx="502.4" cy="309.2" r="1.7" fill="rgba(103,135,188,1)"  /><circle cx="547" cy="313.24" r="1.7" fill="rgba(103,135,188,1)"  /><circle cx="598" cy="302.42" r="1.7" fill="rgba(103,135,188,1)"  /><circle cx="404" cy="288.02" r="1.7" fill="rgba(103,135,188,1)"  /><circle cx="454" cy="318.68" r="1.7" fill="rgba(103,135,188,1)"  /><circle cx="505.7" cy="323.3" r="1.7" fill="rgba(103,135,188,1)"  /><circle cx="553.2" cy="295.4" r="1.7" fill="rgba(103,135,188,1)"  /><circle cx="609" cy="291.08" r="1.7" fill="rgba(103,135,188,1)"  /><circle cx="408.85" cy="269.76" r="1.7" fill="rgba(103,135,188,1)"  /><circle cx="458" cy="282.86" r="1.7" fill="rgba(103,135,188,1)"  /><circle cx="514.5" cy="305.64" r="1.7" fill="rgba(103,135,188,1)"  /><circle cx="557.1" cy="277.06" r="1.7" fill="rgba(103,135,188,1)"  /><circle cx="602.4" cy="309.2" r="1.7" fill="rgba(103,135,188,1)"  /><circle cx="397" cy="313.24" r="1.7" fill="rgba(103,135,188,1)"  /><circle cx="448" cy="302.42" r="1.7" fill="rgba(103,135,188,1)"  /><circle cx="504" cy="288.02" r="1.7" fill="rgba(103,135,188,1)"  /><circle cx="554" cy="318.68" r="1.7" fill="rgba(103,135,188,1)"  /><circle cx="605.7" cy="323.3" r="1.7" fill="rgba(103,135,188,1)"  /><circle cx="403.2" cy="295.4" r="1.7" fill="rgba(103,135,188,1)"  /><circle cx="459" cy="291.08" r="1.7" fill="rgba(103,135,188,1)"  /><circle cx="508.85" cy="269.76" r="1.7" fill="rgba(103,135,188,1)"  /><circle cx="558" cy="282.86" r="1.7" fill="rgba(103,135,188,1)"  /><circle cx="614.5" cy="305.64" r="1.7" fill="rgba(103,135,188,1)"  /><circle cx="407.1" cy="277.06" r="1.7" fill="rgba(103,135,188,1)"  /><circle cx="452.4" cy="309.2" r="1.7" fill="rgba(103,135,188,1)"  /><circle cx="497" cy="313.24" r="1.7" fill="rgba(103,135,188,1)"  /><circle cx="548" cy="302.42" r="1.7" fill="rgba(103,135,188,1)"  /><circle cx="604" cy="288.02" r="1.7" fill="rgba(103,135,188,1)"  /><circle cx="404" cy="318.68" r="1.7" fill="rgba(103,135,188,1)"  /><circle cx="455.7" cy="323.3" r="1.7" fill="rgba(103,135,188,1)"  /><circle cx="503.2" cy="295.4" r="1.7" fill="rgba(103,135,188,1)"  /><circle cx="559" cy="291.08" r="1.7" fill="rgba(103,135,188,1)"  /><circle cx="608.85" cy="269.76" r="1.7" fill="rgba(103,135,188,1)"  /><circle cx="408" cy="282.86" r="1.7" fill="rgba(103,135,188,1)"  /><circle cx="464.5" cy="305.64" r="1.7" fill="rgba(103,135,188,1)"  /><circle cx="507.1" cy="277.06" r="1.7" fill="rgba(103,135,188,1)"  /><circle cx="552.4" cy="309.2" r="1.7" fill="rgba(103,135,188,1)"  /><circle cx="597" cy="313.24" r="1.7" fill="rgba(103,135,188,1)"  /><circle cx="398" cy="302.42" r="1.7" fill="rgba(103,135,188,1)"  /><circle cx="454" cy="288.02" r="1.7" fill="rgba(103,135,188,1)"  /><circle cx="504" cy="318.68" r="1.7" fill="rgba(103,135,188,1)"  /><circle cx="555.7" cy="323.3" r="1.7" fill="rgba(103,135,188,1)"  /><circle cx="603.2" cy="295.4" r="1.7" fill="rgba(103,135,188,1)"  /><circle cx="409" cy="291.08" r="1.7" fill="rgba(103,135,188,1)"  /><circle cx="458.85" cy="269.76" r="1.7" fill="rgba(103,135,188,1)"  /><circle cx="508" cy="282.86" r="1.7" fill="rgba(103,135,188,1)"  /><circle cx="564.5" cy="305.64" r="1.7" fill="rgba(103,135,188,1)"  /><circle cx="607.1" cy="277.06" r="1.7" fill="rgba(103,135,188,1)"  /><circle cx="402.4" cy="309.2" r="1.7" fill="rgba(103,135,188,1)"  /><circle cx="447" cy="313.24" r="1.7" fill="rgba(103,135,188,1)"  /><circle cx="498" cy="302.42" r="1.7" fill="rgba(103,135,188,1)"  /><circle cx="554" cy="288.02" r="1.7" fill="rgba(103,135,188,1)"  /><circle cx="604" cy="318.68" r="1.7" fill="rgba(103,135,188,1)"  /><circle cx="405.7" cy="323.3" r="1.7" fill="rgba(103,135,188,1)"  /><circle cx="453.2" cy="295.4" r="1.7" fill="rgba(103,135,188,1)"  /><circle cx="509" cy="291.08" r="1.7" fill="rgba(103,135,188,1)"  /><circle cx="558.85" cy="269.76" r="1.7" fill="rgba(103,135,188,1)"  /><circle cx="608" cy="282.86" r="1.7" fill="rgba(103,135,188,1)"  /><circle cx="414.5" cy="305.64" r="1.7" fill="rgba(103,135,188,1)"  /><circle cx="457.1" cy="277.06" r="1.7" fill="rgba(103,135,188,1)"  /><circle cx="502.4" cy="309.2" r="1.7" fill="rgba(103,135,188,1)"  /><circle cx="547" cy="313.24" r="1.7" fill="rgba(103,135,188,1)"  /><circle cx="598" cy="302.42" r="1.7" fill="rgba(103,135,188,1)"  /><circle cx="404" cy="288.02" r="1.7" fill="rgba(103,135,188,1)"  /><circle cx="454" cy="318.68" r="1.7" fill="rgba(103,135,188,1)"  /><circle cx="505.7" cy="323.3" r="1.7" fill="rgba(103,135,188,1)"  /><circle cx="553.2" cy="295.4" r="1.7" fill="rgba(103,135,188,1)"  /><circle cx="609" cy="291.08" r="1.7" fill="rgba(103,135,188,1)"  /><circle cx="408.85" cy="269.76" r="1.7" fill="rgba(103,135,188,1)"  /><circle cx="458" cy="282.86" r="1.7" fill="rgba(103,135,188,1)"  /><circle cx="514.5" cy="305.64" r="1.7" fill="rgba(103,135,188,1)"  /><circle cx="557.1" cy="277.06" r="1.7" fill="rgba(103,135,188,1)"  /><circle cx="602.4" cy="309.2" r="1.7" fill="rgba(103,135,188,1)"  /><circle cx="397" cy="313.24" r="1.7" fill="rgba(103,135,188,1)"  /><circle cx="448" cy="302.42" r="1.7" fill="rgba(103,135,188,1)"  /><circle cx="504" cy="288.02" r="1.7" fill="rgba(103,135,188,1)"  /><circle cx="554" cy="318.68" r="1.7" fill="rgba(103,135,188,1)"  /><circle cx="605.7" cy="323.3" r="1.7" fill="rgba(103,135,188,1)"  /><circle cx="403.2" cy="295.4" r="1.7" fill="rgba(103,135,188,1)"  /><circle cx="459" cy="291.08" r="1.7" fill="rgba(103,135,188,1)"  /><circle cx="508.85" cy="269.76" r="1.7" fill="rgba(103,135,188,1)"  /><circle cx="558" cy="282.86" r="1.7" fill="rgba(103,135,188,1)"  /><circle cx="614.5" cy="305.64" r="1.7" fill="rgba(103,135,188,1)"  /><circle cx="407.1" cy="277.06" r="1.7" fill="rgba(103,135,188,1)"  /><circle cx="452.4" cy="309.2" r="1.7" fill="rgba(103,135,188,1)"  /><circle cx="497" cy="313.24" r="1.7" fill="rgba(103,135,188,1)"  /><circle cx="548" cy="302.42" r="1.7" fill="rgba(103,135,188,1)"  /><circle cx="604" cy="288.02" r="1.7" fill="rgba(103,135,188,1)"  /><circle cx="404" cy="318.68" r="1.7" fill="rgba(103,135,188,1)"  /><circle cx="455.7" cy="323.3" r="1.7" fill="rgba(103,135,188,1)"  /><circle cx="503.2" cy="295.4" r="1.7" fill="rgba(103,135,188,1)"  /><circle cx="559" cy="291.08" r="1.7" fill="rgba(103,135,188,1)"  /><circle cx="608.85" cy="269.76" r="1.7" fill="rgba(103,135,188,1)"  /><circle cx="408" cy="282.86" r="1.7" fill="rgba(103,135,188,1)"  /><circle cx="464.5" cy="305.64" r="1.7" fill="rgba(103,135,188,1)"  /><circle cx="507.1" cy="277.06" r="1.7" fill="rgba(103,135,188,1)"  /><circle cx="552.4" cy="309.2" r="1.7" fill="rgba(103,135,188,1)"  /><circle cx="597" cy="313.24" r="1.7" fill="rgba(103,135,188,1)"  /><circle cx="398" cy="302.42" r="1.7" fill="rgba(103,135,188,1)"  /><circle cx="454" cy="288.02" r="1.7" fill="rgba(103,135,188,1)"  /><circle cx="504" cy="318.68" r="1.7" fill="rgba(103,135,188,1)"  /><circle cx="555.7" cy="323.3" r="1.7" fill="rgba(103,135,188,1)"  /><circle cx="603.2" cy="295.4" r="1.7" fill="rgba(103,135,188,1)"  /><circle cx="409" cy="291.08" r="1.7" fill="rgba(103,135,188,1)"  /><circle cx="458.85" cy="269.76" r="1.7" fill="rgba(103,135,188,1)"  /><circle cx="508" cy="282.86" r="1.7" fill="rgba(103,135,188,1)"  /><circle cx="564.5" cy="305.64" r="1.7" fill="rgba(103,135,188,1)"  /><circle cx="607.1" cy="277.06" r="1.7" fill="rgba(103,135,188,1)"  /><circle cx="402.4" cy="309.2" r="1.7" fill="rgba(103,135,188,1)"  /><circle cx="447" cy="313.24" r="1.7" fill="rgba(103,135,188,1)"  /><circle cx="498" cy="302.42" r="1.7" fill="rgba(103,135,188,1)"  /><circle cx="554" cy="288.02" r="1.7" fill="rgba(103,135,188,1)"  /><circle cx="604" cy="318.68" r="1.7" fill="rgba(103,135,188,1)"  /><circle cx="405.7" cy="323.3" r="1.7" fill="rgba(103,135,188,1)"  /><circle cx="453.2" cy="295.4" r="1.7" fill="rgba(103,135,188,1)"  /><circle cx="509" cy="291.08" r="1.7" fill="rgba(103,135,188,1)"  /><circle cx="558.85" cy="269.76" r="1.7" fill="rgba(103,135,188,1)"  /><circle cx="608" cy="282.86" r="1.7" fill="rgba(103,135,188,1)"  /><text x="505" y="347.5" font-size="11" fill="rgba(0,0,0,1)" font-family="serif" text-anchor="middle" dominant-baseline="middle">тысячи электронов: полосы</text></svg>