<svg xmlns="http://www.w3.org/2000/svg" width="644pt" height="236pt" viewBox="52 82 644 236"><line x1="60" y1="90" x2="240" y2="90" stroke="rgba(127,132,156,1)" stroke-width="2" /><line x1="120" y1="90" x2="120" y2="170" stroke="rgba(205,214,244,1)" stroke-width="1" /><line x1="180" y1="90" x2="180" y2="170" stroke="rgba(205,214,244,1)" stroke-width="1" /><circle cx="120" cy="178" r="8" fill="rgba(137,180,250,0.4)" stroke="rgba(137,180,250,1)" stroke-width="1" /><circle cx="180" cy="178" r="8" fill="rgba(137,180,250,0.4)" stroke="rgba(137,180,250,1)" stroke-width="1" /><text x="150" y="218" font-size="9" fill="rgba(127,132,156,1)" font-family="serif" text-anchor="middle" dominant-baseline="middle">два маятника, общая верёвка</text><line x1="300" y1="90" x2="460" y2="90" stroke="rgba(127,132,156,1)" stroke-width="2" /><line x1="350" y1="90" x2="370" y2="170" stroke="rgba(205,214,244,1)" stroke-width="1" /><line x1="410" y1="90" x2="430" y2="170" stroke="rgba(205,214,244,1)" stroke-width="1" /><circle cx="370" cy="178" r="8" fill="rgba(137,180,250,0.4)" stroke="rgba(137,180,250,1)" stroke-width="1" /><circle cx="430" cy="178" r="8" fill="rgba(137,180,250,0.4)" stroke="rgba(137,180,250,1)" stroke-width="1" /><line x1="384" y1="192" x2="400" y2="192" stroke="rgba(137,180,250,0.6)" stroke-width="1" /><polygon points="408,192 401.0717967697245,196 401.0717967697245,188" fill="rgba(137,180,250,0.6)" /><line x1="444" y1="192" x2="460" y2="192" stroke="rgba(137,180,250,0.6)" stroke-width="1" /><polygon points="468,192 461.0717967697245,196 461.0717967697245,188" fill="rgba(137,180,250,0.6)" /><text x="395" y="218" font-size="9" fill="rgba(205,214,244,1)" font-family="serif" text-anchor="middle" dominant-baseline="middle">в такт: ω₁</text><line x1="520" y1="90" x2="680" y2="90" stroke="rgba(127,132,156,1)" stroke-width="2" /><line x1="570" y1="90" x2="550" y2="170" stroke="rgba(205,214,244,1)" stroke-width="1" /><line x1="630" y1="90" x2="650" y2="170" stroke="rgba(205,214,244,1)" stroke-width="1" /><circle cx="550" cy="178" r="8" fill="rgba(137,180,250,0.4)" stroke="rgba(137,180,250,1)" stroke-width="1" /><circle cx="650" cy="178" r="8" fill="rgba(137,180,250,0.4)" stroke="rgba(137,180,250,1)" stroke-width="1" /><line x1="536" y1="192" x2="520" y2="192" stroke="rgba(137,180,250,0.6)" stroke-width="1" /><polygon points="512,192 518.9282032302755,188 518.9282032302755,196" fill="rgba(137,180,250,0.6)" /><line x1="664" y1="192" x2="680" y2="192" stroke="rgba(137,180,250,0.6)" stroke-width="1" /><polygon points="688,192 681.0717967697245,196 681.0717967697245,188" fill="rgba(137,180,250,0.6)" /><text x="600" y="218" font-size="9" fill="rgba(205,214,244,1)" font-family="serif" text-anchor="middle" dominant-baseline="middle">навстречу: ω₂ &gt; ω₁</text><line x1="120" y1="290" x2="660" y2="290" stroke="rgba(127,132,156,1)" stroke-width="1" /><line x1="190" y1="290" x2="190" y2="264" stroke="rgba(137,180,250,0.4)" stroke-width="2" /><text x="190" y="306" font-size="8" fill="rgba(127,132,156,1)" font-family="serif" text-anchor="middle" dominant-baseline="middle">один маятник: ω₀</text><line x1="540" y1="290" x2="540" y2="264" stroke="rgba(137,180,250,1)" stroke-width="2" /><line x1="580" y1="290" x2="580" y2="264" stroke="rgba(137,180,250,1)" stroke-width="2" /><text x="560" y="306" font-size="8" fill="rgba(127,132,156,1)" font-family="serif" text-anchor="middle" dominant-baseline="middle">пара: ω₁ и ω₂ — уровень расщепился</text></svg>