<svg xmlns="http://www.w3.org/2000/svg" width="294.13pt" height="170.64999999999998pt" viewBox="117 198.75 294.13 170.64999999999998"><circle cx="130" cy="330" r="5" fill="rgba(137,180,250,0.2)" stroke="rgba(127,132,156,1)" stroke-width="1" /><circle cx="130" cy="299.75" r="5" fill="rgba(137,180,250,0.2)" stroke="rgba(127,132,156,1)" stroke-width="1" /><circle cx="130" cy="269.5" r="5" fill="rgba(137,180,250,0.2)" stroke="rgba(127,132,156,1)" stroke-width="1" /><circle cx="130" cy="239.25" r="5" fill="rgba(137,180,250,0.2)" stroke="rgba(127,132,156,1)" stroke-width="1" /><circle cx="160.25" cy="330" r="5" fill="rgba(137,180,250,0.2)" stroke="rgba(127,132,156,1)" stroke-width="1" /><circle cx="160.25" cy="299.75" r="5" fill="rgba(137,180,250,0.2)" stroke="rgba(127,132,156,1)" stroke-width="1" /><circle cx="160.25" cy="269.5" r="5" fill="rgba(137,180,250,0.2)" stroke="rgba(127,132,156,1)" stroke-width="1" /><circle cx="160.25" cy="239.25" r="5" fill="rgba(137,180,250,0.2)" stroke="rgba(127,132,156,1)" stroke-width="1" /><circle cx="190.5" cy="330" r="5" fill="rgba(137,180,250,0.2)" stroke="rgba(127,132,156,1)" stroke-width="1" /><circle cx="190.5" cy="299.75" r="5" fill="rgba(137,180,250,0.2)" stroke="rgba(127,132,156,1)" stroke-width="1" /><circle cx="190.5" cy="269.5" r="5" fill="rgba(137,180,250,0.2)" stroke="rgba(127,132,156,1)" stroke-width="1" /><circle cx="220.75" cy="330" r="5" fill="rgba(137,180,250,0.2)" stroke="rgba(127,132,156,1)" stroke-width="1" /><circle cx="220.75" cy="299.75" r="5" fill="rgba(137,180,250,0.2)" stroke="rgba(127,132,156,1)" stroke-width="1" /><circle cx="220.75" cy="269.5" r="5" fill="rgba(137,180,250,0.2)" stroke="rgba(127,132,156,1)" stroke-width="1" /><circle cx="220.75" cy="239.25" r="5" fill="rgba(137,180,250,0.2)" stroke="rgba(127,132,156,1)" stroke-width="1" /><circle cx="251" cy="330" r="5" fill="rgba(137,180,250,0.2)" stroke="rgba(127,132,156,1)" stroke-width="1" /><circle cx="251" cy="299.75" r="5" fill="rgba(137,180,250,0.2)" stroke="rgba(127,132,156,1)" stroke-width="1" /><circle cx="251" cy="269.5" r="5" fill="rgba(137,180,250,0.2)" stroke="rgba(127,132,156,1)" stroke-width="1" /><circle cx="251" cy="239.25" r="5" fill="rgba(137,180,250,0.2)" stroke="rgba(127,132,156,1)" stroke-width="1" /><circle cx="281.25" cy="330" r="5" fill="rgba(137,180,250,0.2)" stroke="rgba(127,132,156,1)" stroke-width="1" /><circle cx="281.25" cy="299.75" r="5" fill="rgba(137,180,250,0.2)" stroke="rgba(127,132,156,1)" stroke-width="1" /><circle cx="281.25" cy="269.5" r="5" fill="rgba(137,180,250,0.2)" stroke="rgba(127,132,156,1)" stroke-width="1" /><circle cx="281.25" cy="239.25" r="5" fill="rgba(137,180,250,0.2)" stroke="rgba(127,132,156,1)" stroke-width="1" /><circle cx="311.5" cy="330" r="5" fill="rgba(137,180,250,0.2)" stroke="rgba(127,132,156,1)" stroke-width="1" /><circle cx="311.5" cy="299.75" r="5" fill="rgba(137,180,250,0.2)" stroke="rgba(127,132,156,1)" stroke-width="1" /><circle cx="311.5" cy="269.5" r="5" fill="rgba(137,180,250,0.2)" stroke="rgba(127,132,156,1)" stroke-width="1" /><circle cx="311.5" cy="239.25" r="5" fill="rgba(137,180,250,0.2)" stroke="rgba(127,132,156,1)" stroke-width="1" /><circle cx="190.5" cy="239.25" r="5" fill="none" stroke="rgba(127,132,156,1)" stroke-width="1" stroke-dasharray="5 4" /><text x="190.5" y="211.75" font-size="10" fill="rgba(205,214,244,1)" font-family="serif" text-anchor="middle" dominant-baseline="middle">вакансия</text><circle cx="281.25" cy="330" r="7" fill="rgba(243,139,168,1)"  /><text x="281.25" y="356.4" font-size="10" fill="rgba(243,139,168,1)" font-family="serif" text-anchor="middle" dominant-baseline="middle">примесь</text><circle cx="145.13" cy="284.63" r="4" fill="rgba(166,227,161,1)"  /><text x="160.25" y="356.4" font-size="10" fill="rgba(166,227,161,1)" font-family="serif" text-anchor="middle" dominant-baseline="middle">межузельный</text><line x1="145.13" y1="286.14" x2="148.43" y2="345.4" stroke="rgba(127,132,156,1)" stroke-width="0.7" /><circle cx="296.38" cy="239.25" r="5" fill="rgba(250,179,135,1)"  /><circle cx="296.38" cy="269.5" r="5" fill="rgba(250,179,135,1)"  /><line x1="296.38" y1="277.06" x2="296.38" y2="311.85" stroke="rgba(127,132,156,1)" stroke-width="1" stroke-dasharray="5 4" /><text x="329.38" y="211.75" font-size="10" fill="rgba(250,179,135,1)" font-family="serif" text-anchor="middle" dominant-baseline="middle">дислокация:</text><text x="343.13" y="227.15" font-size="10" fill="rgba(250,179,135,1)" font-family="serif" text-anchor="middle" dominant-baseline="middle">лишняя полуплоскость</text></svg>