<svg xmlns="http://www.w3.org/2000/svg" width="398.05pt" height="187.1pt" viewBox="68.75 162.9 398.05 187.1"><line x1="140" y1="320" x2="429" y2="320" stroke="rgba(100,100,100,1)" stroke-width="1" /><polygon points="437,320 430.0717967697245,324 430.0717967697245,316" fill="rgba(100,100,100,1)" /><line x1="148.25" y1="328.25" x2="148.25" y2="185" stroke="rgba(100,100,100,1)" stroke-width="1" /><polygon points="148.25,177 152.25,183.9282032302755 144.25,183.9282032302755" fill="rgba(100,100,100,1)" /><text x="448" y="323.85" font-size="12" fill="rgba(0,0,0,1)" font-family="serif" font-style="italic" text-anchor="middle" dominant-baseline="middle">x</text><text x="228" y="175.9" font-size="10" fill="rgba(100,100,100,1)" font-family="serif" text-anchor="middle" dominant-baseline="middle">сколько носителей доживает</text><path d="M 148.25 211.29 C 150.03 213.64, 155.37 220.98, 158.93 225.37" fill="none" stroke="rgba(103,135,188,1)" stroke-width="2.2" /><path d="M 158.93 225.38 C 162.49 229.76999999999998, 166.05 233.82, 169.61 237.64" fill="none" stroke="rgba(103,135,188,1)" stroke-width="2.2" /><path d="M 169.62 237.63 C 173.18 241.45, 176.74 244.97, 180.3 248.29999999999998" fill="none" stroke="rgba(103,135,188,1)" stroke-width="2.2" /><path d="M 180.3 248.3 C 183.86 251.63000000000002, 187.42000000000002 254.69, 190.98000000000002 257.59000000000003" fill="none" stroke="rgba(103,135,188,1)" stroke-width="2.2" /><path d="M 190.98 257.59 C 194.54 260.48999999999995, 198.1 263.15, 201.66 265.66999999999996" fill="none" stroke="rgba(103,135,188,1)" stroke-width="2.2" /><path d="M 201.66 265.68 C 205.22 268.2, 208.78 270.52, 212.34 272.72" fill="none" stroke="rgba(103,135,188,1)" stroke-width="2.2" /><path d="M 212.35 272.71 C 215.91 274.9, 219.47 276.93, 223.03 278.84" fill="none" stroke="rgba(103,135,188,1)" stroke-width="2.2" /><path d="M 223.03 278.84 C 226.59 280.75, 230.15 282.51, 233.71 284.16999999999996" fill="none" stroke="rgba(103,135,188,1)" stroke-width="2.2" /><path d="M 233.71 284.17 C 237.27 285.83000000000004, 240.83 287.36, 244.39000000000001 288.81" fill="none" stroke="rgba(103,135,188,1)" stroke-width="2.2" /><path d="M 244.39 288.81 C 247.95 290.26, 251.51 291.59, 255.07 292.85" fill="none" stroke="rgba(103,135,188,1)" stroke-width="2.2" /><path d="M 255.08 292.85 C 258.64 294.11, 262.2 295.27000000000004, 265.76 296.37" fill="none" stroke="rgba(103,135,188,1)" stroke-width="2.2" /><path d="M 265.76 296.37 C 269.32 297.47, 272.88 298.48, 276.44 299.43" fill="none" stroke="rgba(103,135,188,1)" stroke-width="2.2" /><path d="M 276.44 299.43 C 280 300.38, 283.56 301.26, 287.12 302.09000000000003" fill="none" stroke="rgba(103,135,188,1)" stroke-width="2.2" /><path d="M 287.13 302.1 C 290.69 302.93, 294.25 303.70000000000005, 297.81 304.42" fill="none" stroke="rgba(103,135,188,1)" stroke-width="2.2" /><path d="M 297.81 304.41 C 301.37 305.13000000000005, 304.93 305.8, 308.49 306.43" fill="none" stroke="rgba(103,135,188,1)" stroke-width="2.2" /><path d="M 308.49 306.43 C 312.05 307.06, 315.61 307.64, 319.17 308.19" fill="none" stroke="rgba(103,135,188,1)" stroke-width="2.2" /><path d="M 319.17 308.19 C 322.73 308.74, 326.29 309.24, 329.85 309.71999999999997" fill="none" stroke="rgba(103,135,188,1)" stroke-width="2.2" /><path d="M 329.86 309.72 C 333.42 310.20000000000005, 336.98 310.64000000000004, 340.54 311.05" fill="none" stroke="rgba(103,135,188,1)" stroke-width="2.2" /><path d="M 340.54 311.05 C 344.1 311.47, 347.66 311.85, 351.22 312.21000000000004" fill="none" stroke="rgba(103,135,188,1)" stroke-width="2.2" /><path d="M 351.22 312.21 C 354.78000000000003 312.57, 358.34000000000003 312.9, 361.90000000000003 313.21999999999997" fill="none" stroke="rgba(103,135,188,1)" stroke-width="2.2" /><path d="M 361.9 313.22 C 365.46 313.53000000000003, 369.02 313.82000000000005, 372.58 314.1" fill="none" stroke="rgba(103,135,188,1)" stroke-width="2.2" /><path d="M 372.59 314.1 C 376.15 314.37, 379.71 314.63, 383.27 314.86" fill="none" stroke="rgba(103,135,188,1)" stroke-width="2.2" /><path d="M 383.27 314.86 C 386.83 315.1, 390.39 315.32, 393.95 315.53000000000003" fill="none" stroke="rgba(103,135,188,1)" stroke-width="2.2" /><path d="M 393.95 315.53 C 397.51 315.73999999999995, 401.07 315.92999999999995, 404.63 316.10999999999996" fill="none" stroke="rgba(103,135,188,1)" stroke-width="2.2" /><path d="M 404.63 316.11 C 408.19 316.29, 411.75 316.46000000000004, 415.31 316.61" fill="none" stroke="rgba(103,135,188,1)" stroke-width="2.2" /><path d="M 415.32 316.61 C 418.88 316.77000000000004, 424.21999999999997 316.98, 426 317.05" fill="none" stroke="rgba(103,135,188,1)" stroke-width="2.2" /><line x1="217" y1="320" x2="217" y2="275.49" stroke="rgba(100,100,100,1)" stroke-width="1" stroke-dasharray="5 4" /><line x1="148.25" y1="275.49" x2="217" y2="275.49" stroke="rgba(100,100,100,1)" stroke-width="1" stroke-dasharray="5 4" /><text x="217" y="336.5" font-size="11" fill="rgba(0,0,0,1)" font-family="serif" text-anchor="middle" dominant-baseline="middle">$L$ диф</text><text x="109.75" y="275.49" font-size="10" fill="rgba(100,100,100,1)" font-family="serif" text-anchor="middle" dominant-baseline="middle">уровень 1/e</text><text x="354.5" y="262.25" font-size="10" fill="rgba(100,100,100,1)" font-family="serif" text-anchor="middle" dominant-baseline="middle">дальше — рекомбинировали</text></svg>