<svg xmlns="http://www.w3.org/2000/svg" width="316pt" height="140pt" viewBox="142 242 316 140"><rect x="150" y="250" width="100" height="100" fill="rgba(103,135,188,0.2)" stroke="rgba(0,0,0,1)" stroke-width="1.5" /><line x1="150" y1="290" x2="200" y2="275" stroke="rgba(0,0,0,1)" stroke-width="0.7" /><line x1="200" y1="275" x2="250" y2="295" stroke="rgba(0,0,0,1)" stroke-width="0.7" /><line x1="150" y1="310" x2="210" y2="320" stroke="rgba(0,0,0,1)" stroke-width="0.7" /><line x1="210" y1="320" x2="250" y2="295" stroke="rgba(0,0,0,1)" stroke-width="0.7" /><line x1="180" y1="250" x2="170" y2="300" stroke="rgba(0,0,0,1)" stroke-width="0.7" /><line x1="220" y1="295" x2="250" y2="325" stroke="rgba(0,0,0,1)" stroke-width="0.7" /><line x1="160" y1="270" x2="167.2" y2="265.2" stroke="rgba(103,135,188,1)" stroke-width="1.2" /><polygon points="172,262 168.4541872479178,269.1712768686735 164.01658567811594,262.5148745139707" fill="rgba(103,135,188,1)" /><line x1="210" y1="265" x2="214.8" y2="272.2" stroke="rgba(103,135,188,1)" stroke-width="1.2" /><polygon points="218,277 210.82872313132654,273.4541872479178 217.4851254860293,269.016585678116" fill="rgba(103,135,188,1)" /><line x1="165" y1="300" x2="160.2" y2="306" stroke="rgba(103,135,188,1)" stroke-width="1.2" /><polygon points="157,310 158.20453900863154,302.09120200177773 164.4514894841758,307.0887623822131" fill="rgba(103,135,188,1)" /><line x1="225" y1="300" x2="231" y2="296.4" stroke="rgba(103,135,188,1)" stroke-width="1.2" /><polygon points="235,294 231.11709776385007,300.9945028575662 227.00113172042984,294.13455945186587" fill="rgba(103,135,188,1)" /><line x1="180" y1="330" x2="172.8" y2="332.4" stroke="rgba(103,135,188,1)" stroke-width="1.2" /><polygon points="168,334 173.30775962599463,328.0143765777773 175.83758175412936,335.6038429621814" fill="rgba(103,135,188,1)" /><line x1="220" y1="325" x2="223.6" y2="332.2" stroke="rgba(103,135,188,1)" stroke-width="1.2" /><polygon points="226,337 219.3239045590344,332.592081028068 226.47932208703372,329.0143722640683" fill="rgba(103,135,188,1)" /><text x="200" y="370" font-size="8" fill="rgba(100,100,100,1)" font-family="serif" text-anchor="middle" dominant-baseline="middle">без поля</text><rect x="350" y="250" width="100" height="100" fill="rgba(103,135,188,0.2)" stroke="rgba(0,0,0,1)" stroke-width="1.5" /><line x1="350" y1="290" x2="400" y2="275" stroke="rgba(0,0,0,1)" stroke-width="0.7" /><line x1="400" y1="275" x2="450" y2="295" stroke="rgba(0,0,0,1)" stroke-width="0.7" /><line x1="350" y1="310" x2="410" y2="320" stroke="rgba(0,0,0,1)" stroke-width="0.7" /><line x1="410" y1="320" x2="450" y2="295" stroke="rgba(0,0,0,1)" stroke-width="0.7" /><line x1="380" y1="250" x2="370" y2="300" stroke="rgba(0,0,0,1)" stroke-width="0.7" /><line x1="420" y1="295" x2="450" y2="325" stroke="rgba(0,0,0,1)" stroke-width="0.7" /><line x1="360" y1="270" x2="369" y2="270" stroke="rgba(103,135,188,1)" stroke-width="1.2" /><polygon points="375,270 368.0717967697245,274 368.0717967697245,266" fill="rgba(103,135,188,1)" /><line x1="410" y1="265" x2="419" y2="265" stroke="rgba(103,135,188,1)" stroke-width="1.2" /><polygon points="425,265 418.0717967697245,269 418.0717967697245,261" fill="rgba(103,135,188,1)" /><line x1="365" y1="300" x2="374" y2="300" stroke="rgba(103,135,188,1)" stroke-width="1.2" /><polygon points="380,300 373.0717967697245,304 373.0717967697245,296" fill="rgba(103,135,188,1)" /><line x1="425" y1="300" x2="434" y2="300" stroke="rgba(103,135,188,1)" stroke-width="1.2" /><polygon points="440,300 433.0717967697245,304 433.0717967697245,296" fill="rgba(103,135,188,1)" /><line x1="375" y1="330" x2="384" y2="330" stroke="rgba(103,135,188,1)" stroke-width="1.2" /><polygon points="390,330 383.0717967697245,334 383.0717967697245,326" fill="rgba(103,135,188,1)" /><line x1="420" y1="330" x2="429" y2="330" stroke="rgba(103,135,188,1)" stroke-width="1.2" /><polygon points="435,330 428.0717967697245,334 428.0717967697245,326" fill="rgba(103,135,188,1)" /><text x="400" y="370" font-size="8" fill="rgba(100,100,100,1)" font-family="serif" text-anchor="middle" dominant-baseline="middle">в поле</text><line x1="270" y1="300" x2="322" y2="300" stroke="rgba(0,0,0,1)" stroke-width="2" /><polygon points="330,300 323.0717967697245,304 323.0717967697245,296" fill="rgba(0,0,0,1)" /></svg>