<svg xmlns="http://www.w3.org/2000/svg" width="548.4000000000001pt" height="171.5pt" viewBox="88.30000000000001 247 548.4000000000001 171.5"><line x1="225" y1="320" x2="280" y2="320" stroke="rgba(127,132,156,1)" stroke-width="1" /><circle cx="249" cy="316.5" r="2.5" fill="rgba(166,227,161,1)"  /><circle cx="256" cy="323.5" r="2.5" fill="rgba(166,227,161,1)"  /><circle cx="280" cy="320" r="10" fill="rgba(30,30,46,1)" stroke="rgba(205,214,244,1)" stroke-width="1" /><text x="280" y="320" font-size="8" fill="rgba(205,214,244,1)" font-family="serif" text-anchor="middle" dominant-baseline="middle">Si</text><line x1="225" y1="320" x2="170" y2="320" stroke="rgba(127,132,156,1)" stroke-width="1" /><circle cx="194" cy="316.5" r="2.5" fill="rgba(166,227,161,1)"  /><circle cx="201" cy="323.5" r="2.5" fill="rgba(166,227,161,1)"  /><circle cx="170" cy="320" r="10" fill="rgba(30,30,46,1)" stroke="rgba(205,214,244,1)" stroke-width="1" /><text x="170" y="320" font-size="8" fill="rgba(205,214,244,1)" font-family="serif" text-anchor="middle" dominant-baseline="middle">Si</text><line x1="225" y1="320" x2="225" y2="265" stroke="rgba(127,132,156,1)" stroke-width="1" /><circle cx="221.5" cy="289" r="2.5" fill="rgba(166,227,161,1)"  /><circle cx="228.5" cy="296" r="2.5" fill="rgba(166,227,161,1)"  /><circle cx="225" cy="265" r="10" fill="rgba(30,30,46,1)" stroke="rgba(205,214,244,1)" stroke-width="1" /><text x="225" y="265" font-size="8" fill="rgba(205,214,244,1)" font-family="serif" text-anchor="middle" dominant-baseline="middle">Si</text><line x1="225" y1="320" x2="225" y2="375" stroke="rgba(127,132,156,1)" stroke-width="1" /><circle cx="221.5" cy="344" r="2.5" fill="rgba(166,227,161,1)"  /><circle cx="228.5" cy="351" r="2.5" fill="rgba(166,227,161,1)"  /><circle cx="225" cy="375" r="10" fill="rgba(30,30,46,1)" stroke="rgba(205,214,244,1)" stroke-width="1" /><text x="225" y="375" font-size="8" fill="rgba(205,214,244,1)" font-family="serif" text-anchor="middle" dominant-baseline="middle">Si</text><circle cx="225" cy="320" r="11" fill="rgba(137,180,250,0.4)" stroke="rgba(205,214,244,1)" stroke-width="1.2" /><text x="225" y="320" font-size="9" fill="rgba(205,214,244,1)" font-family="serif" text-anchor="middle" dominant-baseline="middle">P</text><circle cx="252.5" cy="292.5" r="3.5" fill="rgba(243,139,168,1)"  /><text x="297.5" y="277.5" font-size="10" fill="rgba(243,139,168,1)" font-family="serif" text-anchor="middle" dominant-baseline="middle">5-й электрон</text><text x="225" y="405" font-size="11" fill="rgba(205,214,244,1)" font-family="serif" text-anchor="middle" dominant-baseline="middle">донор: все связи целы + лишний электрон</text><line x1="500" y1="320" x2="555" y2="320" stroke="rgba(127,132,156,1)" stroke-width="1" /><circle cx="524" cy="316.5" r="2.5" fill="rgba(166,227,161,1)"  /><circle cx="531" cy="323.5" r="2.5" fill="rgba(166,227,161,1)"  /><circle cx="555" cy="320" r="10" fill="rgba(30,30,46,1)" stroke="rgba(205,214,244,1)" stroke-width="1" /><text x="555" y="320" font-size="8" fill="rgba(205,214,244,1)" font-family="serif" text-anchor="middle" dominant-baseline="middle">Si</text><line x1="500" y1="320" x2="445" y2="320" stroke="rgba(127,132,156,1)" stroke-width="1" /><circle cx="469" cy="316.5" r="2.5" fill="rgba(166,227,161,1)"  /><circle cx="476" cy="323.5" r="2.5" fill="rgba(166,227,161,1)"  /><circle cx="445" cy="320" r="10" fill="rgba(30,30,46,1)" stroke="rgba(205,214,244,1)" stroke-width="1" /><text x="445" y="320" font-size="8" fill="rgba(205,214,244,1)" font-family="serif" text-anchor="middle" dominant-baseline="middle">Si</text><line x1="500" y1="320" x2="500" y2="265" stroke="rgba(127,132,156,1)" stroke-width="1" /><circle cx="496.5" cy="289" r="2.5" fill="rgba(166,227,161,1)"  /><circle cx="503.5" cy="296" r="2.5" fill="rgba(166,227,161,1)"  /><circle cx="500" cy="265" r="10" fill="rgba(30,30,46,1)" stroke="rgba(205,214,244,1)" stroke-width="1" /><text x="500" y="265" font-size="8" fill="rgba(205,214,244,1)" font-family="serif" text-anchor="middle" dominant-baseline="middle">Si</text><line x1="500" y1="320" x2="500" y2="375" stroke="rgba(127,132,156,1)" stroke-width="1" /><circle cx="496.5" cy="344" r="2.5" fill="rgba(166,227,161,1)"  /><circle cx="503.5" cy="351" r="2.5" fill="rgba(166,227,161,1)"  /><circle cx="500" cy="375" r="10" fill="rgba(30,30,46,1)" stroke="rgba(205,214,244,1)" stroke-width="1" /><text x="500" y="375" font-size="8" fill="rgba(205,214,244,1)" font-family="serif" text-anchor="middle" dominant-baseline="middle">Si</text><circle cx="500" cy="320" r="11" fill="rgba(250,179,135,0.4)" stroke="rgba(205,214,244,1)" stroke-width="1.2" /><text x="500" y="320" font-size="9" fill="rgba(205,214,244,1)" font-family="serif" text-anchor="middle" dominant-baseline="middle">B</text><circle cx="527.5" cy="347.5" r="4.5" fill="none" stroke="rgba(243,139,168,1)" stroke-width="1.5" stroke-dasharray="5 4" /><text x="580" y="364" font-size="10" fill="rgba(243,139,168,1)" font-family="serif" text-anchor="middle" dominant-baseline="middle">пустое место</text><text x="500" y="405" font-size="11" fill="rgba(205,214,244,1)" font-family="serif" text-anchor="middle" dominant-baseline="middle">акцептор: одна связь недоукомплектована</text></svg>