<svg xmlns="http://www.w3.org/2000/svg" width="385.3pt" height="225.5pt" viewBox="112 182.5 385.3 225.5"><line x1="120" y1="300" x2="472" y2="300" stroke="rgba(205,214,244,1)" stroke-width="1" /><polygon points="480,300 473.0717967697245,304 473.0717967697245,296" fill="rgba(205,214,244,1)" /><line x1="140" y1="400" x2="140" y2="208" stroke="rgba(205,214,244,1)" stroke-width="1" /><polygon points="140,200 144,206.9282032302755 136,206.9282032302755" fill="rgba(205,214,244,1)" /><text x="486" y="300" font-size="11" fill="rgba(205,214,244,1)" font-family="serif" text-anchor="middle" dominant-baseline="middle">t</text><text x="132" y="196" font-size="11" fill="rgba(205,214,244,1)" font-family="serif" text-anchor="middle" dominant-baseline="middle">x</text><path d="M 140 230 C 150 230, 155 265, 165 300" fill="none" stroke="rgba(137,180,250,1)" stroke-width="1.8" /><path d="M 165 300 C 175 335, 185 360, 195 360" fill="none" stroke="rgba(137,180,250,1)" stroke-width="1.8" /><path d="M 195 360 C 205 360, 210 330, 220 305" fill="none" stroke="rgba(137,180,250,1)" stroke-width="1.8" /><path d="M 220 305 C 228 285, 235 257, 245 257" fill="none" stroke="rgba(137,180,250,1)" stroke-width="1.8" /><path d="M 245 257 C 253 257, 260 277, 270 300" fill="none" stroke="rgba(137,180,250,1)" stroke-width="1.8" /><path d="M 270 300 C 278 318, 285 335, 295 335" fill="none" stroke="rgba(137,180,250,1)" stroke-width="1.8" /><path d="M 295 335 C 303 335, 310 320, 320 305" fill="none" stroke="rgba(137,180,250,1)" stroke-width="1.8" /><path d="M 320 305 C 328 293, 335 280, 345 280" fill="none" stroke="rgba(137,180,250,1)" stroke-width="1.8" /><path d="M 345 280 C 353 280, 360 290, 370 300" fill="none" stroke="rgba(137,180,250,1)" stroke-width="1.8" /><path d="M 370 300 C 378 310, 385 318, 395 318" fill="none" stroke="rgba(137,180,250,1)" stroke-width="1.8" /><path d="M 395 318 C 403 318, 410 310, 420 304" fill="none" stroke="rgba(137,180,250,1)" stroke-width="1.8" /><path d="M 420 304 C 428 299, 435 294, 445 296" fill="none" stroke="rgba(137,180,250,1)" stroke-width="1.8" /><path d="M 140 230 C 220 235, 340 285, 450 298" fill="none" stroke="rgba(127,132,156,1)" stroke-width="1" /><path d="M 140 370 C 220 365, 340 315, 450 302" fill="none" stroke="rgba(127,132,156,1)" stroke-width="1" /><text x="460" y="268" font-size="7" fill="rgba(127,132,156,1)" font-family="serif" text-anchor="middle" dominant-baseline="middle">e^(-bt)</text></svg>