<svg xmlns="http://www.w3.org/2000/svg" width="569.85pt" height="152.35pt" viewBox="78.4 227.9 569.85 152.35"><text x="104" y="241.9" font-size="12" fill="rgba(0,0,0,1)" font-family="serif" text-anchor="middle" dominant-baseline="middle">H</text><circle cx="104" cy="320" r="3.5" fill="rgba(0,0,0,1)"  /><circle cx="104" cy="320" r="17.6" fill="none" stroke="rgba(100,100,100,1)" stroke-width="1" /><circle cx="121.6" cy="320" r="3" fill="rgba(103,135,188,1)"  /><text x="203" y="241.9" font-size="12" fill="rgba(0,0,0,1)" font-family="serif" text-anchor="middle" dominant-baseline="middle">He</text><circle cx="203" cy="320" r="3.5" fill="rgba(0,0,0,1)"  /><circle cx="203" cy="320" r="17.6" fill="none" stroke="rgba(100,100,100,1)" stroke-width="1" /><circle cx="220.6" cy="320" r="3" fill="rgba(103,135,188,1)"  /><circle cx="185.4" cy="320" r="3" fill="rgba(103,135,188,1)"  /><text x="313" y="241.9" font-size="12" fill="rgba(0,0,0,1)" font-family="serif" text-anchor="middle" dominant-baseline="middle">Li</text><circle cx="313" cy="320" r="3.5" fill="rgba(0,0,0,1)"  /><circle cx="313" cy="320" r="17.6" fill="none" stroke="rgba(100,100,100,1)" stroke-width="1" /><circle cx="330.6" cy="320" r="3" fill="rgba(103,135,188,1)"  /><circle cx="295.4" cy="320" r="3" fill="rgba(103,135,188,1)"  /><circle cx="313" cy="320" r="34.1" fill="none" stroke="rgba(100,100,100,1)" stroke-width="1" /><circle cx="345.04" cy="308.34" r="3" fill="rgba(103,135,188,1)"  /><text x="445" y="241.9" font-size="12" fill="rgba(0,0,0,1)" font-family="serif" text-anchor="middle" dominant-baseline="middle">Ne</text><circle cx="445" cy="320" r="3.5" fill="rgba(0,0,0,1)"  /><circle cx="445" cy="320" r="17.6" fill="none" stroke="rgba(100,100,100,1)" stroke-width="1" /><circle cx="462.6" cy="320" r="3" fill="rgba(103,135,188,1)"  /><circle cx="427.4" cy="320" r="3" fill="rgba(103,135,188,1)"  /><circle cx="445" cy="320" r="34.1" fill="none" stroke="rgba(100,100,100,1)" stroke-width="1" /><circle cx="477.04" cy="308.34" r="3" fill="rgba(103,135,188,1)"  /><circle cx="459.41" cy="289.09" r="3" fill="rgba(103,135,188,1)"  /><circle cx="433.34" cy="287.96" r="3" fill="rgba(103,135,188,1)"  /><circle cx="414.09" cy="305.59" r="3" fill="rgba(103,135,188,1)"  /><circle cx="412.96" cy="331.66" r="3" fill="rgba(103,135,188,1)"  /><circle cx="430.59" cy="350.91" r="3" fill="rgba(103,135,188,1)"  /><circle cx="456.66" cy="352.04" r="3" fill="rgba(103,135,188,1)"  /><circle cx="475.91" cy="334.41" r="3" fill="rgba(103,135,188,1)"  /><text x="588" y="241.9" font-size="12" fill="rgba(0,0,0,1)" font-family="serif" text-anchor="middle" dominant-baseline="middle">Na</text><circle cx="588" cy="320" r="3.5" fill="rgba(0,0,0,1)"  /><circle cx="588" cy="320" r="17.6" fill="none" stroke="rgba(100,100,100,1)" stroke-width="1" /><circle cx="605.6" cy="320" r="3" fill="rgba(103,135,188,1)"  /><circle cx="570.4" cy="320" r="3" fill="rgba(103,135,188,1)"  /><circle cx="588" cy="320" r="34.1" fill="none" stroke="rgba(100,100,100,1)" stroke-width="1" /><circle cx="620.04" cy="308.34" r="3" fill="rgba(103,135,188,1)"  /><circle cx="602.41" cy="289.09" r="3" fill="rgba(103,135,188,1)"  /><circle cx="576.34" cy="287.96" r="3" fill="rgba(103,135,188,1)"  /><circle cx="557.09" cy="305.59" r="3" fill="rgba(103,135,188,1)"  /><circle cx="555.96" cy="331.66" r="3" fill="rgba(103,135,188,1)"  /><circle cx="573.59" cy="350.91" r="3" fill="rgba(103,135,188,1)"  /><circle cx="599.66" cy="352.04" r="3" fill="rgba(103,135,188,1)"  /><circle cx="618.91" cy="334.41" r="3" fill="rgba(103,135,188,1)"  /><circle cx="588" cy="320" r="52.25" fill="none" stroke="rgba(100,100,100,1)" stroke-width="1" /><circle cx="628.03" cy="286.41" r="3" fill="rgba(103,135,188,1)"  /></svg>