<svg xmlns="http://www.w3.org/2000/svg" width="217pt" height="166pt" viewBox="171 227 217 166"><line x1="220" y1="260" x2="300" y2="260" stroke="rgba(0,0,0,1)" stroke-width="2" /><line x1="220" y1="340" x2="380" y2="340" stroke="rgba(0,0,0,1)" stroke-width="2" /><line x1="220" y1="260" x2="220" y2="340" stroke="rgba(0,0,0,1)" stroke-width="2" /><line x1="380" y1="260" x2="380" y2="340" stroke="rgba(0,0,0,1)" stroke-width="2" /><line x1="340" y1="260" x2="380" y2="260" stroke="rgba(0,0,0,1)" stroke-width="2" /><rect x="300" y="250" width="40" height="20" fill="none" stroke="rgba(0,0,0,1)" stroke-width="2" /><text x="312" y="240" font-size="10" fill="rgba(103,135,188,1)" font-family="serif" font-style="italic" text-anchor="middle" dominant-baseline="middle">R</text><line x1="228" y1="290" x2="228" y2="306" stroke="rgba(0,0,0,1)" stroke-width="2.5" /><line x1="222" y1="294" x2="222" y2="302" stroke="rgba(0,0,0,1)" stroke-width="2.5" /><text x="210" y="298" font-size="7" fill="rgba(100,100,100,1)" font-family="serif" text-anchor="middle" dominant-baseline="middle">+</text><text x="232" y="298" font-size="7" fill="rgba(100,100,100,1)" font-family="serif" text-anchor="middle" dominant-baseline="middle">−</text><line x1="280" y1="348" x2="322" y2="348" stroke="rgba(103,135,188,1)" stroke-width="1.5" /><polygon points="330,348 323.0717967697245,352 323.0717967697245,344" fill="rgba(103,135,188,1)" /><text x="300" y="358" font-size="10" fill="rgba(103,135,188,1)" font-family="serif" font-style="italic" text-anchor="middle" dominant-baseline="middle">I</text><line x1="200" y1="270" x2="200" y2="325" stroke="rgba(100,100,100,1)" stroke-width="1" stroke-dasharray="5 4" /><line x1="200" y1="275" x2="200" y2="312" stroke="rgba(103,135,188,1)" stroke-width="1" /><polygon points="200,320 196,313.0717967697245 204,313.0717967697245" fill="rgba(103,135,188,1)" /><text x="188" y="298" font-size="10" fill="rgba(103,135,188,1)" font-family="serif" font-style="italic" text-anchor="middle" dominant-baseline="middle">U</text><text x="260" y="380" font-size="10" fill="rgba(0,0,0,1)" font-family="serif" font-style="italic" text-anchor="middle" dominant-baseline="middle">U = I \cdot R</text></svg>