<svg xmlns="http://www.w3.org/2000/svg" width="245pt" height="208pt" viewBox="142 186 245 208"><rect x="150" y="232" width="220" height="88" fill="none" stroke="rgba(127,132,156,1)" stroke-width="1" /><line x1="260" y1="320" x2="260" y2="232" stroke="rgba(127,132,156,1)" stroke-width="1" stroke-dasharray="5 4" /><circle cx="163.75" cy="303.5" r="3" fill="rgba(137,180,250,1)"  /><circle cx="183" cy="254" r="3" fill="rgba(137,180,250,1)"  /><circle cx="174.75" cy="278.75" r="3" fill="rgba(137,180,250,1)"  /><circle cx="202.25" cy="300.75" r="3" fill="rgba(137,180,250,1)"  /><circle cx="194" cy="245.75" r="3" fill="rgba(137,180,250,1)"  /><circle cx="216" cy="270.5" r="3" fill="rgba(137,180,250,1)"  /><circle cx="207.75" cy="309" r="3" fill="rgba(137,180,250,1)"  /><circle cx="232.5" cy="251.25" r="3" fill="rgba(137,180,250,1)"  /><circle cx="227" cy="289.75" r="3" fill="rgba(137,180,250,1)"  /><circle cx="246.25" cy="267.75" r="3" fill="rgba(137,180,250,1)"  /><circle cx="161" cy="243" r="3" fill="rgba(137,180,250,1)"  /><circle cx="243.5" cy="306.25" r="3" fill="rgba(137,180,250,1)"  /><circle cx="180.25" cy="295.25" r="3" fill="rgba(137,180,250,1)"  /><circle cx="213.25" cy="240.25" r="3" fill="rgba(137,180,250,1)"  /><circle cx="284.75" cy="292.5" r="3" fill="rgba(137,180,250,1)"  /><circle cx="320.5" cy="256.75" r="3" fill="rgba(137,180,250,1)"  /><circle cx="342.5" cy="298" r="3" fill="rgba(137,180,250,1)"  /><circle cx="304" cy="243" r="3" fill="rgba(137,180,250,1)"  /><line x1="235.25" y1="215.5" x2="293.25" y2="215.5" stroke="rgba(137,180,250,1)" stroke-width="2.5" /><polygon points="301.25,215.5 294.3217967697245,219.5 294.3217967697245,211.5" fill="rgba(137,180,250,1)" /><text x="268.25" y="199" font-size="10" fill="rgba(137,180,250,1)" font-family="serif" text-anchor="middle" dominant-baseline="middle">желающих больше</text><line x1="287.5" y1="336.5" x2="262.5" y2="336.5" stroke="rgba(127,132,156,1)" stroke-width="1.4" /><polygon points="254.5,336.5 261.4282032302755,332.5 261.4282032302755,340.5" fill="rgba(127,132,156,1)" /><text x="271" y="354.1" font-size="10" fill="rgba(127,132,156,1)" font-family="serif" text-anchor="middle" dominant-baseline="middle">и встречный поток есть, но он меньше</text><text x="260" y="380.5" font-size="11" fill="rgba(205,214,244,1)" font-family="serif" text-anchor="middle" dominant-baseline="middle">чистый поток: J = −D·dn/dx</text></svg>