<svg xmlns="http://www.w3.org/2000/svg" width="361.25pt" height="200.18pt" viewBox="132 137.75 361.25 200.18"><path d="M 140 170.57 C 141.72 170.57999999999998, 146.88 170.59, 150.31 170.60999999999999" fill="none" stroke="rgba(250,179,135,1)" stroke-width="2" /><path d="M 150.31 170.61 C 153.75 170.63000000000002, 157.19 170.64000000000001, 160.62 170.67000000000002" fill="none" stroke="rgba(250,179,135,1)" stroke-width="2" /><path d="M 160.63 170.67 C 164.07 170.69, 167.51 170.72, 170.94 170.76" fill="none" stroke="rgba(250,179,135,1)" stroke-width="2" /><path d="M 170.94 170.76 C 174.38 170.79999999999998, 177.82 170.84, 181.25 170.89" fill="none" stroke="rgba(250,179,135,1)" stroke-width="2" /><path d="M 181.25 170.89 C 184.69 170.94, 188.13 171, 191.56 171.08999999999997" fill="none" stroke="rgba(250,179,135,1)" stroke-width="2" /><path d="M 191.56 171.08 C 195 171.16000000000003, 198.44 171.25, 201.87 171.37" fill="none" stroke="rgba(250,179,135,1)" stroke-width="2" /><path d="M 201.88 171.37 C 205.32 171.49, 208.76 171.63, 212.19 171.81" fill="none" stroke="rgba(250,179,135,1)" stroke-width="2" /><path d="M 212.19 171.81 C 215.63 171.99, 219.07 172.19, 222.5 172.46" fill="none" stroke="rgba(250,179,135,1)" stroke-width="2" /><path d="M 222.5 172.46 C 225.94 172.73000000000002, 229.38 173.02, 232.81 173.41" fill="none" stroke="rgba(250,179,135,1)" stroke-width="2" /><path d="M 232.81 173.4 C 236.25 173.79, 239.69 174.22, 243.12 174.77" fill="none" stroke="rgba(250,179,135,1)" stroke-width="2" /><path d="M 243.13 174.77 C 246.57 175.32000000000002, 250.01 175.94, 253.44 176.70000000000002" fill="none" stroke="rgba(250,179,135,1)" stroke-width="2" /><path d="M 253.44 176.7 C 256.88 177.47, 260.32 178.32999999999998, 263.75 179.35999999999999" fill="none" stroke="rgba(250,179,135,1)" stroke-width="2" /><path d="M 263.75 179.36 C 267.19 180.39000000000001, 270.63 181.55, 274.06 182.87" fill="none" stroke="rgba(250,179,135,1)" stroke-width="2" /><path d="M 274.06 182.87 C 277.5 184.19, 280.94 185.67000000000002, 284.37 187.26" fill="none" stroke="rgba(250,179,135,1)" stroke-width="2" /><path d="M 284.38 187.26 C 287.82 188.85, 291.26 190.62, 294.69 192.41" fill="none" stroke="rgba(250,179,135,1)" stroke-width="2" /><path d="M 294.69 192.41 C 298.13 194.2, 301.57 196.14, 305 198" fill="none" stroke="rgba(250,179,135,1)" stroke-width="2" /><path d="M 305 198 C 308.44 199.86, 311.88 201.8, 315.31 203.59" fill="none" stroke="rgba(250,179,135,1)" stroke-width="2" /><path d="M 315.31 203.59 C 318.75 205.38, 322.19 207.15, 325.62 208.74" fill="none" stroke="rgba(250,179,135,1)" stroke-width="2" /><path d="M 325.63 208.74 C 329.07 210.33, 332.51 211.81, 335.94 213.13" fill="none" stroke="rgba(250,179,135,1)" stroke-width="2" /><path d="M 335.94 213.13 C 339.38 214.45, 342.82 215.60999999999999, 346.25 216.64" fill="none" stroke="rgba(250,179,135,1)" stroke-width="2" /><path d="M 346.25 216.64 C 349.69 217.67, 353.13 218.52999999999997, 356.56 219.29999999999998" fill="none" stroke="rgba(250,179,135,1)" stroke-width="2" /><path d="M 356.56 219.3 C 360 220.07000000000002, 363.44 220.68, 366.87 221.23000000000002" fill="none" stroke="rgba(250,179,135,1)" stroke-width="2" /><path d="M 366.88 221.23 C 370.32 221.78, 373.76 222.20999999999998, 377.19 222.6" fill="none" stroke="rgba(250,179,135,1)" stroke-width="2" /><path d="M 377.19 222.6 C 380.63 222.98999999999998, 384.07 223.28, 387.5 223.54999999999998" fill="none" stroke="rgba(250,179,135,1)" stroke-width="2" /><path d="M 387.5 223.54 C 390.94 223.81, 394.38 224.01, 397.81 224.19" fill="none" stroke="rgba(250,179,135,1)" stroke-width="2" /><path d="M 397.81 224.19 C 401.25 224.37, 404.69 224.5, 408.12 224.63" fill="none" stroke="rgba(250,179,135,1)" stroke-width="2" /><path d="M 408.13 224.63 C 411.57 224.75, 415.01 224.84, 418.44 224.92" fill="none" stroke="rgba(250,179,135,1)" stroke-width="2" /><path d="M 418.44 224.92 C 421.88 225, 425.32 225.05999999999997, 428.75 225.11999999999998" fill="none" stroke="rgba(250,179,135,1)" stroke-width="2" /><path d="M 428.75 225.11 C 432.19 225.16000000000003, 435.63 225.20000000000002, 439.06 225.24" fill="none" stroke="rgba(250,179,135,1)" stroke-width="2" /><path d="M 439.06 225.24 C 442.5 225.28, 445.94 225.3, 449.37 225.33" fill="none" stroke="rgba(250,179,135,1)" stroke-width="2" /><path d="M 449.38 225.33 C 452.82 225.35000000000002, 456.26 225.37, 459.69 225.39000000000001" fill="none" stroke="rgba(250,179,135,1)" stroke-width="2" /><path d="M 459.69 225.39 C 463.13 225.41, 468.28 225.42, 470 225.42999999999998" fill="none" stroke="rgba(250,179,135,1)" stroke-width="2" /><path d="M 140 275.07 C 141.72 275.08, 146.88 275.09, 150.31 275.11" fill="none" stroke="rgba(137,180,250,1)" stroke-width="2" /><path d="M 150.31 275.11 C 153.75 275.13, 157.19 275.14, 160.62 275.17" fill="none" stroke="rgba(137,180,250,1)" stroke-width="2" /><path d="M 160.63 275.17 C 164.07 275.19, 167.51 275.22, 170.94 275.26" fill="none" stroke="rgba(137,180,250,1)" stroke-width="2" /><path d="M 170.94 275.26 C 174.38 275.3, 177.82 275.34, 181.25 275.39" fill="none" stroke="rgba(137,180,250,1)" stroke-width="2" /><path d="M 181.25 275.39 C 184.69 275.44, 188.13 275.5, 191.56 275.59" fill="none" stroke="rgba(137,180,250,1)" stroke-width="2" /><path d="M 191.56 275.58 C 195 275.65999999999997, 198.44 275.75, 201.87 275.87" fill="none" stroke="rgba(137,180,250,1)" stroke-width="2" /><path d="M 201.88 275.87 C 205.32 275.99, 208.76 276.13, 212.19 276.31" fill="none" stroke="rgba(137,180,250,1)" stroke-width="2" /><path d="M 212.19 276.31 C 215.63 276.49, 219.07 276.69, 222.5 276.96" fill="none" stroke="rgba(137,180,250,1)" stroke-width="2" /><path d="M 222.5 276.96 C 225.94 277.22999999999996, 229.38 277.52, 232.81 277.90999999999997" fill="none" stroke="rgba(137,180,250,1)" stroke-width="2" /><path d="M 232.81 277.9 C 236.25 278.28999999999996, 239.69 278.71999999999997, 243.12 279.27" fill="none" stroke="rgba(137,180,250,1)" stroke-width="2" /><path d="M 243.13 279.27 C 246.57 279.82, 250.01 280.44, 253.44 281.2" fill="none" stroke="rgba(137,180,250,1)" stroke-width="2" /><path d="M 253.44 281.2 C 256.88 281.96999999999997, 260.32 282.83, 263.75 283.86" fill="none" stroke="rgba(137,180,250,1)" stroke-width="2" /><path d="M 263.75 283.86 C 267.19 284.89, 270.63 286.05, 274.06 287.37" fill="none" stroke="rgba(137,180,250,1)" stroke-width="2" /><path d="M 274.06 287.37 C 277.5 288.69, 280.94 290.17, 284.37 291.76" fill="none" stroke="rgba(137,180,250,1)" stroke-width="2" /><path d="M 284.38 291.76 C 287.82 293.34999999999997, 291.26 295.12, 294.69 296.90999999999997" fill="none" stroke="rgba(137,180,250,1)" stroke-width="2" /><path d="M 294.69 296.91 C 298.13 298.70000000000005, 301.57 300.64000000000004, 305 302.5" fill="none" stroke="rgba(137,180,250,1)" stroke-width="2" /><path d="M 305 302.5 C 308.44 304.36, 311.88 306.3, 315.31 308.09" fill="none" stroke="rgba(137,180,250,1)" stroke-width="2" /><path d="M 315.31 308.09 C 318.75 309.88, 322.19 311.65, 325.62 313.23999999999995" fill="none" stroke="rgba(137,180,250,1)" stroke-width="2" /><path d="M 325.63 313.24 C 329.07 314.83, 332.51 316.31, 335.94 317.63" fill="none" stroke="rgba(137,180,250,1)" stroke-width="2" /><path d="M 335.94 317.63 C 339.38 318.95, 342.82 320.11, 346.25 321.14" fill="none" stroke="rgba(137,180,250,1)" stroke-width="2" /><path d="M 346.25 321.14 C 349.69 322.16999999999996, 353.13 323.03, 356.56 323.8" fill="none" stroke="rgba(137,180,250,1)" stroke-width="2" /><path d="M 356.56 323.8 C 360 324.57, 363.44 325.18, 366.87 325.73" fill="none" stroke="rgba(137,180,250,1)" stroke-width="2" /><path d="M 366.88 325.73 C 370.32 326.28000000000003, 373.76 326.71000000000004, 377.19 327.1" fill="none" stroke="rgba(137,180,250,1)" stroke-width="2" /><path d="M 377.19 327.1 C 380.63 327.49, 384.07 327.78000000000003, 387.5 328.05" fill="none" stroke="rgba(137,180,250,1)" stroke-width="2" /><path d="M 387.5 328.04 C 390.94 328.31, 394.38 328.51000000000005, 397.81 328.69" fill="none" stroke="rgba(137,180,250,1)" stroke-width="2" /><path d="M 397.81 328.69 C 401.25 328.87, 404.69 329, 408.12 329.13" fill="none" stroke="rgba(137,180,250,1)" stroke-width="2" /><path d="M 408.13 329.13 C 411.57 329.25, 415.01 329.34, 418.44 329.42" fill="none" stroke="rgba(137,180,250,1)" stroke-width="2" /><path d="M 418.44 329.42 C 421.88 329.5, 425.32 329.56, 428.75 329.62" fill="none" stroke="rgba(137,180,250,1)" stroke-width="2" /><path d="M 428.75 329.61 C 432.19 329.66, 435.63 329.7, 439.06 329.74" fill="none" stroke="rgba(137,180,250,1)" stroke-width="2" /><path d="M 439.06 329.74 C 442.5 329.78000000000003, 445.94 329.8, 449.37 329.83" fill="none" stroke="rgba(137,180,250,1)" stroke-width="2" /><path d="M 449.38 329.83 C 452.82 329.84999999999997, 456.26 329.87, 459.69 329.89" fill="none" stroke="rgba(137,180,250,1)" stroke-width="2" /><path d="M 459.69 329.89 C 463.13 329.90999999999997, 468.28 329.91999999999996, 470 329.93" fill="none" stroke="rgba(137,180,250,1)" stroke-width="2" /><text x="434.25" y="217.25" font-size="10" fill="rgba(250,179,135,1)" font-family="serif" text-anchor="middle" dominant-baseline="middle">зона проводимости</text><text x="431.5" y="322.3" font-size="10" fill="rgba(137,180,250,1)" font-family="serif" text-anchor="middle" dominant-baseline="middle">валентная зона</text><text x="173" y="151.25" font-size="11" fill="rgba(205,214,244,1)" font-family="serif" text-anchor="middle" dominant-baseline="middle">p-область</text><text x="437" y="151.25" font-size="11" fill="rgba(205,214,244,1)" font-family="serif" text-anchor="middle" dominant-baseline="middle">n-область</text><line x1="162" y1="170.5" x2="415" y2="170.5" stroke="rgba(127,132,156,1)" stroke-width="0.8" stroke-dasharray="5 4" /><line x1="415" y1="197.45" x2="415" y2="180.7" stroke="rgba(243,139,168,1)" stroke-width="1.4" /><polygon points="415,172.7 419,179.6282032302755 411,179.6282032302755" fill="rgba(243,139,168,1)" /><line x1="415" y1="197.45" x2="415" y2="214.2" stroke="rgba(243,139,168,1)" stroke-width="1.4" /><polygon points="415,222.2 411,215.2717967697245 419,215.2717967697245" fill="rgba(243,139,168,1)" /><text x="448" y="195.25" font-size="11" fill="rgba(243,139,168,1)" font-family="serif" font-style="italic" text-anchor="middle" dominant-baseline="middle">eφ₀</text><circle cx="376.5" cy="213.4" r="3.5" fill="rgba(250,179,135,1)"  /><circle cx="398.5" cy="213.4" r="3.5" fill="rgba(250,179,135,1)"  /><circle cx="420.5" cy="213.4" r="3.5" fill="rgba(250,179,135,1)"  /><circle cx="167.5" cy="284.9" r="4" fill="none" stroke="rgba(137,180,250,1)" stroke-width="1.3" /><circle cx="189.5" cy="284.9" r="4" fill="none" stroke="rgba(137,180,250,1)" stroke-width="1.3" /><circle cx="211.5" cy="284.9" r="4" fill="none" stroke="rgba(137,180,250,1)" stroke-width="1.3" /><text x="393" y="242" font-size="9" fill="rgba(127,132,156,1)" font-family="serif" text-anchor="middle" dominant-baseline="middle">электронам в гору ←</text><text x="217" y="308" font-size="9" fill="rgba(127,132,156,1)" font-family="serif" text-anchor="middle" dominant-baseline="middle">→ дыркам в гору</text></svg>