<svg xmlns="http://www.w3.org/2000/svg" width="578.7pt" height="224pt" viewBox="42.3 46.5 578.7 224"><text x="80" y="60" font-size="11" fill="rgba(0,0,0,1)" font-family="serif" text-anchor="middle" dominant-baseline="middle">Заряд</text><text x="80" y="76" font-size="8" fill="rgba(103,135,188,1)" font-family="serif" text-anchor="middle" dominant-baseline="middle">т.1</text><text x="205" y="60" font-size="11" fill="rgba(0,0,0,1)" font-family="serif" text-anchor="middle" dominant-baseline="middle">Ток</text><text x="205" y="76" font-size="8" fill="rgba(103,135,188,1)" font-family="serif" text-anchor="middle" dominant-baseline="middle">т.1</text><text x="330" y="60" font-size="11" fill="rgba(0,0,0,1)" font-family="serif" text-anchor="middle" dominant-baseline="middle">R, L, C</text><text x="330" y="76" font-size="8" fill="rgba(188,134,101,1)" font-family="serif" text-anchor="middle" dominant-baseline="middle">т.3</text><text x="455" y="60" font-size="11" fill="rgba(0,0,0,1)" font-family="serif" text-anchor="middle" dominant-baseline="middle">LC-контур</text><text x="455" y="76" font-size="8" fill="rgba(188,134,101,1)" font-family="serif" text-anchor="middle" dominant-baseline="middle">т.3</text><text x="580" y="60" font-size="11" fill="rgba(0,0,0,1)" font-family="serif" text-anchor="middle" dominant-baseline="middle">PN-переход</text><text x="580" y="76" font-size="8" fill="rgba(103,135,188,1)" font-family="serif" text-anchor="middle" dominant-baseline="middle">т.2</text><text x="580" y="130" font-size="11" fill="rgba(0,0,0,1)" font-family="serif" text-anchor="middle" dominant-baseline="middle">Диод</text><text x="580" y="146" font-size="8" fill="rgba(188,134,101,1)" font-family="serif" text-anchor="middle" dominant-baseline="middle">т.4</text><text x="455" y="130" font-size="11" fill="rgba(0,0,0,1)" font-family="serif" text-anchor="middle" dominant-baseline="middle">Транзистор</text><text x="455" y="146" font-size="8" fill="rgba(188,134,101,1)" font-family="serif" text-anchor="middle" dominant-baseline="middle">т.4</text><text x="330" y="130" font-size="11" fill="rgba(0,0,0,1)" font-family="serif" text-anchor="middle" dominant-baseline="middle">Триггер</text><text x="330" y="146" font-size="8" fill="rgba(188,134,101,1)" font-family="serif" text-anchor="middle" dominant-baseline="middle">т.5</text><text x="205" y="130" font-size="11" fill="rgba(0,0,0,1)" font-family="serif" text-anchor="middle" dominant-baseline="middle">Логика</text><text x="205" y="146" font-size="8" fill="rgba(188,134,101,1)" font-family="serif" text-anchor="middle" dominant-baseline="middle">т.5</text><text x="80" y="130" font-size="11" fill="rgba(0,0,0,1)" font-family="serif" text-anchor="middle" dominant-baseline="middle">Процессор</text><text x="80" y="146" font-size="8" fill="rgba(184,146,173,1)" font-family="serif" text-anchor="middle" dominant-baseline="middle">т.6–8</text><text x="80" y="200" font-size="11" fill="rgba(0,0,0,1)" font-family="serif" text-anchor="middle" dominant-baseline="middle">Память</text><text x="80" y="216" font-size="8" fill="rgba(184,146,173,1)" font-family="serif" text-anchor="middle" dominant-baseline="middle">т.9</text><text x="205" y="200" font-size="11" fill="rgba(0,0,0,1)" font-family="serif" text-anchor="middle" dominant-baseline="middle">Видеокарта</text><text x="205" y="216" font-size="8" fill="rgba(184,146,173,1)" font-family="serif" text-anchor="middle" dominant-baseline="middle">т.8</text><text x="330" y="200" font-size="11" fill="rgba(0,0,0,1)" font-family="serif" text-anchor="middle" dominant-baseline="middle">ОС</text><text x="330" y="216" font-size="8" fill="rgba(184,146,173,1)" font-family="serif" text-anchor="middle" dominant-baseline="middle">т.11</text><text x="455" y="200" font-size="11" fill="rgba(0,0,0,1)" font-family="serif" text-anchor="middle" dominant-baseline="middle">Приложения</text><text x="455" y="216" font-size="8" fill="rgba(184,146,173,1)" font-family="serif" text-anchor="middle" dominant-baseline="middle">т.12–13</text><text x="580" y="200" font-size="11" fill="rgba(0,0,0,1)" font-family="serif" text-anchor="middle" dominant-baseline="middle">Веб</text><text x="580" y="216" font-size="8" fill="rgba(184,146,173,1)" font-family="serif" text-anchor="middle" dominant-baseline="middle">т.14</text><line x1="110" y1="60" x2="180" y2="60" stroke="rgba(100,100,100,1)" stroke-width="1" /><polygon points="188,60 181.0717967697245,64 181.0717967697245,56" fill="rgba(100,100,100,1)" /><line x1="222" y1="60" x2="294" y2="60" stroke="rgba(100,100,100,1)" stroke-width="1" /><polygon points="302,60 295.0717967697245,64 295.0717967697245,56" fill="rgba(100,100,100,1)" /><line x1="358" y1="60" x2="410" y2="60" stroke="rgba(100,100,100,1)" stroke-width="1" /><polygon points="418,60 411.0717967697245,64 411.0717967697245,56" fill="rgba(100,100,100,1)" /><line x1="494" y1="60" x2="532" y2="60" stroke="rgba(100,100,100,1)" stroke-width="1" /><polygon points="540,60 533.0717967697245,64 533.0717967697245,56" fill="rgba(100,100,100,1)" /><line x1="580" y1="86" x2="580" y2="110" stroke="rgba(100,100,100,1)" stroke-width="1" /><polygon points="580,118 576,111.07179676972449 584,111.07179676972449" fill="rgba(100,100,100,1)" /><line x1="558" y1="130" x2="502" y2="130" stroke="rgba(100,100,100,1)" stroke-width="1" /><polygon points="494,130 500.9282032302755,126 500.9282032302755,134" fill="rgba(100,100,100,1)" /><line x1="414" y1="130" x2="366" y2="130" stroke="rgba(100,100,100,1)" stroke-width="1" /><polygon points="358,130 364.9282032302755,126 364.9282032302755,134" fill="rgba(100,100,100,1)" /><line x1="302" y1="130" x2="240" y2="130" stroke="rgba(100,100,100,1)" stroke-width="1" /><polygon points="232,130 238.9282032302755,126 238.9282032302755,134" fill="rgba(100,100,100,1)" /><line x1="178" y1="130" x2="124" y2="130" stroke="rgba(100,100,100,1)" stroke-width="1" /><polygon points="116,130 122.92820323027551,126 122.92820323027551,134" fill="rgba(100,100,100,1)" /><line x1="80" y1="156" x2="80" y2="180" stroke="rgba(100,100,100,1)" stroke-width="1" /><polygon points="80,188 76,181.0717967697245 84,181.0717967697245" fill="rgba(100,100,100,1)" /><line x1="108" y1="200" x2="160" y2="200" stroke="rgba(100,100,100,1)" stroke-width="1" /><polygon points="168,200 161.0717967697245,204 161.0717967697245,196" fill="rgba(100,100,100,1)" /><line x1="244" y1="200" x2="310" y2="200" stroke="rgba(100,100,100,1)" stroke-width="1" /><polygon points="318,200 311.0717967697245,204 311.0717967697245,196" fill="rgba(100,100,100,1)" /><line x1="344" y1="200" x2="410" y2="200" stroke="rgba(100,100,100,1)" stroke-width="1" /><polygon points="418,200 411.0717967697245,204 411.0717967697245,196" fill="rgba(100,100,100,1)" /><line x1="494" y1="200" x2="556" y2="200" stroke="rgba(100,100,100,1)" stroke-width="1" /><polygon points="564,200 557.0717967697245,204 557.0717967697245,196" fill="rgba(100,100,100,1)" /><text x="200" y="258" font-size="9" fill="rgba(103,135,188,1)" font-family="serif" text-anchor="middle" dominant-baseline="middle">физика</text><text x="330" y="258" font-size="9" fill="rgba(188,134,101,1)" font-family="serif" text-anchor="middle" dominant-baseline="middle">электроника</text><text x="460" y="258" font-size="9" fill="rgba(184,146,173,1)" font-family="serif" text-anchor="middle" dominant-baseline="middle">программы</text></svg>