<svg xmlns="http://www.w3.org/2000/svg" width="251pt" height="172.5pt" viewBox="192 209.5 251 172.5"><rect x="200" y="240" width="200" height="10" fill="rgba(137,180,250,0.2)" stroke="rgba(205,214,244,1)" stroke-width="1.5" /><rect x="200" y="350" width="200" height="10" fill="rgba(137,180,250,0.2)" stroke="rgba(205,214,244,1)" stroke-width="1.5" /><text x="230" y="234" font-size="9" fill="rgba(137,180,250,1)" font-family="serif" text-anchor="middle" dominant-baseline="middle">+</text><text x="265" y="234" font-size="9" fill="rgba(137,180,250,1)" font-family="serif" text-anchor="middle" dominant-baseline="middle">+</text><text x="300" y="234" font-size="9" fill="rgba(137,180,250,1)" font-family="serif" text-anchor="middle" dominant-baseline="middle">+</text><text x="335" y="234" font-size="9" fill="rgba(137,180,250,1)" font-family="serif" text-anchor="middle" dominant-baseline="middle">+</text><text x="370" y="234" font-size="9" fill="rgba(137,180,250,1)" font-family="serif" text-anchor="middle" dominant-baseline="middle">+</text><text x="230" y="368" font-size="12" fill="rgba(137,180,250,1)" font-family="serif" text-anchor="middle" dominant-baseline="middle">-</text><text x="265" y="368" font-size="12" fill="rgba(137,180,250,1)" font-family="serif" text-anchor="middle" dominant-baseline="middle">-</text><text x="300" y="368" font-size="12" fill="rgba(137,180,250,1)" font-family="serif" text-anchor="middle" dominant-baseline="middle">-</text><text x="335" y="368" font-size="12" fill="rgba(137,180,250,1)" font-family="serif" text-anchor="middle" dominant-baseline="middle">-</text><text x="370" y="368" font-size="12" fill="rgba(137,180,250,1)" font-family="serif" text-anchor="middle" dominant-baseline="middle">-</text><line x1="230" y1="258" x2="230" y2="334" stroke="rgba(137,180,250,0.6)" stroke-width="0.8" /><polygon points="230,342 226,335.0717967697245 234,335.0717967697245" fill="rgba(137,180,250,0.6)" /><line x1="265" y1="258" x2="265" y2="334" stroke="rgba(137,180,250,0.6)" stroke-width="0.8" /><polygon points="265,342 261,335.0717967697245 269,335.0717967697245" fill="rgba(137,180,250,0.6)" /><line x1="300" y1="258" x2="300" y2="334" stroke="rgba(137,180,250,0.6)" stroke-width="0.8" /><polygon points="300,342 296,335.0717967697245 304,335.0717967697245" fill="rgba(137,180,250,0.6)" /><line x1="335" y1="258" x2="335" y2="334" stroke="rgba(137,180,250,0.6)" stroke-width="0.8" /><polygon points="335,342 331,335.0717967697245 339,335.0717967697245" fill="rgba(137,180,250,0.6)" /><line x1="370" y1="258" x2="370" y2="334" stroke="rgba(137,180,250,0.6)" stroke-width="0.8" /><polygon points="370,342 366,335.0717967697245 374,335.0717967697245" fill="rgba(137,180,250,0.6)" /><line x1="420" y1="260" x2="420" y2="334" stroke="rgba(127,132,156,1)" stroke-width="0.8" /><polygon points="420,342 416,335.0717967697245 424,335.0717967697245" fill="rgba(127,132,156,1)" /><line x1="420" y1="342" x2="420" y2="268" stroke="rgba(127,132,156,1)" stroke-width="0.8" /><polygon points="420,260 424,266.9282032302755 416,266.9282032302755" fill="rgba(127,132,156,1)" /><text x="432" y="300" font-size="10" fill="rgba(127,132,156,1)" font-family="serif" text-anchor="middle" dominant-baseline="middle">d</text><text x="300" y="300" font-size="11" fill="rgba(137,180,250,0.6)" font-family="serif" text-anchor="middle" dominant-baseline="middle">E</text><line x1="202" y1="260" x2="390" y2="260" stroke="rgba(127,132,156,1)" stroke-width="0.6" /><polygon points="398,260 391.0717967697245,264 391.0717967697245,256" fill="rgba(127,132,156,1)" /><line x1="398" y1="260" x2="210" y2="260" stroke="rgba(127,132,156,1)" stroke-width="0.6" /><polygon points="202,260 208.9282032302755,256 208.9282032302755,264" fill="rgba(127,132,156,1)" /><text x="300" y="222" font-size="9" fill="rgba(127,132,156,1)" font-family="serif" text-anchor="middle" dominant-baseline="middle">A</text></svg>