<svg xmlns="http://www.w3.org/2000/svg" width="342.3pt" height="236.5pt" viewBox="123.5 148 342.3 236.5"><line x1="133.5" y1="360" x2="428" y2="360" stroke="rgba(127,132,156,1)" stroke-width="1" /><polygon points="436,360 429.0717967697245,364 429.0717967697245,356" fill="rgba(127,132,156,1)" /><line x1="150" y1="376.5" x2="150" y2="175.5" stroke="rgba(127,132,156,1)" stroke-width="1" /><polygon points="150,167.5 154,174.4282032302755 146,174.4282032302755" fill="rgba(127,132,156,1)" /><text x="447" y="367.7" font-size="12" fill="rgba(205,214,244,1)" font-family="serif" font-style="italic" text-anchor="middle" dominant-baseline="middle">x</text><text x="142.3" y="162" font-size="12" fill="rgba(205,214,244,1)" font-family="serif" font-style="italic" text-anchor="middle" dominant-baseline="middle">y</text><rect x="232.5" y="211.5" width="137.5" height="104.5" fill="none" stroke="rgba(205,214,244,1)" stroke-width="1.5" /><line x1="370" y1="294" x2="370" y2="271.75" stroke="rgba(203,166,247,1)" stroke-width="2" /><polygon points="370,263.75 374,270.6782032302755 366,270.6782032302755" fill="rgba(203,166,247,1)" /><line x1="348" y1="211.5" x2="325.75" y2="211.5" stroke="rgba(203,166,247,1)" stroke-width="2" /><polygon points="317.75,211.5 324.6782032302755,207.5 324.6782032302755,215.5" fill="rgba(203,166,247,1)" /><line x1="232.5" y1="233.5" x2="232.5" y2="255.75" stroke="rgba(203,166,247,1)" stroke-width="2" /><polygon points="232.5,263.75 228.5,256.8217967697245 236.5,256.8217967697245" fill="rgba(203,166,247,1)" /><line x1="254.5" y1="316" x2="276.75" y2="316" stroke="rgba(203,166,247,1)" stroke-width="2" /><polygon points="284.75,316 277.8217967697245,320 277.8217967697245,312" fill="rgba(203,166,247,1)" /><text x="409.6" y="263.75" font-size="11" fill="rgba(205,214,244,1)" font-family="serif" font-style="italic" text-anchor="middle" dominant-baseline="middle">E(x + Δx)</text><text x="203.9" y="263.75" font-size="11" fill="rgba(205,214,244,1)" font-family="serif" font-style="italic" text-anchor="middle" dominant-baseline="middle">E(x)</text><text x="301.25" y="331.4" font-size="11" fill="rgba(205,214,244,1)" font-family="serif" font-style="italic" text-anchor="middle" dominant-baseline="middle">Δx</text><text x="301.25" y="196.1" font-size="11" fill="rgba(205,214,244,1)" font-family="serif" font-style="italic" text-anchor="middle" dominant-baseline="middle">h</text><line x1="273.75" y1="285.75" x2="273.75" y2="249.75" stroke="rgba(137,180,250,1)" stroke-width="2" /><polygon points="273.75,241.75 277.75,248.6782032302755 269.75,248.6782032302755" fill="rgba(137,180,250,1)" /><text x="289.15" y="263.75" font-size="12" fill="rgba(137,180,250,1)" font-family="serif" font-style="italic" text-anchor="middle" dominant-baseline="middle">E</text></svg>