<svg xmlns="http://www.w3.org/2000/svg" width="407.6pt" height="154.65pt" viewBox="86.7 209.1 407.6 154.65"><circle cx="120" cy="320" r="5" fill="rgba(166,227,161,1)" stroke="rgba(205,214,244,1)" stroke-width="0.8" /><circle cx="120" cy="289.75" r="5" fill="rgba(166,227,161,1)" stroke="rgba(205,214,244,1)" stroke-width="0.8" /><circle cx="120" cy="259.5" r="5" fill="rgba(166,227,161,1)" stroke="rgba(205,214,244,1)" stroke-width="0.8" /><circle cx="120" cy="229.25" r="5" fill="rgba(166,227,161,1)" stroke="rgba(205,214,244,1)" stroke-width="0.8" /><circle cx="150.25" cy="320" r="5" fill="rgba(166,227,161,1)" stroke="rgba(205,214,244,1)" stroke-width="0.8" /><circle cx="150.25" cy="289.75" r="5" fill="rgba(166,227,161,1)" stroke="rgba(205,214,244,1)" stroke-width="0.8" /><circle cx="150.25" cy="259.5" r="5" fill="rgba(166,227,161,1)" stroke="rgba(205,214,244,1)" stroke-width="0.8" /><circle cx="150.25" cy="229.25" r="5" fill="rgba(166,227,161,1)" stroke="rgba(205,214,244,1)" stroke-width="0.8" /><circle cx="180.5" cy="320" r="5" fill="rgba(166,227,161,1)" stroke="rgba(205,214,244,1)" stroke-width="0.8" /><circle cx="180.5" cy="289.75" r="5" fill="rgba(166,227,161,1)" stroke="rgba(205,214,244,1)" stroke-width="0.8" /><circle cx="180.5" cy="259.5" r="5" fill="rgba(166,227,161,1)" stroke="rgba(205,214,244,1)" stroke-width="0.8" /><circle cx="180.5" cy="229.25" r="5" fill="rgba(166,227,161,1)" stroke="rgba(205,214,244,1)" stroke-width="0.8" /><circle cx="210.75" cy="320" r="5" fill="rgba(166,227,161,1)" stroke="rgba(205,214,244,1)" stroke-width="0.8" /><circle cx="210.75" cy="289.75" r="5" fill="rgba(166,227,161,1)" stroke="rgba(205,214,244,1)" stroke-width="0.8" /><circle cx="210.75" cy="259.5" r="5" fill="rgba(166,227,161,1)" stroke="rgba(205,214,244,1)" stroke-width="0.8" /><circle cx="210.75" cy="229.25" r="5" fill="rgba(166,227,161,1)" stroke="rgba(205,214,244,1)" stroke-width="0.8" /><circle cx="241" cy="320" r="5" fill="rgba(166,227,161,1)" stroke="rgba(205,214,244,1)" stroke-width="0.8" /><circle cx="241" cy="289.75" r="5" fill="rgba(166,227,161,1)" stroke="rgba(205,214,244,1)" stroke-width="0.8" /><circle cx="241" cy="259.5" r="5" fill="rgba(166,227,161,1)" stroke="rgba(205,214,244,1)" stroke-width="0.8" /><circle cx="241" cy="229.25" r="5" fill="rgba(166,227,161,1)" stroke="rgba(205,214,244,1)" stroke-width="0.8" /><text x="180.5" y="350.25" font-size="11" fill="rgba(205,214,244,1)" font-family="serif" text-anchor="middle" dominant-baseline="middle">кристалл: узор повторяется</text><circle cx="346.6" cy="324.4" r="5" fill="rgba(127,132,156,1)" stroke="rgba(205,214,244,1)" stroke-width="0.8" /><circle cx="334.5" cy="283.7" r="5" fill="rgba(127,132,156,1)" stroke="rgba(205,214,244,1)" stroke-width="0.8" /><circle cx="342.75" cy="266.65" r="5" fill="rgba(127,132,156,1)" stroke="rgba(205,214,244,1)" stroke-width="0.8" /><circle cx="332.3" cy="227.05" r="5" fill="rgba(127,132,156,1)" stroke="rgba(205,214,244,1)" stroke-width="0.8" /><circle cx="375.2" cy="314.5" r="5" fill="rgba(127,132,156,1)" stroke="rgba(205,214,244,1)" stroke-width="0.8" /><circle cx="371.35" cy="292.5" r="5" fill="rgba(127,132,156,1)" stroke="rgba(205,214,244,1)" stroke-width="0.8" /><circle cx="366.4" cy="252.9" r="5" fill="rgba(127,132,156,1)" stroke="rgba(205,214,244,1)" stroke-width="0.8" /><circle cx="377.4" cy="234.2" r="5" fill="rgba(127,132,156,1)" stroke="rgba(205,214,244,1)" stroke-width="0.8" /><circle cx="398.3" cy="318.9" r="5" fill="rgba(127,132,156,1)" stroke="rgba(205,214,244,1)" stroke-width="0.8" /><circle cx="404.9" cy="297.45" r="5" fill="rgba(127,132,156,1)" stroke="rgba(205,214,244,1)" stroke-width="0.8" /><circle cx="393.9" cy="255.65" r="5" fill="rgba(127,132,156,1)" stroke="rgba(205,214,244,1)" stroke-width="0.8" /><circle cx="403.8" cy="222.1" r="5" fill="rgba(127,132,156,1)" stroke="rgba(205,214,244,1)" stroke-width="0.8" /><circle cx="436.25" cy="321.65" r="5" fill="rgba(127,132,156,1)" stroke="rgba(205,214,244,1)" stroke-width="0.8" /><circle cx="426.35" cy="284.8" r="5" fill="rgba(127,132,156,1)" stroke="rgba(205,214,244,1)" stroke-width="0.8" /><circle cx="432.4" cy="265.55" r="5" fill="rgba(127,132,156,1)" stroke="rgba(205,214,244,1)" stroke-width="0.8" /><circle cx="424.7" cy="226.5" r="5" fill="rgba(127,132,156,1)" stroke="rgba(205,214,244,1)" stroke-width="0.8" /><circle cx="464.85" cy="323.85" r="5" fill="rgba(127,132,156,1)" stroke="rgba(205,214,244,1)" stroke-width="0.8" /><circle cx="459.9" cy="284.25" r="5" fill="rgba(127,132,156,1)" stroke="rgba(205,214,244,1)" stroke-width="0.8" /><circle cx="468.7" cy="266.1" r="5" fill="rgba(127,132,156,1)" stroke="rgba(205,214,244,1)" stroke-width="0.8" /><circle cx="457.7" cy="227.6" r="5" fill="rgba(127,132,156,1)" stroke="rgba(205,214,244,1)" stroke-width="0.8" /><text x="400.5" y="350.25" font-size="11" fill="rgba(205,214,244,1)" font-family="serif" text-anchor="middle" dominant-baseline="middle">аморфное тело: порядка нет</text></svg>