<svg xmlns="http://www.w3.org/2000/svg" width="273.4pt" height="217.35000000000002pt" viewBox="134.3 150.25 273.4 217.35000000000002"><line x1="150" y1="336.5" x2="150" y2="177" stroke="rgba(100,100,100,1)" stroke-width="1" stroke-dasharray="5 4" /><line x1="392" y1="336.5" x2="392" y2="177" stroke="rgba(100,100,100,1)" stroke-width="1" stroke-dasharray="5 4" /><text x="271" y="163.25" font-size="10" fill="rgba(100,100,100,1)" font-family="serif" text-anchor="middle" dominant-baseline="middle">обеднённый слой: поле разгоняет</text><circle cx="166.5" cy="254" r="3.5" fill="rgba(103,135,188,1)"  /><line x1="172" y1="254" x2="216.25" y2="254" stroke="rgba(103,135,188,1)" stroke-width="1.7" /><polygon points="224.25,254 217.3217967697245,258 217.3217967697245,250" fill="rgba(103,135,188,1)" /><circle cx="229.75" cy="254" r="3.5" fill="rgba(103,135,188,1)"  /><line x1="235.25" y1="250.15" x2="280.8328202957654" y2="219.92139285649242" stroke="rgba(182,104,126,1)" stroke-width="1.5" /><polygon points="287.5,215.5 283.936749432783,222.66262838595077 279.5153565762906,215.99544868171617" fill="rgba(182,104,126,1)" /><circle cx="293" cy="215.5" r="3.5" fill="rgba(182,104,126,1)"  /><line x1="235.25" y1="254" x2="279.5" y2="254" stroke="rgba(103,135,188,1)" stroke-width="1.5" /><polygon points="287.5,254 280.5717967697245,258 280.5717967697245,250" fill="rgba(103,135,188,1)" /><circle cx="293" cy="254" r="3.5" fill="rgba(103,135,188,1)"  /><line x1="235.25" y1="257.85" x2="280.8328202957654" y2="288.07860714350755" stroke="rgba(182,104,126,1)" stroke-width="1.5" /><polygon points="287.5,292.5 279.5153565762906,292.0045513182838 283.936749432783,285.33737161404923" fill="rgba(182,104,126,1)" /><circle cx="293" cy="292.5" r="3.5" fill="rgba(182,104,126,1)"  /><line x1="298.5" y1="215.5" x2="340.4105336155959" y2="201.5298221281347" stroke="rgba(188,134,101,1)" stroke-width="1.2" /><polygon points="348,199 342.69224037400534,204.98562342222272 340.16241824587064,197.3961570378186" fill="rgba(188,134,101,1)" /><circle cx="353.5" cy="199" r="3" fill="rgba(188,134,101,1)"  /><line x1="298.5" y1="215.5" x2="340.4105336155959" y2="229.4701778718653" stroke="rgba(188,134,101,1)" stroke-width="1.2" /><polygon points="348,232 340.16241824587064,233.6038429621814 342.69224037400534,226.01437657777728" fill="rgba(188,134,101,1)" /><circle cx="353.5" cy="232" r="3" fill="rgba(188,134,101,1)"  /><line x1="298.5" y1="254" x2="340.4105336155959" y2="240.0298221281347" stroke="rgba(188,134,101,1)" stroke-width="1.2" /><polygon points="348,237.5 342.69224037400534,243.48562342222272 340.16241824587064,235.8961570378186" fill="rgba(188,134,101,1)" /><circle cx="353.5" cy="237.5" r="3" fill="rgba(188,134,101,1)"  /><line x1="298.5" y1="254" x2="340.4105336155959" y2="267.9701778718653" stroke="rgba(188,134,101,1)" stroke-width="1.2" /><polygon points="348,270.5 340.16241824587064,272.1038429621814 342.69224037400534,264.5143765777773" fill="rgba(188,134,101,1)" /><circle cx="353.5" cy="270.5" r="3" fill="rgba(188,134,101,1)"  /><line x1="298.5" y1="292.5" x2="340.4105336155959" y2="278.5298221281347" stroke="rgba(188,134,101,1)" stroke-width="1.2" /><polygon points="348,276 342.69224037400534,281.9856234222227 340.16241824587064,274.3961570378186" fill="rgba(188,134,101,1)" /><circle cx="353.5" cy="276" r="3" fill="rgba(188,134,101,1)"  /><line x1="298.5" y1="292.5" x2="340.4105336155959" y2="306.4701778718653" stroke="rgba(188,134,101,1)" stroke-width="1.2" /><polygon points="348,309 340.16241824587064,310.6038429621814 342.69224037400534,303.0143765777773" fill="rgba(188,134,101,1)" /><circle cx="353.5" cy="309" r="3" fill="rgba(188,134,101,1)"  /><text x="271" y="354.1" font-size="11" fill="rgba(0,0,0,1)" font-family="serif" text-anchor="middle" dominant-baseline="middle">каждый удар — новая пара: 1 → 3 → 9 → …</text></svg>