<svg xmlns="http://www.w3.org/2000/svg" width="287pt" height="215.6pt" viewBox="172 128.4 287 215.6"><line x1="180" y1="330" x2="367" y2="330" stroke="rgba(0,0,0,1)" stroke-width="1.5" /><text x="391.75" y="330" font-size="12" fill="rgba(0,0,0,1)" font-family="serif" font-style="italic" text-anchor="middle" dominant-baseline="middle">n=1</text><line x1="180" y1="189.75" x2="367" y2="189.75" stroke="rgba(0,0,0,1)" stroke-width="1.5" /><text x="391.75" y="189.75" font-size="12" fill="rgba(0,0,0,1)" font-family="serif" font-style="italic" text-anchor="middle" dominant-baseline="middle">n=2</text><line x1="180" y1="163.9" x2="367" y2="163.9" stroke="rgba(0,0,0,1)" stroke-width="1.5" /><text x="391.75" y="163.9" font-size="12" fill="rgba(0,0,0,1)" font-family="serif" font-style="italic" text-anchor="middle" dominant-baseline="middle">n=3</text><line x1="180" y1="154.55" x2="367" y2="154.55" stroke="rgba(0,0,0,1)" stroke-width="1.5" /><text x="433" y="154.55" font-size="12" fill="rgba(0,0,0,1)" font-family="serif" font-style="italic" text-anchor="middle" dominant-baseline="middle">n=4</text><line x1="180" y1="143" x2="367" y2="143" stroke="rgba(100,100,100,1)" stroke-width="1" stroke-dasharray="5 4" /><text x="416.5" y="141.9" font-size="11" fill="rgba(100,100,100,1)" font-family="serif" text-anchor="middle" dominant-baseline="middle">свобода</text><line x1="240.5" y1="163.9" x2="240.5" y2="181.75" stroke="rgba(182,104,126,1)" stroke-width="2" /><polygon points="240.5,189.75 236.5,182.8217967697245 244.5,182.8217967697245" fill="rgba(182,104,126,1)" /><text x="272.4" y="174.35" font-size="11" fill="rgba(182,104,126,1)" font-family="serif" text-anchor="middle" dominant-baseline="middle">красная</text><line x1="317.5" y1="154.55" x2="317.5" y2="181.75" stroke="rgba(103,135,188,1)" stroke-width="2" /><polygon points="317.5,189.75 313.5,182.8217967697245 321.5,182.8217967697245" fill="rgba(103,135,188,1)" /><text x="343.35" y="168.85" font-size="11" fill="rgba(103,135,188,1)" font-family="serif" text-anchor="middle" dominant-baseline="middle">синяя</text><line x1="204.75" y1="189.75" x2="204.75" y2="322" stroke="rgba(152,125,185,1)" stroke-width="2" /><polygon points="204.75,330 200.75,323.0717967697245 208.75,323.0717967697245" fill="rgba(152,125,185,1)" /><text x="226.75" y="264" font-size="11" fill="rgba(152,125,185,1)" font-family="serif" text-anchor="middle" dominant-baseline="middle">УФ</text></svg>