<svg xmlns="http://www.w3.org/2000/svg" width="261.4pt" height="256pt" viewBox="172 172 261.4 256"><circle cx="300" cy="300" r="14" fill="rgba(137,180,250,0.2)" stroke="rgba(137,180,250,1)" stroke-width="1" /><text x="300" y="300" font-size="12" fill="rgba(137,180,250,1)" font-family="serif" text-anchor="middle" dominant-baseline="middle">+</text><circle cx="300" cy="300" r="60" fill="none" stroke="rgba(127,132,156,1)" stroke-width="1" stroke-dasharray="5 4" /><circle cx="300" cy="300" r="120" fill="none" stroke="rgba(127,132,156,1)" stroke-width="1" stroke-dasharray="5 4" /><line x1="314" y1="300" x2="412" y2="300" stroke="rgba(137,180,250,1)" stroke-width="1.5" /><polygon points="420,300 413.0717967697245,304 413.0717967697245,296" fill="rgba(137,180,250,1)" /><line x1="286" y1="300" x2="188" y2="300" stroke="rgba(137,180,250,1)" stroke-width="1.5" /><polygon points="180,300 186.9282032302755,296 186.9282032302755,304" fill="rgba(137,180,250,1)" /><line x1="300" y1="286" x2="300" y2="188" stroke="rgba(137,180,250,1)" stroke-width="1.5" /><polygon points="300,180 304,186.9282032302755 296,186.9282032302755" fill="rgba(137,180,250,1)" /><line x1="300" y1="314" x2="300" y2="412" stroke="rgba(137,180,250,1)" stroke-width="1.5" /><polygon points="300,420 296,413.0717967697245 304,413.0717967697245" fill="rgba(137,180,250,1)" /><line x1="310" y1="290" x2="379.34314575050763" y2="220.65685424949237" stroke="rgba(137,180,250,1)" stroke-width="1.5" /><polygon points="385,215 382.92944763917984,222.72740661031256 377.2725933896875,217.07055236082016" fill="rgba(137,180,250,1)" /><line x1="290" y1="310" x2="220.65685424949237" y2="379.34314575050763" stroke="rgba(137,180,250,1)" stroke-width="1.5" /><polygon points="215,385 217.07055236082016,377.2725933896875 222.72740661031256,382.92944763917984" fill="rgba(137,180,250,1)" /><line x1="310" y1="310" x2="379.34314575050763" y2="379.34314575050763" stroke="rgba(137,180,250,1)" stroke-width="1.5" /><polygon points="385,385 377.2725933896875,382.92944763917984 382.92944763917984,377.2725933896875" fill="rgba(137,180,250,1)" /><line x1="290" y1="290" x2="220.65685424949237" y2="220.65685424949237" stroke="rgba(137,180,250,1)" stroke-width="1.5" /><polygon points="215,215 222.72740661031256,217.07055236082016 217.07055236082016,222.72740661031256" fill="rgba(137,180,250,1)" /><text x="360" y="310" font-size="9" fill="rgba(205,214,244,1)" font-family="serif" text-anchor="middle" dominant-baseline="middle">r₁</text><text x="420" y="310" font-size="9" fill="rgba(205,214,244,1)" font-family="serif" text-anchor="middle" dominant-baseline="middle">r₂</text></svg>