<svg xmlns="http://www.w3.org/2000/svg" width="216.23939204936914pt" height="216.4787840987383pt" viewBox="192 192 216.23939204936914 216.4787840987383"><circle cx="300" cy="300" r="40" fill="none" stroke="rgba(137,180,250,0.6)" stroke-width="0.8" /><circle cx="300" cy="300" r="70" fill="none" stroke="rgba(137,180,250,0.6)" stroke-width="0.8" /><circle cx="300.23939204936914" cy="300.4787840987383" r="100" fill="none" stroke="rgba(137,180,250,0.6)" stroke-width="0.8" /><circle cx="300" cy="300" r="10" fill="rgba(137,180,250,0.2)" stroke="rgba(205,214,244,1)" stroke-width="1.5" /><circle cx="300" cy="300" r="2" fill="rgba(205,214,244,1)"  /><text x="299.3723143246558" y="283.0644562082608" font-size="9" fill="rgba(205,214,244,1)" font-family="serif" font-style="italic" text-anchor="middle" dominant-baseline="middle">I</text><line x1="340" y1="296" x2="338.8" y2="291.2" stroke="rgba(137,180,250,1)" stroke-width="1.2" /><polygon points="338,288 343.56090610141496,293.7512019031891 335.79976610025227,295.69148690347976" fill="rgba(137,180,250,1)" /><line x1="296" y1="260" x2="293" y2="260.6" stroke="rgba(137,180,250,1)" stroke-width="1.2" /><polygon points="291,261 297.00919766431485,255.7189448562628 298.5781267454203,263.5635902617902" fill="rgba(137,180,250,1)" /><line x1="260" y1="304" x2="261.2" y2="308.2" stroke="rgba(137,180,250,1)" stroke-width="1.2" /><polygon points="262,311 256.2505804037132,305.4372511915571 263.94277198483974,303.23948216837806" fill="rgba(137,180,250,1)" /><line x1="304" y1="340" x2="308.5" y2="338.92" stroke="rgba(137,180,250,1)" stroke-width="1.2" /><polygon points="311.5,338.20000000000005 305.69659496324095,343.70640445112053 303.8296113434384,335.9273060352764" fill="rgba(137,180,250,1)" /><line x1="370" y1="294" x2="369.03999999999996" y2="288.9" stroke="rgba(137,180,250,1)" stroke-width="1.2" /><polygon points="368.4,285.5 373.61258862971334,291.5686835291835 365.75066021105556,293.04857593740144" fill="rgba(137,180,250,1)" /><line x1="294" y1="230" x2="289.8" y2="231.2" stroke="rgba(137,180,250,1)" stroke-width="1.2" /><polygon points="287,232 292.5627488084429,226.25058040371317 294.76051783162194,233.94277198483974" fill="rgba(137,180,250,1)" /><line x1="230" y1="306" x2="230.6" y2="310.2" stroke="rgba(137,180,250,1)" stroke-width="1.2" /><polygon points="231,313 226.06040612824205,306.7071141451563 233.9800020775314,305.57574329525784" fill="rgba(137,180,250,1)" /><line x1="306" y1="370" x2="310.8" y2="369.4" stroke="rgba(137,180,250,1)" stroke-width="1.2" /><polygon points="314,369 307.62143614757827,373.828449355702 306.6291582708646,365.8902263419927" fill="rgba(137,180,250,1)" /><line x1="400" y1="292" x2="399.4" y2="286.6" stroke="rgba(137,180,250,1)" stroke-width="1.2" /><polygon points="399,283 403.7406269943705,289.4441023967847 395.78955711698154,290.32755460538345" fill="rgba(137,180,250,1)" /><line x1="292" y1="200" x2="287.8" y2="201.2" stroke="rgba(137,180,250,1)" stroke-width="1.2" /><polygon points="285,202 290.5627488084429,196.25058040371317 292.76051783162194,203.94277198483974" fill="rgba(137,180,250,1)" /><line x1="200" y1="308" x2="200.6" y2="312.2" stroke="rgba(137,180,250,1)" stroke-width="1.2" /><polygon points="201,315 196.06040612824205,308.7071141451563 203.9800020775314,307.57574329525784" fill="rgba(137,180,250,1)" /><line x1="308" y1="400" x2="311.6" y2="399.4" stroke="rgba(137,180,250,1)" stroke-width="1.2" /><polygon points="314,399 307.8236583798034,404.0845652902316 306.5084664813606,396.1934138995744" fill="rgba(137,180,250,1)" /><text x="343.1169429739673" y="280.8675563445561" font-size="9" fill="rgba(137,180,250,1)" font-family="serif" font-style="italic" text-anchor="middle" dominant-baseline="middle">B</text></svg>