<svg xmlns="http://www.w3.org/2000/svg" width="242.72999999999996pt" height="237.62pt" viewBox="242 192 242.72999999999996 237.62"><line x1="250" y1="200" x2="310" y2="200" stroke="rgba(0,0,0,1)" stroke-width="1.5" /><line x1="280" y1="200" x2="280" y2="386" stroke="rgba(100,100,100,1)" stroke-width="1" stroke-dasharray="5 4" /><line x1="280" y1="200" x2="376.36" y2="337.62" stroke="rgba(0,0,0,1)" stroke-width="1.5" /><text x="347.38" y="252.61" font-size="12" fill="rgba(0,0,0,1)" font-family="serif" font-style="italic" text-anchor="middle" dominant-baseline="middle">l</text><path d="M 280 242 C 288.62 242, 297.03 239.35, 304.09 234.4" fill="none" stroke="rgba(100,100,100,1)" stroke-width="1" /><text x="298" y="260" font-size="12" fill="rgba(0,0,0,1)" font-family="serif" font-style="italic" text-anchor="middle" dominant-baseline="middle">θ</text><circle cx="376.36" cy="337.62" r="7" fill="rgba(0,0,0,1)"  /><line x1="376.36" y1="337.62" x2="376.36" y2="413.62" stroke="rgba(103,135,188,1)" stroke-width="2" /><polygon points="376.36,421.62 372.36,414.6917967697245 380.36,414.6917967697245" fill="rgba(103,135,188,1)" /><text x="399.16" y="414.42" font-size="12" fill="rgba(103,135,188,1)" font-family="serif" font-style="italic" text-anchor="middle" dominant-baseline="middle">mg</text><line x1="376.36" y1="337.62" x2="343.4429972692376" y2="360.6710756391759" stroke="rgba(182,104,126,1)" stroke-width="2" /><polygon points="336.89,365.26 340.27059992567774,358.00937629286227 344.8595242865018,364.5623735620999" fill="rgba(182,104,126,1)" /><text x="311.69" y="383.25" font-size="11" fill="rgba(182,104,126,1)" font-family="serif" font-style="italic" text-anchor="middle" dominant-baseline="middle">mg·sinθ</text><line x1="376.36" y1="337.62" x2="411.24089676897177" y2="387.42712799339364" stroke="rgba(125,170,121,1)" stroke-width="1.8" /><polygon points="415.83000000000004,393.98 408.5792840180371,390.59959799004514 415.1321560246435,386.0104947590168" fill="rgba(125,170,121,1)" /><text x="447.03" y="396.98" font-size="11" fill="rgba(125,170,121,1)" font-family="serif" font-style="italic" text-anchor="middle" dominant-baseline="middle">mg·cosθ</text></svg>