<svg xmlns="http://www.w3.org/2000/svg" width="231.5pt" height="284.05pt" viewBox="142 103.94999999999999 231.5 284.05"><line x1="150" y1="297.5" x2="150" y2="380" stroke="rgba(205,214,244,1)" stroke-width="2" /><line x1="150" y1="380" x2="315" y2="380" stroke="rgba(205,214,244,1)" stroke-width="2" /><line x1="315" y1="380" x2="315" y2="297.5" stroke="rgba(205,214,244,1)" stroke-width="2" /><rect x="153.3" y="319.5" width="158.4" height="57.2" fill="rgba(243,139,168,0.4)"  /><text x="232.5" y="352.5" font-size="10" fill="rgba(205,214,244,1)" font-family="serif" text-anchor="middle" dominant-baseline="middle">расплав, 1415 °C</text><rect x="210.5" y="198.5" width="44" height="101.75" fill="rgba(137,180,250,0.2)" stroke="rgba(205,214,244,1)" stroke-width="1.2" /><text x="293" y="248" font-size="10" fill="rgba(205,214,244,1)" font-family="serif" text-anchor="middle" dominant-baseline="middle">буля растёт</text><rect x="227" y="171" width="11" height="27.5" fill="rgba(127,132,156,1)"  /><text x="284.75" y="184.75" font-size="10" fill="rgba(127,132,156,1)" font-family="serif" text-anchor="middle" dominant-baseline="middle">затравка</text><line x1="232.5" y1="168.25" x2="232.5" y2="137.75" stroke="rgba(205,214,244,1)" stroke-width="1.7" /><polygon points="232.5,129.75 236.5,136.6782032302755 228.5,136.6782032302755" fill="rgba(205,214,244,1)" /><path d="M 258.34 161.16 C 276.25 111.94999999999999, 188.74999999999997 111.94999999999999, 206.65999999999997 161.16" fill="none" stroke="rgba(127,132,156,1)" stroke-width="1" /><line x1="201.87" y1="148" x2="204.744" y2="155.896" stroke="rgba(127,132,156,1)" stroke-width="1" /><polygon points="206.66,161.16 200.53159210665052,156.01776150954353 208.04910521837868,153.28152383437805" fill="rgba(127,132,156,1)" /><text x="320.5" y="143.5" font-size="10" fill="rgba(205,214,244,1)" font-family="serif" text-anchor="middle" dominant-baseline="middle">тянем и вращаем</text></svg>