<svg xmlns="http://www.w3.org/2000/svg" width="405.50225032309083pt" height="72pt" viewBox="132 264 405.50225032309083 72"><rect x="140" y="280" width="48" height="40" fill="none" stroke="rgba(205,214,244,1)" stroke-width="1" /><text x="164" y="300" font-size="7" fill="rgba(205,214,244,1)" font-family="serif" text-anchor="middle" dominant-baseline="middle">малая m</text><line x1="188" y1="300" x2="220" y2="300" stroke="rgba(137,180,250,1)" stroke-width="2" /><polygon points="228,300 221.0717967697245,304 221.0717967697245,296" fill="rgba(137,180,250,1)" /><text x="222.01975597925565" y="309.95129686477355" font-size="7" fill="rgba(137,180,250,1)" font-family="serif" text-anchor="middle" dominant-baseline="middle">F</text><line x1="188.06317671321187" y1="300" x2="300.0631767132119" y2="300" stroke="rgba(137,180,250,1)" stroke-width="2" /><polygon points="308.0631767132119,300 301.13497348293635,304 301.13497348293635,296" fill="rgba(137,180,250,1)" /><text x="326.4463578699596" y="298.79921824491106" font-size="7" fill="rgba(137,180,250,1)" font-family="serif" text-anchor="middle" dominant-baseline="middle">большое a</text><rect x="400" y="272" width="80" height="56" fill="none" stroke="rgba(205,214,244,1)" stroke-width="1" /><text x="440" y="300" font-size="7" fill="rgba(205,214,244,1)" font-family="serif" text-anchor="middle" dominant-baseline="middle">большая m</text><line x1="480" y1="300" x2="512" y2="300" stroke="rgba(137,180,250,1)" stroke-width="2" /><polygon points="520,300 513.0717967697245,304 513.0717967697245,296" fill="rgba(137,180,250,1)" /><text x="527.4022503230908" y="300.3923723334628" font-size="7" fill="rgba(137,180,250,1)" font-family="serif" text-anchor="middle" dominant-baseline="middle">F</text><line x1="479.4259150777911" y1="300" x2="499.4259150777911" y2="300" stroke="rgba(137,180,250,1)" stroke-width="2" /><polygon points="507.4259150777911,300 500.4977118475156,304 500.4977118475156,296" fill="rgba(137,180,250,1)" /><text x="493.514130171529" y="307.0836195053803" font-size="7" fill="rgba(137,180,250,1)" font-family="serif" text-anchor="middle" dominant-baseline="middle">малое a</text></svg>