<svg xmlns="http://www.w3.org/2000/svg" width="397pt" height="155.75pt" viewBox="63.849999999999994 202 397 155.75"><rect x="140" y="210" width="253" height="110" fill="none" stroke="rgba(127,132,156,1)" stroke-width="1.2" /><line x1="107" y1="265" x2="173" y2="265" stroke="rgba(205,214,244,1)" stroke-width="1.5" /><line x1="173" y1="248.5" x2="173" y2="281.5" stroke="rgba(205,214,244,1)" stroke-width="1.5" /><line x1="173" y1="248.5" x2="200.5" y2="265" stroke="rgba(205,214,244,1)" stroke-width="1.5" /><line x1="173" y1="281.5" x2="200.5" y2="265" stroke="rgba(205,214,244,1)" stroke-width="1.5" /><line x1="200.5" y1="248.5" x2="200.5" y2="281.5" stroke="rgba(205,214,244,1)" stroke-width="1.5" /><text x="186.75" y="223.75" font-size="10" fill="rgba(205,214,244,1)" font-family="serif" text-anchor="middle" dominant-baseline="middle">светодиод</text><line x1="219.75" y1="254" x2="277.75" y2="254" stroke="rgba(234,179,8,1)" stroke-width="1.8" /><polygon points="285.75,254 278.8217967697245,258 278.8217967697245,250" fill="rgba(234,179,8,1)" /><line x1="219.75" y1="276" x2="277.75" y2="276" stroke="rgba(234,179,8,1)" stroke-width="1.8" /><polygon points="285.75,276 278.8217967697245,280 278.8217967697245,272" fill="rgba(234,179,8,1)" /><line x1="305" y1="248.5" x2="305" y2="281.5" stroke="rgba(205,214,244,1)" stroke-width="1.5" /><line x1="305" y1="248.5" x2="332.5" y2="265" stroke="rgba(205,214,244,1)" stroke-width="1.5" /><line x1="305" y1="281.5" x2="332.5" y2="265" stroke="rgba(205,214,244,1)" stroke-width="1.5" /><line x1="332.5" y1="248.5" x2="332.5" y2="281.5" stroke="rgba(205,214,244,1)" stroke-width="1.5" /><line x1="332.5" y1="265" x2="426" y2="265" stroke="rgba(205,214,244,1)" stroke-width="1.5" /><text x="343.5" y="223.75" font-size="10" fill="rgba(205,214,244,1)" font-family="serif" text-anchor="middle" dominant-baseline="middle">фотодиод</text><text x="104.25" y="295.25" font-size="9" fill="rgba(127,132,156,1)" font-family="serif" text-anchor="middle" dominant-baseline="middle">сеть, помехи</text><text x="417.75" y="295.25" font-size="9" fill="rgba(127,132,156,1)" font-family="serif" text-anchor="middle" dominant-baseline="middle">нежная логика</text><text x="266.5" y="344.75" font-size="10" fill="rgba(205,214,244,1)" font-family="serif" text-anchor="middle" dominant-baseline="middle">электрической связи нет — только свет</text></svg>