<svg xmlns="http://www.w3.org/2000/svg" width="405.4pt" height="216.75pt" viewBox="142 148.75 405.4 216.75"><rect x="150" y="176" width="66" height="33" fill="none" stroke="rgba(0,0,0,1)" stroke-width="1.2" /><text x="183" y="162.25" font-size="11" fill="rgba(0,0,0,1)" font-family="serif" text-anchor="middle" dominant-baseline="middle">пушка</text><line x1="218.75" y1="209" x2="324.5958842452245" y2="270.9585663874485" stroke="rgba(103,135,188,1)" stroke-width="2" /><polygon points="331.5,275 323.50014355942034,274.9520737012098 327.5415771719718,268.04795794643434" fill="rgba(103,135,188,1)" /><text x="232.5" y="261.25" font-size="11" fill="rgba(103,135,188,1)" font-family="serif" text-anchor="middle" dominant-baseline="middle">пучок электронов</text><circle cx="293" cy="286" r="3" fill="none" stroke="rgba(100,100,100,1)" stroke-width="1.2" /><circle cx="293" cy="308" r="3" fill="none" stroke="rgba(100,100,100,1)" stroke-width="1.2" /><circle cx="293" cy="330" r="3" fill="none" stroke="rgba(100,100,100,1)" stroke-width="1.2" /><circle cx="326" cy="286" r="3" fill="none" stroke="rgba(100,100,100,1)" stroke-width="1.2" /><circle cx="326" cy="308" r="3" fill="none" stroke="rgba(100,100,100,1)" stroke-width="1.2" /><circle cx="326" cy="330" r="3" fill="none" stroke="rgba(100,100,100,1)" stroke-width="1.2" /><circle cx="359" cy="286" r="3" fill="none" stroke="rgba(100,100,100,1)" stroke-width="1.2" /><circle cx="359" cy="308" r="3" fill="none" stroke="rgba(100,100,100,1)" stroke-width="1.2" /><circle cx="359" cy="330" r="3" fill="none" stroke="rgba(100,100,100,1)" stroke-width="1.2" /><circle cx="392" cy="286" r="3" fill="none" stroke="rgba(100,100,100,1)" stroke-width="1.2" /><circle cx="392" cy="308" r="3" fill="none" stroke="rgba(100,100,100,1)" stroke-width="1.2" /><circle cx="392" cy="330" r="3" fill="none" stroke="rgba(100,100,100,1)" stroke-width="1.2" /><text x="342.5" y="352" font-size="11" fill="rgba(100,100,100,1)" font-family="serif" text-anchor="middle" dominant-baseline="middle">кристалл никеля</text><line x1="342.5" y1="277.75" x2="419.05364683002267" y2="208.8517178529796" stroke="rgba(125,170,121,1)" stroke-width="2.5" /><polygon points="425,203.5 422.5261660214153,211.1079001995557 417.17444816843573,205.16154702957837" fill="rgba(125,170,121,1)" /><line x1="342.5" y1="277.75" x2="450.21755028251704" y2="252.1029642184483" stroke="rgba(125,170,121,1)" stroke-width="1.4" /><polygon points="458,250.25 452.18668295020893,255.74593894422128 450.3337187317606,247.96348922673835" fill="rgba(125,170,121,1)" /><line x1="342.5" y1="277.75" x2="458.3201767945389" y2="293.1926902392719" stroke="rgba(125,170,121,1)" stroke-width="2.2" /><polygon points="466.25,294.25 458.8539167761873,297.2992544902707 459.9112265369154,289.36943128480965" fill="rgba(125,170,121,1)" /><text x="447" y="187" font-size="11" fill="rgba(125,170,121,1)" font-family="serif" text-anchor="middle" dominant-baseline="middle">максимумы под точными углами</text></svg>