<svg xmlns="http://www.w3.org/2000/svg" width="439pt" height="162.35pt" viewBox="132 190.4 439 162.35"><path d="M 140 319.34 C 141.15 319.28999999999996, 144.58 319.15999999999997, 146.88 319.03999999999996" fill="none" stroke="rgba(100,100,100,1)" stroke-width="1" stroke-dasharray="5 4" /><path d="M 146.88 319.04 C 149.17 318.92, 151.46 318.79, 153.76 318.61" fill="none" stroke="rgba(100,100,100,1)" stroke-width="1" stroke-dasharray="5 4" /><path d="M 153.75 318.61 C 156.04 318.44, 158.33 318.24, 160.63 318" fill="none" stroke="rgba(100,100,100,1)" stroke-width="1" stroke-dasharray="5 4" /><path d="M 160.63 318 C 162.92 317.75, 165.21 317.48, 167.51 317.13" fill="none" stroke="rgba(100,100,100,1)" stroke-width="1" stroke-dasharray="5 4" /><path d="M 167.5 317.13 C 169.79 316.78, 172.08 316.4, 174.38 315.90999999999997" fill="none" stroke="rgba(100,100,100,1)" stroke-width="1" stroke-dasharray="5 4" /><path d="M 174.38 315.91 C 176.67 315.43, 178.96 314.89000000000004, 181.26 314.23" fill="none" stroke="rgba(100,100,100,1)" stroke-width="1" stroke-dasharray="5 4" /><path d="M 181.25 314.23 C 183.54 313.57, 185.83 312.83000000000004, 188.13 311.95000000000005" fill="none" stroke="rgba(100,100,100,1)" stroke-width="1" stroke-dasharray="5 4" /><path d="M 188.13 311.96 C 190.42 311.08, 192.71 310.09999999999997, 195.01 308.96999999999997" fill="none" stroke="rgba(100,100,100,1)" stroke-width="1" stroke-dasharray="5 4" /><path d="M 195 308.96 C 197.29 307.83, 199.58 306.56, 201.88 305.16999999999996" fill="none" stroke="rgba(100,100,100,1)" stroke-width="1" stroke-dasharray="5 4" /><path d="M 201.88 305.17 C 204.17 303.77000000000004, 206.46 302.22, 208.76 300.59000000000003" fill="none" stroke="rgba(100,100,100,1)" stroke-width="1" stroke-dasharray="5 4" /><path d="M 208.75 300.59 C 211.04 298.95, 213.33 297.15999999999997, 215.63 295.35999999999996" fill="none" stroke="rgba(100,100,100,1)" stroke-width="1" stroke-dasharray="5 4" /><path d="M 215.63 295.36 C 217.92 293.55, 220.21 291.62, 222.51 289.75" fill="none" stroke="rgba(100,100,100,1)" stroke-width="1" stroke-dasharray="5 4" /><path d="M 222.5 289.75 C 224.79 287.88, 227.08 285.95, 229.38 284.14" fill="none" stroke="rgba(100,100,100,1)" stroke-width="1" stroke-dasharray="5 4" /><path d="M 229.38 284.14 C 231.67 282.33, 233.96 280.53999999999996, 236.26 278.90999999999997" fill="none" stroke="rgba(100,100,100,1)" stroke-width="1" stroke-dasharray="5 4" /><path d="M 236.25 278.91 C 238.54 277.27000000000004, 240.83 275.72, 243.13 274.33000000000004" fill="none" stroke="rgba(100,100,100,1)" stroke-width="1" stroke-dasharray="5 4" /><path d="M 243.13 274.33 C 245.42 272.93, 247.71 271.66999999999996, 250.01 270.53999999999996" fill="none" stroke="rgba(100,100,100,1)" stroke-width="1" stroke-dasharray="5 4" /><path d="M 250 270.54 C 252.29 269.41, 254.58 268.43, 256.88 267.55" fill="none" stroke="rgba(100,100,100,1)" stroke-width="1" stroke-dasharray="5 4" /><path d="M 256.88 267.54 C 259.17 266.66, 261.46 265.92, 263.76 265.26000000000005" fill="none" stroke="rgba(100,100,100,1)" stroke-width="1" stroke-dasharray="5 4" /><path d="M 263.75 265.27 C 266.04 264.60999999999996, 268.33 264.07, 270.63 263.59" fill="none" stroke="rgba(100,100,100,1)" stroke-width="1" stroke-dasharray="5 4" /><path d="M 270.63 263.59 C 272.92 263.10999999999996, 275.21 262.71999999999997, 277.51 262.36999999999995" fill="none" stroke="rgba(100,100,100,1)" stroke-width="1" stroke-dasharray="5 4" /><path d="M 277.5 262.37 C 279.79 262.02, 282.08 261.75, 284.38 261.5" fill="none" stroke="rgba(100,100,100,1)" stroke-width="1" stroke-dasharray="5 4" /><path d="M 284.38 261.5 C 286.67 261.25, 288.96 261.06, 291.26 260.89" fill="none" stroke="rgba(100,100,100,1)" stroke-width="1" stroke-dasharray="5 4" /><path d="M 291.25 260.89 C 293.54 260.71999999999997, 295.83 260.58, 298.13 260.46" fill="none" stroke="rgba(100,100,100,1)" stroke-width="1" stroke-dasharray="5 4" /><path d="M 298.13 260.46 C 300.42 260.34, 303.86 260.21, 305.01 260.15999999999997" fill="none" stroke="rgba(100,100,100,1)" stroke-width="1" stroke-dasharray="5 4" /><path d="M 140 319.58 C 141.15 319.55, 144.58 319.46999999999997, 146.88 319.39" fill="none" stroke="rgba(125,170,121,1)" stroke-width="2.2" /><path d="M 146.88 319.39 C 149.17 319.31, 151.46 319.22999999999996, 153.76 319.12" fill="none" stroke="rgba(125,170,121,1)" stroke-width="2.2" /><path d="M 153.75 319.12 C 156.04 319.01, 158.33 318.89, 160.63 318.73" fill="none" stroke="rgba(125,170,121,1)" stroke-width="2.2" /><path d="M 160.63 318.73 C 162.92 318.57, 165.21 318.40000000000003, 167.51 318.18" fill="none" stroke="rgba(125,170,121,1)" stroke-width="2.2" /><path d="M 167.5 318.17 C 169.79 317.95, 172.08 317.7, 174.38 317.40000000000003" fill="none" stroke="rgba(125,170,121,1)" stroke-width="2.2" /><path d="M 174.38 317.4 C 176.67 317.09, 178.96 316.75, 181.26 316.33" fill="none" stroke="rgba(125,170,121,1)" stroke-width="2.2" /><path d="M 181.25 316.33 C 183.54 315.90999999999997, 185.83 315.44, 188.13 314.88" fill="none" stroke="rgba(125,170,121,1)" stroke-width="2.2" /><path d="M 188.13 314.88 C 190.42 314.32, 192.71 313.7, 195.01 312.98" fill="none" stroke="rgba(125,170,121,1)" stroke-width="2.2" /><path d="M 195 312.98 C 197.29 312.26, 199.58 311.46000000000004, 201.88 310.57" fill="none" stroke="rgba(125,170,121,1)" stroke-width="2.2" /><path d="M 201.88 310.56 C 204.17 309.67, 206.46 308.69, 208.76 307.64" fill="none" stroke="rgba(125,170,121,1)" stroke-width="2.2" /><path d="M 208.75 307.65 C 211.04 306.60999999999996, 213.33 305.46999999999997, 215.63 304.32" fill="none" stroke="rgba(125,170,121,1)" stroke-width="2.2" /><path d="M 215.63 304.32 C 217.92 303.17, 220.21 301.94, 222.51 300.75" fill="none" stroke="rgba(125,170,121,1)" stroke-width="2.2" /><path d="M 222.5 300.75 C 224.79 299.56, 227.08 298.33, 229.38 297.18" fill="none" stroke="rgba(125,170,121,1)" stroke-width="2.2" /><path d="M 229.38 297.18 C 231.67 296.03000000000003, 233.96 294.89, 236.26 293.85" fill="none" stroke="rgba(125,170,121,1)" stroke-width="2.2" /><path d="M 236.25 293.85 C 238.54 292.81, 240.83 291.82000000000005, 243.13 290.93" fill="none" stroke="rgba(125,170,121,1)" stroke-width="2.2" /><path d="M 243.13 290.94 C 245.42 290.05, 247.71 289.25, 250.01 288.53" fill="none" stroke="rgba(125,170,121,1)" stroke-width="2.2" /><path d="M 250 288.52 C 252.29 287.79999999999995, 254.58 287.16999999999996, 256.88 286.62" fill="none" stroke="rgba(125,170,121,1)" stroke-width="2.2" /><path d="M 256.88 286.62 C 259.17 286.06, 261.46 285.59000000000003, 263.76 285.17" fill="none" stroke="rgba(125,170,121,1)" stroke-width="2.2" /><path d="M 263.75 285.17 C 266.04 284.75, 268.33 284.41, 270.63 284.1" fill="none" stroke="rgba(125,170,121,1)" stroke-width="2.2" /><path d="M 270.63 284.1 C 272.92 283.79, 275.21 283.55, 277.51 283.33000000000004" fill="none" stroke="rgba(125,170,121,1)" stroke-width="2.2" /><path d="M 277.5 283.33 C 279.79 283.10999999999996, 282.08 282.93, 284.38 282.78" fill="none" stroke="rgba(125,170,121,1)" stroke-width="2.2" /><path d="M 284.38 282.77 C 286.67 282.60999999999996, 288.96 282.49, 291.26 282.38" fill="none" stroke="rgba(125,170,121,1)" stroke-width="2.2" /><path d="M 291.25 282.38 C 293.54 282.27, 295.83 282.18, 298.13 282.11" fill="none" stroke="rgba(125,170,121,1)" stroke-width="2.2" /><path d="M 298.13 282.11 C 300.42 282.03000000000003, 303.86 281.95, 305.01 281.92" fill="none" stroke="rgba(125,170,121,1)" stroke-width="2.2" /><line x1="178.5" y1="245.75" x2="258.5" y2="245.75" stroke="rgba(125,170,121,1)" stroke-width="2" /><polygon points="266.5,245.75 259.5717967697245,249.75 259.5717967697245,241.75" fill="rgba(125,170,121,1)" /><text x="222.5" y="230.9" font-size="10" fill="rgba(125,170,121,1)" font-family="serif" text-anchor="middle" dominant-baseline="middle">диффузия хлынула</text><text x="222.5" y="339.25" font-size="11" fill="rgba(0,0,0,1)" font-family="serif" text-anchor="middle" dominant-baseline="middle">прямое: горка $φ₀ − U$</text><path d="M 393 319.34 C 394.15 319.28999999999996, 397.58 319.15999999999997, 399.88 319.03999999999996" fill="none" stroke="rgba(100,100,100,1)" stroke-width="1" stroke-dasharray="5 4" /><path d="M 399.88 319.04 C 402.17 318.92, 404.46 318.79, 406.76 318.61" fill="none" stroke="rgba(100,100,100,1)" stroke-width="1" stroke-dasharray="5 4" /><path d="M 406.75 318.61 C 409.04 318.44, 411.33 318.24, 413.63 318" fill="none" stroke="rgba(100,100,100,1)" stroke-width="1" stroke-dasharray="5 4" /><path d="M 413.63 318 C 415.92 317.75, 418.21 317.48, 420.51 317.13" fill="none" stroke="rgba(100,100,100,1)" stroke-width="1" stroke-dasharray="5 4" /><path d="M 420.5 317.13 C 422.79 316.78, 425.08 316.4, 427.38 315.90999999999997" fill="none" stroke="rgba(100,100,100,1)" stroke-width="1" stroke-dasharray="5 4" /><path d="M 427.38 315.91 C 429.67 315.43, 431.96 314.89000000000004, 434.26 314.23" fill="none" stroke="rgba(100,100,100,1)" stroke-width="1" stroke-dasharray="5 4" /><path d="M 434.25 314.23 C 436.54 313.57, 438.83 312.83000000000004, 441.13 311.95000000000005" fill="none" stroke="rgba(100,100,100,1)" stroke-width="1" stroke-dasharray="5 4" /><path d="M 441.13 311.96 C 443.42 311.08, 445.71 310.09999999999997, 448.01 308.96999999999997" fill="none" stroke="rgba(100,100,100,1)" stroke-width="1" stroke-dasharray="5 4" /><path d="M 448 308.96 C 450.29 307.83, 452.58 306.56, 454.88 305.16999999999996" fill="none" stroke="rgba(100,100,100,1)" stroke-width="1" stroke-dasharray="5 4" /><path d="M 454.88 305.17 C 457.17 303.77000000000004, 459.46 302.22, 461.76 300.59000000000003" fill="none" stroke="rgba(100,100,100,1)" stroke-width="1" stroke-dasharray="5 4" /><path d="M 461.75 300.59 C 464.04 298.95, 466.33 297.15999999999997, 468.63 295.35999999999996" fill="none" stroke="rgba(100,100,100,1)" stroke-width="1" stroke-dasharray="5 4" /><path d="M 468.63 295.36 C 470.92 293.55, 473.21 291.62, 475.51 289.75" fill="none" stroke="rgba(100,100,100,1)" stroke-width="1" stroke-dasharray="5 4" /><path d="M 475.5 289.75 C 477.79 287.88, 480.08 285.95, 482.38 284.14" fill="none" stroke="rgba(100,100,100,1)" stroke-width="1" stroke-dasharray="5 4" /><path d="M 482.38 284.14 C 484.67 282.33, 486.96 280.53999999999996, 489.26 278.90999999999997" fill="none" stroke="rgba(100,100,100,1)" stroke-width="1" stroke-dasharray="5 4" /><path d="M 489.25 278.91 C 491.54 277.27000000000004, 493.83 275.72, 496.13 274.33000000000004" fill="none" stroke="rgba(100,100,100,1)" stroke-width="1" stroke-dasharray="5 4" /><path d="M 496.13 274.33 C 498.42 272.93, 500.71 271.66999999999996, 503.01 270.53999999999996" fill="none" stroke="rgba(100,100,100,1)" stroke-width="1" stroke-dasharray="5 4" /><path d="M 503 270.54 C 505.29 269.41, 507.58 268.43, 509.88 267.55" fill="none" stroke="rgba(100,100,100,1)" stroke-width="1" stroke-dasharray="5 4" /><path d="M 509.88 267.54 C 512.17 266.66, 514.46 265.92, 516.76 265.26000000000005" fill="none" stroke="rgba(100,100,100,1)" stroke-width="1" stroke-dasharray="5 4" /><path d="M 516.75 265.27 C 519.04 264.60999999999996, 521.33 264.07, 523.63 263.59" fill="none" stroke="rgba(100,100,100,1)" stroke-width="1" stroke-dasharray="5 4" /><path d="M 523.63 263.59 C 525.92 263.10999999999996, 528.21 262.71999999999997, 530.51 262.36999999999995" fill="none" stroke="rgba(100,100,100,1)" stroke-width="1" stroke-dasharray="5 4" /><path d="M 530.5 262.37 C 532.79 262.02, 535.08 261.75, 537.38 261.5" fill="none" stroke="rgba(100,100,100,1)" stroke-width="1" stroke-dasharray="5 4" /><path d="M 537.38 261.5 C 539.67 261.25, 541.96 261.06, 544.26 260.89" fill="none" stroke="rgba(100,100,100,1)" stroke-width="1" stroke-dasharray="5 4" /><path d="M 544.25 260.89 C 546.54 260.71999999999997, 548.83 260.58, 551.13 260.46" fill="none" stroke="rgba(100,100,100,1)" stroke-width="1" stroke-dasharray="5 4" /><path d="M 551.13 260.46 C 553.42 260.34, 556.86 260.21, 558.01 260.15999999999997" fill="none" stroke="rgba(100,100,100,1)" stroke-width="1" stroke-dasharray="5 4" /><path d="M 393 319.03 C 394.15 318.96, 397.58 318.77, 399.88 318.59999999999997" fill="none" stroke="rgba(182,104,126,1)" stroke-width="2.2" /><path d="M 399.88 318.6 C 402.17 318.42, 404.46 318.23, 406.76 317.98" fill="none" stroke="rgba(182,104,126,1)" stroke-width="2.2" /><path d="M 406.75 317.98 C 409.04 317.73, 411.33 317.45000000000005, 413.63 317.09000000000003" fill="none" stroke="rgba(182,104,126,1)" stroke-width="2.2" /><path d="M 413.63 317.09 C 415.92 316.72999999999996, 418.21 316.33, 420.51 315.83" fill="none" stroke="rgba(182,104,126,1)" stroke-width="2.2" /><path d="M 420.5 315.83 C 422.79 315.32, 425.08 314.76, 427.38 314.06" fill="none" stroke="rgba(182,104,126,1)" stroke-width="2.2" /><path d="M 427.38 314.06 C 429.67 313.36, 431.96 312.57, 434.26 311.61" fill="none" stroke="rgba(182,104,126,1)" stroke-width="2.2" /><path d="M 434.25 311.61 C 436.54 310.65000000000003, 438.83 309.58000000000004, 441.13 308.3" fill="none" stroke="rgba(182,104,126,1)" stroke-width="2.2" /><path d="M 441.13 308.3 C 443.42 307.02000000000004, 445.71 305.59000000000003, 448.01 303.95" fill="none" stroke="rgba(182,104,126,1)" stroke-width="2.2" /><path d="M 448 303.95 C 450.29 302.31, 452.58 300.46999999999997, 454.88 298.44" fill="none" stroke="rgba(182,104,126,1)" stroke-width="2.2" /><path d="M 454.88 298.43 C 457.17 296.40000000000003, 459.46 294.14, 461.76 291.77" fill="none" stroke="rgba(182,104,126,1)" stroke-width="2.2" /><path d="M 461.75 291.77 C 464.04 289.39, 466.33 286.78, 468.63 284.15999999999997" fill="none" stroke="rgba(182,104,126,1)" stroke-width="2.2" /><path d="M 468.63 284.15 C 470.92 281.52, 473.21 278.71, 475.51 276" fill="none" stroke="rgba(182,104,126,1)" stroke-width="2.2" /><path d="M 475.5 276 C 477.79 273.28, 480.08 270.47, 482.38 267.85" fill="none" stroke="rgba(182,104,126,1)" stroke-width="2.2" /><path d="M 482.38 267.85 C 484.67 265.22, 486.96 262.62, 489.26 260.24" fill="none" stroke="rgba(182,104,126,1)" stroke-width="2.2" /><path d="M 489.25 260.23 C 491.54 257.85, 493.83 255.60000000000002, 496.13 253.57000000000002" fill="none" stroke="rgba(182,104,126,1)" stroke-width="2.2" /><path d="M 496.13 253.57 C 498.42 251.54, 500.71 249.7, 503.01 248.06" fill="none" stroke="rgba(182,104,126,1)" stroke-width="2.2" /><path d="M 503 248.05 C 505.29 246.41000000000003, 507.58 244.97, 509.88 243.70000000000002" fill="none" stroke="rgba(182,104,126,1)" stroke-width="2.2" /><path d="M 509.88 243.7 C 512.17 242.42, 514.46 241.35, 516.76 240.39" fill="none" stroke="rgba(182,104,126,1)" stroke-width="2.2" /><path d="M 516.75 240.39 C 519.04 239.42999999999998, 521.33 238.64999999999998, 523.63 237.94" fill="none" stroke="rgba(182,104,126,1)" stroke-width="2.2" /><path d="M 523.63 237.94 C 525.92 237.24, 528.21 236.67, 530.51 236.17" fill="none" stroke="rgba(182,104,126,1)" stroke-width="2.2" /><path d="M 530.5 236.17 C 532.79 235.66, 535.08 235.26999999999998, 537.38 234.91" fill="none" stroke="rgba(182,104,126,1)" stroke-width="2.2" /><path d="M 537.38 234.91 C 539.67 234.54999999999998, 541.96 234.27, 544.26 234.02" fill="none" stroke="rgba(182,104,126,1)" stroke-width="2.2" /><path d="M 544.25 234.02 C 546.54 233.77, 548.83 233.57000000000002, 551.13 233.4" fill="none" stroke="rgba(182,104,126,1)" stroke-width="2.2" /><path d="M 551.13 233.4 C 553.42 233.22, 556.86 233.04, 558.01 232.97" fill="none" stroke="rgba(182,104,126,1)" stroke-width="2.2" /><line x1="525" y1="218.25" x2="489" y2="218.25" stroke="rgba(100,100,100,1)" stroke-width="1.2" /><polygon points="481,218.25 487.9282032302755,214.25 487.9282032302755,222.25" fill="rgba(100,100,100,1)" /><text x="503" y="203.4" font-size="10" fill="rgba(100,100,100,1)" font-family="serif" text-anchor="middle" dominant-baseline="middle">остался только $−I₀$</text><text x="475.5" y="339.25" font-size="11" fill="rgba(0,0,0,1)" font-family="serif" text-anchor="middle" dominant-baseline="middle">обратное: горка $φ₀ + U$</text></svg>