<svg xmlns="http://www.w3.org/2000/svg" width="305.3pt" height="223.5pt" viewBox="152 184.5 305.3 223.5"><line x1="160" y1="300" x2="432" y2="300" stroke="rgba(0,0,0,1)" stroke-width="1" /><polygon points="440,300 433.0717967697245,304 433.0717967697245,296" fill="rgba(0,0,0,1)" /><line x1="300" y1="400" x2="300" y2="208" stroke="rgba(0,0,0,1)" stroke-width="1" /><polygon points="300,200 304,206.9282032302755 296,206.9282032302755" fill="rgba(0,0,0,1)" /><text x="446" y="300" font-size="11" fill="rgba(0,0,0,1)" font-family="serif" text-anchor="middle" dominant-baseline="middle">H</text><text x="306" y="198" font-size="11" fill="rgba(0,0,0,1)" font-family="serif" text-anchor="middle" dominant-baseline="middle">B</text><path d="M 300 230 C 330 230, 360 240, 380 250" fill="none" stroke="rgba(103,135,188,1)" stroke-width="1.8" /><path d="M 380 250 C 400 260, 420 270, 420 300" fill="none" stroke="rgba(103,135,188,1)" stroke-width="1.8" /><path d="M 420 300 C 420 320, 400 330, 380 338" fill="none" stroke="rgba(103,135,188,1)" stroke-width="1.8" /><path d="M 380 338 C 350 348, 320 346, 300 340" fill="none" stroke="rgba(103,135,188,1)" stroke-width="1.8" /><path d="M 300 340 C 270 338, 240 335, 220 320" fill="none" stroke="rgba(103,135,188,1)" stroke-width="1.8" /><path d="M 220 320 C 200 310, 180 300, 180 270" fill="none" stroke="rgba(103,135,188,1)" stroke-width="1.8" /><path d="M 180 270 C 180 255, 190 245, 220 240" fill="none" stroke="rgba(103,135,188,1)" stroke-width="1.8" /><path d="M 220 240 C 240 235, 270 232, 300 230" fill="none" stroke="rgba(103,135,188,1)" stroke-width="1.8" /><line x1="296" y1="250" x2="304" y2="250" stroke="rgba(0,0,0,1)" stroke-width="1" /><text x="286" y="248" font-size="8" fill="rgba(103,135,188,1)" font-family="serif" text-anchor="middle" dominant-baseline="middle">Br</text><line x1="220" y1="296" x2="220" y2="304" stroke="rgba(0,0,0,1)" stroke-width="1" /><text x="220" y="314" font-size="8" fill="rgba(103,135,188,1)" font-family="serif" text-anchor="middle" dominant-baseline="middle">Hc</text></svg>