<svg xmlns="http://www.w3.org/2000/svg" width="344.3pt" height="194pt" viewBox="132 192.5 344.3 194"><line x1="140" y1="360" x2="452" y2="360" stroke="rgba(0,0,0,1)" stroke-width="1" /><polygon points="460,360 453.0717967697245,364 453.0717967697245,356" fill="rgba(0,0,0,1)" /><line x1="160" y1="370" x2="160" y2="218" stroke="rgba(0,0,0,1)" stroke-width="1" /><polygon points="160,210 164,216.9282032302755 156,216.9282032302755" fill="rgba(0,0,0,1)" /><text x="465" y="360" font-size="11" fill="rgba(0,0,0,1)" font-family="serif" text-anchor="middle" dominant-baseline="middle">t</text><text x="152" y="206" font-size="11" fill="rgba(0,0,0,1)" font-family="serif" text-anchor="middle" dominant-baseline="middle">E</text><line x1="160" y1="230" x2="440" y2="230" stroke="rgba(100,100,100,1)" stroke-width="1.2" /><text x="448" y="230" font-size="9" fill="rgba(100,100,100,1)" font-family="serif" text-anchor="middle" dominant-baseline="middle">E</text><path d="M 160 230 C 170 230, 185 230, 195 262" fill="none" stroke="rgba(103,135,188,1)" stroke-width="1.5" /><path d="M 195 262 C 207 300, 243 360, 265 360" fill="none" stroke="rgba(103,135,188,1)" stroke-width="1.5" /><path d="M 265 360 C 277 360, 290 322, 300 295" fill="none" stroke="rgba(103,135,188,1)" stroke-width="1.5" /><path d="M 300 295 C 312 265, 325 230, 335 230" fill="none" stroke="rgba(103,135,188,1)" stroke-width="1.5" /><path d="M 335 230 C 347 230, 360 230, 370 262" fill="none" stroke="rgba(103,135,188,1)" stroke-width="1.5" /><path d="M 370 262 C 382 300, 418 360, 440 360" fill="none" stroke="rgba(103,135,188,1)" stroke-width="1.5" /><text x="234" y="374" font-size="9" fill="rgba(103,135,188,1)" font-family="serif" text-anchor="middle" dominant-baseline="middle">Ek</text><path d="M 160 360 C 172 360, 185 322, 195 295" fill="none" stroke="rgba(103,135,188,0.6)" stroke-width="1.5" /><path d="M 195 295 C 207 265, 220 230, 230 230" fill="none" stroke="rgba(103,135,188,0.6)" stroke-width="1.5" /><path d="M 230 230 C 240 230, 255 230, 265 262" fill="none" stroke="rgba(103,135,188,0.6)" stroke-width="1.5" /><path d="M 265 262 C 277 300, 313 360, 335 360" fill="none" stroke="rgba(103,135,188,0.6)" stroke-width="1.5" /><path d="M 335 360 C 347 360, 360 322, 370 295" fill="none" stroke="rgba(103,135,188,0.6)" stroke-width="1.5" /><path d="M 370 295 C 382 265, 395 230, 405 230" fill="none" stroke="rgba(103,135,188,0.6)" stroke-width="1.5" /><text x="234" y="222" font-size="9" fill="rgba(103,135,188,0.6)" font-family="serif" text-anchor="middle" dominant-baseline="middle">Ep</text></svg>