<svg xmlns="http://www.w3.org/2000/svg" width="459.04999999999995pt" height="209pt" viewBox="108.75 140.5 459.04999999999995 209"><line x1="131" y1="330" x2="530" y2="330" stroke="rgba(100,100,100,1)" stroke-width="1" /><polygon points="538,330 531.0717967697245,334 531.0717967697245,326" fill="rgba(100,100,100,1)" /><line x1="142" y1="341" x2="142" y2="167.5" stroke="rgba(100,100,100,1)" stroke-width="1" /><polygon points="142,159.5 146,166.4282032302755 138,166.4282032302755" fill="rgba(100,100,100,1)" /><text x="549" y="335.5" font-size="12" fill="rgba(0,0,0,1)" font-family="serif" font-style="italic" text-anchor="middle" dominant-baseline="middle">Z</text><text x="208" y="154" font-size="11" fill="rgba(0,0,0,1)" font-family="serif" text-anchor="middle" dominant-baseline="middle">E ионизации, эВ</text><line x1="138.15" y1="266.75" x2="145.85" y2="266.75" stroke="rgba(100,100,100,1)" stroke-width="1" /><text x="122.75" y="266.75" font-size="10" fill="rgba(100,100,100,1)" font-family="serif" text-anchor="middle" dominant-baseline="middle">10</text><line x1="138.15" y1="203.5" x2="145.85" y2="203.5" stroke="rgba(100,100,100,1)" stroke-width="1" /><text x="122.75" y="203.5" font-size="10" fill="rgba(100,100,100,1)" font-family="serif" text-anchor="middle" dominant-baseline="middle">20</text><line x1="170.6" y1="243.98" x2="199.2" y2="174.41" stroke="rgba(100,100,100,1)" stroke-width="1.2" /><line x1="199.2" y1="174.41" x2="227.79999999999998" y2="295.85" stroke="rgba(100,100,100,1)" stroke-width="1.2" /><line x1="227.8" y1="295.84" x2="256.40000000000003" y2="271.16999999999996" stroke="rgba(100,100,100,1)" stroke-width="1.2" /><line x1="256.4" y1="271.18" x2="285" y2="277.5" stroke="rgba(100,100,100,1)" stroke-width="1.2" /><line x1="285" y1="277.5" x2="313.6" y2="258.53" stroke="rgba(100,100,100,1)" stroke-width="1.2" /><line x1="313.6" y1="258.53" x2="342.20000000000005" y2="238.28999999999996" stroke="rgba(100,100,100,1)" stroke-width="1.2" /><line x1="342.2" y1="238.29" x2="370.8" y2="243.98" stroke="rgba(100,100,100,1)" stroke-width="1.2" /><line x1="370.8" y1="243.98" x2="399.40000000000003" y2="219.95" stroke="rgba(100,100,100,1)" stroke-width="1.2" /><line x1="399.4" y1="219.95" x2="428" y2="193.38" stroke="rgba(100,100,100,1)" stroke-width="1.2" /><line x1="428" y1="193.38" x2="456.6" y2="297.74" stroke="rgba(100,100,100,1)" stroke-width="1.2" /><line x1="456.6" y1="297.74" x2="485.20000000000005" y2="281.93" stroke="rgba(100,100,100,1)" stroke-width="1.2" /><circle cx="170.6" cy="243.98" r="3" fill="rgba(103,135,188,1)"  /><circle cx="199.2" cy="174.41" r="3" fill="rgba(125,170,121,1)"  /><text x="199.2" y="159.01" font-size="11" fill="rgba(125,170,121,1)" font-family="serif" text-anchor="middle" dominant-baseline="middle">He</text><circle cx="227.8" cy="295.84" r="3" fill="rgba(182,104,126,1)"  /><text x="227.8" y="312.34" font-size="11" fill="rgba(182,104,126,1)" font-family="serif" text-anchor="middle" dominant-baseline="middle">Li</text><circle cx="256.4" cy="271.18" r="3" fill="rgba(103,135,188,1)"  /><circle cx="285" cy="277.5" r="3" fill="rgba(103,135,188,1)"  /><circle cx="313.6" cy="258.53" r="3" fill="rgba(103,135,188,1)"  /><circle cx="342.2" cy="238.29" r="3" fill="rgba(103,135,188,1)"  /><circle cx="370.8" cy="243.98" r="3" fill="rgba(103,135,188,1)"  /><circle cx="399.4" cy="219.95" r="3" fill="rgba(103,135,188,1)"  /><circle cx="428" cy="193.38" r="3" fill="rgba(125,170,121,1)"  /><text x="428" y="177.98" font-size="11" fill="rgba(125,170,121,1)" font-family="serif" text-anchor="middle" dominant-baseline="middle">Ne</text><circle cx="456.6" cy="297.74" r="3" fill="rgba(182,104,126,1)"  /><text x="456.6" y="314.24" font-size="11" fill="rgba(182,104,126,1)" font-family="serif" text-anchor="middle" dominant-baseline="middle">Na</text><circle cx="485.2" cy="281.93" r="3" fill="rgba(103,135,188,1)"  /></svg>