<svg xmlns="http://www.w3.org/2000/svg" width="385.3pt" height="214.5pt" viewBox="112 192.5 385.3 214.5"><line x1="120" y1="300" x2="472" y2="300" stroke="rgba(205,214,244,1)" stroke-width="1" /><polygon points="480,300 473.0717967697245,304 473.0717967697245,296" fill="rgba(205,214,244,1)" /><line x1="140" y1="380" x2="140" y2="218" stroke="rgba(205,214,244,1)" stroke-width="1" /><polygon points="140,210 144,216.9282032302755 136,216.9282032302755" fill="rgba(205,214,244,1)" /><text x="486" y="300" font-size="11" fill="rgba(205,214,244,1)" font-family="serif" text-anchor="middle" dominant-baseline="middle">x</text><text x="128" y="206" font-size="11" fill="rgba(205,214,244,1)" font-family="serif" text-anchor="middle" dominant-baseline="middle">n</text><path d="M 160 300 C 172 300, 184 240, 200 240" fill="none" stroke="rgba(137,180,250,1)" stroke-width="1.8" /><path d="M 200 240 C 216 240, 224 300, 240 300" fill="none" stroke="rgba(137,180,250,1)" stroke-width="1.8" /><path d="M 240 300 C 256 300, 264 360, 280 360" fill="none" stroke="rgba(137,180,250,1)" stroke-width="1.8" /><path d="M 280 360 C 296 360, 304 300, 320 300" fill="none" stroke="rgba(137,180,250,1)" stroke-width="1.8" /><path d="M 320 300 C 332 300, 344 240, 360 240" fill="none" stroke="rgba(137,180,250,1)" stroke-width="1.8" /><path d="M 360 240 C 376 240, 384 300, 400 300" fill="none" stroke="rgba(137,180,250,1)" stroke-width="1.8" /><path d="M 400 300 C 416 300, 424 360, 440 360" fill="none" stroke="rgba(137,180,250,1)" stroke-width="1.8" /><line x1="205" y1="232" x2="352" y2="232" stroke="rgba(127,132,156,1)" stroke-width="0.8" /><polygon points="360,232 353.0717967697245,236 353.0717967697245,228" fill="rgba(127,132,156,1)" /><line x1="355" y1="232" x2="218" y2="232" stroke="rgba(127,132,156,1)" stroke-width="0.8" /><polygon points="210,232 216.9282032302755,228 216.9282032302755,236" fill="rgba(127,132,156,1)" /><text x="280" y="224" font-size="10" fill="rgba(127,132,156,1)" font-family="serif" text-anchor="middle" dominant-baseline="middle">L</text><line x1="340" y1="380" x2="412" y2="380" stroke="rgba(205,214,244,1)" stroke-width="1.5" /><polygon points="420,380 413.0717967697245,384 413.0717967697245,376" fill="rgba(205,214,244,1)" /><text x="390" y="394" font-size="10" fill="rgba(205,214,244,1)" font-family="serif" text-anchor="middle" dominant-baseline="middle">v</text></svg>