<svg xmlns="http://www.w3.org/2000/svg" width="311.8pt" height="307pt" viewBox="160 193 311.8 307"><line x1="168" y1="360" x2="436" y2="360" stroke="rgba(127,132,156,1)" stroke-width="1" /><polygon points="444,360 437.0717967697245,364 437.0717967697245,356" fill="rgba(127,132,156,1)" /><line x1="300" y1="492" x2="300" y2="224" stroke="rgba(127,132,156,1)" stroke-width="1" /><polygon points="300,216 304,222.9282032302755 296,222.9282032302755" fill="rgba(127,132,156,1)" /><text x="453" y="368.4" font-size="12" fill="rgba(205,214,244,1)" font-family="serif" font-style="italic" text-anchor="middle" dominant-baseline="middle">x</text><text x="291.6" y="207" font-size="12" fill="rgba(205,214,244,1)" font-family="serif" font-style="italic" text-anchor="middle" dominant-baseline="middle">y</text><line x1="300" y1="360" x2="382.94117647058823" y2="315.7647058823529" stroke="rgba(137,180,250,1)" stroke-width="2" /><polygon points="390,312 385.76923244387456,318.78974269660023 382.00452656152163,311.73091916718846" fill="rgba(137,180,250,1)" /><text x="415.2" y="304.8" font-size="12" fill="rgba(137,180,250,1)" font-family="serif" font-style="italic" text-anchor="middle" dominant-baseline="middle">(x, y)</text><line x1="300" y1="360" x2="255.76470588235293" y2="277.05882352941177" stroke="rgba(203,166,247,1)" stroke-width="2" /><polygon points="252,270 258.78974269660023,274.23076755612544 251.7309191671885,277.99547343847837" fill="rgba(203,166,247,1)" /><text x="219" y="259.2" font-size="12" fill="rgba(203,166,247,1)" font-family="serif" font-style="italic" text-anchor="middle" dominant-baseline="middle">(−y, x)</text><path d="M 342.35 337.41 C 329.87 314.02000000000004, 300.8 305.17, 277.41 317.65000000000003" fill="none" stroke="rgba(127,132,156,1)" stroke-width="1" /><line x1="289.76" y1="311.06" x2="282.34999999999997" y2="315.014" stroke="rgba(127,132,156,1)" stroke-width="1" /><polygon points="277.40999999999997,317.65 281.63934086641433,310.8593685245275 285.4055297987045,317.9174008938422" fill="rgba(127,132,156,1)" /><text x="307.86" y="334.17" font-size="11" fill="rgba(205,214,244,1)" font-family="serif" text-anchor="middle" dominant-baseline="middle">90°</text></svg>