<svg xmlns="http://www.w3.org/2000/svg" width="203.3pt" height="124pt" viewBox="202.8 239 203.3 124"><rect x="220" y="260" width="160" height="80" fill="none" stroke="rgba(0,0,0,1)" stroke-width="1.5" /><circle cx="236" cy="264" r="3" fill="rgba(0,0,0,1)"  /><circle cx="260" cy="264" r="3" fill="rgba(0,0,0,1)"  /><circle cx="284" cy="264" r="3" fill="rgba(0,0,0,1)"  /><circle cx="308" cy="264" r="3" fill="rgba(0,0,0,1)"  /><circle cx="332" cy="264" r="3" fill="rgba(0,0,0,1)"  /><circle cx="356" cy="264" r="3" fill="rgba(0,0,0,1)"  /><text x="236" y="336" font-size="8" fill="rgba(0,0,0,1)" font-family="serif" text-anchor="middle" dominant-baseline="middle">×</text><text x="260" y="336" font-size="8" fill="rgba(0,0,0,1)" font-family="serif" text-anchor="middle" dominant-baseline="middle">×</text><text x="284" y="336" font-size="8" fill="rgba(0,0,0,1)" font-family="serif" text-anchor="middle" dominant-baseline="middle">×</text><text x="308" y="336" font-size="8" fill="rgba(0,0,0,1)" font-family="serif" text-anchor="middle" dominant-baseline="middle">×</text><text x="332" y="336" font-size="8" fill="rgba(0,0,0,1)" font-family="serif" text-anchor="middle" dominant-baseline="middle">×</text><text x="356" y="336" font-size="8" fill="rgba(0,0,0,1)" font-family="serif" text-anchor="middle" dominant-baseline="middle">×</text><line x1="234" y1="290" x2="286" y2="290" stroke="rgba(103,135,188,1)" stroke-width="1.5" /><polygon points="294,290 287.0717967697245,294 287.0717967697245,286" fill="rgba(103,135,188,1)" /><line x1="234" y1="310" x2="286" y2="310" stroke="rgba(103,135,188,1)" stroke-width="1.5" /><polygon points="294,310 287.0717967697245,314 287.0717967697245,306" fill="rgba(103,135,188,1)" /><line x1="310" y1="290" x2="362" y2="290" stroke="rgba(103,135,188,1)" stroke-width="1.5" /><polygon points="370,290 363.0717967697245,294 363.0717967697245,286" fill="rgba(103,135,188,1)" /><line x1="310" y1="310" x2="362" y2="310" stroke="rgba(103,135,188,1)" stroke-width="1.5" /><polygon points="370,310 363.0717967697245,314 363.0717967697245,306" fill="rgba(103,135,188,1)" /><text x="300" y="300" font-size="10" fill="rgba(103,135,188,1)" font-family="serif" font-style="italic" text-anchor="middle" dominant-baseline="middle">B</text><text x="236" y="250" font-size="6" fill="rgba(100,100,100,1)" font-family="serif" text-anchor="middle" dominant-baseline="middle">• — ток на нас</text><text x="236" y="352" font-size="6" fill="rgba(100,100,100,1)" font-family="serif" text-anchor="middle" dominant-baseline="middle">× — ток от нас</text><text x="390" y="300" font-size="9" fill="rgba(0,0,0,1)" font-family="serif" font-style="italic" text-anchor="middle" dominant-baseline="middle">I</text></svg>