<svg xmlns="http://www.w3.org/2000/svg" width="346.83pt" height="170.55pt" viewBox="132 204 346.83 170.55"><rect x="140" y="234" width="14.58" height="33" fill="rgba(124,58,237,1)"  /><rect x="153.75" y="234" width="14.58" height="33" fill="rgba(110,74,239,1)"  /><rect x="167.5" y="234" width="14.58" height="33" fill="rgba(96,89,241,1)"  /><rect x="181.25" y="234" width="14.58" height="33" fill="rgba(82,105,243,1)"  /><rect x="195" y="234" width="14.58" height="33" fill="rgba(67,121,245,1)"  /><rect x="208.75" y="234" width="14.58" height="33" fill="rgba(57,136,233,1)"  /><rect x="222.5" y="234" width="14.58" height="33" fill="rgba(51,150,200,1)"  /><rect x="236.25" y="234" width="14.58" height="33" fill="rgba(46,165,167,1)"  /><rect x="250" y="234" width="14.58" height="33" fill="rgba(41,179,134,1)"  /><rect x="263.75" y="234" width="14.58" height="33" fill="rgba(35,194,101,1)"  /><rect x="277.5" y="234" width="14.58" height="33" fill="rgba(69,194,79,1)"  /><rect x="291.25" y="234" width="14.58" height="33" fill="rgba(112,190,60,1)"  /><rect x="305" y="234" width="14.58" height="33" fill="rgba(156,186,42,1)"  /><rect x="318.75" y="234" width="14.58" height="33" fill="rgba(199,182,23,1)"  /><rect x="332.5" y="234" width="14.58" height="33" fill="rgba(235,176,9,1)"  /><rect x="346.25" y="234" width="14.58" height="33" fill="rgba(238,162,12,1)"  /><rect x="360" y="234" width="14.58" height="33" fill="rgba(241,148,15,1)"  /><rect x="373.75" y="234" width="14.58" height="33" fill="rgba(244,135,18,1)"  /><rect x="387.5" y="234" width="14.58" height="33" fill="rgba(248,121,21,1)"  /><rect x="401.25" y="234" width="14.58" height="33" fill="rgba(248,109,28,1)"  /><rect x="415" y="234" width="14.58" height="33" fill="rgba(246,99,38,1)"  /><rect x="428.75" y="234" width="14.58" height="33" fill="rgba(243,88,48,1)"  /><rect x="442.5" y="234" width="14.58" height="33" fill="rgba(241,78,58,1)"  /><rect x="456.25" y="234" width="14.58" height="33" fill="rgba(239,68,68,1)"  /><text x="305" y="217.5" font-size="11" fill="rgba(0,0,0,1)" font-family="serif" text-anchor="middle" dominant-baseline="middle">сплошной спектр до газа</text><rect x="140" y="333" width="14.58" height="33" fill="rgba(124,58,237,1)"  /><rect x="153.75" y="333" width="14.58" height="33" fill="rgba(110,74,239,1)"  /><rect x="167.5" y="333" width="14.58" height="33" fill="rgba(96,89,241,1)"  /><rect x="181.25" y="333" width="14.58" height="33" fill="rgba(82,105,243,1)"  /><rect x="195" y="333" width="14.58" height="33" fill="rgba(67,121,245,1)"  /><rect x="208.75" y="333" width="14.58" height="33" fill="rgba(57,136,233,1)"  /><rect x="222.5" y="333" width="14.58" height="33" fill="rgba(51,150,200,1)"  /><rect x="236.25" y="333" width="14.58" height="33" fill="rgba(46,165,167,1)"  /><rect x="250" y="333" width="14.58" height="33" fill="rgba(41,179,134,1)"  /><rect x="263.75" y="333" width="14.58" height="33" fill="rgba(35,194,101,1)"  /><rect x="277.5" y="333" width="14.58" height="33" fill="rgba(69,194,79,1)"  /><rect x="291.25" y="333" width="14.58" height="33" fill="rgba(112,190,60,1)"  /><rect x="305" y="333" width="14.58" height="33" fill="rgba(156,186,42,1)"  /><rect x="318.75" y="333" width="14.58" height="33" fill="rgba(199,182,23,1)"  /><rect x="332.5" y="333" width="14.58" height="33" fill="rgba(235,176,9,1)"  /><rect x="346.25" y="333" width="14.58" height="33" fill="rgba(238,162,12,1)"  /><rect x="360" y="333" width="14.58" height="33" fill="rgba(241,148,15,1)"  /><rect x="373.75" y="333" width="14.58" height="33" fill="rgba(244,135,18,1)"  /><rect x="387.5" y="333" width="14.58" height="33" fill="rgba(248,121,21,1)"  /><rect x="401.25" y="333" width="14.58" height="33" fill="rgba(248,109,28,1)"  /><rect x="415" y="333" width="14.58" height="33" fill="rgba(246,99,38,1)"  /><rect x="428.75" y="333" width="14.58" height="33" fill="rgba(243,88,48,1)"  /><rect x="442.5" y="333" width="14.58" height="33" fill="rgba(241,78,58,1)"  /><rect x="456.25" y="333" width="14.58" height="33" fill="rgba(239,68,68,1)"  /><line x1="178.5" y1="366.55" x2="178.5" y2="332.45" stroke="rgba(22,22,30,1)" stroke-width="3.5" /><line x1="222.5" y1="366.55" x2="222.5" y2="332.45" stroke="rgba(22,22,30,1)" stroke-width="3.5" /><line x1="327" y1="366.55" x2="327" y2="332.45" stroke="rgba(22,22,30,1)" stroke-width="3.5" /><line x1="393" y1="366.55" x2="393" y2="332.45" stroke="rgba(22,22,30,1)" stroke-width="3.5" /><line x1="415" y1="366.55" x2="415" y2="332.45" stroke="rgba(22,22,30,1)" stroke-width="3.5" /><line x1="437" y1="366.55" x2="437" y2="332.45" stroke="rgba(22,22,30,1)" stroke-width="3.5" /><text x="305" y="317.6" font-size="11" fill="rgba(0,0,0,1)" font-family="serif" text-anchor="middle" dominant-baseline="middle">после газа: тёмные линии на тех же местах</text></svg>