<svg xmlns="http://www.w3.org/2000/svg" width="366.7pt" height="247.5pt" viewBox="105 181.5 366.7 247.5"><line x1="113" y1="300" x2="435" y2="300" stroke="rgba(127,132,156,1)" stroke-width="1" /><polygon points="443,300 436.0717967697245,304 436.0717967697245,296" fill="rgba(127,132,156,1)" /><line x1="300" y1="421" x2="300" y2="209" stroke="rgba(127,132,156,1)" stroke-width="1" /><polygon points="300,201 304,207.9282032302755 296,207.9282032302755" fill="rgba(127,132,156,1)" /><text x="452.9" y="303.85" font-size="12" fill="rgba(205,214,244,1)" font-family="serif" font-style="italic" text-anchor="middle" dominant-baseline="middle">U</text><text x="308.8" y="195.5" font-size="12" fill="rgba(205,214,244,1)" font-family="serif" font-style="italic" text-anchor="middle" dominant-baseline="middle">I</text><path d="M 300 300 C 308.25 299.54, 336.67 299.54, 349.5 297.25" fill="none" stroke="rgba(137,180,250,1)" stroke-width="2" /><path d="M 349.5 297.25 C 362.33 294.96, 369.67 293.13, 377 286.25" fill="none" stroke="rgba(137,180,250,1)" stroke-width="2" /><path d="M 377 286.25 C 384.33 279.38, 388.92 268.37, 393.5 256" fill="none" stroke="rgba(137,180,250,1)" stroke-width="2" /><path d="M 393.5 256 C 398.08 243.62, 402.67 219.32999999999998, 404.5 212" fill="none" stroke="rgba(137,180,250,1)" stroke-width="2" /><line x1="300" y1="302.75" x2="168" y2="304.4" stroke="rgba(137,180,250,1)" stroke-width="2" /><path d="M 168 304.4 C 166.63 306.88, 162.04 309.9, 159.75 319.25" fill="none" stroke="rgba(243,139,168,1)" stroke-width="2" /><path d="M 159.75 319.25 C 157.46 328.6, 155.62 345.38, 154.25 360.5" fill="none" stroke="rgba(243,139,168,1)" stroke-width="2" /><path d="M 154.25 360.5 C 152.88 375.62, 151.96 401.75, 151.5 410" fill="none" stroke="rgba(243,139,168,1)" stroke-width="2" /><line x1="159.75" y1="300" x2="159.75" y2="293.4" stroke="rgba(127,132,156,1)" stroke-width="1" /><text x="157" y="282.4" font-size="10" fill="rgba(205,214,244,1)" font-family="serif" text-anchor="middle" dominant-baseline="middle">$U$ проб</text><text x="220.25" y="374.25" font-size="10" fill="rgba(243,139,168,1)" font-family="serif" text-anchor="middle" dominant-baseline="middle">пробой: напряжение стоит,</text><text x="214.75" y="389.65" font-size="10" fill="rgba(243,139,168,1)" font-family="serif" text-anchor="middle" dominant-baseline="middle">ток — любой</text></svg>