<svg xmlns="http://www.w3.org/2000/svg" width="388.34999999999997pt" height="203pt" viewBox="143.2 137.75 388.34999999999997 203"><rect x="160" y="165" width="22" height="165" fill="rgba(103,135,188,0.2)" stroke="rgba(0,0,0,1)" stroke-width="1.2" /><text x="171" y="151.25" font-size="11" fill="rgba(100,100,100,1)" font-family="serif" text-anchor="middle" dominant-baseline="middle">металл</text><line x1="358" y1="203.5" x2="198.25" y2="203.5" stroke="rgba(239,68,68,1)" stroke-width="4" /><polygon points="190.25,203.5 197.1782032302755,199.5 197.1782032302755,207.5" fill="rgba(239,68,68,1)" /><text x="454.25" y="203.5" font-size="11" fill="rgba(239,68,68,1)" font-family="serif" text-anchor="middle" dominant-baseline="middle">ослепительный красный</text><text x="275.5" y="222.75" font-size="11" fill="rgba(100,100,100,1)" font-family="serif" text-anchor="middle" dominant-baseline="middle">ни одного электрона</text><line x1="358" y1="286" x2="198.25" y2="286" stroke="rgba(59,130,246,1)" stroke-width="1.3" /><polygon points="190.25,286 197.1782032302755,282 197.1782032302755,290" fill="rgba(59,130,246,1)" /><text x="435" y="286" font-size="11" fill="rgba(59,130,246,1)" font-family="serif" text-anchor="middle" dominant-baseline="middle">еле тлеющий синий</text><line x1="187.5" y1="277.75" x2="235.34458247200067" y2="253.82770876399965" stroke="rgba(0,0,0,1)" stroke-width="1.5" /><polygon points="242.5,250.25 238.09208102806795,256.9260954409656 234.5143722640683,249.77067791296628" fill="rgba(0,0,0,1)" /><circle cx="242.5" cy="250.25" r="2.5" fill="rgba(0,0,0,1)"  /><line x1="187.5" y1="297" x2="240.1989371536683" y2="308.9770311712883" stroke="rgba(0,0,0,1)" stroke-width="1.5" /><polygon points="248,310.75 240.35759698420196,313.1150953773835 242.1305658129137,305.31403253105185" fill="rgba(0,0,0,1)" /><circle cx="248" cy="310.75" r="2.5" fill="rgba(0,0,0,1)"  /><text x="303" y="327.25" font-size="11" fill="rgba(0,0,0,1)" font-family="serif" text-anchor="middle" dominant-baseline="middle">вылет мгновенный</text></svg>