<svg xmlns="http://www.w3.org/2000/svg" width="492pt" height="260.5pt" viewBox="62 82 492 260.5"><line x1="70" y1="300" x2="502" y2="300" stroke="rgba(100,100,100,1)" stroke-width="1" /><polygon points="510,300 503.0717967697245,304 503.0717967697245,296" fill="rgba(100,100,100,1)" /><line x1="90" y1="320" x2="90" y2="98" stroke="rgba(100,100,100,1)" stroke-width="1" /><polygon points="90,90 94,96.92820323027551 86,96.92820323027551" fill="rgba(100,100,100,1)" /><text x="522" y="300" font-size="12" fill="rgba(0,0,0,1)" font-family="serif" font-style="italic" text-anchor="middle" dominant-baseline="middle">r</text><path d="M 110 110 C 128 190, 157 230, 180 243" fill="none" stroke="rgba(103,135,188,1)" stroke-width="2" /><path d="M 180 243 C 215 263, 253 268, 290 273" fill="none" stroke="rgba(103,135,188,1)" stroke-width="2" /><path d="M 290 273 C 350 281, 417 284, 480 286" fill="none" stroke="rgba(103,135,188,1)" stroke-width="2" /><path d="M 110 110 C 118 210, 155 274, 180 283" fill="none" stroke="rgba(103,135,188,0.4)" stroke-width="2" /><path d="M 180 283 C 215 289, 255 294, 290 296" fill="none" stroke="rgba(103,135,188,0.4)" stroke-width="2" /><path d="M 290 296 C 350 297, 420 298, 480 298" fill="none" stroke="rgba(103,135,188,0.4)" stroke-width="2" /><text x="360" y="256" font-size="9" fill="rgba(103,135,188,1)" font-family="serif" text-anchor="middle" dominant-baseline="middle">потенциал: спад 1/r</text><text x="176" y="258" font-size="9" fill="rgba(103,135,188,0.4)" font-family="serif" text-anchor="middle" dominant-baseline="middle">сила: спад 1/r²</text><text x="330" y="330" font-size="9" fill="rgba(100,100,100,1)" font-family="serif" text-anchor="middle" dominant-baseline="middle">сила падает быстрее: на большом расстоянии потенциал ещё заметен, а сила уже нет</text></svg>