<svg xmlns="http://www.w3.org/2000/svg" width="366.05pt" height="188.60000000000002pt" viewBox="111.75 149.25 366.05 188.60000000000002"><line x1="140" y1="320" x2="440" y2="320" stroke="rgba(127,132,156,1)" stroke-width="1" /><polygon points="448,320 441.0717967697245,324 441.0717967697245,316" fill="rgba(127,132,156,1)" /><line x1="151" y1="328.25" x2="151" y2="174" stroke="rgba(127,132,156,1)" stroke-width="1" /><polygon points="151,166 155,172.9282032302755 147,172.9282032302755" fill="rgba(127,132,156,1)" /><text x="459" y="323.85" font-size="12" fill="rgba(205,214,244,1)" font-family="serif" font-style="italic" text-anchor="middle" dominant-baseline="middle">T</text><text x="164.75" y="163.25" font-size="12" fill="rgba(205,214,244,1)" font-family="serif" font-style="italic" text-anchor="middle" dominant-baseline="middle">μ</text><path d="M 167.5 276 C 173.92 266.37, 192.25 232, 206 218.25" fill="none" stroke="rgba(137,180,250,1)" stroke-width="2.2" /><path d="M 206 218.25 C 219.75 204.5, 235.32999999999998 196.25, 250 193.5" fill="none" stroke="rgba(137,180,250,1)" stroke-width="2.2" /><path d="M 250 193.5 C 264.67 190.75, 277.5 194.87, 294 201.75" fill="none" stroke="rgba(137,180,250,1)" stroke-width="2.2" /><path d="M 294 201.75 C 310.5 208.63, 329.75 224.21, 349 234.75" fill="none" stroke="rgba(137,180,250,1)" stroke-width="2.2" /><path d="M 349 234.75 C 368.25 245.29, 399.42 259.96, 409.5 265" fill="none" stroke="rgba(137,180,250,1)" stroke-width="2.2" /><text x="197.75" y="175.9" font-size="10" fill="rgba(243,139,168,1)" font-family="serif" text-anchor="middle" dominant-baseline="middle">холод: мешают ионы примеси</text><line x1="203.25" y1="185.25" x2="208.75" y2="212.75" stroke="rgba(127,132,156,1)" stroke-width="0.7" /><text x="379.25" y="199" font-size="10" fill="rgba(250,179,135,1)" font-family="serif" text-anchor="middle" dominant-baseline="middle">жара: мешают колебания решётки</text><line x1="368.25" y1="208.9" x2="357.25" y2="234.75" stroke="rgba(127,132,156,1)" stroke-width="0.7" /></svg>