<svg xmlns="http://www.w3.org/2000/svg" width="398.05pt" height="162.85000000000002pt" viewBox="116 187.75 398.05 162.85000000000002"><line x1="124" y1="320" x2="479" y2="320" stroke="rgba(100,100,100,1)" stroke-width="1" /><polygon points="487,320 480.0717967697245,324 480.0717967697245,316" fill="rgba(100,100,100,1)" /><line x1="135" y1="336.5" x2="135" y2="218" stroke="rgba(100,100,100,1)" stroke-width="1" /><polygon points="135,210 139,216.9282032302755 131,216.9282032302755" fill="rgba(100,100,100,1)" /><text x="495.25" y="323.85" font-size="12" fill="rgba(0,0,0,1)" font-family="serif" font-style="italic" text-anchor="middle" dominant-baseline="middle">x</text><text x="135" y="201.75" font-size="12" fill="rgba(0,0,0,1)" font-family="serif" font-style="italic" text-anchor="middle" dominant-baseline="middle">φ</text><path d="M 135 306.25 C 151.5 306.25, 211.07999999999998 307.17, 234 306.25" fill="none" stroke="rgba(103,135,188,1)" stroke-width="2" /><path d="M 234 306.25 C 256.92 305.33, 256.92 309.92, 272.5 300.75" fill="none" stroke="rgba(103,135,188,1)" stroke-width="2" /><path d="M 272.5 300.75 C 288.08 291.58, 311.92 260.42, 327.5 251.25" fill="none" stroke="rgba(103,135,188,1)" stroke-width="2" /><path d="M 327.5 251.25 C 343.08 242.08, 343.08 246.67, 366 245.75" fill="none" stroke="rgba(103,135,188,1)" stroke-width="2" /><path d="M 366 245.75 C 388.92 244.83, 448.5 245.75, 465 245.75" fill="none" stroke="rgba(103,135,188,1)" stroke-width="2" /><line x1="135" y1="306.25" x2="388" y2="306.25" stroke="rgba(100,100,100,1)" stroke-width="0.8" stroke-dasharray="5 4" /><line x1="250.5" y1="245.75" x2="388" y2="245.75" stroke="rgba(100,100,100,1)" stroke-width="0.8" stroke-dasharray="5 4" /><line x1="388" y1="276" x2="388" y2="296.05" stroke="rgba(188,134,101,1)" stroke-width="1.4" /><polygon points="388,304.05 384,297.1217967697245 392,297.1217967697245" fill="rgba(188,134,101,1)" /><line x1="388" y1="276" x2="388" y2="255.95" stroke="rgba(188,134,101,1)" stroke-width="1.4" /><polygon points="388,247.95 392,254.8782032302755 384,254.8782032302755" fill="rgba(188,134,101,1)" /><text x="426.5" y="276" font-size="11" fill="rgba(188,134,101,1)" font-family="serif" text-anchor="middle" dominant-baseline="middle">$φ₀ ≈ 0.7$ В</text><text x="190" y="336.5" font-size="12" fill="rgba(0,0,0,1)" font-family="serif" font-style="italic" text-anchor="middle" dominant-baseline="middle">p</text><text x="300" y="337.6" font-size="10" fill="rgba(0,0,0,1)" font-family="serif" text-anchor="middle" dominant-baseline="middle">обедн. слой</text><text x="421" y="336.5" font-size="12" fill="rgba(0,0,0,1)" font-family="serif" font-style="italic" text-anchor="middle" dominant-baseline="middle">n</text></svg>