<svg xmlns="http://www.w3.org/2000/svg" width="459.5pt" height="166.14000000000001pt" viewBox="94 213.60999999999999 459.5 166.14000000000001"><path d="M 156.5 221.61 C 157.42 222.92000000000002, 160.17 227.05, 162 229.47000000000003" fill="none" stroke="rgba(188,134,101,1)" stroke-width="1.8" /><path d="M 162 229.47 C 163.83 231.89, 165.67 234.10999999999999, 167.5 236.13" fill="none" stroke="rgba(188,134,101,1)" stroke-width="1.8" /><path d="M 167.5 236.13 C 169.33 238.15, 171.17 239.96, 173 241.57" fill="none" stroke="rgba(188,134,101,1)" stroke-width="1.8" /><path d="M 173 241.57 C 174.83 243.18, 176.67 244.6, 178.5 245.81" fill="none" stroke="rgba(188,134,101,1)" stroke-width="1.8" /><path d="M 178.5 245.81 C 180.33 247.02, 182.17 248.03, 184 248.83" fill="none" stroke="rgba(188,134,101,1)" stroke-width="1.8" /><path d="M 184 248.83 C 185.83 249.64000000000001, 187.67 250.24, 189.5 250.64000000000001" fill="none" stroke="rgba(188,134,101,1)" stroke-width="1.8" /><path d="M 189.5 250.65 C 191.33 251.05, 193.17 251.26000000000002, 195 251.26000000000002" fill="none" stroke="rgba(188,134,101,1)" stroke-width="1.8" /><path d="M 195 251.25 C 196.83 251.25, 198.67 251.05, 200.5 250.65" fill="none" stroke="rgba(188,134,101,1)" stroke-width="1.8" /><path d="M 200.5 250.65 C 202.33 250.25, 204.17 249.64000000000001, 206 248.83" fill="none" stroke="rgba(188,134,101,1)" stroke-width="1.8" /><path d="M 206 248.83 C 207.83 248.02, 209.67 247.02, 211.5 245.81" fill="none" stroke="rgba(188,134,101,1)" stroke-width="1.8" /><path d="M 211.5 245.81 C 213.33 244.6, 215.17 243.19, 217 241.58" fill="none" stroke="rgba(188,134,101,1)" stroke-width="1.8" /><path d="M 217 241.57 C 218.83 239.95999999999998, 220.67 238.14, 222.5 236.13" fill="none" stroke="rgba(188,134,101,1)" stroke-width="1.8" /><path d="M 222.5 236.13 C 224.33 234.10999999999999, 226.17 231.89, 228 229.47" fill="none" stroke="rgba(188,134,101,1)" stroke-width="1.8" /><path d="M 228 229.47 C 229.83 227.05, 232.58 222.92, 233.5 221.60999999999999" fill="none" stroke="rgba(188,134,101,1)" stroke-width="1.8" /><path d="M 156.5 324.9 C 157.42 323.59, 160.17 319.46, 162 317.03999999999996" fill="none" stroke="rgba(103,135,188,1)" stroke-width="1.8" /><path d="M 162 317.03 C 163.83 314.60999999999996, 165.67 312.39, 167.5 310.36999999999995" fill="none" stroke="rgba(103,135,188,1)" stroke-width="1.8" /><path d="M 167.5 310.38 C 169.33 308.36, 171.17 306.55, 173 304.94" fill="none" stroke="rgba(103,135,188,1)" stroke-width="1.8" /><path d="M 173 304.93 C 174.83 303.32, 176.67 301.90000000000003, 178.5 300.69" fill="none" stroke="rgba(103,135,188,1)" stroke-width="1.8" /><path d="M 178.5 300.7 C 180.33 299.49, 182.17 298.47999999999996, 184 297.67" fill="none" stroke="rgba(103,135,188,1)" stroke-width="1.8" /><path d="M 184 297.67 C 185.83 296.86, 187.67 296.26, 189.5 295.86" fill="none" stroke="rgba(103,135,188,1)" stroke-width="1.8" /><path d="M 189.5 295.86 C 191.33 295.46000000000004, 193.17 295.25, 195 295.25" fill="none" stroke="rgba(103,135,188,1)" stroke-width="1.8" /><path d="M 195 295.25 C 196.83 295.25, 198.67 295.45, 200.5 295.85" fill="none" stroke="rgba(103,135,188,1)" stroke-width="1.8" /><path d="M 200.5 295.86 C 202.33 296.26, 204.17 296.87, 206 297.68" fill="none" stroke="rgba(103,135,188,1)" stroke-width="1.8" /><path d="M 206 297.67 C 207.83 298.48, 209.67 299.49, 211.5 300.7" fill="none" stroke="rgba(103,135,188,1)" stroke-width="1.8" /><path d="M 211.5 300.7 C 213.33 301.90999999999997, 215.17 303.32, 217 304.93" fill="none" stroke="rgba(103,135,188,1)" stroke-width="1.8" /><path d="M 217 304.93 C 218.83 306.54, 220.67 308.36, 222.5 310.37" fill="none" stroke="rgba(103,135,188,1)" stroke-width="1.8" /><path d="M 222.5 310.38 C 224.33 312.4, 226.17 314.62, 228 317.04" fill="none" stroke="rgba(103,135,188,1)" stroke-width="1.8" /><path d="M 228 317.03 C 229.83 319.45, 232.58 323.58, 233.5 324.89" fill="none" stroke="rgba(103,135,188,1)" stroke-width="1.8" /><line x1="195" y1="254" x2="195" y2="283.4" stroke="rgba(125,170,121,1)" stroke-width="1.8" /><polygon points="195,291.4 191,284.47179676972445 199,284.47179676972445" fill="rgba(125,170,121,1)" /><line x1="201.6" y1="273.25" x2="233.75" y2="273.25" stroke="rgba(234,179,8,1)" stroke-width="1.8" /><polygon points="241.75,273.25 234.8217967697245,277.25 234.8217967697245,269.25" fill="rgba(234,179,8,1)" /><text x="255.5" y="259.5" font-size="10" fill="rgba(181,147,8,1)" font-family="serif" text-anchor="middle" dominant-baseline="middle">hν</text><text x="195" y="339.25" font-size="10" fill="rgba(0,0,0,1)" font-family="serif" text-anchor="middle" dominant-baseline="middle">прямозонный (GaAs): фотон легко</text><path d="M 426 221.61 C 426.92 222.92000000000002, 429.67 227.05, 431.5 229.47000000000003" fill="none" stroke="rgba(188,134,101,1)" stroke-width="1.8" /><path d="M 431.5 229.47 C 433.33 231.89, 435.17 234.10999999999999, 437 236.13" fill="none" stroke="rgba(188,134,101,1)" stroke-width="1.8" /><path d="M 437 236.13 C 438.83 238.15, 440.67 239.96, 442.5 241.57" fill="none" stroke="rgba(188,134,101,1)" stroke-width="1.8" /><path d="M 442.5 241.57 C 444.33 243.18, 446.17 244.59, 448 245.79999999999998" fill="none" stroke="rgba(188,134,101,1)" stroke-width="1.8" /><path d="M 448 245.8 C 449.83 247.01000000000002, 451.67 248.02, 453.5 248.83" fill="none" stroke="rgba(188,134,101,1)" stroke-width="1.8" /><path d="M 453.5 248.83 C 455.33 249.64000000000001, 457.17 250.24, 459 250.64000000000001" fill="none" stroke="rgba(188,134,101,1)" stroke-width="1.8" /><path d="M 459 250.65 C 460.83 251.05, 462.67 251.26000000000002, 464.5 251.26000000000002" fill="none" stroke="rgba(188,134,101,1)" stroke-width="1.8" /><path d="M 464.5 251.25 C 466.33 251.25, 468.17 251.05, 470 250.65" fill="none" stroke="rgba(188,134,101,1)" stroke-width="1.8" /><path d="M 470 250.65 C 471.83 250.25, 473.67 249.64000000000001, 475.5 248.84" fill="none" stroke="rgba(188,134,101,1)" stroke-width="1.8" /><path d="M 475.5 248.83 C 477.33 248.02, 479.17 247.01000000000002, 481 245.8" fill="none" stroke="rgba(188,134,101,1)" stroke-width="1.8" /><path d="M 481 245.81 C 482.83 244.6, 484.67 243.19, 486.5 241.58" fill="none" stroke="rgba(188,134,101,1)" stroke-width="1.8" /><path d="M 486.5 241.57 C 488.33 239.95999999999998, 490.17 238.14, 492 236.13" fill="none" stroke="rgba(188,134,101,1)" stroke-width="1.8" /><path d="M 492 236.13 C 493.83 234.10999999999999, 495.67 231.89, 497.5 229.47" fill="none" stroke="rgba(188,134,101,1)" stroke-width="1.8" /><path d="M 497.5 229.47 C 499.33 227.05, 502.08 222.92, 503 221.60999999999999" fill="none" stroke="rgba(188,134,101,1)" stroke-width="1.8" /><path d="M 354.5 324.9 C 355.42 323.59, 358.17 319.45, 360 317.03" fill="none" stroke="rgba(103,135,188,1)" stroke-width="1.8" /><path d="M 360 317.03 C 361.83 314.60999999999996, 363.67 312.39, 365.5 310.38" fill="none" stroke="rgba(103,135,188,1)" stroke-width="1.8" /><path d="M 365.5 310.38 C 367.33 308.36, 369.17 306.55, 371 304.93" fill="none" stroke="rgba(103,135,188,1)" stroke-width="1.8" /><path d="M 371 304.93 C 372.83 303.32, 374.67 301.91, 376.5 300.7" fill="none" stroke="rgba(103,135,188,1)" stroke-width="1.8" /><path d="M 376.5 300.7 C 378.33 299.49, 380.17 298.47999999999996, 382 297.67" fill="none" stroke="rgba(103,135,188,1)" stroke-width="1.8" /><path d="M 382 297.67 C 383.83 296.86, 385.67 296.26, 387.5 295.86" fill="none" stroke="rgba(103,135,188,1)" stroke-width="1.8" /><path d="M 387.5 295.86 C 389.33 295.46000000000004, 391.17 295.26, 393 295.26" fill="none" stroke="rgba(103,135,188,1)" stroke-width="1.8" /><path d="M 393 295.25 C 394.83 295.25, 396.67 295.45, 398.5 295.86" fill="none" stroke="rgba(103,135,188,1)" stroke-width="1.8" /><path d="M 398.5 295.86 C 400.33 296.26, 402.17 296.87, 404 297.67" fill="none" stroke="rgba(103,135,188,1)" stroke-width="1.8" /><path d="M 404 297.67 C 405.83 298.48, 407.67 299.49, 409.5 300.7" fill="none" stroke="rgba(103,135,188,1)" stroke-width="1.8" /><path d="M 409.5 300.7 C 411.33 301.90999999999997, 413.17 303.32, 415 304.93" fill="none" stroke="rgba(103,135,188,1)" stroke-width="1.8" /><path d="M 415 304.93 C 416.83 306.54, 418.67 308.36, 420.5 310.37" fill="none" stroke="rgba(103,135,188,1)" stroke-width="1.8" /><path d="M 420.5 310.38 C 422.33 312.4, 424.17 314.62, 426 317.04" fill="none" stroke="rgba(103,135,188,1)" stroke-width="1.8" /><path d="M 426 317.03 C 427.83 319.45, 430.58 323.58, 431.5 324.89" fill="none" stroke="rgba(103,135,188,1)" stroke-width="1.8" /><line x1="464.5" y1="254" x2="402.77745720886725" y2="287.5770632783762" stroke="rgba(182,104,126,1)" stroke-width="1.6" stroke-dasharray="5 4" /><polygon points="395.75,291.4 399.9244881060752,284.57551107757973 403.74742482769904,291.602968286447" fill="rgba(182,104,126,1)" /><line x1="420.5" y1="262.25" x2="437" y2="278.75" stroke="rgba(182,104,126,1)" stroke-width="1.6" /><line x1="420.5" y1="278.75" x2="437" y2="262.25" stroke="rgba(182,104,126,1)" stroke-width="1.6" /><text x="431.5" y="339.25" font-size="10" fill="rgba(0,0,0,1)" font-family="serif" text-anchor="middle" dominant-baseline="middle">непрямозонный (Si): фотон не унесёт Δp</text><line x1="305" y1="366.75" x2="363" y2="366.75" stroke="rgba(100,100,100,1)" stroke-width="1" /><polygon points="371,366.75 364.0717967697245,370.75 364.0717967697245,362.75" fill="rgba(100,100,100,1)" /><text x="269.25" y="366.75" font-size="10" fill="rgba(100,100,100,1)" font-family="serif" text-anchor="middle" dominant-baseline="middle">импульс</text></svg>