<svg xmlns="http://www.w3.org/2000/svg" width="180.89999999999998pt" height="182.18197651000006pt" viewBox="232 215.93333554 180.89999999999998 182.18197651000006"><line x1="362.15897037" y1="223.93333554" x2="273.5420432897563" y2="359.240901619512" stroke="rgba(205,214,244,1)" stroke-width="2.5" /><polygon points="269.15897037,365.93333554000003 269.60860590490455,357.94598129183055 276.3010398253926,362.3290542115868" fill="rgba(205,214,244,1)" /><text x="271.20004302999996" y="384.61531205000006" font-size="11" fill="rgba(205,214,244,1)" font-family="serif" font-style="italic" text-anchor="middle" dominant-baseline="middle">I</text><path d="M 303 333 C 317 345, 315 363, 297 369" fill="none" stroke="rgba(137,180,250,1)" stroke-width="1.3" /><line x1="297" y1="369" x2="292.8" y2="370.2" stroke="rgba(137,180,250,1)" stroke-width="1.3" /><polygon points="290,371 295.5627488084429,365.2505804037132 297.76051783162194,372.94277198483974" fill="rgba(137,180,250,1)" /><path d="M 257 363 C 240 353, 243 333, 263 327" fill="none" stroke="rgba(137,180,250,0.4)" stroke-width="1.3" /><path d="M 337 286 C 353 300, 351 322, 331 328" fill="none" stroke="rgba(137,180,250,1)" stroke-width="1.3" /><line x1="331" y1="328" x2="326.8" y2="329.2" stroke="rgba(137,180,250,1)" stroke-width="1.3" /><polygon points="324,330 329.5627488084429,324.2505804037132 331.76051783162194,331.94277198483974" fill="rgba(137,180,250,1)" /><path d="M 287 322 C 265 312, 269 286, 291 280" fill="none" stroke="rgba(137,180,250,0.4)" stroke-width="1.3" /><path d="M 371 239 C 389 255, 387 281, 365 287" fill="none" stroke="rgba(137,180,250,1)" stroke-width="1.3" /><line x1="365" y1="287" x2="360.8" y2="288.2" stroke="rgba(137,180,250,1)" stroke-width="1.3" /><polygon points="358,289 363.5627488084429,283.2505804037132 365.76051783162194,290.94277198483974" fill="rgba(137,180,250,1)" /><path d="M 317 281 C 289 271, 293 239, 319 233" fill="none" stroke="rgba(137,180,250,0.4)" stroke-width="1.3" /><text x="395" y="270" font-size="11" fill="rgba(137,180,250,1)" font-family="serif" font-style="italic" text-anchor="middle" dominant-baseline="middle">B</text></svg>