<svg xmlns="http://www.w3.org/2000/svg" width="336pt" height="218pt" viewBox="132 202.5 336 218"><text x="300" y="215" font-size="9" fill="rgba(0,0,0,1)" font-family="serif" text-anchor="middle" dominant-baseline="middle">Продольная</text><circle cx="155" cy="245" r="3" fill="rgba(103,135,188,1)"  /><circle cx="168" cy="245" r="3" fill="rgba(103,135,188,1)"  /><circle cx="178" cy="245" r="3" fill="rgba(103,135,188,1)"  /><circle cx="185" cy="245" r="3" fill="rgba(103,135,188,1)"  /><circle cx="192" cy="245" r="3" fill="rgba(103,135,188,0.6)"  /><circle cx="210" cy="245" r="3" fill="rgba(103,135,188,0.6)"  /><circle cx="230" cy="245" r="3" fill="rgba(103,135,188,0.6)"  /><circle cx="250" cy="245" r="3" fill="rgba(103,135,188,0.6)"  /><circle cx="265" cy="245" r="3" fill="rgba(103,135,188,1)"  /><circle cx="275" cy="245" r="3" fill="rgba(103,135,188,1)"  /><circle cx="282" cy="245" r="3" fill="rgba(103,135,188,1)"  /><circle cx="289" cy="245" r="3" fill="rgba(103,135,188,1)"  /><circle cx="305" cy="245" r="3" fill="rgba(103,135,188,0.6)"  /><circle cx="325" cy="245" r="3" fill="rgba(103,135,188,0.6)"  /><circle cx="345" cy="245" r="3" fill="rgba(103,135,188,0.6)"  /><circle cx="365" cy="245" r="3" fill="rgba(103,135,188,0.6)"  /><circle cx="380" cy="245" r="3" fill="rgba(103,135,188,1)"  /><circle cx="390" cy="245" r="3" fill="rgba(103,135,188,1)"  /><circle cx="397" cy="245" r="3" fill="rgba(103,135,188,1)"  /><circle cx="404" cy="245" r="3" fill="rgba(103,135,188,1)"  /><circle cx="414" cy="245" r="3" fill="rgba(103,135,188,0.6)"  /><circle cx="434" cy="245" r="3" fill="rgba(103,135,188,0.6)"  /><line x1="300" y1="265" x2="372" y2="265" stroke="rgba(0,0,0,1)" stroke-width="1.5" /><polygon points="380,265 373.0717967697245,269 373.0717967697245,261" fill="rgba(0,0,0,1)" /><text x="345" y="278" font-size="9" fill="rgba(0,0,0,1)" font-family="serif" text-anchor="middle" dominant-baseline="middle">v</text><text x="210" y="255" font-size="6" fill="rgba(100,100,100,1)" font-family="serif" text-anchor="middle" dominant-baseline="middle">разреж.</text><text x="280" y="234" font-size="6" fill="rgba(100,100,100,1)" font-family="serif" text-anchor="middle" dominant-baseline="middle">сжатие</text><line x1="140" y1="295" x2="460" y2="295" stroke="rgba(100,100,100,1)" stroke-width="0.5" /><text x="300" y="315" font-size="9" fill="rgba(0,0,0,1)" font-family="serif" text-anchor="middle" dominant-baseline="middle">Поперечная</text><circle cx="160" cy="355" r="3" fill="rgba(103,135,188,1)"  /><circle cx="180" cy="345" r="3" fill="rgba(103,135,188,1)"  /><circle cx="200" cy="330" r="3" fill="rgba(103,135,188,1)"  /><circle cx="220" cy="325" r="3" fill="rgba(103,135,188,1)"  /><circle cx="240" cy="330" r="3" fill="rgba(103,135,188,1)"  /><circle cx="260" cy="345" r="3" fill="rgba(103,135,188,1)"  /><circle cx="280" cy="355" r="3" fill="rgba(103,135,188,1)"  /><circle cx="300" cy="365" r="3" fill="rgba(103,135,188,1)"  /><circle cx="320" cy="375" r="3" fill="rgba(103,135,188,1)"  /><circle cx="340" cy="370" r="3" fill="rgba(103,135,188,1)"  /><circle cx="360" cy="355" r="3" fill="rgba(103,135,188,1)"  /><circle cx="380" cy="345" r="3" fill="rgba(103,135,188,1)"  /><circle cx="400" cy="340" r="3" fill="rgba(103,135,188,1)"  /><circle cx="420" cy="345" r="3" fill="rgba(103,135,188,1)"  /><circle cx="440" cy="355" r="3" fill="rgba(103,135,188,1)"  /><line x1="150" y1="355" x2="460" y2="355" stroke="rgba(100,100,100,1)" stroke-width="0.4" /><line x1="300" y1="395" x2="372" y2="395" stroke="rgba(0,0,0,1)" stroke-width="1.5" /><polygon points="380,395 373.0717967697245,399 373.0717967697245,391" fill="rgba(0,0,0,1)" /><text x="345" y="408" font-size="9" fill="rgba(0,0,0,1)" font-family="serif" text-anchor="middle" dominant-baseline="middle">v</text></svg>