<svg xmlns="http://www.w3.org/2000/svg" width="359.80736788926185pt" height="64.89760605201343pt" viewBox="156 259.10239394798657 359.80736788926185 64.89760605201343"><circle cx="180" cy="300" r="16" fill="rgba(137,180,250,0.2)" stroke="rgba(137,180,250,0.2)" stroke-width="1" /><circle cx="280" cy="300" r="16" fill="rgba(137,180,250,0.2)" stroke="rgba(137,180,250,0.2)" stroke-width="1" /><text x="280" y="300" font-size="12" fill="rgba(137,180,250,1)" font-family="serif" text-anchor="middle" dominant-baseline="middle">−</text><line x1="200" y1="300" x2="252" y2="300" stroke="rgba(137,180,250,1)" stroke-width="1" /><polygon points="260,300 253.0717967697245,304 253.0717967697245,296" fill="rgba(137,180,250,1)" /><line x1="259.2289134211409" y1="300.07108657885897" x2="207.22891342114087" y2="300.07108657885897" stroke="rgba(137,180,250,1)" stroke-width="1" /><polygon points="199.22891342114087,300.07108657885897 206.15711665141637,296.07108657885897 206.15711665141637,304.07108657885897" fill="rgba(137,180,250,1)" /><text x="230.38554328942953" y="270.60239394798657" font-size="7" fill="rgba(137,180,250,0.6)" font-family="serif" text-anchor="middle" dominant-baseline="middle">притяжение</text><circle cx="380" cy="300" r="16" fill="rgba(137,180,250,0.2)" stroke="rgba(137,180,250,0.2)" stroke-width="1" /><text x="380" y="300" font-size="12" fill="rgba(137,180,250,1)" font-family="serif" text-anchor="middle" dominant-baseline="middle">+</text><circle cx="480" cy="300" r="16" fill="rgba(137,180,250,0.2)" stroke="rgba(137,180,250,0.2)" stroke-width="1" /><text x="480" y="300" font-size="12" fill="rgba(137,180,250,1)" font-family="serif" text-anchor="middle" dominant-baseline="middle">+</text><line x1="363.8070888213085" y1="299.6144567105705" x2="356.60708882130854" y2="299.6144567105705" stroke="rgba(137,180,250,1)" stroke-width="1" /><polygon points="351.8070888213085,299.6144567105705 358.73529205158405,295.6144567105705 358.73529205158405,303.6144567105705" fill="rgba(137,180,250,1)" /><line x1="495.80736788926185" y1="300" x2="503.00736788926184" y2="300" stroke="rgba(137,180,250,1)" stroke-width="1" /><polygon points="507.80736788926185,300 500.8791646589863,304 500.8791646589863,296" fill="rgba(137,180,250,1)" /><text x="431.9277164471474" y="271.75902381627503" font-size="7" fill="rgba(137,180,250,0.6)" font-family="serif" text-anchor="middle" dominant-baseline="middle">отталкивание</text><text x="180.24032502516704" y="300.72283552852343" font-size="12" fill="rgba(137,180,250,1)" font-family="serif" text-anchor="middle" dominant-baseline="middle">+</text></svg>