<svg xmlns="http://www.w3.org/2000/svg" width="356pt" height="128pt" viewBox="280 192 356 128"><line x1="288" y1="300" x2="380" y2="300" stroke="rgba(0,0,0,1)" stroke-width="1" /><polygon points="388,300 381.0717967697245,304 381.0717967697245,296" fill="rgba(0,0,0,1)" /><line x1="300" y1="312" x2="300" y2="208" stroke="rgba(0,0,0,1)" stroke-width="1" /><polygon points="300,200 304,206.9282032302755 296,206.9282032302755" fill="rgba(0,0,0,1)" /><text x="307.791952532914" y="305.80644539290256" font-size="6" fill="rgba(0,0,0,1)" font-family="serif" font-style="italic" text-anchor="middle" dominant-baseline="middle">x(t)</text><path d="M 304 296 C 320 296, 348 280, 376 208" fill="none" stroke="rgba(103,135,188,1)" stroke-width="1.2" /><line x1="408" y1="300" x2="500" y2="300" stroke="rgba(0,0,0,1)" stroke-width="1" /><polygon points="508,300 501.0717967697245,304 501.0717967697245,296" fill="rgba(0,0,0,1)" /><line x1="420" y1="312" x2="420" y2="208" stroke="rgba(0,0,0,1)" stroke-width="1" /><polygon points="420,200 424,206.9282032302755 416,206.9282032302755" fill="rgba(0,0,0,1)" /><text x="436.4818839250148" y="307.25476729158584" font-size="6" fill="rgba(0,0,0,1)" font-family="serif" font-style="italic" text-anchor="middle" dominant-baseline="middle">v(t) = x&apos;(t)</text><line x1="424" y1="292" x2="496" y2="220" stroke="rgba(103,135,188,1)" stroke-width="1" /><line x1="528" y1="300" x2="620" y2="300" stroke="rgba(0,0,0,1)" stroke-width="1" /><polygon points="628,300 621.0717967697245,304 621.0717967697245,296" fill="rgba(0,0,0,1)" /><line x1="540" y1="312" x2="540" y2="208" stroke="rgba(0,0,0,1)" stroke-width="1" /><polygon points="540,200 544,206.9282032302755 536,206.9282032302755" fill="rgba(0,0,0,1)" /><text x="557.6405414439615" y="307.25476729158584" font-size="6" fill="rgba(0,0,0,1)" font-family="serif" font-style="italic" text-anchor="middle" dominant-baseline="middle">a(t) = v&apos;(t)</text><line x1="544" y1="252" x2="616" y2="252" stroke="rgba(103,135,188,1)" stroke-width="1" /></svg>