<svg xmlns="http://www.w3.org/2000/svg" width="188pt" height="188pt" viewBox="206 226 188 188"><line x1="300" y1="320" x2="375" y2="320" stroke="rgba(100,100,100,1)" stroke-width="1.2" /><circle cx="333" cy="320" r="3" fill="rgba(125,170,121,1)"  /><circle cx="342" cy="320" r="3" fill="rgba(125,170,121,1)"  /><line x1="300" y1="320" x2="225" y2="320" stroke="rgba(100,100,100,1)" stroke-width="1.2" /><circle cx="258" cy="320" r="3" fill="rgba(125,170,121,1)"  /><circle cx="267" cy="320" r="3" fill="rgba(125,170,121,1)"  /><line x1="300" y1="320" x2="300" y2="245" stroke="rgba(100,100,100,1)" stroke-width="1.2" /><circle cx="300" cy="287" r="3" fill="rgba(125,170,121,1)"  /><circle cx="300" cy="278" r="3" fill="rgba(125,170,121,1)"  /><line x1="300" y1="320" x2="300" y2="395" stroke="rgba(100,100,100,1)" stroke-width="1.2" /><circle cx="300" cy="362" r="3" fill="rgba(125,170,121,1)"  /><circle cx="300" cy="353" r="3" fill="rgba(125,170,121,1)"  /><line x1="375" y1="320" x2="375" y2="245" stroke="rgba(100,100,100,1)" stroke-width="1.2" /><circle cx="375" cy="287" r="3" fill="rgba(125,170,121,1)"  /><circle cx="375" cy="278" r="3" fill="rgba(125,170,121,1)"  /><line x1="375" y1="320" x2="375" y2="395" stroke="rgba(100,100,100,1)" stroke-width="1.2" /><circle cx="375" cy="362" r="3" fill="rgba(125,170,121,1)"  /><circle cx="375" cy="353" r="3" fill="rgba(125,170,121,1)"  /><line x1="225" y1="320" x2="225" y2="245" stroke="rgba(100,100,100,1)" stroke-width="1.2" /><circle cx="225" cy="287" r="3" fill="rgba(125,170,121,1)"  /><circle cx="225" cy="278" r="3" fill="rgba(125,170,121,1)"  /><line x1="225" y1="320" x2="225" y2="395" stroke="rgba(100,100,100,1)" stroke-width="1.2" /><circle cx="225" cy="362" r="3" fill="rgba(125,170,121,1)"  /><circle cx="225" cy="353" r="3" fill="rgba(125,170,121,1)"  /><line x1="300" y1="245" x2="375" y2="245" stroke="rgba(100,100,100,1)" stroke-width="1.2" /><circle cx="333" cy="245" r="3" fill="rgba(125,170,121,1)"  /><circle cx="342" cy="245" r="3" fill="rgba(125,170,121,1)"  /><line x1="300" y1="245" x2="225" y2="245" stroke="rgba(100,100,100,1)" stroke-width="1.2" /><circle cx="258" cy="245" r="3" fill="rgba(125,170,121,1)"  /><circle cx="267" cy="245" r="3" fill="rgba(125,170,121,1)"  /><line x1="300" y1="395" x2="375" y2="395" stroke="rgba(100,100,100,1)" stroke-width="1.2" /><circle cx="333" cy="395" r="3" fill="rgba(125,170,121,1)"  /><circle cx="342" cy="395" r="3" fill="rgba(125,170,121,1)"  /><line x1="300" y1="395" x2="225" y2="395" stroke="rgba(100,100,100,1)" stroke-width="1.2" /><circle cx="258" cy="395" r="3" fill="rgba(125,170,121,1)"  /><circle cx="267" cy="395" r="3" fill="rgba(125,170,121,1)"  /><circle cx="300" cy="320" r="11" fill="rgba(255,255,255,1)" stroke="rgba(0,0,0,1)" stroke-width="1.2" /><text x="300" y="320" font-size="9" fill="rgba(0,0,0,1)" font-family="serif" text-anchor="middle" dominant-baseline="middle">Si</text><circle cx="375" cy="320" r="11" fill="rgba(255,255,255,1)" stroke="rgba(0,0,0,1)" stroke-width="1.2" /><text x="375" y="320" font-size="9" fill="rgba(0,0,0,1)" font-family="serif" text-anchor="middle" dominant-baseline="middle">Si</text><circle cx="225" cy="320" r="11" fill="rgba(255,255,255,1)" stroke="rgba(0,0,0,1)" stroke-width="1.2" /><text x="225" y="320" font-size="9" fill="rgba(0,0,0,1)" font-family="serif" text-anchor="middle" dominant-baseline="middle">Si</text><circle cx="300" cy="245" r="11" fill="rgba(255,255,255,1)" stroke="rgba(0,0,0,1)" stroke-width="1.2" /><text x="300" y="245" font-size="9" fill="rgba(0,0,0,1)" font-family="serif" text-anchor="middle" dominant-baseline="middle">Si</text><circle cx="300" cy="395" r="11" fill="rgba(255,255,255,1)" stroke="rgba(0,0,0,1)" stroke-width="1.2" /><text x="300" y="395" font-size="9" fill="rgba(0,0,0,1)" font-family="serif" text-anchor="middle" dominant-baseline="middle">Si</text><circle cx="375" cy="245" r="11" fill="rgba(255,255,255,1)" stroke="rgba(0,0,0,1)" stroke-width="1.2" /><text x="375" y="245" font-size="9" fill="rgba(0,0,0,1)" font-family="serif" text-anchor="middle" dominant-baseline="middle">Si</text><circle cx="225" cy="245" r="11" fill="rgba(255,255,255,1)" stroke="rgba(0,0,0,1)" stroke-width="1.2" /><text x="225" y="245" font-size="9" fill="rgba(0,0,0,1)" font-family="serif" text-anchor="middle" dominant-baseline="middle">Si</text><circle cx="375" cy="395" r="11" fill="rgba(255,255,255,1)" stroke="rgba(0,0,0,1)" stroke-width="1.2" /><text x="375" y="395" font-size="9" fill="rgba(0,0,0,1)" font-family="serif" text-anchor="middle" dominant-baseline="middle">Si</text><circle cx="225" cy="395" r="11" fill="rgba(255,255,255,1)" stroke="rgba(0,0,0,1)" stroke-width="1.2" /><text x="225" y="395" font-size="9" fill="rgba(0,0,0,1)" font-family="serif" text-anchor="middle" dominant-baseline="middle">Si</text></svg>