<svg xmlns="http://www.w3.org/2000/svg" width="345.3pt" height="262pt" viewBox="132 142 345.3 262"><line x1="140" y1="380" x2="452" y2="380" stroke="rgba(0,0,0,1)" stroke-width="1" /><polygon points="460,380 453.0717967697245,384 453.0717967697245,376" fill="rgba(0,0,0,1)" /><line x1="160" y1="390" x2="160" y2="208" stroke="rgba(0,0,0,1)" stroke-width="1" /><polygon points="160,200 164,206.9282032302755 156,206.9282032302755" fill="rgba(0,0,0,1)" /><text x="466" y="380" font-size="11" fill="rgba(0,0,0,1)" font-family="serif" text-anchor="middle" dominant-baseline="middle">w</text><text x="150" y="196" font-size="11" fill="rgba(0,0,0,1)" font-family="serif" text-anchor="middle" dominant-baseline="middle">A</text><path d="M 170 370 C 200 370, 250 365, 280 350" fill="none" stroke="rgba(103,135,188,1)" stroke-width="1.8" /><path d="M 280 350 C 290 340, 298 290, 300 220" fill="none" stroke="rgba(103,135,188,1)" stroke-width="1.8" /><path d="M 300 220 C 302 150, 308 210, 320 350" fill="none" stroke="rgba(103,135,188,1)" stroke-width="1.8" /><path d="M 320 350 C 328 360, 370 368, 420 370" fill="none" stroke="rgba(103,135,188,1)" stroke-width="1.8" /><text x="430" y="354" font-size="7" fill="rgba(103,135,188,1)" font-family="serif" text-anchor="middle" dominant-baseline="middle">малое b</text><path d="M 170 370 C 200 368, 240 355, 270 330" fill="none" stroke="rgba(103,135,188,0.6)" stroke-width="1.5" /><path d="M 270 330 C 285 310, 295 290, 300 290" fill="none" stroke="rgba(103,135,188,0.6)" stroke-width="1.5" /><path d="M 300 290 C 305 290, 315 310, 330 330" fill="none" stroke="rgba(103,135,188,0.6)" stroke-width="1.5" /><path d="M 330 330 C 350 354, 390 364, 420 368" fill="none" stroke="rgba(103,135,188,0.6)" stroke-width="1.5" /><text x="430" y="370" font-size="7" fill="rgba(103,135,188,0.6)" font-family="serif" text-anchor="middle" dominant-baseline="middle">большое b</text><line x1="305" y1="380" x2="305" y2="200" stroke="rgba(100,100,100,1)" stroke-width="0.7" /><text x="305" y="392" font-size="8" fill="rgba(100,100,100,1)" font-family="serif" text-anchor="middle" dominant-baseline="middle">w0</text></svg>