<svg xmlns="http://www.w3.org/2000/svg" width="451.04999999999995pt" height="204.1pt" viewBox="122 155.9 451.04999999999995 204.1"><line x1="130" y1="313.5" x2="196" y2="313.5" stroke="rgba(0,0,0,1)" stroke-width="1.7" /><line x1="130" y1="242" x2="196" y2="242" stroke="rgba(0,0,0,1)" stroke-width="1.7" /><line x1="130" y1="181.5" x2="196" y2="181.5" stroke="rgba(0,0,0,1)" stroke-width="1.7" /><text x="163" y="346.5" font-size="11" fill="rgba(0,0,0,1)" font-family="serif" text-anchor="middle" dominant-baseline="middle">1 атом</text><line x1="251" y1="320.1" x2="317" y2="320.1" stroke="rgba(100,100,100,1)" stroke-width="0.8" /><line x1="251" y1="255.2" x2="317" y2="255.2" stroke="rgba(100,100,100,1)" stroke-width="0.8" /><line x1="251" y1="198" x2="317" y2="198" stroke="rgba(100,100,100,1)" stroke-width="0.8" /><line x1="251" y1="315.7" x2="317" y2="315.7" stroke="rgba(100,100,100,1)" stroke-width="0.8" /><line x1="251" y1="246.4" x2="317" y2="246.4" stroke="rgba(100,100,100,1)" stroke-width="0.8" /><line x1="251" y1="187" x2="317" y2="187" stroke="rgba(100,100,100,1)" stroke-width="0.8" /><line x1="251" y1="311.3" x2="317" y2="311.3" stroke="rgba(100,100,100,1)" stroke-width="0.8" /><line x1="251" y1="237.6" x2="317" y2="237.6" stroke="rgba(100,100,100,1)" stroke-width="0.8" /><line x1="251" y1="176" x2="317" y2="176" stroke="rgba(100,100,100,1)" stroke-width="0.8" /><line x1="251" y1="306.9" x2="317" y2="306.9" stroke="rgba(100,100,100,1)" stroke-width="0.8" /><line x1="251" y1="228.8" x2="317" y2="228.8" stroke="rgba(100,100,100,1)" stroke-width="0.8" /><line x1="251" y1="165" x2="317" y2="165" stroke="rgba(100,100,100,1)" stroke-width="0.8" /><text x="284" y="346.5" font-size="11" fill="rgba(0,0,0,1)" font-family="serif" text-anchor="middle" dominant-baseline="middle">4 атома</text><rect x="372" y="304.7" width="66" height="17.6" fill="rgba(103,135,188,0.4)" stroke="rgba(103,135,188,1)" stroke-width="1.2" /><rect x="372" y="224.4" width="66" height="35.2" fill="rgba(103,135,188,0.4)" stroke="rgba(103,135,188,1)" stroke-width="1.2" /><rect x="372" y="163.9" width="66" height="35.2" fill="rgba(103,135,188,0.4)" stroke="rgba(103,135,188,1)" stroke-width="1.2" /><text x="405" y="346.5" font-size="11" fill="rgba(0,0,0,1)" font-family="serif" text-anchor="middle" dominant-baseline="middle">10²³ атомов</text><text x="476.5" y="181.5" font-size="11" fill="rgba(0,0,0,1)" font-family="serif" text-anchor="middle" dominant-baseline="middle">зона</text><text x="512.25" y="211.75" font-size="11" fill="rgba(100,100,100,1)" font-family="serif" text-anchor="middle" dominant-baseline="middle">запрещённая зона</text><text x="476.5" y="242" font-size="11" fill="rgba(0,0,0,1)" font-family="serif" text-anchor="middle" dominant-baseline="middle">зона</text></svg>