<svg xmlns="http://www.w3.org/2000/svg" width="236pt" height="183.25pt" viewBox="142 174.5 236 183.25"><rect x="150" y="232" width="88" height="88" fill="rgba(243,139,168,0.2)" stroke="rgba(205,214,244,1)" stroke-width="1" /><text x="169.25" y="247.4" font-size="12" fill="rgba(205,214,244,1)" font-family="serif" text-anchor="middle" dominant-baseline="middle">p</text><rect x="282" y="232" width="88" height="88" fill="rgba(137,180,250,0.2)" stroke="rgba(205,214,244,1)" stroke-width="1" /><text x="350.75" y="247.4" font-size="12" fill="rgba(205,214,244,1)" font-family="serif" text-anchor="middle" dominant-baseline="middle">n</text><rect x="238" y="232" width="44" height="88" fill="none" stroke="rgba(205,214,244,1)" stroke-width="1" /><circle cx="177.5" cy="292.5" r="4" fill="none" stroke="rgba(243,139,168,1)" stroke-width="1.3" /><line x1="183" y1="292.5" x2="199.75" y2="292.5" stroke="rgba(243,139,168,1)" stroke-width="1.2" /><polygon points="207.75,292.5 200.8217967697245,296.5 200.8217967697245,288.5" fill="rgba(243,139,168,1)" /><circle cx="199.5" cy="267.75" r="4" fill="none" stroke="rgba(243,139,168,1)" stroke-width="1.3" /><line x1="205" y1="267.75" x2="221.75" y2="267.75" stroke="rgba(243,139,168,1)" stroke-width="1.2" /><polygon points="229.75,267.75 222.8217967697245,271.75 222.8217967697245,263.75" fill="rgba(243,139,168,1)" /><circle cx="342.5" cy="292.5" r="3.5" fill="rgba(137,180,250,1)"  /><line x1="337" y1="292.5" x2="320.25" y2="292.5" stroke="rgba(137,180,250,1)" stroke-width="1.2" /><polygon points="312.25,292.5 319.1782032302755,288.5 319.1782032302755,296.5" fill="rgba(137,180,250,1)" /><circle cx="320.5" cy="267.75" r="3.5" fill="rgba(137,180,250,1)"  /><line x1="315" y1="267.75" x2="298.25" y2="267.75" stroke="rgba(137,180,250,1)" stroke-width="1.2" /><polygon points="290.25,267.75 297.1782032302755,263.75 297.1782032302755,271.75" fill="rgba(137,180,250,1)" /><circle cx="260" cy="280.4" r="3.5" fill="rgba(137,180,250,1)"  /><circle cx="260" cy="280.4" r="7" fill="none" stroke="rgba(243,139,168,1)" stroke-width="1.2" stroke-dasharray="5 4" /><line x1="268.25" y1="267.75" x2="297.54947194643984" y2="211.59267876932364" stroke="rgba(234,179,8,1)" stroke-width="2.2" /><polygon points="301.25,204.5 301.59158808286173,212.49270402189688 294.4989093135381,208.79217596833675" fill="rgba(234,179,8,1)" /><line x1="251.75" y1="267.75" x2="222.45052805356016" y2="211.59267876932364" stroke="rgba(234,179,8,1)" stroke-width="2.2" /><polygon points="218.75,204.5 225.5010906864619,208.79217596833675 218.40841191713827,212.49270402189688" fill="rgba(234,179,8,1)" /><text x="260" y="188" font-size="11" fill="rgba(181,147,8,1)" font-family="serif" text-anchor="middle" dominant-baseline="middle">встреча: фотон hν ≈ Eg</text><text x="172" y="344.75" font-size="10" fill="rgba(127,132,156,1)" font-family="serif" text-anchor="middle" dominant-baseline="middle">+ на p</text><text x="348" y="344.75" font-size="10" fill="rgba(127,132,156,1)" font-family="serif" text-anchor="middle" dominant-baseline="middle">− на n</text></svg>