<svg xmlns="http://www.w3.org/2000/svg" width="378.1pt" height="194.89999999999998pt" viewBox="112.69999999999999 193 378.1 194.89999999999998"><line x1="148" y1="360" x2="452" y2="360" stroke="rgba(127,132,156,1)" stroke-width="1" /><polygon points="460,360 453.0717967697245,364 453.0717967697245,356" fill="rgba(127,132,156,1)" /><line x1="160" y1="372" x2="160" y2="218" stroke="rgba(127,132,156,1)" stroke-width="1" /><polygon points="160,210 164,216.9282032302755 156,216.9282032302755" fill="rgba(127,132,156,1)" /><text x="472" y="368.4" font-size="12" fill="rgba(205,214,244,1)" font-family="serif" font-style="italic" text-anchor="middle" dominant-baseline="middle">Ω</text><text x="142" y="207" font-size="12" fill="rgba(205,214,244,1)" font-family="serif" font-style="italic" text-anchor="middle" dominant-baseline="middle">φ</text><line x1="160" y1="300" x2="448" y2="300" stroke="rgba(127,132,156,1)" stroke-width="0.8" stroke-dasharray="5 4" /><line x1="160" y1="240" x2="448" y2="240" stroke="rgba(127,132,156,1)" stroke-width="0.8" stroke-dasharray="5 4" /><text x="137.2" y="300" font-size="11" fill="rgba(205,214,244,1)" font-family="serif" font-style="italic" text-anchor="middle" dominant-baseline="middle">π/2</text><text x="142" y="240" font-size="11" fill="rgba(205,214,244,1)" font-family="serif" font-style="italic" text-anchor="middle" dominant-baseline="middle">π</text><line x1="250" y1="360" x2="250" y2="222" stroke="rgba(127,132,156,1)" stroke-width="0.8" stroke-dasharray="5 4" /><text x="250" y="374.4" font-size="11" fill="rgba(205,214,244,1)" font-family="serif" font-style="italic" text-anchor="middle" dominant-baseline="middle">ω₀</text><path d="M 160 360 C 181 356.43, 202 356.51, 223 340.82" fill="none" stroke="rgba(137,180,250,1)" stroke-width="2" /><path d="M 223 340.82 C 232 334.09, 241 319.1, 250 300" fill="none" stroke="rgba(137,180,250,1)" stroke-width="2" /><path d="M 250 300 C 259 280.9, 268 270.17, 277 264.67" fill="none" stroke="rgba(137,180,250,1)" stroke-width="2" /><path d="M 277 264.67 C 328 233.47000000000003, 379 247.01000000000002, 430 245.69000000000003" fill="none" stroke="rgba(137,180,250,1)" stroke-width="2" /></svg>