<svg xmlns="http://www.w3.org/2000/svg" width="257.8pt" height="98.5pt" viewBox="172 253.5 257.8 98.5"><rect x="180" y="280" width="240" height="40" fill="rgba(137,180,250,0.2)" stroke="rgba(205,214,244,1)" stroke-width="2" /><line x1="300" y1="268" x2="300" y2="332" stroke="rgba(137,180,250,1)" stroke-width="1.5" stroke-dasharray="5 4" /><circle cx="220" cy="295" r="5" fill="rgba(137,180,250,0.4)" stroke="rgba(137,180,250,1)" stroke-width="1" /><circle cx="250" cy="305" r="5" fill="rgba(137,180,250,0.4)" stroke="rgba(137,180,250,1)" stroke-width="1" /><circle cx="270" cy="290" r="5" fill="rgba(137,180,250,0.4)" stroke="rgba(137,180,250,1)" stroke-width="1" /><circle cx="340" cy="295" r="5" fill="rgba(137,180,250,0.4)" stroke="rgba(137,180,250,1)" stroke-width="1" /><circle cx="370" cy="305" r="5" fill="rgba(137,180,250,0.4)" stroke="rgba(137,180,250,1)" stroke-width="1" /><circle cx="395" cy="293" r="5" fill="rgba(137,180,250,0.4)" stroke="rgba(137,180,250,1)" stroke-width="1" /><text x="217" y="295" font-size="6" fill="rgba(205,214,244,1)" font-family="serif" text-anchor="middle" dominant-baseline="middle">−</text><text x="247" y="305" font-size="6" fill="rgba(205,214,244,1)" font-family="serif" text-anchor="middle" dominant-baseline="middle">−</text><text x="267" y="290" font-size="6" fill="rgba(205,214,244,1)" font-family="serif" text-anchor="middle" dominant-baseline="middle">−</text><text x="337" y="295" font-size="6" fill="rgba(205,214,244,1)" font-family="serif" text-anchor="middle" dominant-baseline="middle">−</text><text x="367" y="305" font-size="6" fill="rgba(205,214,244,1)" font-family="serif" text-anchor="middle" dominant-baseline="middle">−</text><text x="392" y="293" font-size="6" fill="rgba(205,214,244,1)" font-family="serif" text-anchor="middle" dominant-baseline="middle">−</text><line x1="225" y1="295" x2="233.4" y2="295" stroke="rgba(137,180,250,1)" stroke-width="1" /><polygon points="239,295 232.0717967697245,299 232.0717967697245,291" fill="rgba(137,180,250,1)" /><line x1="255" y1="305" x2="263.4" y2="305" stroke="rgba(137,180,250,1)" stroke-width="1" /><polygon points="269,305 262.0717967697245,309 262.0717967697245,301" fill="rgba(137,180,250,1)" /><line x1="275" y1="290" x2="283.4" y2="290" stroke="rgba(137,180,250,1)" stroke-width="1" /><polygon points="289,290 282.0717967697245,294 282.0717967697245,286" fill="rgba(137,180,250,1)" /><line x1="345" y1="295" x2="353.4" y2="295" stroke="rgba(137,180,250,1)" stroke-width="1" /><polygon points="359,295 352.0717967697245,299 352.0717967697245,291" fill="rgba(137,180,250,1)" /><line x1="375" y1="305" x2="383.4" y2="305" stroke="rgba(137,180,250,1)" stroke-width="1" /><polygon points="389,305 382.0717967697245,309 382.0717967697245,301" fill="rgba(137,180,250,1)" /><line x1="400" y1="293" x2="408.4" y2="293" stroke="rgba(137,180,250,1)" stroke-width="1" /><polygon points="414,293 407.0717967697245,297 407.0717967697245,289" fill="rgba(137,180,250,1)" /><text x="290" y="340" font-size="8" fill="rgba(137,180,250,1)" font-family="serif" text-anchor="middle" dominant-baseline="middle">сечение</text><line x1="180" y1="270" x2="412" y2="270" stroke="rgba(127,132,156,1)" stroke-width="1" /><polygon points="420,270 413.0717967697245,274 413.0717967697245,266" fill="rgba(127,132,156,1)" /><text x="405" y="265" font-size="7" fill="rgba(127,132,156,1)" font-family="serif" text-anchor="middle" dominant-baseline="middle">дрейф e⁻</text></svg>