<svg xmlns="http://www.w3.org/2000/svg" width="274.3pt" height="108.5pt" viewBox="172 246.5 274.3 108.5"><rect x="250" y="260" width="100" height="80" fill="rgba(103,135,188,0.2)" stroke="rgba(103,135,188,1)" stroke-width="2" /><text x="300" y="300" font-size="7" fill="rgba(103,135,188,1)" font-family="serif" text-anchor="middle" dominant-baseline="middle">сердечник</text><circle cx="240" cy="258" r="3.5" fill="rgba(0,0,0,1)" stroke="rgba(0,0,0,1)" stroke-width="1" /><circle cx="260" cy="258" r="3.5" fill="rgba(0,0,0,1)" stroke="rgba(0,0,0,1)" stroke-width="1" /><circle cx="280" cy="258" r="3.5" fill="rgba(0,0,0,1)" stroke="rgba(0,0,0,1)" stroke-width="1" /><circle cx="300" cy="258" r="3.5" fill="rgba(0,0,0,1)" stroke="rgba(0,0,0,1)" stroke-width="1" /><circle cx="320" cy="258" r="3.5" fill="rgba(0,0,0,1)" stroke="rgba(0,0,0,1)" stroke-width="1" /><circle cx="340" cy="258" r="3.5" fill="rgba(0,0,0,1)" stroke="rgba(0,0,0,1)" stroke-width="1" /><circle cx="360" cy="258" r="3.5" fill="rgba(0,0,0,1)" stroke="rgba(0,0,0,1)" stroke-width="1" /><text x="240" y="343" font-size="8" fill="rgba(0,0,0,1)" font-family="serif" text-anchor="middle" dominant-baseline="middle">x</text><text x="260" y="343" font-size="8" fill="rgba(0,0,0,1)" font-family="serif" text-anchor="middle" dominant-baseline="middle">x</text><text x="280" y="343" font-size="8" fill="rgba(0,0,0,1)" font-family="serif" text-anchor="middle" dominant-baseline="middle">x</text><text x="300" y="343" font-size="8" fill="rgba(0,0,0,1)" font-family="serif" text-anchor="middle" dominant-baseline="middle">x</text><text x="320" y="343" font-size="8" fill="rgba(0,0,0,1)" font-family="serif" text-anchor="middle" dominant-baseline="middle">x</text><text x="340" y="343" font-size="8" fill="rgba(0,0,0,1)" font-family="serif" text-anchor="middle" dominant-baseline="middle">x</text><text x="360" y="343" font-size="8" fill="rgba(0,0,0,1)" font-family="serif" text-anchor="middle" dominant-baseline="middle">x</text><line x1="180" y1="290" x2="222" y2="290" stroke="rgba(103,135,188,1)" stroke-width="1.5" /><polygon points="230,290 223.0717967697245,294 223.0717967697245,286" fill="rgba(103,135,188,1)" /><line x1="370" y1="290" x2="412" y2="290" stroke="rgba(103,135,188,1)" stroke-width="1.5" /><polygon points="420,290 413.0717967697245,294 413.0717967697245,286" fill="rgba(103,135,188,1)" /><line x1="180" y1="310" x2="222" y2="310" stroke="rgba(103,135,188,1)" stroke-width="1.5" /><polygon points="230,310 223.0717967697245,314 223.0717967697245,306" fill="rgba(103,135,188,1)" /><line x1="370" y1="310" x2="412" y2="310" stroke="rgba(103,135,188,1)" stroke-width="1.5" /><polygon points="420,310 413.0717967697245,314 413.0717967697245,306" fill="rgba(103,135,188,1)" /><text x="435" y="300" font-size="11" fill="rgba(103,135,188,1)" font-family="serif" text-anchor="middle" dominant-baseline="middle">B</text></svg>