<svg xmlns="http://www.w3.org/2000/svg" width="297.17pt" height="314.1pt" viewBox="171 196.9 297.17 314.1"><circle cx="300" cy="360" r="121.00000000000001" fill="none" stroke="rgba(0,0,0,1)" stroke-width="1.5" /><line x1="300" y1="503" x2="300" y2="217" stroke="rgba(100,100,100,1)" stroke-width="1" /><text x="317.6" y="210.4" font-size="11" fill="rgba(100,100,100,1)" font-family="serif" text-anchor="middle" dominant-baseline="middle">ось</text><text x="265.9" y="232.4" font-size="11" fill="rgba(0,0,0,1)" font-family="serif" text-anchor="middle" dominant-baseline="middle">вершина</text><line x1="300" y1="360" x2="399.12" y2="290.6" stroke="rgba(152,125,185,1)" stroke-width="1.7" /><text x="339.66" y="313.2" font-size="12" fill="rgba(152,125,185,1)" font-family="serif" font-style="italic" text-anchor="middle" dominant-baseline="middle">r</text><line x1="300" y1="290.6" x2="399.12" y2="290.6" stroke="rgba(182,104,126,1)" stroke-width="2" /><text x="349.56" y="276.85" font-size="11" fill="rgba(182,104,126,1)" font-family="serif" font-style="italic" text-anchor="middle" dominant-baseline="middle">r·sinθ</text><line x1="300" y1="360" x2="300" y2="290.6" stroke="rgba(100,100,100,1)" stroke-width="1" stroke-dasharray="5 4" /><text x="276.9" y="325.3" font-size="11" fill="rgba(0,0,0,1)" font-family="serif" font-style="italic" text-anchor="middle" dominant-baseline="middle">r·cosθ</text><path d="M 300 332.5 C 308.97 332.5, 317.38 336.88, 322.53 344.23" fill="none" stroke="rgba(100,100,100,1)" stroke-width="1" /><text x="314.3" y="322.6" font-size="11" fill="rgba(0,0,0,1)" font-family="serif" font-style="italic" text-anchor="middle" dominant-baseline="middle">θ</text><line x1="300" y1="360" x2="411.38" y2="312.72" stroke="rgba(125,170,121,1)" stroke-width="1.4" /><path d="M 399.12 290.6 C 403.97 297.53000000000003, 408.08 304.94, 411.38 312.72" fill="none" stroke="rgba(188,134,101,1)" stroke-width="2.5" /><text x="440.37" y="306" font-size="11" fill="rgba(188,134,101,1)" font-family="serif" font-style="italic" text-anchor="middle" dominant-baseline="middle">r·dθ</text><circle cx="399.12" cy="290.6" r="3" fill="rgba(0,0,0,1)"  /><circle cx="411.38" cy="312.72" r="3" fill="rgba(0,0,0,1)"  /></svg>