<svg xmlns="http://www.w3.org/2000/svg" width="176pt" height="185pt" viewBox="212 222 176 185"><line x1="220" y1="300" x2="380" y2="300" stroke="rgba(0,0,0,1)" stroke-width="2" /><line x1="230" y1="300" x2="282" y2="300" stroke="rgba(0,0,0,1)" stroke-width="2" /><polygon points="290,300 283.0717967697245,304 283.0717967697245,296" fill="rgba(0,0,0,1)" /><text x="265" y="288" font-size="9" fill="rgba(0,0,0,1)" font-family="serif" font-style="italic" text-anchor="middle" dominant-baseline="middle">I</text><line x1="260" y1="370" x2="260" y2="328" stroke="rgba(103,135,188,0.6)" stroke-width="1.2" /><polygon points="260,320 264,326.9282032302755 256,326.9282032302755" fill="rgba(103,135,188,0.6)" /><line x1="300" y1="370" x2="300" y2="328" stroke="rgba(103,135,188,0.6)" stroke-width="1.2" /><polygon points="300,320 304,326.9282032302755 296,326.9282032302755" fill="rgba(103,135,188,0.6)" /><line x1="340" y1="370" x2="340" y2="328" stroke="rgba(103,135,188,0.6)" stroke-width="1.2" /><polygon points="340,320 344,326.9282032302755 336,326.9282032302755" fill="rgba(103,135,188,0.6)" /><text x="350" y="346" font-size="9" fill="rgba(103,135,188,0.6)" font-family="serif" font-style="italic" text-anchor="middle" dominant-baseline="middle">B</text><line x1="300" y1="300" x2="300" y2="238" stroke="rgba(103,135,188,1)" stroke-width="2" /><polygon points="300,230 304,236.9282032302755 296,236.9282032302755" fill="rgba(103,135,188,1)" /><text x="308" y="250" font-size="10" fill="rgba(103,135,188,1)" font-family="serif" font-style="italic" text-anchor="middle" dominant-baseline="middle">F</text><text x="300" y="395" font-size="8" fill="rgba(100,100,100,1)" font-family="serif" font-style="italic" text-anchor="middle" dominant-baseline="middle">F = BIl\sin\alpha</text></svg>