<svg xmlns="http://www.w3.org/2000/svg" width="358.5pt" height="184.9pt" viewBox="168.5 164.1 358.5 184.9"><circle cx="187.5" cy="330" r="11" fill="rgba(103,135,188,0.2)" stroke="rgba(100,100,100,1)" stroke-width="1" /><circle cx="226" cy="330" r="11" fill="rgba(103,135,188,0.2)" stroke="rgba(100,100,100,1)" stroke-width="1" /><circle cx="264.5" cy="330" r="11" fill="rgba(103,135,188,0.2)" stroke="rgba(100,100,100,1)" stroke-width="1" /><circle cx="303" cy="330" r="11" fill="rgba(103,135,188,0.2)" stroke="rgba(100,100,100,1)" stroke-width="1" /><circle cx="341.5" cy="330" r="11" fill="rgba(103,135,188,0.2)" stroke="rgba(100,100,100,1)" stroke-width="1" /><circle cx="380" cy="330" r="11" fill="rgba(103,135,188,0.2)" stroke="rgba(100,100,100,1)" stroke-width="1" /><circle cx="418.5" cy="330" r="11" fill="rgba(103,135,188,0.2)" stroke="rgba(100,100,100,1)" stroke-width="1" /><text x="468" y="332.75" font-size="10" fill="rgba(100,100,100,1)" font-family="serif" text-anchor="middle" dominant-baseline="middle">атомы поверхности</text><line x1="297.5" y1="192.5" x2="330.5" y2="275" stroke="rgba(0,0,0,1)" stroke-width="2" /><line x1="363.5" y1="192.5" x2="330.5" y2="275" stroke="rgba(0,0,0,1)" stroke-width="2" /><line x1="297.5" y1="192.5" x2="363.5" y2="192.5" stroke="rgba(0,0,0,1)" stroke-width="2" /><circle cx="330.5" cy="282.7" r="8" fill="rgba(188,134,101,1)"  /><text x="407.5" y="231" font-size="11" fill="rgba(0,0,0,1)" font-family="serif" text-anchor="middle" dominant-baseline="middle">игла, остриё — один атом</text><line x1="330.5" y1="293.7" x2="330.5" y2="307.7" stroke="rgba(182,104,126,1)" stroke-width="1.7" stroke-dasharray="5 4" /><polygon points="330.5,315.7 326.5,308.77179676972446 334.5,308.77179676972446" fill="rgba(182,104,126,1)" /><text x="234.25" y="299.75" font-size="11" fill="rgba(182,104,126,1)" font-family="serif" text-anchor="middle" dominant-baseline="middle">туннельный ток</text><line x1="292" y1="178.75" x2="361" y2="178.75" stroke="rgba(100,100,100,1)" stroke-width="1.2" /><polygon points="369,178.75 362.0717967697245,182.75 362.0717967697245,174.75" fill="rgba(100,100,100,1)" /><text x="399.25" y="177.1" font-size="10" fill="rgba(100,100,100,1)" font-family="serif" text-anchor="middle" dominant-baseline="middle">скан</text></svg>