<svg xmlns="http://www.w3.org/2000/svg" width="275.2pt" height="178.25pt" viewBox="137 207.5 275.2 178.25"><circle cx="160" cy="276" r="5" fill="rgba(125,170,121,1)"  /><line x1="160" y1="276" x2="182" y2="270.5" stroke="rgba(103,135,188,1)" stroke-width="1.3" /><line x1="182" y1="270.5" x2="187.5" y2="248.5" stroke="rgba(103,135,188,1)" stroke-width="1.3" /><line x1="187.5" y1="248.5" x2="168.25" y2="237.5" stroke="rgba(103,135,188,1)" stroke-width="1.3" /><line x1="168.25" y1="237.5" x2="184.75" y2="221" stroke="rgba(103,135,188,1)" stroke-width="1.3" /><line x1="184.75" y1="221" x2="209.5" y2="229.25" stroke="rgba(103,135,188,1)" stroke-width="1.3" /><line x1="209.5" y1="229.25" x2="198.5" y2="251.25" stroke="rgba(103,135,188,1)" stroke-width="1.3" /><line x1="198.5" y1="251.25" x2="217.75" y2="265" stroke="rgba(103,135,188,1)" stroke-width="1.3" /><line x1="217.75" y1="265" x2="239.75" y2="254" stroke="rgba(103,135,188,1)" stroke-width="1.3" /><line x1="239.75" y1="254" x2="231.5" y2="229.25" stroke="rgba(103,135,188,1)" stroke-width="1.3" /><line x1="231.5" y1="229.25" x2="248" y2="248.5" stroke="rgba(103,135,188,1)" stroke-width="1.3" /><line x1="248" y1="248.5" x2="226" y2="259.5" stroke="rgba(103,135,188,1)" stroke-width="1.3" /><line x1="226" y1="259.5" x2="239.75" y2="237.5" stroke="rgba(103,135,188,1)" stroke-width="1.3" /><line x1="239.75" y1="237.5" x2="264.5" y2="232" stroke="rgba(103,135,188,1)" stroke-width="1.3" /><line x1="264.5" y1="232" x2="248" y2="215.5" stroke="rgba(103,135,188,1)" stroke-width="1.3" /><line x1="248" y1="215.5" x2="259" y2="240.25" stroke="rgba(103,135,188,1)" stroke-width="1.3" /><line x1="259" y1="240.25" x2="281" y2="245.75" stroke="rgba(103,135,188,1)" stroke-width="1.3" /><line x1="281" y1="245.75" x2="267.25" y2="265" stroke="rgba(103,135,188,1)" stroke-width="1.3" /><line x1="267.25" y1="265" x2="275.5" y2="240.25" stroke="rgba(103,135,188,1)" stroke-width="1.3" /><line x1="275.5" y1="240.25" x2="300.25" y2="232" stroke="rgba(103,135,188,1)" stroke-width="1.3" /><line x1="300.25" y1="232" x2="281" y2="245.75" stroke="rgba(103,135,188,1)" stroke-width="1.3" /><circle cx="281" cy="245.75" r="5" fill="rgba(182,104,126,1)"  /><line x1="160" y1="276" x2="281" y2="245.75" stroke="rgba(100,100,100,1)" stroke-width="1" stroke-dasharray="5 4" /><text x="160" y="295.25" font-size="10" fill="rgba(125,170,121,1)" font-family="serif" text-anchor="middle" dominant-baseline="middle">старт</text><text x="294.75" y="263.35" font-size="10" fill="rgba(182,104,126,1)" font-family="serif" text-anchor="middle" dominant-baseline="middle">через 20 шагов</text><text x="292" y="372.25" font-size="11" fill="rgba(100,100,100,1)" font-family="serif" text-anchor="middle" dominant-baseline="middle">смещение ~ l√N, а пути пройдено lN</text></svg>