<svg xmlns="http://www.w3.org/2000/svg" width="476pt" height="179.5pt" viewBox="52 92 476 179.5"><rect x="60" y="100" width="120" height="120" fill="none" stroke="rgba(100,100,100,1)" stroke-width="1" /><rect x="230" y="100" width="120" height="120" fill="none" stroke="rgba(100,100,100,1)" stroke-width="1" /><rect x="400" y="100" width="120" height="120" fill="none" stroke="rgba(100,100,100,1)" stroke-width="1" /><circle cx="78" cy="118" r="7" fill="rgba(103,135,188,0.4)" stroke="rgba(103,135,188,1)" stroke-width="1" /><circle cx="106" cy="118" r="7" fill="rgba(103,135,188,0.4)" stroke="rgba(103,135,188,1)" stroke-width="1" /><circle cx="134" cy="118" r="7" fill="rgba(103,135,188,0.4)" stroke="rgba(103,135,188,1)" stroke-width="1" /><circle cx="162" cy="118" r="7" fill="rgba(103,135,188,0.4)" stroke="rgba(103,135,188,1)" stroke-width="1" /><circle cx="78" cy="146" r="7" fill="rgba(103,135,188,0.4)" stroke="rgba(103,135,188,1)" stroke-width="1" /><circle cx="106" cy="146" r="7" fill="rgba(103,135,188,0.4)" stroke="rgba(103,135,188,1)" stroke-width="1" /><circle cx="134" cy="146" r="7" fill="rgba(103,135,188,0.4)" stroke="rgba(103,135,188,1)" stroke-width="1" /><circle cx="162" cy="146" r="7" fill="rgba(103,135,188,0.4)" stroke="rgba(103,135,188,1)" stroke-width="1" /><circle cx="78" cy="174" r="7" fill="rgba(103,135,188,0.4)" stroke="rgba(103,135,188,1)" stroke-width="1" /><circle cx="106" cy="174" r="7" fill="rgba(103,135,188,0.4)" stroke="rgba(103,135,188,1)" stroke-width="1" /><circle cx="134" cy="174" r="7" fill="rgba(103,135,188,0.4)" stroke="rgba(103,135,188,1)" stroke-width="1" /><circle cx="162" cy="174" r="7" fill="rgba(103,135,188,0.4)" stroke="rgba(103,135,188,1)" stroke-width="1" /><circle cx="78" cy="202" r="7" fill="rgba(103,135,188,0.4)" stroke="rgba(103,135,188,1)" stroke-width="1" /><circle cx="106" cy="202" r="7" fill="rgba(103,135,188,0.4)" stroke="rgba(103,135,188,1)" stroke-width="1" /><circle cx="134" cy="202" r="7" fill="rgba(103,135,188,0.4)" stroke="rgba(103,135,188,1)" stroke-width="1" /><circle cx="162" cy="202" r="7" fill="rgba(103,135,188,0.4)" stroke="rgba(103,135,188,1)" stroke-width="1" /><circle cx="250" cy="200" r="7" fill="rgba(103,135,188,0.4)" stroke="rgba(103,135,188,1)" stroke-width="1" /><circle cx="277" cy="194" r="7" fill="rgba(103,135,188,0.4)" stroke="rgba(103,135,188,1)" stroke-width="1" /><circle cx="305" cy="201" r="7" fill="rgba(103,135,188,0.4)" stroke="rgba(103,135,188,1)" stroke-width="1" /><circle cx="331" cy="195" r="7" fill="rgba(103,135,188,0.4)" stroke="rgba(103,135,188,1)" stroke-width="1" /><circle cx="255" cy="172" r="7" fill="rgba(103,135,188,0.4)" stroke="rgba(103,135,188,1)" stroke-width="1" /><circle cx="284" cy="167" r="7" fill="rgba(103,135,188,0.4)" stroke="rgba(103,135,188,1)" stroke-width="1" /><circle cx="312" cy="173" r="7" fill="rgba(103,135,188,0.4)" stroke="rgba(103,135,188,1)" stroke-width="1" /><circle cx="338" cy="168" r="7" fill="rgba(103,135,188,0.4)" stroke="rgba(103,135,188,1)" stroke-width="1" /><circle cx="268" cy="145" r="7" fill="rgba(103,135,188,0.4)" stroke="rgba(103,135,188,1)" stroke-width="1" /><circle cx="298" cy="141" r="7" fill="rgba(103,135,188,0.4)" stroke="rgba(103,135,188,1)" stroke-width="1" /><circle cx="326" cy="146" r="7" fill="rgba(103,135,188,0.4)" stroke="rgba(103,135,188,1)" stroke-width="1" /><circle cx="428" cy="128" r="7" fill="rgba(103,135,188,0.4)" stroke="rgba(103,135,188,1)" stroke-width="1" /><circle cx="492" cy="143" r="7" fill="rgba(103,135,188,0.4)" stroke="rgba(103,135,188,1)" stroke-width="1" /><circle cx="455" cy="176" r="7" fill="rgba(103,135,188,0.4)" stroke="rgba(103,135,188,1)" stroke-width="1" /><circle cx="500" cy="199" r="7" fill="rgba(103,135,188,0.4)" stroke="rgba(103,135,188,1)" stroke-width="1" /><circle cx="427" cy="202" r="7" fill="rgba(103,135,188,0.4)" stroke="rgba(103,135,188,1)" stroke-width="1" /><circle cx="472" cy="117" r="7" fill="rgba(103,135,188,0.4)" stroke="rgba(103,135,188,1)" stroke-width="1" /><line x1="436" y1="122" x2="445.6" y2="116.6" stroke="rgba(103,135,188,0.6)" stroke-width="1" /><polygon points="452,113 447.92259250679484,119.88293165259937 444.00050258973437,112.91032735560297" fill="rgba(103,135,188,0.6)" /><line x1="500" y1="138" x2="508.4" y2="131.4" stroke="rgba(103,135,188,0.6)" stroke-width="1" /><polygon points="514,127 511.02351295267323,134.42566662711812 506.080940537218,128.13511991653874" fill="rgba(103,135,188,0.6)" /><line x1="463" y1="172" x2="473.2" y2="176.2" stroke="rgba(103,135,188,0.6)" stroke-width="1" /><polygon points="480,179 472.07064299016525,180.0608003632093 475.11664143219963,172.66337557541155" fill="rgba(103,135,188,0.6)" /><line x1="492" y1="202" x2="482.4" y2="206.8" stroke="rgba(103,135,188,0.6)" stroke-width="1" /><polygon points="476,210 480.407918971932,203.32390455903442 483.9856277359317,210.47932208703372" fill="rgba(103,135,188,0.6)" /><line x1="430" y1="194" x2="432.4" y2="183.8" stroke="rgba(103,135,188,0.6)" stroke-width="1" /><polygon points="434,177 436.30683762155684,184.6601893049565 428.51950027488823,182.82787463515214" fill="rgba(103,135,188,0.6)" /><line x1="464" y1="114" x2="453.8" y2="110.4" stroke="rgba(103,135,188,0.6)" stroke-width="1" /><polygon points="447,108 454.8645091461881,106.5338840804617 452.20194820430703,114.07780674912482" fill="rgba(103,135,188,0.6)" /><text x="120" y="242" font-size="11" fill="rgba(0,0,0,1)" font-family="serif" text-anchor="middle" dominant-baseline="middle">твёрдое</text><text x="290" y="242" font-size="11" fill="rgba(0,0,0,1)" font-family="serif" text-anchor="middle" dominant-baseline="middle">жидкость</text><text x="460" y="242" font-size="11" fill="rgba(0,0,0,1)" font-family="serif" text-anchor="middle" dominant-baseline="middle">газ</text><text x="120" y="259" font-size="9" fill="rgba(100,100,100,1)" font-family="serif" text-anchor="middle" dominant-baseline="middle">форма и объём</text><text x="290" y="259" font-size="9" fill="rgba(100,100,100,1)" font-family="serif" text-anchor="middle" dominant-baseline="middle">объём без формы</text><text x="460" y="259" font-size="9" fill="rgba(100,100,100,1)" font-family="serif" text-anchor="middle" dominant-baseline="middle">ни формы, ни объёма</text></svg>