<svg xmlns="http://www.w3.org/2000/svg" width="381pt" height="230pt" viewBox="142 127.75 381 230"><rect x="150" y="226.5" width="220" height="27.5" fill="rgba(103,135,188,0.2)" stroke="rgba(0,0,0,1)" stroke-width="1" /><text x="169.25" y="240.25" font-size="11" fill="rgba(0,0,0,1)" font-family="serif" text-anchor="middle" dominant-baseline="middle">n</text><rect x="150" y="254" width="220" height="66" fill="rgba(182,104,126,0.2)" stroke="rgba(0,0,0,1)" stroke-width="1" /><text x="169.25" y="289.75" font-size="11" fill="rgba(0,0,0,1)" font-family="serif" text-anchor="middle" dominant-baseline="middle">p</text><line x1="216" y1="155" x2="216" y2="213" stroke="rgba(234,179,8,1)" stroke-width="2" /><polygon points="216,221 212,214.0717967697245 220,214.0717967697245" fill="rgba(234,179,8,1)" /><line x1="260" y1="155" x2="260" y2="213" stroke="rgba(234,179,8,1)" stroke-width="2" /><polygon points="260,221 256,214.0717967697245 264,214.0717967697245" fill="rgba(234,179,8,1)" /><line x1="304" y1="155" x2="304" y2="213" stroke="rgba(234,179,8,1)" stroke-width="2" /><polygon points="304,221 300,214.0717967697245 308,214.0717967697245" fill="rgba(234,179,8,1)" /><text x="260" y="141.25" font-size="11" fill="rgba(181,147,8,1)" font-family="serif" text-anchor="middle" dominant-baseline="middle">солнце</text><line x1="370" y1="240.25" x2="441.5" y2="240.25" stroke="rgba(0,0,0,1)" stroke-width="1.5" /><line x1="441.5" y1="240.25" x2="441.5" y2="262.25" stroke="rgba(0,0,0,1)" stroke-width="1.5" /><circle cx="441.5" cy="278.75" r="16" fill="none" stroke="rgba(0,0,0,1)" stroke-width="1.5" /><line x1="430.5" y1="289.75" x2="452.5" y2="267.75" stroke="rgba(0,0,0,1)" stroke-width="1.2" /><line x1="430.5" y1="267.75" x2="452.5" y2="289.75" stroke="rgba(0,0,0,1)" stroke-width="1.2" /><line x1="441.5" y1="295.25" x2="441.5" y2="314.5" stroke="rgba(0,0,0,1)" stroke-width="1.5" /><line x1="441.5" y1="314.5" x2="370" y2="314.5" stroke="rgba(0,0,0,1)" stroke-width="1.5" /><text x="394.75" y="223.75" font-size="13" fill="rgba(103,135,188,1)" font-family="serif" text-anchor="middle" dominant-baseline="middle">−</text><text x="394.75" y="298" font-size="13" fill="rgba(182,104,126,1)" font-family="serif" text-anchor="middle" dominant-baseline="middle">+</text><line x1="400.25" y1="240.25" x2="417" y2="240.25" stroke="rgba(125,170,121,1)" stroke-width="1.3" /><polygon points="425,240.25 418.0717967697245,244.25 418.0717967697245,236.25" fill="rgba(125,170,121,1)" /><text x="491" y="278.75" font-size="10" fill="rgba(100,100,100,1)" font-family="serif" text-anchor="middle" dominant-baseline="middle">лампочка</text><text x="260" y="344.75" font-size="10" fill="rgba(100,100,100,1)" font-family="serif" text-anchor="middle" dominant-baseline="middle">сам по себе: 0.5–0.6 В на элемент</text></svg>