<svg xmlns="http://www.w3.org/2000/svg" width="368.3pt" height="177.5pt" viewBox="110.7 197.5 368.3 177.5"><rect x="170" y="240" width="80" height="30" fill="rgba(137,180,250,0.2)" stroke="rgba(205,214,244,1)" stroke-width="1.5" /><line x1="175" y1="255" x2="187" y2="255" stroke="rgba(137,180,250,1)" stroke-width="1" /><polygon points="195,255 188.0717967697245,259 188.0717967697245,251" fill="rgba(137,180,250,1)" /><text x="265" y="255" font-size="8" fill="rgba(127,132,156,1)" font-family="serif" text-anchor="middle" dominant-baseline="middle">vs</text><rect x="290" y="240" width="160" height="30" fill="rgba(137,180,250,0.2)" stroke="rgba(205,214,244,1)" stroke-width="1.5" /><line x1="295" y1="255" x2="307" y2="255" stroke="rgba(137,180,250,1)" stroke-width="1" /><polygon points="315,255 308.0717967697245,259 308.0717967697245,251" fill="rgba(137,180,250,1)" /><text x="200" y="230" font-size="7" fill="rgba(127,132,156,1)" font-family="serif" text-anchor="middle" dominant-baseline="middle">короткая</text><text x="350" y="230" font-size="7" fill="rgba(127,132,156,1)" font-family="serif" text-anchor="middle" dominant-baseline="middle">длинная</text><text x="355" y="278" font-size="8" fill="rgba(137,180,250,1)" font-family="serif" text-anchor="middle" dominant-baseline="middle">$R$ больше</text><line x1="453" y1="255" x2="457.8" y2="255" stroke="rgba(137,180,250,1)" stroke-width="1" /><polygon points="461,255 454.0717967697245,259 454.0717967697245,251" fill="rgba(137,180,250,1)" /><rect x="170" y="330" width="160" height="30" fill="rgba(137,180,250,0.2)" stroke="rgba(205,214,244,1)" stroke-width="1.5" /><line x1="175" y1="345" x2="187" y2="345" stroke="rgba(137,180,250,1)" stroke-width="1" /><polygon points="195,345 188.0717967697245,349 188.0717967697245,341" fill="rgba(137,180,250,1)" /><text x="345" y="345" font-size="8" fill="rgba(127,132,156,1)" font-family="serif" text-anchor="middle" dominant-baseline="middle">vs</text><rect x="370" y="335" width="90" height="20" fill="rgba(137,180,250,0.2)" stroke="rgba(205,214,244,1)" stroke-width="1.5" /><line x1="375" y1="345" x2="384" y2="345" stroke="rgba(137,180,250,1)" stroke-width="1" /><polygon points="390,345 383.0717967697245,349 383.0717967697245,341" fill="rgba(137,180,250,1)" /><text x="230" y="320" font-size="7" fill="rgba(127,132,156,1)" font-family="serif" text-anchor="middle" dominant-baseline="middle">широкая</text><text x="395" y="325" font-size="7" fill="rgba(127,132,156,1)" font-family="serif" text-anchor="middle" dominant-baseline="middle">узкая</text><text x="383" y="363" font-size="8" fill="rgba(137,180,250,1)" font-family="serif" text-anchor="middle" dominant-baseline="middle">$R$ больше</text><line x1="463" y1="345" x2="467.8" y2="345" stroke="rgba(137,180,250,1)" stroke-width="1" /><polygon points="471,345 464.0717967697245,349 464.0717967697245,341" fill="rgba(137,180,250,1)" /><text x="170" y="210" font-size="9" fill="rgba(205,214,244,1)" font-family="serif" text-anchor="middle" dominant-baseline="middle">длина ↑  →  $R$ ↑</text><text x="170" y="300" font-size="9" fill="rgba(205,214,244,1)" font-family="serif" text-anchor="middle" dominant-baseline="middle">сечение ↓  →  $R$ ↑</text></svg>