<svg xmlns="http://www.w3.org/2000/svg" width="716pt" height="103.5pt" viewBox="32 117 716 103.5"><line x1="40" y1="160" x2="732" y2="160" stroke="rgba(100,100,100,1)" stroke-width="1" /><polygon points="740,160 733.0717967697245,164 733.0717967697245,156" fill="rgba(100,100,100,1)" /><line x1="140" y1="152" x2="140" y2="168" stroke="rgba(100,100,100,1)" stroke-width="1" /><line x1="230" y1="152" x2="230" y2="168" stroke="rgba(100,100,100,1)" stroke-width="1" /><line x1="315" y1="152" x2="315" y2="168" stroke="rgba(100,100,100,1)" stroke-width="1" /><line x1="385" y1="152" x2="385" y2="168" stroke="rgba(100,100,100,1)" stroke-width="1" /><line x1="465" y1="152" x2="465" y2="168" stroke="rgba(100,100,100,1)" stroke-width="1" /><line x1="570" y1="152" x2="570" y2="168" stroke="rgba(100,100,100,1)" stroke-width="1" /><rect x="315" y="150" width="10" height="20" fill="rgba(214,43,43,1)"  /><rect x="325" y="150" width="10" height="20" fill="rgba(230,126,34,1)"  /><rect x="335" y="150" width="10" height="20" fill="rgba(241,196,15,1)"  /><rect x="345" y="150" width="10" height="20" fill="rgba(46,204,113,1)"  /><rect x="355" y="150" width="10" height="20" fill="rgba(52,152,219,1)"  /><rect x="365" y="150" width="10" height="20" fill="rgba(91,75,213,1)"  /><rect x="375" y="150" width="10" height="20" fill="rgba(142,68,173,1)"  /><text x="90" y="136" font-size="10" fill="rgba(0,0,0,1)" font-family="serif" text-anchor="middle" dominant-baseline="middle">радио</text><text x="185" y="136" font-size="10" fill="rgba(0,0,0,1)" font-family="serif" text-anchor="middle" dominant-baseline="middle">микроволны</text><text x="274" y="136" font-size="10" fill="rgba(0,0,0,1)" font-family="serif" text-anchor="middle" dominant-baseline="middle">ИК</text><text x="350" y="130" font-size="10" fill="rgba(0,0,0,1)" font-family="serif" text-anchor="middle" dominant-baseline="middle">видимый</text><text x="425" y="136" font-size="10" fill="rgba(0,0,0,1)" font-family="serif" text-anchor="middle" dominant-baseline="middle">УФ</text><text x="517" y="136" font-size="10" fill="rgba(0,0,0,1)" font-family="serif" text-anchor="middle" dominant-baseline="middle">рентген</text><text x="625" y="136" font-size="10" fill="rgba(0,0,0,1)" font-family="serif" text-anchor="middle" dominant-baseline="middle">гамма</text><text x="90" y="182" font-size="9" fill="rgba(100,100,100,1)" font-family="serif" text-anchor="middle" dominant-baseline="middle">км–м</text><text x="185" y="182" font-size="9" fill="rgba(100,100,100,1)" font-family="serif" text-anchor="middle" dominant-baseline="middle">м–мм</text><text x="274" y="182" font-size="9" fill="rgba(100,100,100,1)" font-family="serif" text-anchor="middle" dominant-baseline="middle">мм–мкм</text><text x="350" y="182" font-size="9" fill="rgba(100,100,100,1)" font-family="serif" text-anchor="middle" dominant-baseline="middle">0.7–0.4 мкм</text><text x="425" y="182" font-size="9" fill="rgba(100,100,100,1)" font-family="serif" text-anchor="middle" dominant-baseline="middle">до 10 нм</text><text x="517" y="182" font-size="9" fill="rgba(100,100,100,1)" font-family="serif" text-anchor="middle" dominant-baseline="middle">10–0.01 нм</text><text x="625" y="182" font-size="9" fill="rgba(100,100,100,1)" font-family="serif" text-anchor="middle" dominant-baseline="middle">&lt; 0.01 нм</text><text x="150" y="208" font-size="9" fill="rgba(100,100,100,1)" font-family="serif" text-anchor="middle" dominant-baseline="middle">← длина волны растёт</text><text x="620" y="208" font-size="9" fill="rgba(100,100,100,1)" font-family="serif" text-anchor="middle" dominant-baseline="middle">частота растёт →</text></svg>