<svg xmlns="http://www.w3.org/2000/svg" width="387.52000000000004pt" height="290.06pt" viewBox="155.68 186.5 387.52000000000004 290.06"><circle cx="300" cy="320" r="6" fill="rgba(243,139,168,1)"  /><text x="325.2" y="338" font-size="11" fill="rgba(127,132,156,1)" font-family="serif" text-anchor="middle" dominant-baseline="middle">ядро</text><path d="M 402 320 C 401.21 316.77, 399.44 306.8, 397.29 300.65" fill="none" stroke="rgba(137,180,250,1)" stroke-width="2" /><path d="M 397.29 300.65 C 395.14000000000004 294.5, 392.34000000000003 288.54999999999995, 389.13 283.09" fill="none" stroke="rgba(137,180,250,1)" stroke-width="2" /><path d="M 389.12 283.08 C 385.91 277.62, 382.1 272.47999999999996, 378 267.88" fill="none" stroke="rgba(137,180,250,1)" stroke-width="2" /><path d="M 378 267.88 C 373.9 263.28, 369.29 259.1, 364.51 255.49" fill="none" stroke="rgba(137,180,250,1)" stroke-width="2" /><path d="M 364.51 255.49 C 359.71999999999997 251.88, 354.53999999999996 248.76000000000002, 349.28999999999996 246.23000000000002" fill="none" stroke="rgba(137,180,250,1)" stroke-width="2" /><path d="M 349.29 246.23 C 344.04 243.7, 338.5 241.70999999999998, 333.02000000000004 240.28" fill="none" stroke="rgba(137,180,250,1)" stroke-width="2" /><path d="M 333.02 240.28 C 327.53 238.86, 321.87 238.01, 316.37 237.7" fill="none" stroke="rgba(137,180,250,1)" stroke-width="2" /><path d="M 316.37 237.7 C 310.87 237.39, 305.31 237.64999999999998, 300 238.39" fill="none" stroke="rgba(137,180,250,1)" stroke-width="2" /><path d="M 300 238.39 C 294.69 239.13, 289.44 240.44, 284.52 242.16" fill="none" stroke="rgba(137,180,250,1)" stroke-width="2" /><path d="M 284.52 242.16 C 279.59999999999997 243.88, 274.84 246.12, 270.46999999999997 248.69" fill="none" stroke="rgba(137,180,250,1)" stroke-width="2" /><path d="M 270.46 248.69 C 266.09 251.26, 261.97999999999996 254.31, 258.29999999999995 257.59" fill="none" stroke="rgba(137,180,250,1)" stroke-width="2" /><path d="M 258.3 257.59 C 254.62 260.86999999999995, 251.27 264.56, 248.39000000000001 268.38" fill="none" stroke="rgba(137,180,250,1)" stroke-width="2" /><path d="M 248.38 268.38 C 245.49 272.21, 243 276.36, 240.97 280.56" fill="none" stroke="rgba(137,180,250,1)" stroke-width="2" /><path d="M 240.98 280.56 C 238.95 284.76, 237.35999999999999 289.19, 236.22 293.58" fill="none" stroke="rgba(137,180,250,1)" stroke-width="2" /><path d="M 236.22 293.58 C 235.08 297.96999999999997, 234.41 302.5, 234.15 306.9" fill="none" stroke="rgba(137,180,250,1)" stroke-width="2" /><path d="M 234.15 306.9 C 233.9 311.29999999999995, 234.11 315.75, 234.71 320" fill="none" stroke="rgba(137,180,250,1)" stroke-width="2" /><path d="M 234.71 320 C 235.31 324.25, 236.35 328.45, 237.73000000000002 332.39" fill="none" stroke="rgba(137,180,250,1)" stroke-width="2" /><path d="M 237.72 332.39 C 239.09 336.33, 240.89 340.14, 242.95 343.63" fill="none" stroke="rgba(137,180,250,1)" stroke-width="2" /><path d="M 242.95 343.63 C 245.01 347.13, 247.44 350.42, 250.07 353.36" fill="none" stroke="rgba(137,180,250,1)" stroke-width="2" /><path d="M 250.07 353.36 C 252.7 356.3, 255.64 358.98, 258.71 361.29" fill="none" stroke="rgba(137,180,250,1)" stroke-width="2" /><path d="M 258.7 361.3 C 261.76 363.61, 265.08 365.61, 268.44 367.23" fill="none" stroke="rgba(137,180,250,1)" stroke-width="2" /><path d="M 268.45 367.22 C 271.81 368.84000000000003, 275.34999999999997 370.12, 278.87 371.03000000000003" fill="none" stroke="rgba(137,180,250,1)" stroke-width="2" /><path d="M 278.86 371.03 C 282.37 371.94, 285.99 372.47999999999996, 289.52000000000004 372.67999999999995" fill="none" stroke="rgba(137,180,250,1)" stroke-width="2" /><path d="M 289.52 372.68 C 293.03999999999996 372.88, 296.59999999999997 372.71, 300 372.24" fill="none" stroke="rgba(137,180,250,1)" stroke-width="2" /><path d="M 300 372.24 C 303.4 371.76, 306.76 370.93, 309.91 369.83" fill="none" stroke="rgba(137,180,250,1)" stroke-width="2" /><path d="M 309.91 369.83 C 313.06 368.72999999999996, 316.11 367.28999999999996, 318.91 365.65" fill="none" stroke="rgba(137,180,250,1)" stroke-width="2" /><path d="M 318.91 365.64 C 321.71000000000004 363.99, 324.34000000000003 362.05, 326.70000000000005 359.94" fill="none" stroke="rgba(137,180,250,1)" stroke-width="2" /><path d="M 326.69 359.95 C 329.05 357.84999999999997, 331.19 355.49, 333.04 353.03999999999996" fill="none" stroke="rgba(137,180,250,1)" stroke-width="2" /><path d="M 333.04 353.04 C 334.89000000000004 350.59000000000003, 336.48 347.93, 337.78000000000003 345.25" fill="none" stroke="rgba(137,180,250,1)" stroke-width="2" /><path d="M 337.78 345.25 C 339.08 342.56, 340.09999999999997 339.73, 340.82 336.92" fill="none" stroke="rgba(137,180,250,1)" stroke-width="2" /><path d="M 340.83 336.91 C 341.56 334.1, 341.99 331.20000000000005, 342.15 328.38000000000005" fill="none" stroke="rgba(137,180,250,1)" stroke-width="2" /><path d="M 342.15 328.38 C 342.31 325.56, 342.17999999999995 322.71, 341.78999999999996 320" fill="none" stroke="rgba(137,180,250,1)" stroke-width="2" /><path d="M 341.79 320 C 341.41 317.28, 340.74 314.59, 339.86 312.07" fill="none" stroke="rgba(137,180,250,1)" stroke-width="2" /><path d="M 339.86 312.07 C 338.98 309.55, 337.83000000000004 307.11, 336.51 304.87" fill="none" stroke="rgba(137,180,250,1)" stroke-width="2" /><path d="M 336.52 304.87 C 335.2 302.63, 333.64 300.52, 331.96 298.64" fill="none" stroke="rgba(137,180,250,1)" stroke-width="2" /><path d="M 331.96 298.64 C 330.28 296.76, 328.39 295.03999999999996, 326.43 293.56" fill="none" stroke="rgba(137,180,250,1)" stroke-width="2" /><path d="M 326.43 293.57 C 324.47 292.09, 322.34000000000003 290.81, 320.19 289.78" fill="none" stroke="rgba(137,180,250,1)" stroke-width="2" /><path d="M 320.2 289.77 C 318.05 288.72999999999996, 315.78 287.91999999999996, 313.53 287.33" fill="none" stroke="rgba(137,180,250,1)" stroke-width="2" /><path d="M 313.53 287.34 C 311.28 286.76, 308.96 286.40999999999997, 306.71 286.28" fill="none" stroke="rgba(137,180,250,1)" stroke-width="2" /><path d="M 306.71 286.28 C 304.45 286.15, 302.18 286.26, 300 286.55999999999995" fill="none" stroke="rgba(137,180,250,1)" stroke-width="2" /><path d="M 300 286.56 C 297.82 286.86, 295.67 287.4, 293.66 288.1" fill="none" stroke="rgba(137,180,250,1)" stroke-width="2" /><path d="M 293.66 288.11 C 291.64000000000004 288.81, 289.69 289.73, 287.90000000000003 290.79" fill="none" stroke="rgba(137,180,250,1)" stroke-width="2" /><path d="M 287.9 290.78 C 286.10999999999996 291.83, 284.41999999999996 293.08, 282.91999999999996 294.42999999999995" fill="none" stroke="rgba(137,180,250,1)" stroke-width="2" /><path d="M 282.91 294.43 C 281.40000000000003 295.77, 280.03000000000003 297.28000000000003, 278.85 298.85" fill="none" stroke="rgba(137,180,250,1)" stroke-width="2" /><path d="M 278.85 298.85 C 277.67 300.42, 276.64000000000004 302.12, 275.81 303.84000000000003" fill="none" stroke="rgba(137,180,250,1)" stroke-width="2" /><path d="M 275.81 303.84 C 274.98 305.56, 274.33 307.38, 273.86 309.16999999999996" fill="none" stroke="rgba(137,180,250,1)" stroke-width="2" /><path d="M 273.87 309.17 C 273.4 310.97, 273.13 312.82, 273.02 314.63" fill="none" stroke="rgba(137,180,250,1)" stroke-width="2" /><path d="M 273.02 314.63 C 272.91999999999996 316.43, 273 318.26, 273.25 320" fill="none" stroke="rgba(137,180,250,1)" stroke-width="2" /><path d="M 273.25 320 C 273.49 321.74, 273.92 323.46, 274.49 325.08" fill="none" stroke="rgba(137,180,250,1)" stroke-width="2" /><path d="M 274.48 325.08 C 275.04 326.69, 275.78000000000003 328.25, 276.62 329.69" fill="none" stroke="rgba(137,180,250,1)" stroke-width="2" /><path d="M 276.62 329.68 C 277.46 331.11, 278.46 332.46, 279.54 333.67" fill="none" stroke="rgba(137,180,250,1)" stroke-width="2" /><path d="M 279.54 333.67 C 280.62 334.88, 281.82 335.97, 283.08000000000004 336.92" fill="none" stroke="rgba(137,180,250,1)" stroke-width="2" /><path d="M 283.08 336.92 C 284.34 337.87, 285.7 338.68, 287.07 339.35" fill="none" stroke="rgba(137,180,250,1)" stroke-width="2" /><path d="M 287.07 339.35 C 288.45 340.01000000000005, 289.9 340.54, 291.34 340.91" fill="none" stroke="rgba(137,180,250,1)" stroke-width="2" /><path d="M 291.34 340.91 C 292.78 341.28000000000003, 294.26 341.51000000000005, 295.71 341.59000000000003" fill="none" stroke="rgba(137,180,250,1)" stroke-width="2" /><path d="M 295.71 341.59 C 297.15 341.66999999999996, 298.60999999999996 341.59999999999997, 300 341.40999999999997" fill="none" stroke="rgba(137,180,250,1)" stroke-width="2" /><path d="M 300 341.4 C 301.39 341.2, 302.77 340.85999999999996, 304.06 340.40999999999997" fill="none" stroke="rgba(137,180,250,1)" stroke-width="2" /><path d="M 304.06 340.42 C 305.35 339.97, 306.6 339.38, 307.75 338.71000000000004" fill="none" stroke="rgba(137,180,250,1)" stroke-width="2" /><path d="M 307.75 338.7 C 308.9 338.03, 309.98 337.22999999999996, 310.94 336.37" fill="none" stroke="rgba(137,180,250,1)" stroke-width="2" /><path d="M 310.94 336.37 C 311.91 335.51, 312.78 334.54, 313.54 333.54" fill="none" stroke="rgba(137,180,250,1)" stroke-width="2" /><path d="M 313.54 333.54 C 314.3 332.54, 314.95000000000005 331.45000000000005, 315.48 330.35" fill="none" stroke="rgba(137,180,250,1)" stroke-width="2" /><path d="M 315.48 330.34 C 316.01 329.23999999999995, 316.43 328.08, 316.73 326.92999999999995" fill="none" stroke="rgba(137,180,250,1)" stroke-width="2" /><path d="M 316.73 326.93 C 317.03000000000003 325.78000000000003, 317.21000000000004 324.59000000000003, 317.27000000000004 323.44" fill="none" stroke="rgba(137,180,250,1)" stroke-width="2" /><path d="M 317.27 323.44 C 317.34 322.29, 317.28 321.12, 317.12 320" fill="none" stroke="rgba(137,180,250,1)" stroke-width="2" /><path d="M 317.13 320 C 316.96999999999997 318.89, 316.7 317.78, 316.34 316.75" fill="none" stroke="rgba(137,180,250,1)" stroke-width="2" /><path d="M 316.33 316.75 C 315.96999999999997 315.72, 315.5 314.72, 314.96 313.8" fill="none" stroke="rgba(137,180,250,1)" stroke-width="2" /><path d="M 314.96 313.8 C 314.41999999999996 312.88, 313.78 312.02000000000004, 313.09 311.25" fill="none" stroke="rgba(137,180,250,1)" stroke-width="2" /><path d="M 313.1 311.25 C 312.41 310.48, 311.64000000000004 309.78, 310.83000000000004 309.17" fill="none" stroke="rgba(137,180,250,1)" stroke-width="2" /><path d="M 310.83 309.17 C 310.03 308.56, 309.15999999999997 308.04, 308.27 307.62" fill="none" stroke="rgba(137,180,250,1)" stroke-width="2" /><path d="M 308.28 307.61 C 307.4 307.18, 306.46999999999997 306.85, 305.54999999999995 306.61" fill="none" stroke="rgba(137,180,250,1)" stroke-width="2" /><path d="M 305.54 306.62 C 304.62 306.38, 303.67 306.24, 302.74 306.19" fill="none" stroke="rgba(137,180,250,1)" stroke-width="2" /><path d="M 302.75 306.18 C 301.83 306.13, 300.89 306.17, 300 306.3" fill="none" stroke="rgba(137,180,250,1)" stroke-width="2" /><path d="M 300 306.3 C 299.11 306.42, 298.23 306.64, 297.4 306.93" fill="none" stroke="rgba(137,180,250,1)" stroke-width="2" /><path d="M 297.4 306.93 C 296.57 307.22, 295.77 307.59000000000003, 295.03999999999996 308.03000000000003" fill="none" stroke="rgba(137,180,250,1)" stroke-width="2" /><path d="M 295.04 308.03 C 294.31 308.46, 293.62 308.96999999999997, 293 309.52" fill="none" stroke="rgba(137,180,250,1)" stroke-width="2" /><path d="M 293 309.52 C 292.38 310.07, 291.82 310.69, 291.34 311.33" fill="none" stroke="rgba(137,180,250,1)" stroke-width="2" /><path d="M 291.33 311.33 C 290.84999999999997 311.96999999999997, 290.43 312.66999999999996, 290.09 313.37" fill="none" stroke="rgba(137,180,250,1)" stroke-width="2" /><path d="M 290.09 313.38 C 289.75 314.09, 289.47999999999996 314.83, 289.28999999999996 315.57" fill="none" stroke="rgba(137,180,250,1)" stroke-width="2" /><path d="M 289.29 315.56 C 289.1 316.3, 288.99 317.06, 288.94 317.8" fill="none" stroke="rgba(137,180,250,1)" stroke-width="2" /><path d="M 288.94 317.8 C 288.9 318.54, 289.02 319.63, 289.03 320" fill="none" stroke="rgba(137,180,250,1)" stroke-width="2" /><circle cx="402" cy="320" r="4" fill="rgba(137,180,250,1)"  /><text x="423" y="305" font-size="11" fill="rgba(137,180,250,1)" font-family="serif" text-anchor="middle" dominant-baseline="middle">электрон</text><path d="M 222 266 C 203.51 260.74, 204.31 241.11, 189.6 239" fill="none" stroke="rgba(250,179,135,1)" stroke-width="1.5" /><path d="M 189.6 239 C 179.28 238.21, 179.94 223.14, 168 221" fill="none" stroke="rgba(250,179,135,1)" stroke-width="1.5" /><line x1="171.78" y1="224.15" x2="166.92000000000002" y2="220.1" stroke="rgba(250,179,135,1)" stroke-width="1.2" /><polygon points="163.68,217.4 171.56313074953084,218.76244250733794 166.44165555221502,224.90821274411695" fill="rgba(250,179,135,1)" /><path d="M 336 407 C 351 417.34, 343.11 434.85, 355.8 441.2" fill="none" stroke="rgba(250,179,135,1)" stroke-width="1.5" /><path d="M 355.8 441.2 C 364.95 445.03, 358.86 458.46, 369 464" fill="none" stroke="rgba(250,179,135,1)" stroke-width="1.5" /><line x1="366.69" y1="460.01" x2="369.65999999999997" y2="465.14" stroke="rgba(250,179,135,1)" stroke-width="1.2" /><polygon points="371.64,468.56 364.70701375002324,464.56829589553115 371.63042403387226,460.5600057311975" fill="rgba(250,179,135,1)" /><path d="M 390 260 C 399.62 243.22, 418.57 248.64, 424.2 234.8" fill="none" stroke="rgba(250,179,135,1)" stroke-width="1.5" /><path d="M 424.2 234.8 C 427.47999999999996 224.93, 442.01 229.13000000000002, 447 218" fill="none" stroke="rgba(250,179,135,1)" stroke-width="1.5" /><line x1="443.01" y1="220.94" x2="448.14" y2="217.16" stroke="rgba(250,179,135,1)" stroke-width="1.2" /><polygon points="451.56,214.64 448.35520569929565,221.97002684102677 443.6096133948968,215.52958014219982" fill="rgba(250,179,135,1)" /><text x="456" y="200" font-size="11" fill="rgba(250,179,135,1)" font-family="serif" text-anchor="middle" dominant-baseline="middle">излучение уносит энергию</text></svg>