<svg xmlns="http://www.w3.org/2000/svg" width="342pt" height="187pt" viewBox="129 220.5 342 187"><line x1="140" y1="300" x2="460" y2="300" stroke="rgba(127,132,156,1)" stroke-width="0.5" /><path d="M 140 300 C 154 300, 166 245, 180 245" fill="none" stroke="rgba(137,180,250,1)" stroke-width="1.8" /><path d="M 180 245 C 194 245, 206 300, 220 300" fill="none" stroke="rgba(137,180,250,1)" stroke-width="1.8" /><path d="M 220 300 C 234 300, 246 355, 260 355" fill="none" stroke="rgba(137,180,250,1)" stroke-width="1.8" /><path d="M 260 355 C 274 355, 286 300, 300 300" fill="none" stroke="rgba(137,180,250,1)" stroke-width="1.8" /><path d="M 300 300 C 314 300, 326 245, 340 245" fill="none" stroke="rgba(137,180,250,1)" stroke-width="1.8" /><path d="M 340 245 C 354 245, 366 300, 380 300" fill="none" stroke="rgba(137,180,250,1)" stroke-width="1.8" /><path d="M 380 300 C 394 300, 406 355, 420 355" fill="none" stroke="rgba(137,180,250,1)" stroke-width="1.8" /><path d="M 420 355 C 434 355, 446 300, 460 300" fill="none" stroke="rgba(137,180,250,1)" stroke-width="1.8" /><path d="M 140 300 C 154 300, 166 355, 180 355" fill="none" stroke="rgba(137,180,250,0.4)" stroke-width="1.2" /><path d="M 180 355 C 194 355, 206 300, 220 300" fill="none" stroke="rgba(137,180,250,0.4)" stroke-width="1.2" /><path d="M 220 300 C 234 300, 246 245, 260 245" fill="none" stroke="rgba(137,180,250,0.4)" stroke-width="1.2" /><path d="M 260 245 C 274 245, 286 300, 300 300" fill="none" stroke="rgba(137,180,250,0.4)" stroke-width="1.2" /><path d="M 300 300 C 314 300, 326 355, 340 355" fill="none" stroke="rgba(137,180,250,0.4)" stroke-width="1.2" /><path d="M 340 355 C 354 355, 366 300, 380 300" fill="none" stroke="rgba(137,180,250,0.4)" stroke-width="1.2" /><path d="M 380 300 C 394 300, 406 245, 420 245" fill="none" stroke="rgba(137,180,250,0.4)" stroke-width="1.2" /><path d="M 420 245 C 434 245, 446 300, 460 300" fill="none" stroke="rgba(137,180,250,0.4)" stroke-width="1.2" /><circle cx="140" cy="300" r="3" fill="rgba(205,214,244,1)"  /><circle cx="220" cy="300" r="3" fill="rgba(205,214,244,1)"  /><circle cx="300" cy="300" r="3" fill="rgba(205,214,244,1)"  /><circle cx="380" cy="300" r="3" fill="rgba(205,214,244,1)"  /><circle cx="460" cy="300" r="3" fill="rgba(205,214,244,1)"  /><text x="220" y="396" font-size="7" fill="rgba(127,132,156,1)" font-family="serif" text-anchor="middle" dominant-baseline="middle">узел</text><line x1="220" y1="306" x2="220" y2="388" stroke="rgba(127,132,156,1)" stroke-width="0.5" /><text x="180" y="232" font-size="7" fill="rgba(137,180,250,1)" font-family="serif" text-anchor="middle" dominant-baseline="middle">пучность</text><line x1="180" y1="238" x2="180" y2="245" stroke="rgba(137,180,250,0.6)" stroke-width="0.5" /><line x1="226" y1="378" x2="286" y2="378" stroke="rgba(127,132,156,1)" stroke-width="0.8" /><polygon points="294,378 287.0717967697245,382 287.0717967697245,374" fill="rgba(127,132,156,1)" /><line x1="294" y1="378" x2="234" y2="378" stroke="rgba(127,132,156,1)" stroke-width="0.8" /><polygon points="226,378 232.9282032302755,374 232.9282032302755,382" fill="rgba(127,132,156,1)" /><text x="260" y="376" font-size="8" fill="rgba(127,132,156,1)" font-family="serif" text-anchor="middle" dominant-baseline="middle">L/2</text></svg>