<svg xmlns="http://www.w3.org/2000/svg" width="216pt" height="132pt" viewBox="192 240 216 132"><rect x="200" y="275" width="200" height="50" fill="rgba(137,180,250,0.2)" stroke="rgba(205,214,244,1)" stroke-width="2" /><rect x="240" y="275" width="100" height="50" fill="rgba(137,180,250,0.4)" stroke="rgba(137,180,250,1)" stroke-width="1.5" /><line x1="340" y1="258" x2="340" y2="342" stroke="rgba(137,180,250,1)" stroke-width="1.5" stroke-dasharray="5 4" /><circle cx="260" cy="290" r="3" fill="rgba(205,214,244,1)" stroke="rgba(205,214,244,1)" stroke-width="0" /><circle cx="280" cy="305" r="3" fill="rgba(205,214,244,1)" stroke="rgba(205,214,244,1)" stroke-width="0" /><circle cx="300" cy="288" r="3" fill="rgba(205,214,244,1)" stroke="rgba(205,214,244,1)" stroke-width="0" /><circle cx="320" cy="302" r="3" fill="rgba(205,214,244,1)" stroke="rgba(205,214,244,1)" stroke-width="0" /><circle cx="270" cy="310" r="3" fill="rgba(205,214,244,1)" stroke="rgba(205,214,244,1)" stroke-width="0" /><line x1="265" y1="290" x2="272.2" y2="290" stroke="rgba(137,180,250,1)" stroke-width="1" /><polygon points="277,290 270.0717967697245,294 270.0717967697245,286" fill="rgba(137,180,250,1)" /><line x1="285" y1="305" x2="292.2" y2="305" stroke="rgba(137,180,250,1)" stroke-width="1" /><polygon points="297,305 290.0717967697245,309 290.0717967697245,301" fill="rgba(137,180,250,1)" /><line x1="305" y1="288" x2="312.2" y2="288" stroke="rgba(137,180,250,1)" stroke-width="1" /><polygon points="317,288 310.0717967697245,292 310.0717967697245,284" fill="rgba(137,180,250,1)" /><line x1="325" y1="302" x2="332.2" y2="302" stroke="rgba(137,180,250,1)" stroke-width="1" /><polygon points="337,302 330.0717967697245,306 330.0717967697245,298" fill="rgba(137,180,250,1)" /><line x1="275" y1="310" x2="282.2" y2="310" stroke="rgba(137,180,250,1)" stroke-width="1" /><polygon points="287,310 280.0717967697245,314 280.0717967697245,306" fill="rgba(137,180,250,1)" /><text x="340" y="252" font-size="8" fill="rgba(137,180,250,1)" font-family="serif" text-anchor="middle" dominant-baseline="middle">сечение</text><line x1="240" y1="345" x2="332" y2="345" stroke="rgba(127,132,156,1)" stroke-width="1" /><polygon points="340,345 333.0717967697245,349 333.0717967697245,341" fill="rgba(127,132,156,1)" /><line x1="240" y1="340" x2="240" y2="350" stroke="rgba(127,132,156,1)" stroke-width="1" /><line x1="340" y1="340" x2="340" y2="350" stroke="rgba(127,132,156,1)" stroke-width="1" /><text x="290" y="360" font-size="8" fill="rgba(127,132,156,1)" font-family="serif" font-style="italic" text-anchor="middle" dominant-baseline="middle">v_d \cdot dt</text><text x="350" y="300" font-size="9" fill="rgba(205,214,244,1)" font-family="serif" text-anchor="middle" dominant-baseline="middle">A</text><line x1="345" y1="275" x2="345" y2="325" stroke="rgba(205,214,244,1)" stroke-width="1" stroke-dasharray="5 4" /></svg>