<svg xmlns="http://www.w3.org/2000/svg" width="365.3pt" height="223.5pt" viewBox="132 184.5 365.3 223.5"><line x1="140" y1="300" x2="472" y2="300" stroke="rgba(205,214,244,1)" stroke-width="1.5" /><polygon points="480,300 473.0717967697245,304 473.0717967697245,296" fill="rgba(205,214,244,1)" /><text x="486" y="300" font-size="11" fill="rgba(205,214,244,1)" font-family="serif" text-anchor="middle" dominant-baseline="middle">c</text><line x1="300" y1="400" x2="300" y2="208" stroke="rgba(205,214,244,1)" stroke-width="1" /><polygon points="300,200 304,206.9282032302755 296,206.9282032302755" fill="rgba(205,214,244,1)" /><line x1="300" y1="300" x2="344.34314575050763" y2="344.34314575050763" stroke="rgba(205,214,244,1)" stroke-width="1" /><polygon points="350,350 342.2725933896875,347.92944763917984 347.92944763917984,342.2725933896875" fill="rgba(205,214,244,1)" /><path d="M 160 300 C 170 300, 175 250, 185 250" fill="none" stroke="rgba(137,180,250,1)" stroke-width="1.8" /><path d="M 185 250 C 195 250, 200 300, 210 300" fill="none" stroke="rgba(137,180,250,1)" stroke-width="1.8" /><path d="M 210 300 C 220 300, 225 350, 235 350" fill="none" stroke="rgba(137,180,250,1)" stroke-width="1.8" /><path d="M 235 350 C 245 350, 250 300, 260 300" fill="none" stroke="rgba(137,180,250,1)" stroke-width="1.8" /><path d="M 260 300 C 270 300, 275 250, 285 250" fill="none" stroke="rgba(137,180,250,1)" stroke-width="1.8" /><path d="M 285 250 C 295 250, 300 300, 310 300" fill="none" stroke="rgba(137,180,250,1)" stroke-width="1.8" /><path d="M 310 300 C 320 300, 325 350, 335 350" fill="none" stroke="rgba(137,180,250,1)" stroke-width="1.8" /><path d="M 335 350 C 345 350, 350 300, 360 300" fill="none" stroke="rgba(137,180,250,1)" stroke-width="1.8" /><path d="M 360 300 C 370 300, 375 250, 385 250" fill="none" stroke="rgba(137,180,250,1)" stroke-width="1.8" /><path d="M 385 250 C 395 250, 400 300, 410 300" fill="none" stroke="rgba(137,180,250,1)" stroke-width="1.8" /><path d="M 410 300 C 420 300, 425 350, 435 350" fill="none" stroke="rgba(137,180,250,1)" stroke-width="1.8" /><path d="M 435 350 C 445 350, 450 300, 460 300" fill="none" stroke="rgba(137,180,250,1)" stroke-width="1.8" /><text x="306" y="198" font-size="11" fill="rgba(137,180,250,1)" font-family="serif" text-anchor="middle" dominant-baseline="middle">E</text><path d="M 160 300 C 170 305, 175 325, 185 325" fill="none" stroke="rgba(137,180,250,0.6)" stroke-width="1.5" /><path d="M 185 325 C 195 325, 200 300, 210 300" fill="none" stroke="rgba(137,180,250,0.6)" stroke-width="1.5" /><path d="M 210 300 C 220 300, 225 275, 235 275" fill="none" stroke="rgba(137,180,250,0.6)" stroke-width="1.5" /><path d="M 235 275 C 245 275, 250 300, 260 300" fill="none" stroke="rgba(137,180,250,0.6)" stroke-width="1.5" /><path d="M 260 300 C 270 305, 275 325, 285 325" fill="none" stroke="rgba(137,180,250,0.6)" stroke-width="1.5" /><path d="M 285 325 C 295 325, 300 300, 310 300" fill="none" stroke="rgba(137,180,250,0.6)" stroke-width="1.5" /><path d="M 310 300 C 320 300, 325 275, 335 275" fill="none" stroke="rgba(137,180,250,0.6)" stroke-width="1.5" /><path d="M 335 275 C 345 275, 350 300, 360 300" fill="none" stroke="rgba(137,180,250,0.6)" stroke-width="1.5" /><path d="M 360 300 C 370 305, 375 325, 385 325" fill="none" stroke="rgba(137,180,250,0.6)" stroke-width="1.5" /><path d="M 385 325 C 395 325, 400 300, 410 300" fill="none" stroke="rgba(137,180,250,0.6)" stroke-width="1.5" /><path d="M 410 300 C 420 300, 425 275, 435 275" fill="none" stroke="rgba(137,180,250,0.6)" stroke-width="1.5" /><path d="M 435 275 C 445 275, 450 300, 460 300" fill="none" stroke="rgba(137,180,250,0.6)" stroke-width="1.5" /><text x="356" y="356" font-size="11" fill="rgba(137,180,250,0.6)" font-family="serif" text-anchor="middle" dominant-baseline="middle">B</text></svg>