<svg xmlns="http://www.w3.org/2000/svg" width="485.70000000000005pt" height="163.75pt" viewBox="61.150000000000006 166.75 485.70000000000005 163.75"><line x1="150" y1="320" x2="150" y2="273.25" stroke="rgba(205,214,244,1)" stroke-width="1.5" /><line x1="150" y1="256.75" x2="150" y2="210" stroke="rgba(205,214,244,1)" stroke-width="1.5" /><line x1="133.5" y1="273.25" x2="166.5" y2="273.25" stroke="rgba(205,214,244,1)" stroke-width="2.5" /><line x1="122.5" y1="256.75" x2="177.5" y2="256.75" stroke="rgba(205,214,244,1)" stroke-width="1.5" /><text x="92.25" y="265" font-size="11" fill="rgba(205,214,244,1)" font-family="serif" text-anchor="middle" dominant-baseline="middle">9 ± 2 В</text><line x1="150" y1="210" x2="216" y2="210" stroke="rgba(205,214,244,1)" stroke-width="1.5" /><line x1="216" y1="210" x2="224.25" y2="199" stroke="rgba(205,214,244,1)" stroke-width="1.5" /><line x1="224.25" y1="199" x2="240.75" y2="221" stroke="rgba(205,214,244,1)" stroke-width="1.5" /><line x1="240.75" y1="221" x2="257.25" y2="199" stroke="rgba(205,214,244,1)" stroke-width="1.5" /><line x1="257.25" y1="199" x2="273.75" y2="221" stroke="rgba(205,214,244,1)" stroke-width="1.5" /><line x1="273.75" y1="221" x2="282" y2="210" stroke="rgba(205,214,244,1)" stroke-width="1.5" /><line x1="282" y1="210" x2="436" y2="210" stroke="rgba(205,214,244,1)" stroke-width="1.5" /><text x="249" y="179.75" font-size="10" fill="rgba(205,214,244,1)" font-family="serif" text-anchor="middle" dominant-baseline="middle">R — принимает всю болтанку</text><line x1="370" y1="210" x2="370" y2="251.25" stroke="rgba(205,214,244,1)" stroke-width="1.5" /><line x1="361.75" y1="251.25" x2="378.25" y2="251.25" stroke="rgba(205,214,244,1)" stroke-width="1.5" /><line x1="361.75" y1="251.25" x2="370" y2="267.75" stroke="rgba(205,214,244,1)" stroke-width="1.5" /><line x1="378.25" y1="251.25" x2="370" y2="267.75" stroke="rgba(205,214,244,1)" stroke-width="1.5" /><line x1="361.75" y1="267.75" x2="378.25" y2="267.75" stroke="rgba(205,214,244,1)" stroke-width="1.5" /><line x1="361.75" y1="267.75" x2="357.9" y2="271.6" stroke="rgba(205,214,244,1)" stroke-width="1.5" /><line x1="378.25" y1="267.75" x2="382.1" y2="263.9" stroke="rgba(205,214,244,1)" stroke-width="1.5" /><line x1="370" y1="267.75" x2="370" y2="320" stroke="rgba(205,214,244,1)" stroke-width="1.5" /><text x="326" y="289.75" font-size="10" fill="rgba(205,214,244,1)" font-family="serif" text-anchor="middle" dominant-baseline="middle">стабилитрон</text><line x1="150" y1="320" x2="436" y2="320" stroke="rgba(205,214,244,1)" stroke-width="1.5" /><circle cx="436" cy="210" r="2.5" fill="rgba(205,214,244,1)"  /><circle cx="436" cy="320" r="2.5" fill="rgba(205,214,244,1)"  /><line x1="455.25" y1="240.25" x2="455.25" y2="281.75" stroke="rgba(166,227,161,1)" stroke-width="1.4" /><polygon points="455.25,289.75 451.25,282.8217967697245 459.25,282.8217967697245" fill="rgba(166,227,161,1)" /><line x1="455.25" y1="289.75" x2="455.25" y2="248.25" stroke="rgba(166,227,161,1)" stroke-width="1.4" /><polygon points="455.25,240.25 459.25,247.1782032302755 451.25,247.1782032302755" fill="rgba(166,227,161,1)" /><text x="499.25" y="265" font-size="11" fill="rgba(166,227,161,1)" font-family="serif" text-anchor="middle" dominant-baseline="middle">чистые 5.1 В</text></svg>