<svg xmlns="http://www.w3.org/2000/svg" width="376.9pt" height="243pt" viewBox="51 82 376.9 243"><line x1="60" y1="300" x2="392" y2="300" stroke="rgba(100,100,100,1)" stroke-width="1" /><polygon points="400,300 393.0717967697245,304 393.0717967697245,296" fill="rgba(100,100,100,1)" /><text x="410" y="300" font-size="11" fill="rgba(0,0,0,1)" font-family="serif" font-style="italic" text-anchor="middle" dominant-baseline="middle">x</text><line x1="80" y1="300" x2="345" y2="159" stroke="rgba(100,100,100,1)" stroke-width="1" /><line x1="80" y1="300" x2="233" y2="90" stroke="rgba(100,100,100,1)" stroke-width="1" /><line x1="80" y1="300" x2="209" y2="122" stroke="rgba(152,125,185,0.6)" stroke-width="2" /><line x1="80" y1="300" x2="247.9355969756719" y2="210.75422560721435" stroke="rgba(152,125,185,1)" stroke-width="2" /><polygon points="255,207 250.75916032196744,213.78345625954975 247.00493471475306,206.71905323522165" fill="rgba(152,125,185,1)" /><line x1="255" y1="207" x2="212.8075983735364" y2="129.03577960327377" stroke="rgba(152,125,185,1)" stroke-width="2" /><polygon points="209,122 215.8153667205277,126.18936468509528 208.77958711725395,129.99696305863168" fill="rgba(152,125,185,1)" /><path d="M 125 300 C 124 292, 123 286, 120 279" fill="none" stroke="rgba(100,100,100,1)" stroke-width="1" /><path d="M 133 272 C 129 264, 123 257, 115 251" fill="none" stroke="rgba(100,100,100,1)" stroke-width="1" /><text x="139" y="287" font-size="10" fill="rgba(0,0,0,1)" font-family="serif" font-style="italic" text-anchor="middle" dominant-baseline="middle">a</text><text x="142" y="256" font-size="10" fill="rgba(0,0,0,1)" font-family="serif" font-style="italic" text-anchor="middle" dominant-baseline="middle">b</text><line x1="248" y1="211" x2="244" y2="204" stroke="rgba(100,100,100,1)" stroke-width="1" /><line x1="251" y1="200" x2="244" y2="204" stroke="rgba(100,100,100,1)" stroke-width="1" /><text x="68" y="312" font-size="10" fill="rgba(0,0,0,1)" font-family="serif" font-style="italic" text-anchor="middle" dominant-baseline="middle">O</text><text x="356" y="152" font-size="10" fill="rgba(0,0,0,1)" font-family="serif" font-style="italic" text-anchor="middle" dominant-baseline="middle">P</text><text x="199" y="111" font-size="10" fill="rgba(0,0,0,1)" font-family="serif" font-style="italic" text-anchor="middle" dominant-baseline="middle">C</text><text x="264" y="219" font-size="10" fill="rgba(0,0,0,1)" font-family="serif" font-style="italic" text-anchor="middle" dominant-baseline="middle">D</text><text x="182" y="266" font-size="9" fill="rgba(152,125,185,1)" font-family="serif" font-style="italic" text-anchor="middle" dominant-baseline="middle">cos b</text><text x="252" y="162" font-size="9" fill="rgba(152,125,185,1)" font-family="serif" font-style="italic" text-anchor="middle" dominant-baseline="middle">sin b</text><text x="131" y="198" font-size="9" fill="rgba(0,0,0,1)" font-family="serif" font-style="italic" text-anchor="middle" dominant-baseline="middle">1</text><text x="300" y="100" font-size="9" fill="rgba(100,100,100,1)" font-family="serif" text-anchor="middle" dominant-baseline="middle">C = (cos(a+b), sin(a+b))</text></svg>