<svg xmlns="http://www.w3.org/2000/svg" width="396pt" height="176pt" viewBox="112 202 396 176"><rect x="120" y="210" width="160" height="160" fill="none" stroke="rgba(205,214,244,1)" stroke-width="2" /><line x1="120" y1="370" x2="220" y2="370"  /><line x1="120" y1="210" x2="220" y2="210" stroke="rgba(203,166,247,1)" stroke-width="1.5" /><line x1="220" y1="210" x2="220" y2="270" stroke="rgba(203,166,247,1)" stroke-width="1.5" /><line x1="120" y1="210" x2="220" y2="270" stroke="rgba(205,214,244,1)" stroke-width="1.5" /><line x1="280" y1="210" x2="280" y2="310" stroke="rgba(203,166,247,1)" stroke-width="1.5" /><line x1="280" y1="310" x2="220" y2="310" stroke="rgba(203,166,247,1)" stroke-width="1.5" /><line x1="280" y1="210" x2="220" y2="310" stroke="rgba(205,214,244,1)" stroke-width="1.5" /><line x1="280" y1="370" x2="180" y2="370" stroke="rgba(203,166,247,1)" stroke-width="1.5" /><line x1="180" y1="370" x2="180" y2="310" stroke="rgba(203,166,247,1)" stroke-width="1.5" /><line x1="280" y1="370" x2="180" y2="310" stroke="rgba(205,214,244,1)" stroke-width="1.5" /><line x1="120" y1="370" x2="120" y2="310" stroke="rgba(203,166,247,1)" stroke-width="1.5" /><line x1="120" y1="310" x2="180" y2="310" stroke="rgba(203,166,247,1)" stroke-width="1.5" /><line x1="120" y1="370" x2="180" y2="310" stroke="rgba(205,214,244,1)" stroke-width="1.5" /><rect x="180" y="270" width="40" height="40" fill="rgba(203,166,247,0.2)" stroke="rgba(203,166,247,1)" stroke-width="1" /><text x="200" y="290" font-size="10" fill="rgba(203,166,247,1)" font-family="serif" font-style="italic" text-anchor="middle" dominant-baseline="middle">c^2</text><text x="310" y="290" font-size="16" fill="rgba(205,214,244,1)" font-family="serif" text-anchor="middle" dominant-baseline="middle">=</text><rect x="340" y="210" width="160" height="160" fill="none" stroke="rgba(205,214,244,1)" stroke-width="2" /><line x1="340" y1="210" x2="440" y2="210" stroke="rgba(203,166,247,1)" stroke-width="1.5" /><line x1="440" y1="210" x2="440" y2="270" stroke="rgba(203,166,247,1)" stroke-width="1.5" /><line x1="340" y1="210" x2="440" y2="270" stroke="rgba(205,214,244,1)" stroke-width="1.5" /><line x1="340" y1="270" x2="400" y2="270" stroke="rgba(203,166,247,1)" stroke-width="1.5" /><line x1="340" y1="270" x2="340" y2="370" stroke="rgba(203,166,247,1)" stroke-width="1.5" /><line x1="400" y1="270" x2="340" y2="370" stroke="rgba(205,214,244,1)" stroke-width="1.5" /><line x1="440" y1="270" x2="500" y2="270" stroke="rgba(203,166,247,1)" stroke-width="1.5" /><line x1="500" y1="270" x2="500" y2="370" stroke="rgba(203,166,247,1)" stroke-width="1.5" /><line x1="440" y1="270" x2="500" y2="370" stroke="rgba(205,214,244,1)" stroke-width="1.5" /><rect x="340" y="210" width="100" height="60" fill="rgba(203,166,247,0.2)"  /><rect x="440" y="270" width="60" height="100" fill="rgba(203,166,247,0.2)"  /><text x="380" y="230" font-size="10" fill="rgba(203,166,247,1)" font-family="serif" font-style="italic" text-anchor="middle" dominant-baseline="middle">a^2</text><text x="470" y="320" font-size="10" fill="rgba(203,166,247,1)" font-family="serif" font-style="italic" text-anchor="middle" dominant-baseline="middle">b^2</text></svg>