<svg xmlns="http://www.w3.org/2000/svg" width="437.79999999999995pt" height="177.5pt" viewBox="110.6 186 437.79999999999995 177.5"><line x1="130" y1="340" x2="392" y2="340" stroke="rgba(127,132,156,1)" stroke-width="1" /><polygon points="400,340 393.0717967697245,344 393.0717967697245,336" fill="rgba(127,132,156,1)" /><line x1="140" y1="350" x2="140" y2="213" stroke="rgba(127,132,156,1)" stroke-width="1" /><polygon points="140,205 144,211.9282032302755 136,211.9282032302755" fill="rgba(127,132,156,1)" /><text x="407.5" y="347" font-size="12" fill="rgba(205,214,244,1)" font-family="serif" font-style="italic" text-anchor="middle" dominant-baseline="middle">t</text><text x="132.5" y="200" font-size="12" fill="rgba(205,214,244,1)" font-family="serif" font-style="italic" text-anchor="middle" dominant-baseline="middle">F</text><path d="M 145 320 C 154.17 314.17, 181.67000000000002 295.42, 200 285" fill="none" stroke="rgba(205,214,244,1)" stroke-width="1.7" /><path d="M 200 285 C 218.32999999999998 274.58, 236.67000000000002 265.42, 255 257.5" fill="none" stroke="rgba(205,214,244,1)" stroke-width="1.7" /><path d="M 255 257.5 C 273.33 249.58, 291.67 242.92, 310 237.5" fill="none" stroke="rgba(205,214,244,1)" stroke-width="1.7" /><path d="M 310 237.5 C 328.33 232.08, 355.83 227.08, 365 225" fill="none" stroke="rgba(205,214,244,1)" stroke-width="1.7" /><line x1="200" y1="320" x2="200" y2="285" stroke="rgba(137,180,250,1)" stroke-width="3.5" /><line x1="145" y1="320" x2="200" y2="320" stroke="rgba(127,132,156,1)" stroke-width="1" stroke-dasharray="5 4" /><line x1="255" y1="285" x2="255" y2="257.5" stroke="rgba(166,227,161,1)" stroke-width="3.5" /><line x1="200" y1="285" x2="255" y2="285" stroke="rgba(127,132,156,1)" stroke-width="1" stroke-dasharray="5 4" /><line x1="310" y1="257.5" x2="310" y2="237.5" stroke="rgba(250,179,135,1)" stroke-width="3.5" /><line x1="255" y1="257.5" x2="310" y2="257.5" stroke="rgba(127,132,156,1)" stroke-width="1" stroke-dasharray="5 4" /><line x1="365" y1="237.5" x2="365" y2="225" stroke="rgba(243,139,168,1)" stroke-width="3.5" /><line x1="310" y1="237.5" x2="365" y2="237.5" stroke="rgba(127,132,156,1)" stroke-width="1" stroke-dasharray="5 4" /><circle cx="145" cy="320" r="2.5" fill="rgba(205,214,244,1)"  /><line x1="145" y1="340" x2="145" y2="320" stroke="rgba(127,132,156,1)" stroke-width="0.8" stroke-dasharray="5 4" /><circle cx="200" cy="285" r="2.5" fill="rgba(205,214,244,1)"  /><line x1="200" y1="340" x2="200" y2="285" stroke="rgba(127,132,156,1)" stroke-width="0.8" stroke-dasharray="5 4" /><circle cx="255" cy="257.5" r="2.5" fill="rgba(205,214,244,1)"  /><line x1="255" y1="340" x2="255" y2="257.5" stroke="rgba(127,132,156,1)" stroke-width="0.8" stroke-dasharray="5 4" /><circle cx="310" cy="237.5" r="2.5" fill="rgba(205,214,244,1)"  /><line x1="310" y1="340" x2="310" y2="237.5" stroke="rgba(127,132,156,1)" stroke-width="0.8" stroke-dasharray="5 4" /><circle cx="365" cy="225" r="2.5" fill="rgba(205,214,244,1)"  /><line x1="365" y1="340" x2="365" y2="225" stroke="rgba(127,132,156,1)" stroke-width="0.8" stroke-dasharray="5 4" /><text x="145" y="350" font-size="11" fill="rgba(205,214,244,1)" font-family="serif" font-style="italic" text-anchor="middle" dominant-baseline="middle">a = t₀</text><text x="200" y="350" font-size="11" fill="rgba(205,214,244,1)" font-family="serif" font-style="italic" text-anchor="middle" dominant-baseline="middle">t₁</text><text x="255" y="350" font-size="11" fill="rgba(205,214,244,1)" font-family="serif" font-style="italic" text-anchor="middle" dominant-baseline="middle">t₂</text><text x="310" y="350" font-size="11" fill="rgba(205,214,244,1)" font-family="serif" font-style="italic" text-anchor="middle" dominant-baseline="middle">t₃</text><text x="365" y="350" font-size="11" fill="rgba(205,214,244,1)" font-family="serif" font-style="italic" text-anchor="middle" dominant-baseline="middle">t₄ = b</text><line x1="440" y1="320" x2="440" y2="285" stroke="rgba(137,180,250,1)" stroke-width="5" /><line x1="440" y1="285" x2="440" y2="257.5" stroke="rgba(166,227,161,1)" stroke-width="5" /><line x1="440" y1="257.5" x2="440" y2="237.5" stroke="rgba(250,179,135,1)" stroke-width="5" /><line x1="440" y1="237.5" x2="440" y2="225" stroke="rgba(243,139,168,1)" stroke-width="5" /><line x1="452.5" y1="320" x2="452.5" y2="225" stroke="rgba(205,214,244,1)" stroke-width="1" /><line x1="449" y1="320" x2="456" y2="320" stroke="rgba(205,214,244,1)" stroke-width="1" /><line x1="449" y1="225" x2="456" y2="225" stroke="rgba(205,214,244,1)" stroke-width="1" /><text x="497.5" y="272.5" font-size="11" fill="rgba(205,214,244,1)" font-family="serif" font-style="italic" text-anchor="middle" dominant-baseline="middle">F(b) − F(a)</text></svg>