<svg xmlns="http://www.w3.org/2000/svg" width="473.1pt" height="167.5pt" viewBox="57 94 473.1 167.5"><line x1="65" y1="160" x2="95" y2="160" stroke="rgba(0,0,0,1)" stroke-width="1" /><line x1="145" y1="160" x2="175" y2="160" stroke="rgba(0,0,0,1)" stroke-width="1" /><rect x="105" y="125" width="30" height="70" fill="rgba(103,135,188,0.2)"  /><rect x="95" y="120" width="10" height="80" fill="rgba(103,135,188,0.4)" stroke="rgba(103,135,188,1)" stroke-width="1" /><rect x="135" y="120" width="10" height="80" fill="rgba(103,135,188,0.4)" stroke="rgba(103,135,188,1)" stroke-width="1" /><text x="120" y="110" font-size="8" fill="rgba(100,100,100,1)" font-family="serif" text-anchor="middle" dominant-baseline="middle">диэлектрик</text><circle cx="290" cy="160" r="14" fill="none" stroke="rgba(103,135,188,1)" stroke-width="2" /><circle cx="290" cy="160" r="24" fill="none" stroke="rgba(103,135,188,0.6)" stroke-width="2" /><circle cx="290" cy="160" r="34" fill="none" stroke="rgba(103,135,188,1)" stroke-width="2" /><circle cx="290" cy="160" r="44" fill="none" stroke="rgba(100,100,100,1)" stroke-width="1" /><text x="250" y="108" font-size="12" fill="rgba(0,0,0,1)" font-family="serif" text-anchor="middle" dominant-baseline="middle">+</text><text x="330" y="108" font-size="12" fill="rgba(0,0,0,1)" font-family="serif" text-anchor="middle" dominant-baseline="middle">−</text><rect x="408" y="130" width="104" height="60" fill="rgba(103,135,188,0.2)" stroke="rgba(100,100,100,1)" stroke-width="1" /><rect x="400" y="126" width="10" height="68" fill="rgba(103,135,188,0.4)" stroke="rgba(103,135,188,1)" stroke-width="1" /><rect x="510" y="126" width="10" height="68" fill="rgba(103,135,188,0.4)" stroke="rgba(103,135,188,1)" stroke-width="1" /><rect x="410" y="140" width="72" height="4" fill="rgba(103,135,188,1)"  /><rect x="438" y="152" width="72" height="4" fill="rgba(103,135,188,1)"  /><rect x="410" y="164" width="72" height="4" fill="rgba(103,135,188,1)"  /><rect x="438" y="176" width="72" height="4" fill="rgba(103,135,188,1)"  /><text x="120" y="232" font-size="11" fill="rgba(0,0,0,1)" font-family="serif" text-anchor="middle" dominant-baseline="middle">плоский</text><text x="290" y="232" font-size="11" fill="rgba(0,0,0,1)" font-family="serif" text-anchor="middle" dominant-baseline="middle">электролитический</text><text x="460" y="232" font-size="11" fill="rgba(0,0,0,1)" font-family="serif" text-anchor="middle" dominant-baseline="middle">керамический</text><text x="120" y="249" font-size="9" fill="rgba(100,100,100,1)" font-family="serif" text-anchor="middle" dominant-baseline="middle">две пластины и зазор</text><text x="290" y="249" font-size="9" fill="rgba(100,100,100,1)" font-family="serif" text-anchor="middle" dominant-baseline="middle">фольга в рулоне, оксид</text><text x="460" y="249" font-size="9" fill="rgba(100,100,100,1)" font-family="serif" text-anchor="middle" dominant-baseline="middle">стопка слоёв в керамике</text></svg>