<svg xmlns="http://www.w3.org/2000/svg" width="368pt" height="201.85pt" viewBox="116 233.4 368 201.85"><line x1="124" y1="320" x2="250.5" y2="320" stroke="rgba(205,214,244,1)" stroke-width="1.5" /><line x1="170.75" y1="320" x2="195.75" y2="320" stroke="rgba(137,180,250,1)" stroke-width="2.2" /><polygon points="203.75,320 196.8217967697245,324 196.8217967697245,316" fill="rgba(137,180,250,1)" /><text x="187.25" y="302.4" font-size="12" fill="rgba(137,180,250,1)" font-family="serif" font-style="italic" text-anchor="middle" dominant-baseline="middle">I</text><line x1="250.5" y1="380.5" x2="250.5" y2="259.5" stroke="rgba(205,214,244,1)" stroke-width="3.5" /><line x1="349.5" y1="380.5" x2="349.5" y2="259.5" stroke="rgba(205,214,244,1)" stroke-width="3.5" /><text x="234" y="247.4" font-size="12" fill="rgba(205,214,244,1)" font-family="serif" text-anchor="middle" dominant-baseline="middle">+Q</text><text x="366" y="247.4" font-size="12" fill="rgba(205,214,244,1)" font-family="serif" text-anchor="middle" dominant-baseline="middle">−Q</text><line x1="258.75" y1="358.5" x2="333.25" y2="358.5" stroke="rgba(243,139,168,1)" stroke-width="1.7" /><polygon points="341.25,358.5 334.3217967697245,362.5 334.3217967697245,354.5" fill="rgba(243,139,168,1)" /><line x1="258.75" y1="320" x2="333.25" y2="320" stroke="rgba(243,139,168,1)" stroke-width="1.7" /><polygon points="341.25,320 334.3217967697245,324 334.3217967697245,316" fill="rgba(243,139,168,1)" /><line x1="258.75" y1="281.5" x2="333.25" y2="281.5" stroke="rgba(243,139,168,1)" stroke-width="1.7" /><polygon points="341.25,281.5 334.3217967697245,285.5 334.3217967697245,277.5" fill="rgba(243,139,168,1)" /><text x="300" y="262.25" font-size="11" fill="rgba(243,139,168,1)" font-family="serif" text-anchor="middle" dominant-baseline="middle">E растёт</text><line x1="250.5" y1="399.75" x2="341.5" y2="399.75" stroke="rgba(166,227,161,1)" stroke-width="2" stroke-dasharray="5 4" /><polygon points="349.5,399.75 342.5717967697245,403.75 342.5717967697245,395.75" fill="rgba(166,227,161,1)" /><text x="300" y="421.75" font-size="11" fill="rgba(166,227,161,1)" font-family="serif" text-anchor="middle" dominant-baseline="middle">ток смещения ε₀·dΦ/dt = I</text><line x1="349.5" y1="320" x2="476" y2="320" stroke="rgba(205,214,244,1)" stroke-width="1.5" /><line x1="396.25" y1="320" x2="421.25" y2="320" stroke="rgba(137,180,250,1)" stroke-width="2.2" /><polygon points="429.25,320 422.3217967697245,324 422.3217967697245,316" fill="rgba(137,180,250,1)" /><text x="412.75" y="302.4" font-size="12" fill="rgba(137,180,250,1)" font-family="serif" font-style="italic" text-anchor="middle" dominant-baseline="middle">I</text></svg>