<svg xmlns="http://www.w3.org/2000/svg" width="296.2pt" height="178.5pt" viewBox="147.8 222 296.2 178.5"><rect x="230" y="230" width="140" height="140" fill="rgba(100,100,100,1)" stroke="rgba(0,0,0,1)" stroke-width="3" /><rect x="244" y="244" width="112" height="112" fill="rgba(255,255,255,1)"  /><circle cx="218" cy="265" r="8" fill="none" stroke="rgba(103,135,188,1)" stroke-width="1.2" /><circle cx="218" cy="281" r="8" fill="none" stroke="rgba(103,135,188,1)" stroke-width="1.2" /><circle cx="218" cy="297" r="8" fill="none" stroke="rgba(103,135,188,1)" stroke-width="1.2" /><circle cx="218" cy="313" r="8" fill="none" stroke="rgba(103,135,188,1)" stroke-width="1.2" /><circle cx="218" cy="329" r="8" fill="none" stroke="rgba(103,135,188,1)" stroke-width="1.2" /><circle cx="382" cy="268" r="8" fill="none" stroke="rgba(103,135,188,0.6)" stroke-width="1.2" /><circle cx="382" cy="288" r="8" fill="none" stroke="rgba(103,135,188,0.6)" stroke-width="1.2" /><circle cx="382" cy="308" r="8" fill="none" stroke="rgba(103,135,188,0.6)" stroke-width="1.2" /><circle cx="382" cy="328" r="8" fill="none" stroke="rgba(103,135,188,0.6)" stroke-width="1.2" /><line x1="210" y1="257" x2="170" y2="257" stroke="rgba(0,0,0,1)" stroke-width="1" /><line x1="170" y1="257" x2="170" y2="347" stroke="rgba(0,0,0,1)" stroke-width="1" /><line x1="170" y1="347" x2="210" y2="347" stroke="rgba(0,0,0,1)" stroke-width="1" /><line x1="210" y1="337" x2="180" y2="337" stroke="rgba(0,0,0,1)" stroke-width="1" /><text x="160" y="300" font-size="14" fill="rgba(0,0,0,1)" font-family="serif" text-anchor="middle" dominant-baseline="middle">~</text><text x="210" y="244" font-size="8" fill="rgba(103,135,188,1)" font-family="serif" text-anchor="middle" dominant-baseline="middle">N1</text><line x1="390" y1="260" x2="430" y2="260" stroke="rgba(0,0,0,1)" stroke-width="1" /><line x1="430" y1="260" x2="430" y2="340" stroke="rgba(0,0,0,1)" stroke-width="1" /><line x1="430" y1="340" x2="390" y2="340" stroke="rgba(0,0,0,1)" stroke-width="1" /><line x1="390" y1="336" x2="420" y2="336" stroke="rgba(0,0,0,1)" stroke-width="1" /><rect x="424" y="285" width="12" height="30" fill="none" stroke="rgba(0,0,0,1)" stroke-width="1.2" /><text x="430" y="280" font-size="7" fill="rgba(100,100,100,1)" font-family="serif" text-anchor="middle" dominant-baseline="middle">R</text><text x="390" y="248" font-size="8" fill="rgba(103,135,188,0.6)" font-family="serif" text-anchor="middle" dominant-baseline="middle">N2</text><line x1="280" y1="238" x2="312" y2="238" stroke="rgba(100,100,100,1)" stroke-width="1.2" /><polygon points="320,238 313.0717967697245,242 313.0717967697245,234" fill="rgba(100,100,100,1)" /><line x1="320" y1="362" x2="288" y2="362" stroke="rgba(100,100,100,1)" stroke-width="1.2" /><polygon points="280,362 286.9282032302755,358 286.9282032302755,366" fill="rgba(100,100,100,1)" /><text x="300" y="388" font-size="9" fill="rgba(100,100,100,1)" font-family="serif" text-anchor="middle" dominant-baseline="middle">Ф</text></svg>