<svg xmlns="http://www.w3.org/2000/svg" width="228pt" height="216pt" viewBox="280 112 228 216"><line x1="288" y1="300" x2="492" y2="300" stroke="rgba(205,214,244,1)" stroke-width="1" /><polygon points="500,300 493.0717967697245,304 493.0717967697245,296" fill="rgba(205,214,244,1)" /><line x1="300" y1="312" x2="300" y2="148" stroke="rgba(205,214,244,1)" stroke-width="1" /><polygon points="300,140 304,146.9282032302755 296,146.9282032302755" fill="rgba(205,214,244,1)" /><text x="497.30119697399334" y="293.25294592365776" font-size="7" fill="rgba(205,214,244,1)" font-family="serif" text-anchor="middle" dominant-baseline="middle">t</text><text x="308.1446601283559" y="143.46988960486578" font-size="7" fill="rgba(205,214,244,1)" font-family="serif" text-anchor="middle" dominant-baseline="middle">f</text><circle cx="320" cy="268" r="2" fill="rgba(203,166,247,1)" stroke="rgba(203,166,247,1)" stroke-width="0" /><circle cx="460" cy="180" r="2" fill="rgba(203,166,247,1)" stroke="rgba(203,166,247,1)" stroke-width="0" /><line x1="320" y1="268" x2="460" y2="180" stroke="rgba(203,166,247,1)" stroke-width="1" /><text x="336.7582388047509" y="251.51923042536075" font-size="6" fill="rgba(203,166,247,1)" font-family="serif" text-anchor="middle" dominant-baseline="middle" transform="rotate(-33 336.7582388047509 251.51923042536075)">равномерно</text><line x1="320" y1="268" x2="388" y2="268" stroke="rgba(203,166,247,0.6)" stroke-width="1" /><line x1="388" y1="268" x2="460" y2="180" stroke="rgba(203,166,247,0.6)" stroke-width="1" /><text x="416.22229480188525" y="241.14061176327743" font-size="6" fill="rgba(203,166,247,1)" font-family="serif" text-anchor="middle" dominant-baseline="middle" transform="rotate(-51 416.22229480188525 241.14061176327743)">сначала стоит, потом резко</text><path d="M 320 268 C 360 320, 400 120, 460 180" fill="none" stroke="rgba(203,166,247,0.6)" stroke-width="1" /></svg>