<svg xmlns="http://www.w3.org/2000/svg" width="553.75pt" height="209.60000000000002pt" viewBox="103 140.5 553.75 209.60000000000002"><rect x="130" y="236.5" width="88" height="49.5" fill="rgba(137,180,250,0.4)"  /><rect x="130" y="198" width="88" height="88" fill="none" stroke="rgba(205,214,244,1)" stroke-width="1" /><line x1="130" y1="236.5" x2="218" y2="236.5" stroke="rgba(137,180,250,1)" stroke-width="1.2" /><text x="174" y="306.9" font-size="11" fill="rgba(205,214,244,1)" font-family="serif" text-anchor="middle" dominant-baseline="middle">металл</text><text x="174" y="185.9" font-size="10" fill="rgba(127,132,156,1)" font-family="serif" text-anchor="middle" dominant-baseline="middle">зона полна наполовину</text><rect x="306" y="269.5" width="88" height="44" fill="rgba(137,180,250,0.4)" stroke="rgba(205,214,244,1)" stroke-width="1" /><rect x="306" y="148.5" width="88" height="44" fill="none" stroke="rgba(205,214,244,1)" stroke-width="1" /><text x="350" y="336.6" font-size="11" fill="rgba(205,214,244,1)" font-family="serif" text-anchor="middle" dominant-baseline="middle">диэлектрик</text><line x1="350" y1="231" x2="350" y2="257.65" stroke="rgba(243,139,168,1)" stroke-width="1.4" stroke-dasharray="5 4" /><polygon points="350,265.65 346,258.72179676972445 354,258.72179676972445" fill="rgba(243,139,168,1)" /><line x1="350" y1="231" x2="350" y2="204.35" stroke="rgba(243,139,168,1)" stroke-width="1.4" stroke-dasharray="5 4" /><polygon points="350,196.35 354,203.2782032302755 346,203.2782032302755" fill="rgba(243,139,168,1)" /><text x="418.75" y="231" font-size="10" fill="rgba(243,139,168,1)" font-family="serif" text-anchor="middle" dominant-baseline="middle">Eg велика</text><rect x="515" y="247.5" width="88" height="44" fill="rgba(137,180,250,0.4)" stroke="rgba(205,214,244,1)" stroke-width="1" /><rect x="515" y="170.5" width="88" height="44" fill="none" stroke="rgba(205,214,244,1)" stroke-width="1" /><text x="559" y="313.5" font-size="11" fill="rgba(205,214,244,1)" font-family="serif" text-anchor="middle" dominant-baseline="middle">полупроводник</text><line x1="559" y1="231" x2="559" y2="238.92" stroke="rgba(166,227,161,1)" stroke-width="1.4" stroke-dasharray="5 4" /><polygon points="559,244.2 555,237.2717967697245 563,237.2717967697245" fill="rgba(166,227,161,1)" /><line x1="559" y1="231" x2="559" y2="223.08" stroke="rgba(166,227,161,1)" stroke-width="1.4" stroke-dasharray="5 4" /><polygon points="559,217.8 563,224.7282032302755 555,224.7282032302755" fill="rgba(166,227,161,1)" /><text x="627.75" y="231" font-size="10" fill="rgba(166,227,161,1)" font-family="serif" text-anchor="middle" dominant-baseline="middle">Eg мала</text></svg>