<svg xmlns="http://www.w3.org/2000/svg" width="527.5pt" height="138.1pt" viewBox="94.4 228.4 527.5 138.1"><line x1="127.15" y1="320" x2="151.35" y2="320" stroke="rgba(100,100,100,1)" stroke-width="1" /><line x1="120" y1="312.85" x2="120" y2="288.65000000000003" stroke="rgba(100,100,100,1)" stroke-width="1" /><line x1="127.15" y1="281.5" x2="151.35" y2="281.5" stroke="rgba(100,100,100,1)" stroke-width="1" /><line x1="120" y1="274.35" x2="120" y2="250.15000000000003" stroke="rgba(100,100,100,1)" stroke-width="1" /><line x1="127.15" y1="243" x2="151.35" y2="243" stroke="rgba(100,100,100,1)" stroke-width="1" /><line x1="165.65" y1="320" x2="189.85" y2="320" stroke="rgba(100,100,100,1)" stroke-width="1" /><line x1="158.5" y1="312.85" x2="158.5" y2="288.65000000000003" stroke="rgba(100,100,100,1)" stroke-width="1" /><line x1="165.65" y1="281.5" x2="189.85" y2="281.5" stroke="rgba(100,100,100,1)" stroke-width="1" /><line x1="158.5" y1="274.35" x2="158.5" y2="250.15000000000003" stroke="rgba(100,100,100,1)" stroke-width="1" /><line x1="165.65" y1="243" x2="189.85" y2="243" stroke="rgba(100,100,100,1)" stroke-width="1" /><line x1="197" y1="312.85" x2="197" y2="288.65000000000003" stroke="rgba(100,100,100,1)" stroke-width="1" /><line x1="197" y1="274.35" x2="197" y2="250.15000000000003" stroke="rgba(100,100,100,1)" stroke-width="1" /><circle cx="120" cy="320" r="6.6" fill="rgba(103,135,188,1)" stroke="rgba(0,0,0,1)" stroke-width="0.8" /><circle cx="120" cy="281.5" r="6.6" fill="rgba(103,135,188,1)" stroke="rgba(0,0,0,1)" stroke-width="0.8" /><circle cx="120" cy="243" r="6.6" fill="rgba(103,135,188,1)" stroke="rgba(0,0,0,1)" stroke-width="0.8" /><circle cx="158.5" cy="320" r="6.6" fill="rgba(103,135,188,1)" stroke="rgba(0,0,0,1)" stroke-width="0.8" /><circle cx="158.5" cy="281.5" r="6.6" fill="rgba(103,135,188,1)" stroke="rgba(0,0,0,1)" stroke-width="0.8" /><circle cx="158.5" cy="243" r="6.6" fill="rgba(103,135,188,1)" stroke="rgba(0,0,0,1)" stroke-width="0.8" /><circle cx="197" cy="320" r="6.6" fill="rgba(103,135,188,1)" stroke="rgba(0,0,0,1)" stroke-width="0.8" /><circle cx="197" cy="281.5" r="6.6" fill="rgba(103,135,188,1)" stroke="rgba(0,0,0,1)" stroke-width="0.8" /><circle cx="197" cy="243" r="6.6" fill="rgba(103,135,188,1)" stroke="rgba(0,0,0,1)" stroke-width="0.8" /><text x="158.5" y="353" font-size="11" fill="rgba(0,0,0,1)" font-family="serif" text-anchor="middle" dominant-baseline="middle">кубическая (соль)</text><circle cx="307" cy="320" r="13" fill="rgba(125,170,121,1)" stroke="rgba(0,0,0,1)" stroke-width="0.8" /><circle cx="334.5" cy="320" r="13" fill="rgba(125,170,121,1)" stroke="rgba(0,0,0,1)" stroke-width="0.8" /><circle cx="362" cy="320" r="13" fill="rgba(125,170,121,1)" stroke="rgba(0,0,0,1)" stroke-width="0.8" /><circle cx="320.75" cy="295.8" r="13" fill="rgba(125,170,121,1)" stroke="rgba(0,0,0,1)" stroke-width="0.8" /><circle cx="348.25" cy="295.8" r="13" fill="rgba(125,170,121,1)" stroke="rgba(0,0,0,1)" stroke-width="0.8" /><circle cx="375.75" cy="295.8" r="13" fill="rgba(125,170,121,1)" stroke="rgba(0,0,0,1)" stroke-width="0.8" /><circle cx="307" cy="271.6" r="13" fill="rgba(125,170,121,1)" stroke="rgba(0,0,0,1)" stroke-width="0.8" /><circle cx="334.5" cy="271.6" r="13" fill="rgba(125,170,121,1)" stroke="rgba(0,0,0,1)" stroke-width="0.8" /><circle cx="362" cy="271.6" r="13" fill="rgba(125,170,121,1)" stroke="rgba(0,0,0,1)" stroke-width="0.8" /><text x="348.25" y="353" font-size="11" fill="rgba(0,0,0,1)" font-family="serif" text-anchor="middle" dominant-baseline="middle">плотная (металлы)</text><line x1="538" y1="281.5" x2="567.17" y2="252.32999999999998" stroke="rgba(100,100,100,1)" stroke-width="1" /><circle cx="567.17" cy="252.33" r="7" fill="rgba(188,134,101,1)" stroke="rgba(0,0,0,1)" stroke-width="0.8" /><line x1="538" y1="281.5" x2="508.83" y2="252.32999999999998" stroke="rgba(100,100,100,1)" stroke-width="1" /><circle cx="508.83" cy="252.33" r="7" fill="rgba(188,134,101,1)" stroke="rgba(0,0,0,1)" stroke-width="0.8" /><line x1="538" y1="281.5" x2="508.83" y2="310.67" stroke="rgba(100,100,100,1)" stroke-width="1" /><circle cx="508.83" cy="310.67" r="7" fill="rgba(188,134,101,1)" stroke="rgba(0,0,0,1)" stroke-width="0.8" /><line x1="538" y1="281.5" x2="567.17" y2="310.67" stroke="rgba(100,100,100,1)" stroke-width="1" /><circle cx="567.17" cy="310.67" r="7" fill="rgba(188,134,101,1)" stroke="rgba(0,0,0,1)" stroke-width="0.8" /><circle cx="538" cy="281.5" r="7" fill="rgba(188,134,101,1)" stroke="rgba(0,0,0,1)" stroke-width="0.8" /><text x="538" y="353" font-size="11" fill="rgba(0,0,0,1)" font-family="serif" text-anchor="middle" dominant-baseline="middle">алмазная (Si): 4 соседа</text></svg>