<svg xmlns="http://www.w3.org/2000/svg" width="328pt" height="227.25pt" viewBox="96 152.5 328 227.25"><rect x="150" y="232" width="77" height="88" fill="rgba(243,139,168,0.2)" stroke="rgba(205,214,244,1)" stroke-width="1" /><text x="188.5" y="247.4" font-size="12" fill="rgba(205,214,244,1)" font-family="serif" text-anchor="middle" dominant-baseline="middle">p</text><rect x="227" y="232" width="66" height="88" fill="none" stroke="rgba(205,214,244,1)" stroke-width="1" /><rect x="293" y="232" width="77" height="88" fill="rgba(137,180,250,0.2)" stroke="rgba(205,214,244,1)" stroke-width="1" /><text x="331.5" y="247.4" font-size="12" fill="rgba(205,214,244,1)" font-family="serif" text-anchor="middle" dominant-baseline="middle">n</text><line x1="260" y1="160.5" x2="260" y2="219.6" stroke="rgba(234,179,8,1)" stroke-width="2.2" /><polygon points="260,227.6 256,220.6717967697245 264,220.6717967697245" fill="rgba(234,179,8,1)" /><text x="301.25" y="177" font-size="11" fill="rgba(181,147,8,1)" font-family="serif" text-anchor="middle" dominant-baseline="middle">фотон</text><circle cx="271" cy="276" r="3.5" fill="rgba(137,180,250,1)"  /><line x1="276.5" y1="276" x2="312.5" y2="276" stroke="rgba(137,180,250,1)" stroke-width="1.4" /><polygon points="320.5,276 313.5717967697245,280 313.5717967697245,272" fill="rgba(137,180,250,1)" /><circle cx="249" cy="276" r="4" fill="none" stroke="rgba(243,139,168,1)" stroke-width="1.3" stroke-dasharray="5 4" /><line x1="243.5" y1="276" x2="207.5" y2="276" stroke="rgba(243,139,168,1)" stroke-width="1.4" /><polygon points="199.5,276 206.4282032302755,272 206.4282032302755,280" fill="rgba(243,139,168,1)" /><text x="260" y="300.75" font-size="9" fill="rgba(127,132,156,1)" font-family="serif" text-anchor="middle" dominant-baseline="middle">поле растаскивает</text><line x1="337" y1="347.5" x2="191" y2="347.5" stroke="rgba(127,132,156,1)" stroke-width="1.4" /><polygon points="183,347.5 189.9282032302755,343.5 189.9282032302755,351.5" fill="rgba(127,132,156,1)" /><text x="260" y="366.75" font-size="10" fill="rgba(127,132,156,1)" font-family="serif" text-anchor="middle" dominant-baseline="middle">ток — в обратную сторону диода, пропорционален свету</text></svg>