<svg xmlns="http://www.w3.org/2000/svg" width="332.79999999999995pt" height="175.5pt" viewBox="66.1 182.75 332.79999999999995 175.5"><rect x="150" y="270.5" width="165" height="49.5" fill="rgba(103,135,188,0.2)" stroke="rgba(0,0,0,1)" stroke-width="1.2" /><line x1="117" y1="295.25" x2="150" y2="295.25" stroke="rgba(0,0,0,1)" stroke-width="1.7" /><line x1="315" y1="295.25" x2="348" y2="295.25" stroke="rgba(0,0,0,1)" stroke-width="1.7" /><line x1="188.5" y1="210" x2="188.5" y2="258.1" stroke="rgba(234,179,8,1)" stroke-width="2" /><polygon points="188.5,266.1 184.5,259.1717967697245 192.5,259.1717967697245" fill="rgba(234,179,8,1)" /><line x1="232.5" y1="210" x2="232.5" y2="258.1" stroke="rgba(234,179,8,1)" stroke-width="2" /><polygon points="232.5,266.1 228.5,259.1717967697245 236.5,259.1717967697245" fill="rgba(234,179,8,1)" /><line x1="276.5" y1="210" x2="276.5" y2="258.1" stroke="rgba(234,179,8,1)" stroke-width="2" /><polygon points="276.5,266.1 272.5,259.1717967697245 280.5,259.1717967697245" fill="rgba(234,179,8,1)" /><text x="232.5" y="196.25" font-size="11" fill="rgba(181,147,8,1)" font-family="serif" text-anchor="middle" dominant-baseline="middle">свет</text><circle cx="202.25" cy="295.25" r="3" fill="rgba(103,135,188,1)"  /><line x1="199.5" y1="295.25" x2="185.5" y2="295.25" stroke="rgba(103,135,188,1)" stroke-width="1.2" /><polygon points="177.5,295.25 184.4282032302755,291.25 184.4282032302755,299.25" fill="rgba(103,135,188,1)" /><circle cx="218.75" cy="295.25" r="4" fill="none" stroke="rgba(182,104,126,1)" stroke-width="1.3" stroke-dasharray="5 4" /><line x1="222.6" y1="295.25" x2="238.25" y2="295.25" stroke="rgba(182,104,126,1)" stroke-width="1.2" /><polygon points="246.25,295.25 239.3217967697245,299.25 239.3217967697245,291.25" fill="rgba(182,104,126,1)" /><circle cx="268.25" cy="285.9" r="3" fill="rgba(103,135,188,1)"  /><circle cx="284.75" cy="285.9" r="4" fill="none" stroke="rgba(182,104,126,1)" stroke-width="1.3" stroke-dasharray="5 4" /><text x="232.5" y="344.75" font-size="11" fill="rgba(100,100,100,1)" font-family="serif" text-anchor="middle" dominant-baseline="middle">каждый фотон рождает пару — сопротивление падает</text></svg>