<svg xmlns="http://www.w3.org/2000/svg" width="390.9pt" height="186.5pt" viewBox="132 163.5 390.9 186.5"><line x1="140" y1="320" x2="484" y2="320" stroke="rgba(127,132,156,1)" stroke-width="1" /><polygon points="492,320 485.0717967697245,324 485.0717967697245,316" fill="rgba(127,132,156,1)" /><line x1="156.5" y1="331" x2="156.5" y2="190.5" stroke="rgba(127,132,156,1)" stroke-width="1" /><polygon points="156.5,182.5 160.5,189.4282032302755 152.5,189.4282032302755" fill="rgba(127,132,156,1)" /><text x="504.1" y="323.85" font-size="12" fill="rgba(205,214,244,1)" font-family="serif" font-style="italic" text-anchor="middle" dominant-baseline="middle">E</text><text x="174.1" y="177" font-size="11" fill="rgba(205,214,244,1)" font-family="serif" text-anchor="middle" dominant-baseline="middle">доля</text><path d="M 156.5 199 C 158.27 202.25, 163.59 212.53, 167.13 218.5" fill="none" stroke="rgba(137,180,250,1)" stroke-width="2.2" /><path d="M 167.13 218.5 C 170.67 224.48, 174.22 229.85, 177.76 234.86" fill="none" stroke="rgba(137,180,250,1)" stroke-width="2.2" /><path d="M 177.77 234.86 C 181.31 239.87, 184.86 244.38000000000002, 188.4 248.58" fill="none" stroke="rgba(137,180,250,1)" stroke-width="2.2" /><path d="M 188.4 248.58 C 191.94 252.79000000000002, 195.49 256.56, 199.03 260.09000000000003" fill="none" stroke="rgba(137,180,250,1)" stroke-width="2.2" /><path d="M 199.03 260.09 C 202.57 263.61999999999995, 206.12 266.78999999999996, 209.66 269.75" fill="none" stroke="rgba(137,180,250,1)" stroke-width="2.2" /><path d="M 209.67 269.75 C 213.20999999999998 272.71, 216.76 275.37, 220.29999999999998 277.85" fill="none" stroke="rgba(137,180,250,1)" stroke-width="2.2" /><path d="M 220.3 277.85 C 223.84 280.33000000000004, 227.39000000000001 282.56, 230.93 284.64000000000004" fill="none" stroke="rgba(137,180,250,1)" stroke-width="2.2" /><path d="M 230.93 284.64 C 234.47 286.71999999999997, 238.02 288.59, 241.56 290.34" fill="none" stroke="rgba(137,180,250,1)" stroke-width="2.2" /><path d="M 241.57 290.34 C 245.10999999999999 292.09, 248.66 293.65999999999997, 252.2 295.11999999999995" fill="none" stroke="rgba(137,180,250,1)" stroke-width="2.2" /><path d="M 252.2 295.12 C 255.73999999999998 296.58, 259.28999999999996 297.9, 262.83 299.13" fill="none" stroke="rgba(137,180,250,1)" stroke-width="2.2" /><path d="M 262.83 299.13 C 266.37 300.36, 269.91999999999996 301.46, 273.46 302.49" fill="none" stroke="rgba(137,180,250,1)" stroke-width="2.2" /><path d="M 273.47 302.5 C 277.01000000000005 303.53, 280.56 304.46, 284.1 305.32" fill="none" stroke="rgba(137,180,250,1)" stroke-width="2.2" /><path d="M 284.1 305.32 C 287.64000000000004 306.18, 291.19 306.96, 294.73 307.69" fill="none" stroke="rgba(137,180,250,1)" stroke-width="2.2" /><path d="M 294.73 307.68 C 298.27000000000004 308.41, 301.82 309.06, 305.36 309.67" fill="none" stroke="rgba(137,180,250,1)" stroke-width="2.2" /><path d="M 305.37 309.67 C 308.91 310.28000000000003, 312.46 310.82, 316 311.34000000000003" fill="none" stroke="rgba(137,180,250,1)" stroke-width="2.2" /><path d="M 316 311.33 C 319.54 311.84, 323.09 312.3, 326.63 312.72999999999996" fill="none" stroke="rgba(137,180,250,1)" stroke-width="2.2" /><path d="M 326.63 312.73 C 330.17 313.16, 333.71999999999997 313.54, 337.26 313.90000000000003" fill="none" stroke="rgba(137,180,250,1)" stroke-width="2.2" /><path d="M 337.27 313.9 C 340.81 314.26, 344.35999999999996 314.58, 347.9 314.88" fill="none" stroke="rgba(137,180,250,1)" stroke-width="2.2" /><path d="M 347.9 314.89 C 351.44 315.19, 354.98999999999995 315.46, 358.53 315.71" fill="none" stroke="rgba(137,180,250,1)" stroke-width="2.2" /><path d="M 358.53 315.71 C 362.07 315.96, 365.61999999999995 316.19, 369.15999999999997 316.4" fill="none" stroke="rgba(137,180,250,1)" stroke-width="2.2" /><path d="M 369.17 316.4 C 372.71000000000004 316.60999999999996, 376.26 316.79999999999995, 379.8 316.97999999999996" fill="none" stroke="rgba(137,180,250,1)" stroke-width="2.2" /><path d="M 379.8 316.98 C 383.34000000000003 317.16, 386.89 317.32, 390.43 317.47" fill="none" stroke="rgba(137,180,250,1)" stroke-width="2.2" /><path d="M 390.43 317.47 C 393.97 317.62, 397.52 317.75, 401.06 317.88000000000005" fill="none" stroke="rgba(137,180,250,1)" stroke-width="2.2" /><path d="M 401.07 317.88 C 404.61 318.01, 408.15999999999997 318.12, 411.7 318.21999999999997" fill="none" stroke="rgba(137,180,250,1)" stroke-width="2.2" /><path d="M 411.7 318.22 C 415.24 318.32000000000005, 418.78999999999996 318.42, 422.33 318.51000000000005" fill="none" stroke="rgba(137,180,250,1)" stroke-width="2.2" /><path d="M 422.33 318.51 C 425.87 318.59999999999997, 429.41999999999996 318.68, 432.96 318.75" fill="none" stroke="rgba(137,180,250,1)" stroke-width="2.2" /><path d="M 432.97 318.75 C 436.51000000000005 318.82, 440.06 318.89, 443.6 318.95" fill="none" stroke="rgba(137,180,250,1)" stroke-width="2.2" /><path d="M 443.6 318.95 C 447.14000000000004 319.01, 450.69 319.07, 454.23 319.12" fill="none" stroke="rgba(137,180,250,1)" stroke-width="2.2" /><path d="M 454.23 319.12 C 457.77000000000004 319.17, 461.32 319.22, 464.86 319.26" fill="none" stroke="rgba(137,180,250,1)" stroke-width="2.2" /><path d="M 464.87 319.26 C 468.41 319.3, 473.73 319.36, 475.5 319.38" fill="none" stroke="rgba(137,180,250,1)" stroke-width="2.2" /><line x1="217" y1="320" x2="217" y2="275.49" stroke="rgba(127,132,156,1)" stroke-width="0.8" stroke-dasharray="5 4" /><text x="217" y="336.5" font-size="11" fill="rgba(205,214,244,1)" font-family="serif" text-anchor="middle" dominant-baseline="middle">1kT</text><line x1="277.5" y1="320" x2="277.5" y2="303.62" stroke="rgba(127,132,156,1)" stroke-width="0.8" stroke-dasharray="5 4" /><text x="277.5" y="336.5" font-size="11" fill="rgba(205,214,244,1)" font-family="serif" text-anchor="middle" dominant-baseline="middle">2kT</text><line x1="338" y1="320" x2="338" y2="313.98" stroke="rgba(127,132,156,1)" stroke-width="0.8" stroke-dasharray="5 4" /><text x="338" y="336.5" font-size="11" fill="rgba(205,214,244,1)" font-family="serif" text-anchor="middle" dominant-baseline="middle">3kT</text><line x1="398.5" y1="320" x2="398.5" y2="317.78" stroke="rgba(127,132,156,1)" stroke-width="0.8" stroke-dasharray="5 4" /><text x="398.5" y="336.5" font-size="11" fill="rgba(205,214,244,1)" font-family="serif" text-anchor="middle" dominant-baseline="middle">4kT</text><text x="343.5" y="234.75" font-size="11" fill="rgba(127,132,156,1)" font-family="serif" text-anchor="middle" dominant-baseline="middle">каждый шаг kT — делим на 2.7</text></svg>