<svg xmlns="http://www.w3.org/2000/svg" width="660pt" height="128.5pt" viewBox="72 199.5 660 128.5"><rect x="80" y="295" width="130" height="25" fill="rgba(100,100,100,1)" stroke="rgba(0,0,0,1)" stroke-width="0.7" /><rect x="80" y="282.5" width="130" height="12.5" fill="rgba(103,135,188,0.4)" stroke="rgba(0,0,0,1)" stroke-width="0.7" /><rect x="80" y="272.5" width="130" height="10" fill="rgba(182,104,126,0.4)" stroke="rgba(0,0,0,1)" stroke-width="0.7" /><text x="145" y="242.5" font-size="10" fill="rgba(0,0,0,1)" font-family="serif" text-anchor="middle" dominant-baseline="middle">1. окисел + лак</text><rect x="250" y="295" width="130" height="25" fill="rgba(100,100,100,1)" stroke="rgba(0,0,0,1)" stroke-width="0.7" /><rect x="250" y="282.5" width="130" height="12.5" fill="rgba(103,135,188,0.4)" stroke="rgba(0,0,0,1)" stroke-width="0.7" /><rect x="250" y="272.5" width="130" height="10" fill="rgba(182,104,126,0.4)" stroke="rgba(0,0,0,1)" stroke-width="0.7" /><rect x="290" y="241.5" width="50" height="6" fill="rgba(0,0,0,1)"  /><line x1="265" y1="227.5" x2="265" y2="259.5" stroke="rgba(152,125,185,1)" stroke-width="1.2" /><polygon points="265,267.5 261,260.5717967697245 269,260.5717967697245" fill="rgba(152,125,185,1)" /><line x1="280" y1="227.5" x2="280" y2="259.5" stroke="rgba(152,125,185,1)" stroke-width="1.2" /><polygon points="280,267.5 276,260.5717967697245 284,260.5717967697245" fill="rgba(152,125,185,1)" /><line x1="352.5" y1="227.5" x2="352.5" y2="259.5" stroke="rgba(152,125,185,1)" stroke-width="1.2" /><polygon points="352.5,267.5 348.5,260.5717967697245 356.5,260.5717967697245" fill="rgba(152,125,185,1)" /><line x1="367.5" y1="227.5" x2="367.5" y2="259.5" stroke="rgba(152,125,185,1)" stroke-width="1.2" /><polygon points="367.5,267.5 363.5,260.5717967697245 371.5,260.5717967697245" fill="rgba(152,125,185,1)" /><text x="315" y="212.5" font-size="10" fill="rgba(0,0,0,1)" font-family="serif" text-anchor="middle" dominant-baseline="middle">2. УФ сквозь шаблон</text><rect x="420" y="295" width="130" height="25" fill="rgba(100,100,100,1)" stroke="rgba(0,0,0,1)" stroke-width="0.7" /><rect x="420" y="282.5" width="40" height="12.5" fill="rgba(103,135,188,0.4)" stroke="rgba(0,0,0,1)" stroke-width="0.7" /><rect x="510" y="282.5" width="40" height="12.5" fill="rgba(103,135,188,0.4)" stroke="rgba(0,0,0,1)" stroke-width="0.7" /><text x="485" y="242.5" font-size="10" fill="rgba(0,0,0,1)" font-family="serif" text-anchor="middle" dominant-baseline="middle">3. окно протравлено</text><rect x="590" y="295" width="130" height="25" fill="rgba(100,100,100,1)" stroke="rgba(0,0,0,1)" stroke-width="0.7" /><rect x="590" y="282.5" width="40" height="12.5" fill="rgba(103,135,188,0.4)" stroke="rgba(0,0,0,1)" stroke-width="0.7" /><rect x="680" y="282.5" width="40" height="12.5" fill="rgba(103,135,188,0.4)" stroke="rgba(0,0,0,1)" stroke-width="0.7" /><rect x="630" y="295" width="50" height="16" fill="rgba(188,134,101,0.4)"  /><line x1="640" y1="255" x2="640" y2="281" stroke="rgba(188,134,101,1)" stroke-width="1.2" /><polygon points="640,289 636,282.0717967697245 644,282.0717967697245" fill="rgba(188,134,101,1)" /><line x1="655" y1="255" x2="655" y2="281" stroke="rgba(188,134,101,1)" stroke-width="1.2" /><polygon points="655,289 651,282.0717967697245 659,282.0717967697245" fill="rgba(188,134,101,1)" /><line x1="670" y1="255" x2="670" y2="281" stroke="rgba(188,134,101,1)" stroke-width="1.2" /><polygon points="670,289 666,282.0717967697245 674,282.0717967697245" fill="rgba(188,134,101,1)" /><text x="655" y="240" font-size="10" fill="rgba(0,0,0,1)" font-family="serif" text-anchor="middle" dominant-baseline="middle">4. бор в окно: p-остров</text></svg>