<svg xmlns="http://www.w3.org/2000/svg" width="329.55pt" height="192pt" viewBox="172 166 329.55 192"><line x1="180" y1="350" x2="180" y2="174" stroke="rgba(205,214,244,1)" stroke-width="3" /><line x1="400" y1="350" x2="400" y2="174" stroke="rgba(205,214,244,1)" stroke-width="3" /><line x1="180" y1="350" x2="400" y2="350" stroke="rgba(127,132,156,1)" stroke-width="1" /><line x1="180" y1="325.25" x2="400" y2="325.25" stroke="rgba(127,132,156,1)" stroke-width="0.8" stroke-dasharray="5 4" /><path d="M 180 325.25 C 259.2 299.65, 320.8 299.65, 400 325.25" fill="none" stroke="rgba(137,180,250,1)" stroke-width="2" /><text x="446.75" y="325.25" font-size="12" fill="rgba(137,180,250,1)" font-family="serif" font-style="italic" text-anchor="middle" dominant-baseline="middle">n = 1,  E₁</text><line x1="180" y1="267.5" x2="400" y2="267.5" stroke="rgba(127,132,156,1)" stroke-width="0.8" stroke-dasharray="5 4" /><path d="M 180 267.5 C 219.6 241.9, 250.4 241.9, 290 267.5" fill="none" stroke="rgba(166,227,161,1)" stroke-width="2" /><path d="M 290 267.5 C 329.6 293.1, 360.4 293.1, 400 267.5" fill="none" stroke="rgba(166,227,161,1)" stroke-width="2" /><text x="446.75" y="267.5" font-size="12" fill="rgba(166,227,161,1)" font-family="serif" font-style="italic" text-anchor="middle" dominant-baseline="middle">n = 2,  4E₁</text><line x1="180" y1="201.5" x2="400" y2="201.5" stroke="rgba(127,132,156,1)" stroke-width="0.8" stroke-dasharray="5 4" /><path d="M 180 201.5 C 206.4 175.9, 226.93 175.9, 253.32999999999998 201.5" fill="none" stroke="rgba(250,179,135,1)" stroke-width="2" /><path d="M 253.33 201.5 C 279.73 227.1, 300.26 227.1, 326.66 201.5" fill="none" stroke="rgba(250,179,135,1)" stroke-width="2" /><path d="M 326.67 201.5 C 353.07 175.9, 373.6 175.9, 400 201.5" fill="none" stroke="rgba(250,179,135,1)" stroke-width="2" /><text x="446.75" y="201.5" font-size="12" fill="rgba(250,179,135,1)" font-family="serif" font-style="italic" text-anchor="middle" dominant-baseline="middle">n = 3,  9E₁</text></svg>