<svg xmlns="http://www.w3.org/2000/svg" width="494pt" height="98.60000000000002pt" viewBox="100 262 494 98.60000000000002"><line x1="110.85" y1="330" x2="549.09" y2="330" stroke="rgba(0,0,0,1)" stroke-width="1.5" /><line x1="133.73" y1="333.85" x2="133.73" y2="326.15000000000003" stroke="rgba(100,100,100,1)" stroke-width="1" /><text x="133.73" y="347.6" font-size="10" fill="rgba(100,100,100,1)" font-family="serif" text-anchor="middle" dominant-baseline="middle">10⁵</text><line x1="221.73" y1="333.85" x2="221.73" y2="326.15000000000003" stroke="rgba(100,100,100,1)" stroke-width="1" /><text x="221.73" y="347.6" font-size="10" fill="rgba(100,100,100,1)" font-family="serif" text-anchor="middle" dominant-baseline="middle">1</text><line x1="309.73" y1="333.85" x2="309.73" y2="326.15000000000003" stroke="rgba(100,100,100,1)" stroke-width="1" /><text x="309.73" y="347.6" font-size="10" fill="rgba(100,100,100,1)" font-family="serif" text-anchor="middle" dominant-baseline="middle">10⁻⁵</text><line x1="397.73" y1="333.85" x2="397.73" y2="326.15000000000003" stroke="rgba(100,100,100,1)" stroke-width="1" /><text x="397.73" y="347.6" font-size="10" fill="rgba(100,100,100,1)" font-family="serif" text-anchor="middle" dominant-baseline="middle">10⁻¹⁰</text><line x1="485.73" y1="333.85" x2="485.73" y2="326.15000000000003" stroke="rgba(100,100,100,1)" stroke-width="1" /><text x="485.73" y="347.6" font-size="10" fill="rgba(100,100,100,1)" font-family="serif" text-anchor="middle" dominant-baseline="middle">10⁻¹⁵</text><text x="571" y="347.6" font-size="10" fill="rgba(100,100,100,1)" font-family="serif" text-anchor="middle" dominant-baseline="middle">См/см</text><circle cx="120" cy="330" r="4" fill="rgba(103,135,188,1)"  /><line x1="120" y1="324.5" x2="120" y2="305.8" stroke="rgba(100,100,100,1)" stroke-width="0.7" /><text x="120" y="295.9" font-size="10" fill="rgba(103,135,188,1)" font-family="serif" text-anchor="middle" dominant-baseline="middle">медь</text><circle cx="216.45" cy="330" r="4" fill="rgba(188,134,101,1)"  /><line x1="216.45" y1="324.5" x2="216.45" y2="284.9" stroke="rgba(100,100,100,1)" stroke-width="0.7" /><text x="216.45" y="275" font-size="10" fill="rgba(188,134,101,1)" font-family="serif" text-anchor="middle" dominant-baseline="middle">Si легированный</text><circle cx="318.88" cy="330" r="4" fill="rgba(125,170,121,1)"  /><line x1="318.88" y1="324.5" x2="318.88" y2="305.8" stroke="rgba(100,100,100,1)" stroke-width="0.7" /><text x="318.88" y="295.9" font-size="10" fill="rgba(125,170,121,1)" font-family="serif" text-anchor="middle" dominant-baseline="middle">Si чистый</text><circle cx="432.93" cy="330" r="4" fill="rgba(87,149,177,1)"  /><line x1="432.93" y1="324.5" x2="432.93" y2="284.9" stroke="rgba(100,100,100,1)" stroke-width="0.7" /><text x="432.93" y="275" font-size="10" fill="rgba(87,149,177,1)" font-family="serif" text-anchor="middle" dominant-baseline="middle">стекло</text><circle cx="538.53" cy="330" r="4" fill="rgba(182,104,126,1)"  /><line x1="538.53" y1="324.5" x2="538.53" y2="305.8" stroke="rgba(100,100,100,1)" stroke-width="0.7" /><text x="538.53" y="295.9" font-size="10" fill="rgba(182,104,126,1)" font-family="serif" text-anchor="middle" dominant-baseline="middle">кварц</text></svg>