<svg xmlns="http://www.w3.org/2000/svg" width="192pt" height="219.5pt" viewBox="204 204 192 219.5"><circle cx="300" cy="300" r="12" fill="rgba(103,135,188,0.2)" stroke="rgba(103,135,188,0.2)" stroke-width="1" /><text x="300" y="300" font-size="10" fill="rgba(103,135,188,1)" font-family="serif" text-anchor="middle" dominant-baseline="middle">+</text><line x1="316" y1="300" x2="380" y2="300" stroke="rgba(103,135,188,1)" stroke-width="1" /><polygon points="388,300 381.0717967697245,304 381.0717967697245,296" fill="rgba(103,135,188,1)" /><line x1="311" y1="289" x2="356.34314575050763" y2="243.65685424949237" stroke="rgba(103,135,188,1)" stroke-width="1" /><polygon points="362,238 359.92944763917984,245.72740661031256 354.2725933896875,240.07055236082016" fill="rgba(103,135,188,1)" /><line x1="300" y1="284" x2="300" y2="220" stroke="rgba(103,135,188,1)" stroke-width="1" /><polygon points="300,212 304,218.9282032302755 296,218.9282032302755" fill="rgba(103,135,188,1)" /><line x1="289" y1="289" x2="243.65685424949237" y2="243.65685424949237" stroke="rgba(103,135,188,1)" stroke-width="1" /><polygon points="238,238 245.72740661031256,240.07055236082016 240.07055236082016,245.72740661031256" fill="rgba(103,135,188,1)" /><line x1="284" y1="300" x2="220" y2="300" stroke="rgba(103,135,188,1)" stroke-width="1" /><polygon points="212,300 218.9282032302755,296 218.9282032302755,304" fill="rgba(103,135,188,1)" /><line x1="289" y1="311" x2="243.65685424949237" y2="356.34314575050763" stroke="rgba(103,135,188,1)" stroke-width="1" /><polygon points="238,362 240.07055236082016,354.2725933896875 245.72740661031256,359.92944763917984" fill="rgba(103,135,188,1)" /><line x1="300" y1="316" x2="300" y2="380" stroke="rgba(103,135,188,1)" stroke-width="1" /><polygon points="300,388 296,381.0717967697245 304,381.0717967697245" fill="rgba(103,135,188,1)" /><line x1="311" y1="311" x2="356.34314575050763" y2="356.34314575050763" stroke="rgba(103,135,188,1)" stroke-width="1" /><polygon points="362,362 354.2725933896875,359.92944763917984 359.92944763917984,354.2725933896875" fill="rgba(103,135,188,1)" /><text x="300" y="412" font-size="7" fill="rgba(100,100,100,1)" font-family="serif" text-anchor="middle" dominant-baseline="middle">силовые линии поля положительного заряда</text></svg>