<svg xmlns="http://www.w3.org/2000/svg" width="246pt" height="130pt" viewBox="172 238 246 130"><rect x="310" y="260" width="80" height="80" fill="none" stroke="rgba(0,0,0,1)" stroke-width="1.5" /><line x1="320" y1="260" x2="320" y2="340" stroke="rgba(0,0,0,1)" stroke-width="1" /><line x1="335" y1="260" x2="335" y2="340" stroke="rgba(0,0,0,1)" stroke-width="1" /><line x1="350" y1="260" x2="350" y2="340" stroke="rgba(0,0,0,1)" stroke-width="1" /><line x1="365" y1="260" x2="365" y2="340" stroke="rgba(0,0,0,1)" stroke-width="1" /><line x1="380" y1="260" x2="380" y2="340" stroke="rgba(0,0,0,1)" stroke-width="1" /><rect x="180" y="280" width="80" height="40" fill="rgba(103,135,188,0.2)" stroke="rgba(103,135,188,1)" stroke-width="1.5" /><line x1="220" y1="280" x2="220" y2="320" stroke="rgba(103,135,188,0.6)" stroke-width="1" /><text x="200" y="300" font-size="10" fill="rgba(103,135,188,1)" font-family="serif" text-anchor="middle" dominant-baseline="middle">N</text><text x="240" y="300" font-size="10" fill="rgba(100,100,100,1)" font-family="serif" text-anchor="middle" dominant-baseline="middle">S</text><line x1="200" y1="264" x2="242" y2="264" stroke="rgba(0,0,0,1)" stroke-width="1.5" /><polygon points="250,264 243.0717967697245,268 243.0717967697245,260" fill="rgba(0,0,0,1)" /><text x="210" y="252" font-size="6" fill="rgba(100,100,100,1)" font-family="serif" text-anchor="middle" dominant-baseline="middle">движение</text><line x1="260" y1="300" x2="272.5721864729179" y2="294.9711254108328" stroke="rgba(103,135,188,0.6)" stroke-width="1" /><polygon points="280,292 275.05288749638964,298.2869768471517 272.0817620855568,290.8591633200697" fill="rgba(103,135,188,0.6)" /><line x1="260" y1="300" x2="272" y2="300" stroke="rgba(103,135,188,0.6)" stroke-width="1" /><polygon points="280,300 273.0717967697245,304 273.0717967697245,296" fill="rgba(103,135,188,0.6)" /><line x1="260" y1="300" x2="272.5721864729179" y2="305.0288745891672" stroke="rgba(103,135,188,0.6)" stroke-width="1" /><polygon points="280,308 272.0817620855568,309.1408366799303 275.05288749638964,301.7130231528483" fill="rgba(103,135,188,0.6)" /><text x="350" y="250" font-size="8" fill="rgba(103,135,188,1)" font-family="serif" text-anchor="middle" dominant-baseline="middle">ЭДС</text><circle cx="400" cy="300" r="10" fill="none" stroke="rgba(0,0,0,1)" stroke-width="1" /><line x1="390" y1="300" x2="390" y2="260" stroke="rgba(0,0,0,1)" stroke-width="1" /><line x1="390" y1="260" x2="310" y2="260" stroke="rgba(0,0,0,1)" stroke-width="1" /><line x1="390" y1="340" x2="390" y2="360" stroke="rgba(0,0,0,1)" stroke-width="1" /><line x1="390" y1="360" x2="310" y2="360" stroke="rgba(0,0,0,1)" stroke-width="1" /><line x1="310" y1="340" x2="310" y2="360" stroke="rgba(0,0,0,1)" stroke-width="1" /><line x1="396" y1="296" x2="398.4" y2="300.8" stroke="rgba(0,0,0,1)" stroke-width="1" /><polygon points="400,304 393.3239045590344,299.592081028068 400.4793220870337,296.0143722640683" fill="rgba(0,0,0,1)" /></svg>