<svg xmlns="http://www.w3.org/2000/svg" width="478.79999999999995pt" height="244.5pt" viewBox="52 84 478.79999999999995 244.5"><line x1="60" y1="300" x2="492" y2="300" stroke="rgba(127,132,156,1)" stroke-width="1" /><polygon points="500,300 493.0717967697245,304 493.0717967697245,296" fill="rgba(127,132,156,1)" /><line x1="80" y1="320" x2="80" y2="118" stroke="rgba(127,132,156,1)" stroke-width="1" /><polygon points="80,110 84,116.92820323027551 76,116.92820323027551" fill="rgba(127,132,156,1)" /><text x="512" y="300" font-size="12" fill="rgba(205,214,244,1)" font-family="serif" font-style="italic" text-anchor="middle" dominant-baseline="middle">t</text><text x="80" y="98" font-size="12" fill="rgba(205,214,244,1)" font-family="serif" font-style="italic" text-anchor="middle" dominant-baseline="middle">E</text><line x1="80" y1="140" x2="480" y2="140" stroke="rgba(127,132,156,1)" stroke-width="1" /><text x="497" y="128" font-size="9" fill="rgba(127,132,156,1)" font-family="serif" font-style="italic" text-anchor="middle" dominant-baseline="middle">E</text><path d="M 80 140 C 120 140, 140 280, 180 280" fill="none" stroke="rgba(137,180,250,1)" stroke-width="2" /><path d="M 180 280 C 220 280, 240 140, 280 140" fill="none" stroke="rgba(137,180,250,1)" stroke-width="2" /><path d="M 280 140 C 320 140, 340 280, 380 280" fill="none" stroke="rgba(137,180,250,1)" stroke-width="2" /><path d="M 380 280 C 420 280, 440 140, 480 140" fill="none" stroke="rgba(137,180,250,1)" stroke-width="2" /><path d="M 80 280 C 120 280, 140 140, 180 140" fill="none" stroke="rgba(137,180,250,0.6)" stroke-width="2" /><path d="M 180 140 C 220 140, 240 280, 280 280" fill="none" stroke="rgba(137,180,250,0.6)" stroke-width="2" /><path d="M 280 280 C 320 280, 340 140, 380 140" fill="none" stroke="rgba(137,180,250,0.6)" stroke-width="2" /><path d="M 380 140 C 420 140, 440 280, 480 280" fill="none" stroke="rgba(137,180,250,0.6)" stroke-width="2" /><text x="280" y="124" font-size="10" fill="rgba(137,180,250,1)" font-family="serif" text-anchor="middle" dominant-baseline="middle">конденсатор</text><text x="180" y="124" font-size="10" fill="rgba(137,180,250,0.6)" font-family="serif" text-anchor="middle" dominant-baseline="middle">катушка</text><text x="192" y="316" font-size="9" fill="rgba(127,132,156,1)" font-family="serif" text-anchor="middle" dominant-baseline="middle">конденсатор пуст, ток максимален</text><line x1="180" y1="300" x2="180" y2="280" stroke="rgba(127,132,156,1)" stroke-width="1" stroke-dasharray="5 4" /></svg>