<svg xmlns="http://www.w3.org/2000/svg" width="376pt" height="103pt" viewBox="112 248.5 376 103"><rect x="140" y="288" width="320" height="24" fill="rgba(137,180,250,1)" stroke="rgba(127,132,156,1)" stroke-width="1" /><circle cx="160" cy="300" r="5" fill="rgba(137,180,250,0.4)" stroke="rgba(137,180,250,0.4)" stroke-width="0" /><circle cx="200" cy="300" r="5" fill="rgba(137,180,250,0.4)" stroke="rgba(137,180,250,0.4)" stroke-width="0" /><circle cx="240" cy="300" r="5" fill="rgba(137,180,250,0.4)" stroke="rgba(137,180,250,0.4)" stroke-width="0" /><circle cx="280" cy="300" r="5" fill="rgba(137,180,250,0.4)" stroke="rgba(137,180,250,0.4)" stroke-width="0" /><circle cx="320" cy="300" r="5" fill="rgba(137,180,250,0.4)" stroke="rgba(137,180,250,0.4)" stroke-width="0" /><circle cx="360" cy="300" r="5" fill="rgba(137,180,250,0.4)" stroke="rgba(137,180,250,0.4)" stroke-width="0" /><circle cx="400" cy="300" r="5" fill="rgba(137,180,250,0.4)" stroke="rgba(137,180,250,0.4)" stroke-width="0" /><circle cx="440" cy="300" r="5" fill="rgba(137,180,250,0.4)" stroke="rgba(137,180,250,0.4)" stroke-width="0" /><line x1="180" y1="320" x2="187.2" y2="320" stroke="rgba(137,180,250,1)" stroke-width="1" /><polygon points="192,320 185.0717967697245,324 185.0717967697245,316" fill="rgba(137,180,250,1)" /><line x1="220" y1="320" x2="227.2" y2="320" stroke="rgba(137,180,250,1)" stroke-width="1" /><polygon points="232,320 225.0717967697245,324 225.0717967697245,316" fill="rgba(137,180,250,1)" /><line x1="260" y1="320" x2="267.2" y2="320" stroke="rgba(137,180,250,1)" stroke-width="1" /><polygon points="272,320 265.0717967697245,324 265.0717967697245,316" fill="rgba(137,180,250,1)" /><line x1="300" y1="320" x2="307.2" y2="320" stroke="rgba(137,180,250,1)" stroke-width="1" /><polygon points="312,320 305.0717967697245,324 305.0717967697245,316" fill="rgba(137,180,250,1)" /><line x1="340" y1="320" x2="347.2" y2="320" stroke="rgba(137,180,250,1)" stroke-width="1" /><polygon points="352,320 345.0717967697245,324 345.0717967697245,316" fill="rgba(137,180,250,1)" /><line x1="380" y1="320" x2="387.2" y2="320" stroke="rgba(137,180,250,1)" stroke-width="1" /><polygon points="392,320 385.0717967697245,324 385.0717967697245,316" fill="rgba(137,180,250,1)" /><line x1="420" y1="320" x2="427.2" y2="320" stroke="rgba(137,180,250,1)" stroke-width="1" /><polygon points="432,320 425.0717967697245,324 425.0717967697245,316" fill="rgba(137,180,250,1)" /><text x="300" y="340" font-size="7" fill="rgba(137,180,250,0.6)" font-family="serif" text-anchor="middle" dominant-baseline="middle">все сдвигаются одновременно</text><line x1="120" y1="276" x2="472" y2="276" stroke="rgba(137,180,250,1)" stroke-width="1" /><polygon points="480,276 473.0717967697245,280 473.0717967697245,272" fill="rgba(137,180,250,1)" /><text x="300" y="260" font-size="7" fill="rgba(137,180,250,1)" font-family="serif" text-anchor="middle" dominant-baseline="middle">электрическое поле — мгновенно</text></svg>