<svg xmlns="http://www.w3.org/2000/svg" width="321.05pt" height="204.1pt" viewBox="142 133.9 321.05 204.1"><line x1="150" y1="209" x2="205" y2="209" stroke="rgba(205,214,244,1)" stroke-width="2" /><line x1="205" y1="209" x2="205" y2="330" stroke="rgba(205,214,244,1)" stroke-width="2" /><line x1="205" y1="330" x2="370" y2="330" stroke="rgba(205,214,244,1)" stroke-width="2" /><line x1="370" y1="330" x2="370" y2="209" stroke="rgba(205,214,244,1)" stroke-width="2" /><line x1="370" y1="209" x2="425" y2="209" stroke="rgba(205,214,244,1)" stroke-width="2" /><text x="444.25" y="209" font-size="12" fill="rgba(205,214,244,1)" font-family="serif" font-style="italic" text-anchor="middle" dominant-baseline="middle">W</text><line x1="209.4" y1="316.25" x2="365.6" y2="316.25" stroke="rgba(137,180,250,1)" stroke-width="1.7" /><text x="348" y="307.45" font-size="10" fill="rgba(137,180,250,1)" font-family="serif" font-style="italic" text-anchor="middle" dominant-baseline="middle">n=1</text><line x1="209.4" y1="277.75" x2="365.6" y2="277.75" stroke="rgba(137,180,250,1)" stroke-width="1.7" /><text x="348" y="268.95" font-size="10" fill="rgba(137,180,250,1)" font-family="serif" font-style="italic" text-anchor="middle" dominant-baseline="middle">n=2</text><line x1="209.4" y1="222.75" x2="365.6" y2="222.75" stroke="rgba(137,180,250,1)" stroke-width="1.7" /><text x="348" y="213.95" font-size="10" fill="rgba(137,180,250,1)" font-family="serif" font-style="italic" text-anchor="middle" dominant-baseline="middle">n=3</text><line x1="150" y1="196.9" x2="425" y2="196.9" stroke="rgba(127,132,156,1)" stroke-width="0.8" /><line x1="150" y1="187.55" x2="425" y2="187.55" stroke="rgba(127,132,156,1)" stroke-width="0.8" /><line x1="150" y1="178.2" x2="425" y2="178.2" stroke="rgba(127,132,156,1)" stroke-width="0.8" /><line x1="150" y1="168.85" x2="425" y2="168.85" stroke="rgba(127,132,156,1)" stroke-width="0.8" /><line x1="150" y1="159.5" x2="425" y2="159.5" stroke="rgba(127,132,156,1)" stroke-width="0.8" /><text x="287.5" y="147.4" font-size="11" fill="rgba(127,132,156,1)" font-family="serif" text-anchor="middle" dominant-baseline="middle">континуум: любая энергия</text><line x1="243.5" y1="222.75" x2="243.5" y2="186.75" stroke="rgba(243,139,168,1)" stroke-width="2" /><polygon points="243.5,178.75 247.5,185.6782032302755 239.5,185.6782032302755" fill="rgba(243,139,168,1)" /><text x="194" y="185.9" font-size="11" fill="rgba(243,139,168,1)" font-family="serif" text-anchor="middle" dominant-baseline="middle">вырывание</text></svg>